%TF.GenerationSoftware,KiCad,Pcbnew,7.0.9-7.0.9~ubuntu22.04.1*%
%TF.CreationDate,2023-12-21T18:53:40+01:00*%
%TF.ProjectId,lidar 2 round,6c696461-7220-4322-9072-6f756e642e6b,rev?*%
%TF.SameCoordinates,Original*%
%TF.FileFunction,Legend,Top*%
%TF.FilePolarity,Positive*%
%FSLAX46Y46*%
G04 Gerber Fmt 4.6, Leading zero omitted, Abs format (unit mm)*
G04 Created by KiCad (PCBNEW 7.0.9-7.0.9~ubuntu22.04.1) date 2023-12-21 18:53:40*
%MOMM*%
%LPD*%
G01*
G04 APERTURE LIST*
%ADD10C,0.100000*%
%ADD11C,0.150000*%
%ADD12C,0.050000*%
%ADD13C,0.120000*%
%ADD14C,0.200000*%
G04 APERTURE END LIST*
D10*
X125507561Y-82306609D02*
X125174228Y-81830418D01*
X124936133Y-82306609D02*
X124936133Y-81306609D01*
X124936133Y-81306609D02*
X125317085Y-81306609D01*
X125317085Y-81306609D02*
X125412323Y-81354228D01*
X125412323Y-81354228D02*
X125459942Y-81401847D01*
X125459942Y-81401847D02*
X125507561Y-81497085D01*
X125507561Y-81497085D02*
X125507561Y-81639942D01*
X125507561Y-81639942D02*
X125459942Y-81735180D01*
X125459942Y-81735180D02*
X125412323Y-81782799D01*
X125412323Y-81782799D02*
X125317085Y-81830418D01*
X125317085Y-81830418D02*
X124936133Y-81830418D01*
X125936133Y-81782799D02*
X126269466Y-81782799D01*
X126412323Y-82306609D02*
X125936133Y-82306609D01*
X125936133Y-82306609D02*
X125936133Y-81306609D01*
X125936133Y-81306609D02*
X126412323Y-81306609D01*
X126793276Y-82258990D02*
X126936133Y-82306609D01*
X126936133Y-82306609D02*
X127174228Y-82306609D01*
X127174228Y-82306609D02*
X127269466Y-82258990D01*
X127269466Y-82258990D02*
X127317085Y-82211370D01*
X127317085Y-82211370D02*
X127364704Y-82116132D01*
X127364704Y-82116132D02*
X127364704Y-82020894D01*
X127364704Y-82020894D02*
X127317085Y-81925656D01*
X127317085Y-81925656D02*
X127269466Y-81878037D01*
X127269466Y-81878037D02*
X127174228Y-81830418D01*
X127174228Y-81830418D02*
X126983752Y-81782799D01*
X126983752Y-81782799D02*
X126888514Y-81735180D01*
X126888514Y-81735180D02*
X126840895Y-81687561D01*
X126840895Y-81687561D02*
X126793276Y-81592323D01*
X126793276Y-81592323D02*
X126793276Y-81497085D01*
X126793276Y-81497085D02*
X126840895Y-81401847D01*
X126840895Y-81401847D02*
X126888514Y-81354228D01*
X126888514Y-81354228D02*
X126983752Y-81306609D01*
X126983752Y-81306609D02*
X127221847Y-81306609D01*
X127221847Y-81306609D02*
X127364704Y-81354228D01*
X127793276Y-81782799D02*
X128126609Y-81782799D01*
X128269466Y-82306609D02*
X127793276Y-82306609D01*
X127793276Y-82306609D02*
X127793276Y-81306609D01*
X127793276Y-81306609D02*
X128269466Y-81306609D01*
X128555181Y-81306609D02*
X129126609Y-81306609D01*
X128840895Y-82306609D02*
X128840895Y-81306609D01*
X132831062Y-97595758D02*
X133402490Y-97595758D01*
X133116776Y-98595758D02*
X133116776Y-97595758D01*
X133735824Y-98595758D02*
X133735824Y-97929091D01*
X133735824Y-97595758D02*
X133688205Y-97643377D01*
X133688205Y-97643377D02*
X133735824Y-97690996D01*
X133735824Y-97690996D02*
X133783443Y-97643377D01*
X133783443Y-97643377D02*
X133735824Y-97595758D01*
X133735824Y-97595758D02*
X133735824Y-97690996D01*
X134212014Y-98595758D02*
X134212014Y-97929091D01*
X134212014Y-98024329D02*
X134259633Y-97976710D01*
X134259633Y-97976710D02*
X134354871Y-97929091D01*
X134354871Y-97929091D02*
X134497728Y-97929091D01*
X134497728Y-97929091D02*
X134592966Y-97976710D01*
X134592966Y-97976710D02*
X134640585Y-98071948D01*
X134640585Y-98071948D02*
X134640585Y-98595758D01*
X134640585Y-98071948D02*
X134688204Y-97976710D01*
X134688204Y-97976710D02*
X134783442Y-97929091D01*
X134783442Y-97929091D02*
X134926299Y-97929091D01*
X134926299Y-97929091D02*
X135021538Y-97976710D01*
X135021538Y-97976710D02*
X135069157Y-98071948D01*
X135069157Y-98071948D02*
X135069157Y-98595758D01*
X135926299Y-98548139D02*
X135831061Y-98595758D01*
X135831061Y-98595758D02*
X135640585Y-98595758D01*
X135640585Y-98595758D02*
X135545347Y-98548139D01*
X135545347Y-98548139D02*
X135497728Y-98452900D01*
X135497728Y-98452900D02*
X135497728Y-98071948D01*
X135497728Y-98071948D02*
X135545347Y-97976710D01*
X135545347Y-97976710D02*
X135640585Y-97929091D01*
X135640585Y-97929091D02*
X135831061Y-97929091D01*
X135831061Y-97929091D02*
X135926299Y-97976710D01*
X135926299Y-97976710D02*
X135973918Y-98071948D01*
X135973918Y-98071948D02*
X135973918Y-98167186D01*
X135973918Y-98167186D02*
X135497728Y-98262424D01*
X135069156Y-100205758D02*
X134973918Y-100158139D01*
X134973918Y-100158139D02*
X134926299Y-100110519D01*
X134926299Y-100110519D02*
X134878680Y-100015281D01*
X134878680Y-100015281D02*
X134878680Y-99729567D01*
X134878680Y-99729567D02*
X134926299Y-99634329D01*
X134926299Y-99634329D02*
X134973918Y-99586710D01*
X134973918Y-99586710D02*
X135069156Y-99539091D01*
X135069156Y-99539091D02*
X135212013Y-99539091D01*
X135212013Y-99539091D02*
X135307251Y-99586710D01*
X135307251Y-99586710D02*
X135354870Y-99634329D01*
X135354870Y-99634329D02*
X135402489Y-99729567D01*
X135402489Y-99729567D02*
X135402489Y-100015281D01*
X135402489Y-100015281D02*
X135354870Y-100110519D01*
X135354870Y-100110519D02*
X135307251Y-100158139D01*
X135307251Y-100158139D02*
X135212013Y-100205758D01*
X135212013Y-100205758D02*
X135069156Y-100205758D01*
X135688204Y-99539091D02*
X136069156Y-99539091D01*
X135831061Y-100205758D02*
X135831061Y-99348615D01*
X135831061Y-99348615D02*
X135878680Y-99253377D01*
X135878680Y-99253377D02*
X135973918Y-99205758D01*
X135973918Y-99205758D02*
X136069156Y-99205758D01*
X132497727Y-101291948D02*
X132164394Y-101291948D01*
X132164394Y-101815758D02*
X132164394Y-100815758D01*
X132164394Y-100815758D02*
X132640584Y-100815758D01*
X133164394Y-101815758D02*
X133069156Y-101768139D01*
X133069156Y-101768139D02*
X133021537Y-101672900D01*
X133021537Y-101672900D02*
X133021537Y-100815758D01*
X133545347Y-101815758D02*
X133545347Y-101149091D01*
X133545347Y-100815758D02*
X133497728Y-100863377D01*
X133497728Y-100863377D02*
X133545347Y-100910996D01*
X133545347Y-100910996D02*
X133592966Y-100863377D01*
X133592966Y-100863377D02*
X133545347Y-100815758D01*
X133545347Y-100815758D02*
X133545347Y-100910996D01*
X134450108Y-101149091D02*
X134450108Y-101958615D01*
X134450108Y-101958615D02*
X134402489Y-102053853D01*
X134402489Y-102053853D02*
X134354870Y-102101472D01*
X134354870Y-102101472D02*
X134259632Y-102149091D01*
X134259632Y-102149091D02*
X134116775Y-102149091D01*
X134116775Y-102149091D02*
X134021537Y-102101472D01*
X134450108Y-101768139D02*
X134354870Y-101815758D01*
X134354870Y-101815758D02*
X134164394Y-101815758D01*
X134164394Y-101815758D02*
X134069156Y-101768139D01*
X134069156Y-101768139D02*
X134021537Y-101720519D01*
X134021537Y-101720519D02*
X133973918Y-101625281D01*
X133973918Y-101625281D02*
X133973918Y-101339567D01*
X133973918Y-101339567D02*
X134021537Y-101244329D01*
X134021537Y-101244329D02*
X134069156Y-101196710D01*
X134069156Y-101196710D02*
X134164394Y-101149091D01*
X134164394Y-101149091D02*
X134354870Y-101149091D01*
X134354870Y-101149091D02*
X134450108Y-101196710D01*
X134926299Y-101815758D02*
X134926299Y-100815758D01*
X135354870Y-101815758D02*
X135354870Y-101291948D01*
X135354870Y-101291948D02*
X135307251Y-101196710D01*
X135307251Y-101196710D02*
X135212013Y-101149091D01*
X135212013Y-101149091D02*
X135069156Y-101149091D01*
X135069156Y-101149091D02*
X134973918Y-101196710D01*
X134973918Y-101196710D02*
X134926299Y-101244329D01*
X135688204Y-101149091D02*
X136069156Y-101149091D01*
X135831061Y-100815758D02*
X135831061Y-101672900D01*
X135831061Y-101672900D02*
X135878680Y-101768139D01*
X135878680Y-101768139D02*
X135973918Y-101815758D01*
X135973918Y-101815758D02*
X136069156Y-101815758D01*
X165247551Y-106907800D02*
X165866598Y-106907800D01*
X165866598Y-106907800D02*
X165533265Y-107288752D01*
X165533265Y-107288752D02*
X165676122Y-107288752D01*
X165676122Y-107288752D02*
X165771360Y-107336371D01*
X165771360Y-107336371D02*
X165818979Y-107383990D01*
X165818979Y-107383990D02*
X165866598Y-107479228D01*
X165866598Y-107479228D02*
X165866598Y-107717323D01*
X165866598Y-107717323D02*
X165818979Y-107812561D01*
X165818979Y-107812561D02*
X165771360Y-107860181D01*
X165771360Y-107860181D02*
X165676122Y-107907800D01*
X165676122Y-107907800D02*
X165390408Y-107907800D01*
X165390408Y-107907800D02*
X165295170Y-107860181D01*
X165295170Y-107860181D02*
X165247551Y-107812561D01*
X166199932Y-107241133D02*
X166438027Y-107907800D01*
X166438027Y-107907800D02*
X166676122Y-107241133D01*
X166961837Y-106907800D02*
X167580884Y-106907800D01*
X167580884Y-106907800D02*
X167247551Y-107288752D01*
X167247551Y-107288752D02*
X167390408Y-107288752D01*
X167390408Y-107288752D02*
X167485646Y-107336371D01*
X167485646Y-107336371D02*
X167533265Y-107383990D01*
X167533265Y-107383990D02*
X167580884Y-107479228D01*
X167580884Y-107479228D02*
X167580884Y-107717323D01*
X167580884Y-107717323D02*
X167533265Y-107812561D01*
X167533265Y-107812561D02*
X167485646Y-107860181D01*
X167485646Y-107860181D02*
X167390408Y-107907800D01*
X167390408Y-107907800D02*
X167104694Y-107907800D01*
X167104694Y-107907800D02*
X167009456Y-107860181D01*
X167009456Y-107860181D02*
X166961837Y-107812561D01*
X165914217Y-109517800D02*
X165580884Y-109041609D01*
X165342789Y-109517800D02*
X165342789Y-108517800D01*
X165342789Y-108517800D02*
X165723741Y-108517800D01*
X165723741Y-108517800D02*
X165818979Y-108565419D01*
X165818979Y-108565419D02*
X165866598Y-108613038D01*
X165866598Y-108613038D02*
X165914217Y-108708276D01*
X165914217Y-108708276D02*
X165914217Y-108851133D01*
X165914217Y-108851133D02*
X165866598Y-108946371D01*
X165866598Y-108946371D02*
X165818979Y-108993990D01*
X165818979Y-108993990D02*
X165723741Y-109041609D01*
X165723741Y-109041609D02*
X165342789Y-109041609D01*
X166247551Y-108517800D02*
X166914217Y-109517800D01*
X166914217Y-108517800D02*
X166247551Y-109517800D01*
X165199932Y-110127800D02*
X165771360Y-110127800D01*
X165485646Y-111127800D02*
X165485646Y-110127800D01*
X166009456Y-110127800D02*
X166676122Y-111127800D01*
X166676122Y-110127800D02*
X166009456Y-111127800D01*
X165866598Y-111785419D02*
X165771360Y-111737800D01*
X165771360Y-111737800D02*
X165628503Y-111737800D01*
X165628503Y-111737800D02*
X165485646Y-111785419D01*
X165485646Y-111785419D02*
X165390408Y-111880657D01*
X165390408Y-111880657D02*
X165342789Y-111975895D01*
X165342789Y-111975895D02*
X165295170Y-112166371D01*
X165295170Y-112166371D02*
X165295170Y-112309228D01*
X165295170Y-112309228D02*
X165342789Y-112499704D01*
X165342789Y-112499704D02*
X165390408Y-112594942D01*
X165390408Y-112594942D02*
X165485646Y-112690181D01*
X165485646Y-112690181D02*
X165628503Y-112737800D01*
X165628503Y-112737800D02*
X165723741Y-112737800D01*
X165723741Y-112737800D02*
X165866598Y-112690181D01*
X165866598Y-112690181D02*
X165914217Y-112642561D01*
X165914217Y-112642561D02*
X165914217Y-112309228D01*
X165914217Y-112309228D02*
X165723741Y-112309228D01*
X166342789Y-112737800D02*
X166342789Y-111737800D01*
X166342789Y-111737800D02*
X166914217Y-112737800D01*
X166914217Y-112737800D02*
X166914217Y-111737800D01*
X167390408Y-112737800D02*
X167390408Y-111737800D01*
X167390408Y-111737800D02*
X167628503Y-111737800D01*
X167628503Y-111737800D02*
X167771360Y-111785419D01*
X167771360Y-111785419D02*
X167866598Y-111880657D01*
X167866598Y-111880657D02*
X167914217Y-111975895D01*
X167914217Y-111975895D02*
X167961836Y-112166371D01*
X167961836Y-112166371D02*
X167961836Y-112309228D01*
X167961836Y-112309228D02*
X167914217Y-112499704D01*
X167914217Y-112499704D02*
X167866598Y-112594942D01*
X167866598Y-112594942D02*
X167771360Y-112690181D01*
X167771360Y-112690181D02*
X167628503Y-112737800D01*
X167628503Y-112737800D02*
X167390408Y-112737800D01*
X127978605Y-125690559D02*
X128121462Y-125738178D01*
X128121462Y-125738178D02*
X128359557Y-125738178D01*
X128359557Y-125738178D02*
X128454795Y-125690559D01*
X128454795Y-125690559D02*
X128502414Y-125642939D01*
X128502414Y-125642939D02*
X128550033Y-125547701D01*
X128550033Y-125547701D02*
X128550033Y-125452463D01*
X128550033Y-125452463D02*
X128502414Y-125357225D01*
X128502414Y-125357225D02*
X128454795Y-125309606D01*
X128454795Y-125309606D02*
X128359557Y-125261987D01*
X128359557Y-125261987D02*
X128169081Y-125214368D01*
X128169081Y-125214368D02*
X128073843Y-125166749D01*
X128073843Y-125166749D02*
X128026224Y-125119130D01*
X128026224Y-125119130D02*
X127978605Y-125023892D01*
X127978605Y-125023892D02*
X127978605Y-124928654D01*
X127978605Y-124928654D02*
X128026224Y-124833416D01*
X128026224Y-124833416D02*
X128073843Y-124785797D01*
X128073843Y-124785797D02*
X128169081Y-124738178D01*
X128169081Y-124738178D02*
X128407176Y-124738178D01*
X128407176Y-124738178D02*
X128550033Y-124785797D01*
X128835748Y-124738178D02*
X129407176Y-124738178D01*
X129121462Y-125738178D02*
X129121462Y-124738178D01*
X129692891Y-125452463D02*
X130169081Y-125452463D01*
X129597653Y-125738178D02*
X129930986Y-124738178D01*
X129930986Y-124738178D02*
X130264319Y-125738178D01*
X130454796Y-124738178D02*
X131026224Y-124738178D01*
X130740510Y-125738178D02*
X130740510Y-124738178D01*
X131359558Y-124738178D02*
X131359558Y-125547701D01*
X131359558Y-125547701D02*
X131407177Y-125642939D01*
X131407177Y-125642939D02*
X131454796Y-125690559D01*
X131454796Y-125690559D02*
X131550034Y-125738178D01*
X131550034Y-125738178D02*
X131740510Y-125738178D01*
X131740510Y-125738178D02*
X131835748Y-125690559D01*
X131835748Y-125690559D02*
X131883367Y-125642939D01*
X131883367Y-125642939D02*
X131930986Y-125547701D01*
X131930986Y-125547701D02*
X131930986Y-124738178D01*
X132359558Y-125690559D02*
X132502415Y-125738178D01*
X132502415Y-125738178D02*
X132740510Y-125738178D01*
X132740510Y-125738178D02*
X132835748Y-125690559D01*
X132835748Y-125690559D02*
X132883367Y-125642939D01*
X132883367Y-125642939D02*
X132930986Y-125547701D01*
X132930986Y-125547701D02*
X132930986Y-125452463D01*
X132930986Y-125452463D02*
X132883367Y-125357225D01*
X132883367Y-125357225D02*
X132835748Y-125309606D01*
X132835748Y-125309606D02*
X132740510Y-125261987D01*
X132740510Y-125261987D02*
X132550034Y-125214368D01*
X132550034Y-125214368D02*
X132454796Y-125166749D01*
X132454796Y-125166749D02*
X132407177Y-125119130D01*
X132407177Y-125119130D02*
X132359558Y-125023892D01*
X132359558Y-125023892D02*
X132359558Y-124928654D01*
X132359558Y-124928654D02*
X132407177Y-124833416D01*
X132407177Y-124833416D02*
X132454796Y-124785797D01*
X132454796Y-124785797D02*
X132550034Y-124738178D01*
X132550034Y-124738178D02*
X132788129Y-124738178D01*
X132788129Y-124738178D02*
X132930986Y-124785797D01*
X162958278Y-93832688D02*
X162958278Y-92832688D01*
X162958278Y-93308878D02*
X163529706Y-93308878D01*
X163529706Y-93832688D02*
X163529706Y-92832688D01*
X163958278Y-93546973D02*
X164434468Y-93546973D01*
X163863040Y-93832688D02*
X164196373Y-92832688D01*
X164196373Y-92832688D02*
X164529706Y-93832688D01*
X165339230Y-93832688D02*
X164863040Y-93832688D01*
X164863040Y-93832688D02*
X164863040Y-92832688D01*
X166148754Y-93832688D02*
X165672564Y-93832688D01*
X165672564Y-93832688D02*
X165672564Y-92832688D01*
X162958278Y-94918878D02*
X163291611Y-94918878D01*
X163434468Y-95442688D02*
X162958278Y-95442688D01*
X162958278Y-95442688D02*
X162958278Y-94442688D01*
X162958278Y-94442688D02*
X163434468Y-94442688D01*
X164196373Y-94918878D02*
X163863040Y-94918878D01*
X163863040Y-95442688D02*
X163863040Y-94442688D01*
X163863040Y-94442688D02*
X164339230Y-94442688D01*
X165053516Y-94918878D02*
X164720183Y-94918878D01*
X164720183Y-95442688D02*
X164720183Y-94442688D01*
X164720183Y-94442688D02*
X165196373Y-94442688D01*
X165577326Y-94918878D02*
X165910659Y-94918878D01*
X166053516Y-95442688D02*
X165577326Y-95442688D01*
X165577326Y-95442688D02*
X165577326Y-94442688D01*
X165577326Y-94442688D02*
X166053516Y-94442688D01*
X167053516Y-95347449D02*
X167005897Y-95395069D01*
X167005897Y-95395069D02*
X166863040Y-95442688D01*
X166863040Y-95442688D02*
X166767802Y-95442688D01*
X166767802Y-95442688D02*
X166624945Y-95395069D01*
X166624945Y-95395069D02*
X166529707Y-95299830D01*
X166529707Y-95299830D02*
X166482088Y-95204592D01*
X166482088Y-95204592D02*
X166434469Y-95014116D01*
X166434469Y-95014116D02*
X166434469Y-94871259D01*
X166434469Y-94871259D02*
X166482088Y-94680783D01*
X166482088Y-94680783D02*
X166529707Y-94585545D01*
X166529707Y-94585545D02*
X166624945Y-94490307D01*
X166624945Y-94490307D02*
X166767802Y-94442688D01*
X166767802Y-94442688D02*
X166863040Y-94442688D01*
X166863040Y-94442688D02*
X167005897Y-94490307D01*
X167005897Y-94490307D02*
X167053516Y-94537926D01*
X167339231Y-94442688D02*
X167910659Y-94442688D01*
X167624945Y-95442688D02*
X167624945Y-94442688D01*
X162910659Y-97005069D02*
X163053516Y-97052688D01*
X163053516Y-97052688D02*
X163291611Y-97052688D01*
X163291611Y-97052688D02*
X163386849Y-97005069D01*
X163386849Y-97005069D02*
X163434468Y-96957449D01*
X163434468Y-96957449D02*
X163482087Y-96862211D01*
X163482087Y-96862211D02*
X163482087Y-96766973D01*
X163482087Y-96766973D02*
X163434468Y-96671735D01*
X163434468Y-96671735D02*
X163386849Y-96624116D01*
X163386849Y-96624116D02*
X163291611Y-96576497D01*
X163291611Y-96576497D02*
X163101135Y-96528878D01*
X163101135Y-96528878D02*
X163005897Y-96481259D01*
X163005897Y-96481259D02*
X162958278Y-96433640D01*
X162958278Y-96433640D02*
X162910659Y-96338402D01*
X162910659Y-96338402D02*
X162910659Y-96243164D01*
X162910659Y-96243164D02*
X162958278Y-96147926D01*
X162958278Y-96147926D02*
X163005897Y-96100307D01*
X163005897Y-96100307D02*
X163101135Y-96052688D01*
X163101135Y-96052688D02*
X163339230Y-96052688D01*
X163339230Y-96052688D02*
X163482087Y-96100307D01*
X163910659Y-96528878D02*
X164243992Y-96528878D01*
X164386849Y-97052688D02*
X163910659Y-97052688D01*
X163910659Y-97052688D02*
X163910659Y-96052688D01*
X163910659Y-96052688D02*
X164386849Y-96052688D01*
X164815421Y-97052688D02*
X164815421Y-96052688D01*
X164815421Y-96052688D02*
X165386849Y-97052688D01*
X165386849Y-97052688D02*
X165386849Y-96052688D01*
X165815421Y-97005069D02*
X165958278Y-97052688D01*
X165958278Y-97052688D02*
X166196373Y-97052688D01*
X166196373Y-97052688D02*
X166291611Y-97005069D01*
X166291611Y-97005069D02*
X166339230Y-96957449D01*
X166339230Y-96957449D02*
X166386849Y-96862211D01*
X166386849Y-96862211D02*
X166386849Y-96766973D01*
X166386849Y-96766973D02*
X166339230Y-96671735D01*
X166339230Y-96671735D02*
X166291611Y-96624116D01*
X166291611Y-96624116D02*
X166196373Y-96576497D01*
X166196373Y-96576497D02*
X166005897Y-96528878D01*
X166005897Y-96528878D02*
X165910659Y-96481259D01*
X165910659Y-96481259D02*
X165863040Y-96433640D01*
X165863040Y-96433640D02*
X165815421Y-96338402D01*
X165815421Y-96338402D02*
X165815421Y-96243164D01*
X165815421Y-96243164D02*
X165863040Y-96147926D01*
X165863040Y-96147926D02*
X165910659Y-96100307D01*
X165910659Y-96100307D02*
X166005897Y-96052688D01*
X166005897Y-96052688D02*
X166243992Y-96052688D01*
X166243992Y-96052688D02*
X166386849Y-96100307D01*
X167005897Y-96052688D02*
X167196373Y-96052688D01*
X167196373Y-96052688D02*
X167291611Y-96100307D01*
X167291611Y-96100307D02*
X167386849Y-96195545D01*
X167386849Y-96195545D02*
X167434468Y-96386021D01*
X167434468Y-96386021D02*
X167434468Y-96719354D01*
X167434468Y-96719354D02*
X167386849Y-96909830D01*
X167386849Y-96909830D02*
X167291611Y-97005069D01*
X167291611Y-97005069D02*
X167196373Y-97052688D01*
X167196373Y-97052688D02*
X167005897Y-97052688D01*
X167005897Y-97052688D02*
X166910659Y-97005069D01*
X166910659Y-97005069D02*
X166815421Y-96909830D01*
X166815421Y-96909830D02*
X166767802Y-96719354D01*
X166767802Y-96719354D02*
X166767802Y-96386021D01*
X166767802Y-96386021D02*
X166815421Y-96195545D01*
X166815421Y-96195545D02*
X166910659Y-96100307D01*
X166910659Y-96100307D02*
X167005897Y-96052688D01*
X168434468Y-97052688D02*
X168101135Y-96576497D01*
X167863040Y-97052688D02*
X167863040Y-96052688D01*
X167863040Y-96052688D02*
X168243992Y-96052688D01*
X168243992Y-96052688D02*
X168339230Y-96100307D01*
X168339230Y-96100307D02*
X168386849Y-96147926D01*
X168386849Y-96147926D02*
X168434468Y-96243164D01*
X168434468Y-96243164D02*
X168434468Y-96386021D01*
X168434468Y-96386021D02*
X168386849Y-96481259D01*
X168386849Y-96481259D02*
X168339230Y-96528878D01*
X168339230Y-96528878D02*
X168243992Y-96576497D01*
X168243992Y-96576497D02*
X167863040Y-96576497D01*
X110846636Y-107252264D02*
X111418064Y-107252264D01*
X111132350Y-108252264D02*
X111132350Y-107252264D01*
X112322826Y-108157025D02*
X112275207Y-108204645D01*
X112275207Y-108204645D02*
X112132350Y-108252264D01*
X112132350Y-108252264D02*
X112037112Y-108252264D01*
X112037112Y-108252264D02*
X111894255Y-108204645D01*
X111894255Y-108204645D02*
X111799017Y-108109406D01*
X111799017Y-108109406D02*
X111751398Y-108014168D01*
X111751398Y-108014168D02*
X111703779Y-107823692D01*
X111703779Y-107823692D02*
X111703779Y-107680835D01*
X111703779Y-107680835D02*
X111751398Y-107490359D01*
X111751398Y-107490359D02*
X111799017Y-107395121D01*
X111799017Y-107395121D02*
X111894255Y-107299883D01*
X111894255Y-107299883D02*
X112037112Y-107252264D01*
X112037112Y-107252264D02*
X112132350Y-107252264D01*
X112132350Y-107252264D02*
X112275207Y-107299883D01*
X112275207Y-107299883D02*
X112322826Y-107347502D01*
X112751398Y-108252264D02*
X112751398Y-107252264D01*
X113322826Y-108252264D02*
X112894255Y-107680835D01*
X113322826Y-107252264D02*
X112751398Y-107823692D01*
X110846636Y-108862264D02*
X111418064Y-108862264D01*
X111132350Y-109862264D02*
X111132350Y-108862264D01*
X111751398Y-109862264D02*
X111751398Y-108862264D01*
X111751398Y-108862264D02*
X111989493Y-108862264D01*
X111989493Y-108862264D02*
X112132350Y-108909883D01*
X112132350Y-108909883D02*
X112227588Y-109005121D01*
X112227588Y-109005121D02*
X112275207Y-109100359D01*
X112275207Y-109100359D02*
X112322826Y-109290835D01*
X112322826Y-109290835D02*
X112322826Y-109433692D01*
X112322826Y-109433692D02*
X112275207Y-109624168D01*
X112275207Y-109624168D02*
X112227588Y-109719406D01*
X112227588Y-109719406D02*
X112132350Y-109814645D01*
X112132350Y-109814645D02*
X111989493Y-109862264D01*
X111989493Y-109862264D02*
X111751398Y-109862264D01*
X112941874Y-108862264D02*
X113132350Y-108862264D01*
X113132350Y-108862264D02*
X113227588Y-108909883D01*
X113227588Y-108909883D02*
X113322826Y-109005121D01*
X113322826Y-109005121D02*
X113370445Y-109195597D01*
X113370445Y-109195597D02*
X113370445Y-109528930D01*
X113370445Y-109528930D02*
X113322826Y-109719406D01*
X113322826Y-109719406D02*
X113227588Y-109814645D01*
X113227588Y-109814645D02*
X113132350Y-109862264D01*
X113132350Y-109862264D02*
X112941874Y-109862264D01*
X112941874Y-109862264D02*
X112846636Y-109814645D01*
X112846636Y-109814645D02*
X112751398Y-109719406D01*
X112751398Y-109719406D02*
X112703779Y-109528930D01*
X112703779Y-109528930D02*
X112703779Y-109195597D01*
X112703779Y-109195597D02*
X112751398Y-109005121D01*
X112751398Y-109005121D02*
X112846636Y-108909883D01*
X112846636Y-108909883D02*
X112941874Y-108862264D01*
X110846636Y-110472264D02*
X111418064Y-110472264D01*
X111132350Y-111472264D02*
X111132350Y-110472264D01*
X111751398Y-111472264D02*
X111751398Y-110472264D01*
X111751398Y-110472264D02*
X111989493Y-110472264D01*
X111989493Y-110472264D02*
X112132350Y-110519883D01*
X112132350Y-110519883D02*
X112227588Y-110615121D01*
X112227588Y-110615121D02*
X112275207Y-110710359D01*
X112275207Y-110710359D02*
X112322826Y-110900835D01*
X112322826Y-110900835D02*
X112322826Y-111043692D01*
X112322826Y-111043692D02*
X112275207Y-111234168D01*
X112275207Y-111234168D02*
X112227588Y-111329406D01*
X112227588Y-111329406D02*
X112132350Y-111424645D01*
X112132350Y-111424645D02*
X111989493Y-111472264D01*
X111989493Y-111472264D02*
X111751398Y-111472264D01*
X112751398Y-111472264D02*
X112751398Y-110472264D01*
X110846636Y-112082264D02*
X111418064Y-112082264D01*
X111132350Y-113082264D02*
X111132350Y-112082264D01*
X111751398Y-113082264D02*
X111751398Y-112082264D01*
X111751398Y-112082264D02*
X112084731Y-112796549D01*
X112084731Y-112796549D02*
X112418064Y-112082264D01*
X112418064Y-112082264D02*
X112418064Y-113082264D01*
X112846636Y-113034645D02*
X112989493Y-113082264D01*
X112989493Y-113082264D02*
X113227588Y-113082264D01*
X113227588Y-113082264D02*
X113322826Y-113034645D01*
X113322826Y-113034645D02*
X113370445Y-112987025D01*
X113370445Y-112987025D02*
X113418064Y-112891787D01*
X113418064Y-112891787D02*
X113418064Y-112796549D01*
X113418064Y-112796549D02*
X113370445Y-112701311D01*
X113370445Y-112701311D02*
X113322826Y-112653692D01*
X113322826Y-112653692D02*
X113227588Y-112606073D01*
X113227588Y-112606073D02*
X113037112Y-112558454D01*
X113037112Y-112558454D02*
X112941874Y-112510835D01*
X112941874Y-112510835D02*
X112894255Y-112463216D01*
X112894255Y-112463216D02*
X112846636Y-112367978D01*
X112846636Y-112367978D02*
X112846636Y-112272740D01*
X112846636Y-112272740D02*
X112894255Y-112177502D01*
X112894255Y-112177502D02*
X112941874Y-112129883D01*
X112941874Y-112129883D02*
X113037112Y-112082264D01*
X113037112Y-112082264D02*
X113275207Y-112082264D01*
X113275207Y-112082264D02*
X113418064Y-112129883D01*
X151894271Y-81783134D02*
X152037128Y-81830753D01*
X152037128Y-81830753D02*
X152084747Y-81878372D01*
X152084747Y-81878372D02*
X152132366Y-81973610D01*
X152132366Y-81973610D02*
X152132366Y-82116467D01*
X152132366Y-82116467D02*
X152084747Y-82211705D01*
X152084747Y-82211705D02*
X152037128Y-82259325D01*
X152037128Y-82259325D02*
X151941890Y-82306944D01*
X151941890Y-82306944D02*
X151560938Y-82306944D01*
X151560938Y-82306944D02*
X151560938Y-81306944D01*
X151560938Y-81306944D02*
X151894271Y-81306944D01*
X151894271Y-81306944D02*
X151989509Y-81354563D01*
X151989509Y-81354563D02*
X152037128Y-81402182D01*
X152037128Y-81402182D02*
X152084747Y-81497420D01*
X152084747Y-81497420D02*
X152084747Y-81592658D01*
X152084747Y-81592658D02*
X152037128Y-81687896D01*
X152037128Y-81687896D02*
X151989509Y-81735515D01*
X151989509Y-81735515D02*
X151894271Y-81783134D01*
X151894271Y-81783134D02*
X151560938Y-81783134D01*
X152751414Y-81306944D02*
X152941890Y-81306944D01*
X152941890Y-81306944D02*
X153037128Y-81354563D01*
X153037128Y-81354563D02*
X153132366Y-81449801D01*
X153132366Y-81449801D02*
X153179985Y-81640277D01*
X153179985Y-81640277D02*
X153179985Y-81973610D01*
X153179985Y-81973610D02*
X153132366Y-82164086D01*
X153132366Y-82164086D02*
X153037128Y-82259325D01*
X153037128Y-82259325D02*
X152941890Y-82306944D01*
X152941890Y-82306944D02*
X152751414Y-82306944D01*
X152751414Y-82306944D02*
X152656176Y-82259325D01*
X152656176Y-82259325D02*
X152560938Y-82164086D01*
X152560938Y-82164086D02*
X152513319Y-81973610D01*
X152513319Y-81973610D02*
X152513319Y-81640277D01*
X152513319Y-81640277D02*
X152560938Y-81449801D01*
X152560938Y-81449801D02*
X152656176Y-81354563D01*
X152656176Y-81354563D02*
X152751414Y-81306944D01*
X153799033Y-81306944D02*
X153989509Y-81306944D01*
X153989509Y-81306944D02*
X154084747Y-81354563D01*
X154084747Y-81354563D02*
X154179985Y-81449801D01*
X154179985Y-81449801D02*
X154227604Y-81640277D01*
X154227604Y-81640277D02*
X154227604Y-81973610D01*
X154227604Y-81973610D02*
X154179985Y-82164086D01*
X154179985Y-82164086D02*
X154084747Y-82259325D01*
X154084747Y-82259325D02*
X153989509Y-82306944D01*
X153989509Y-82306944D02*
X153799033Y-82306944D01*
X153799033Y-82306944D02*
X153703795Y-82259325D01*
X153703795Y-82259325D02*
X153608557Y-82164086D01*
X153608557Y-82164086D02*
X153560938Y-81973610D01*
X153560938Y-81973610D02*
X153560938Y-81640277D01*
X153560938Y-81640277D02*
X153608557Y-81449801D01*
X153608557Y-81449801D02*
X153703795Y-81354563D01*
X153703795Y-81354563D02*
X153799033Y-81306944D01*
X154513319Y-81306944D02*
X155084747Y-81306944D01*
X154799033Y-82306944D02*
X154799033Y-81306944D01*
X123424582Y-103371522D02*
X123424582Y-104085807D01*
X123424582Y-104085807D02*
X123376963Y-104228664D01*
X123376963Y-104228664D02*
X123281725Y-104323903D01*
X123281725Y-104323903D02*
X123138868Y-104371522D01*
X123138868Y-104371522D02*
X123043630Y-104371522D01*
X123757916Y-103371522D02*
X124329344Y-103371522D01*
X124043630Y-104371522D02*
X124043630Y-103371522D01*
X124615059Y-104085807D02*
X125091249Y-104085807D01*
X124519821Y-104371522D02*
X124853154Y-103371522D01*
X124853154Y-103371522D02*
X125186487Y-104371522D01*
X126043630Y-103419141D02*
X125948392Y-103371522D01*
X125948392Y-103371522D02*
X125805535Y-103371522D01*
X125805535Y-103371522D02*
X125662678Y-103419141D01*
X125662678Y-103419141D02*
X125567440Y-103514379D01*
X125567440Y-103514379D02*
X125519821Y-103609617D01*
X125519821Y-103609617D02*
X125472202Y-103800093D01*
X125472202Y-103800093D02*
X125472202Y-103942950D01*
X125472202Y-103942950D02*
X125519821Y-104133426D01*
X125519821Y-104133426D02*
X125567440Y-104228664D01*
X125567440Y-104228664D02*
X125662678Y-104323903D01*
X125662678Y-104323903D02*
X125805535Y-104371522D01*
X125805535Y-104371522D02*
X125900773Y-104371522D01*
X125900773Y-104371522D02*
X126043630Y-104323903D01*
X126043630Y-104323903D02*
X126091249Y-104276283D01*
X126091249Y-104276283D02*
X126091249Y-103942950D01*
X126091249Y-103942950D02*
X125900773Y-103942950D01*
X110744249Y-95499523D02*
X110744249Y-94499523D01*
X110744249Y-94499523D02*
X111077582Y-95213808D01*
X111077582Y-95213808D02*
X111410915Y-94499523D01*
X111410915Y-94499523D02*
X111410915Y-95499523D01*
X112077582Y-94499523D02*
X112268058Y-94499523D01*
X112268058Y-94499523D02*
X112363296Y-94547142D01*
X112363296Y-94547142D02*
X112458534Y-94642380D01*
X112458534Y-94642380D02*
X112506153Y-94832856D01*
X112506153Y-94832856D02*
X112506153Y-95166189D01*
X112506153Y-95166189D02*
X112458534Y-95356665D01*
X112458534Y-95356665D02*
X112363296Y-95451904D01*
X112363296Y-95451904D02*
X112268058Y-95499523D01*
X112268058Y-95499523D02*
X112077582Y-95499523D01*
X112077582Y-95499523D02*
X111982344Y-95451904D01*
X111982344Y-95451904D02*
X111887106Y-95356665D01*
X111887106Y-95356665D02*
X111839487Y-95166189D01*
X111839487Y-95166189D02*
X111839487Y-94832856D01*
X111839487Y-94832856D02*
X111887106Y-94642380D01*
X111887106Y-94642380D02*
X111982344Y-94547142D01*
X111982344Y-94547142D02*
X112077582Y-94499523D01*
X112791868Y-94499523D02*
X113363296Y-94499523D01*
X113077582Y-95499523D02*
X113077582Y-94499523D01*
X113887106Y-94499523D02*
X114077582Y-94499523D01*
X114077582Y-94499523D02*
X114172820Y-94547142D01*
X114172820Y-94547142D02*
X114268058Y-94642380D01*
X114268058Y-94642380D02*
X114315677Y-94832856D01*
X114315677Y-94832856D02*
X114315677Y-95166189D01*
X114315677Y-95166189D02*
X114268058Y-95356665D01*
X114268058Y-95356665D02*
X114172820Y-95451904D01*
X114172820Y-95451904D02*
X114077582Y-95499523D01*
X114077582Y-95499523D02*
X113887106Y-95499523D01*
X113887106Y-95499523D02*
X113791868Y-95451904D01*
X113791868Y-95451904D02*
X113696630Y-95356665D01*
X113696630Y-95356665D02*
X113649011Y-95166189D01*
X113649011Y-95166189D02*
X113649011Y-94832856D01*
X113649011Y-94832856D02*
X113696630Y-94642380D01*
X113696630Y-94642380D02*
X113791868Y-94547142D01*
X113791868Y-94547142D02*
X113887106Y-94499523D01*
X115315677Y-95499523D02*
X114982344Y-95023332D01*
X114744249Y-95499523D02*
X114744249Y-94499523D01*
X114744249Y-94499523D02*
X115125201Y-94499523D01*
X115125201Y-94499523D02*
X115220439Y-94547142D01*
X115220439Y-94547142D02*
X115268058Y-94594761D01*
X115268058Y-94594761D02*
X115315677Y-94689999D01*
X115315677Y-94689999D02*
X115315677Y-94832856D01*
X115315677Y-94832856D02*
X115268058Y-94928094D01*
X115268058Y-94928094D02*
X115220439Y-94975713D01*
X115220439Y-94975713D02*
X115125201Y-95023332D01*
X115125201Y-95023332D02*
X114744249Y-95023332D01*
X152311634Y-103008994D02*
X152311634Y-103818517D01*
X152311634Y-103818517D02*
X152359253Y-103913755D01*
X152359253Y-103913755D02*
X152406872Y-103961375D01*
X152406872Y-103961375D02*
X152502110Y-104008994D01*
X152502110Y-104008994D02*
X152692586Y-104008994D01*
X152692586Y-104008994D02*
X152787824Y-103961375D01*
X152787824Y-103961375D02*
X152835443Y-103913755D01*
X152835443Y-103913755D02*
X152883062Y-103818517D01*
X152883062Y-103818517D02*
X152883062Y-103008994D01*
X153311634Y-103723279D02*
X153787824Y-103723279D01*
X153216396Y-104008994D02*
X153549729Y-103008994D01*
X153549729Y-103008994D02*
X153883062Y-104008994D01*
X154787824Y-104008994D02*
X154454491Y-103532803D01*
X154216396Y-104008994D02*
X154216396Y-103008994D01*
X154216396Y-103008994D02*
X154597348Y-103008994D01*
X154597348Y-103008994D02*
X154692586Y-103056613D01*
X154692586Y-103056613D02*
X154740205Y-103104232D01*
X154740205Y-103104232D02*
X154787824Y-103199470D01*
X154787824Y-103199470D02*
X154787824Y-103342327D01*
X154787824Y-103342327D02*
X154740205Y-103437565D01*
X154740205Y-103437565D02*
X154692586Y-103485184D01*
X154692586Y-103485184D02*
X154597348Y-103532803D01*
X154597348Y-103532803D02*
X154216396Y-103532803D01*
X155073539Y-103008994D02*
X155644967Y-103008994D01*
X155359253Y-104008994D02*
X155359253Y-103008994D01*
X114095884Y-97025772D02*
X114857789Y-97025772D01*
X114476836Y-97406725D02*
X114476836Y-96644820D01*
X114095884Y-100245772D02*
X114857789Y-100245772D01*
D11*
X161994711Y-99896667D02*
X162042331Y-99944286D01*
X162042331Y-99944286D02*
X162089950Y-100087143D01*
X162089950Y-100087143D02*
X162089950Y-100182381D01*
X162089950Y-100182381D02*
X162042331Y-100325238D01*
X162042331Y-100325238D02*
X161947092Y-100420476D01*
X161947092Y-100420476D02*
X161851854Y-100468095D01*
X161851854Y-100468095D02*
X161661378Y-100515714D01*
X161661378Y-100515714D02*
X161518521Y-100515714D01*
X161518521Y-100515714D02*
X161328045Y-100468095D01*
X161328045Y-100468095D02*
X161232807Y-100420476D01*
X161232807Y-100420476D02*
X161137569Y-100325238D01*
X161137569Y-100325238D02*
X161089950Y-100182381D01*
X161089950Y-100182381D02*
X161089950Y-100087143D01*
X161089950Y-100087143D02*
X161137569Y-99944286D01*
X161137569Y-99944286D02*
X161185188Y-99896667D01*
X161423283Y-99039524D02*
X162089950Y-99039524D01*
X161042331Y-99277619D02*
X161756616Y-99515714D01*
X161756616Y-99515714D02*
X161756616Y-98896667D01*
X135088094Y-72469104D02*
X135564284Y-72469104D01*
X134992856Y-72754819D02*
X135326189Y-71754819D01*
X135326189Y-71754819D02*
X135659522Y-72754819D01*
X135992856Y-72088152D02*
X135992856Y-72754819D01*
X135992856Y-72183390D02*
X136040475Y-72135771D01*
X136040475Y-72135771D02*
X136135713Y-72088152D01*
X136135713Y-72088152D02*
X136278570Y-72088152D01*
X136278570Y-72088152D02*
X136373808Y-72135771D01*
X136373808Y-72135771D02*
X136421427Y-72231009D01*
X136421427Y-72231009D02*
X136421427Y-72754819D01*
X136754761Y-72088152D02*
X137135713Y-72088152D01*
X136897618Y-71754819D02*
X136897618Y-72611961D01*
X136897618Y-72611961D02*
X136945237Y-72707200D01*
X136945237Y-72707200D02*
X137040475Y-72754819D01*
X137040475Y-72754819D02*
X137135713Y-72754819D01*
X137849999Y-72707200D02*
X137754761Y-72754819D01*
X137754761Y-72754819D02*
X137564285Y-72754819D01*
X137564285Y-72754819D02*
X137469047Y-72707200D01*
X137469047Y-72707200D02*
X137421428Y-72611961D01*
X137421428Y-72611961D02*
X137421428Y-72231009D01*
X137421428Y-72231009D02*
X137469047Y-72135771D01*
X137469047Y-72135771D02*
X137564285Y-72088152D01*
X137564285Y-72088152D02*
X137754761Y-72088152D01*
X137754761Y-72088152D02*
X137849999Y-72135771D01*
X137849999Y-72135771D02*
X137897618Y-72231009D01*
X137897618Y-72231009D02*
X137897618Y-72326247D01*
X137897618Y-72326247D02*
X137421428Y-72421485D01*
X138326190Y-72088152D02*
X138326190Y-72754819D01*
X138326190Y-72183390D02*
X138373809Y-72135771D01*
X138373809Y-72135771D02*
X138469047Y-72088152D01*
X138469047Y-72088152D02*
X138611904Y-72088152D01*
X138611904Y-72088152D02*
X138707142Y-72135771D01*
X138707142Y-72135771D02*
X138754761Y-72231009D01*
X138754761Y-72231009D02*
X138754761Y-72754819D01*
X139230952Y-72088152D02*
X139230952Y-72754819D01*
X139230952Y-72183390D02*
X139278571Y-72135771D01*
X139278571Y-72135771D02*
X139373809Y-72088152D01*
X139373809Y-72088152D02*
X139516666Y-72088152D01*
X139516666Y-72088152D02*
X139611904Y-72135771D01*
X139611904Y-72135771D02*
X139659523Y-72231009D01*
X139659523Y-72231009D02*
X139659523Y-72754819D01*
X140564285Y-72754819D02*
X140564285Y-72231009D01*
X140564285Y-72231009D02*
X140516666Y-72135771D01*
X140516666Y-72135771D02*
X140421428Y-72088152D01*
X140421428Y-72088152D02*
X140230952Y-72088152D01*
X140230952Y-72088152D02*
X140135714Y-72135771D01*
X140564285Y-72707200D02*
X140469047Y-72754819D01*
X140469047Y-72754819D02*
X140230952Y-72754819D01*
X140230952Y-72754819D02*
X140135714Y-72707200D01*
X140135714Y-72707200D02*
X140088095Y-72611961D01*
X140088095Y-72611961D02*
X140088095Y-72516723D01*
X140088095Y-72516723D02*
X140135714Y-72421485D01*
X140135714Y-72421485D02*
X140230952Y-72373866D01*
X140230952Y-72373866D02*
X140469047Y-72373866D01*
X140469047Y-72373866D02*
X140564285Y-72326247D01*
X141754762Y-72469104D02*
X142230952Y-72469104D01*
X141659524Y-72754819D02*
X141992857Y-71754819D01*
X141992857Y-71754819D02*
X142326190Y-72754819D01*
X142659524Y-72754819D02*
X142659524Y-72088152D01*
X142659524Y-72278628D02*
X142707143Y-72183390D01*
X142707143Y-72183390D02*
X142754762Y-72135771D01*
X142754762Y-72135771D02*
X142850000Y-72088152D01*
X142850000Y-72088152D02*
X142945238Y-72088152D01*
X143659524Y-72707200D02*
X143564286Y-72754819D01*
X143564286Y-72754819D02*
X143373810Y-72754819D01*
X143373810Y-72754819D02*
X143278572Y-72707200D01*
X143278572Y-72707200D02*
X143230953Y-72611961D01*
X143230953Y-72611961D02*
X143230953Y-72231009D01*
X143230953Y-72231009D02*
X143278572Y-72135771D01*
X143278572Y-72135771D02*
X143373810Y-72088152D01*
X143373810Y-72088152D02*
X143564286Y-72088152D01*
X143564286Y-72088152D02*
X143659524Y-72135771D01*
X143659524Y-72135771D02*
X143707143Y-72231009D01*
X143707143Y-72231009D02*
X143707143Y-72326247D01*
X143707143Y-72326247D02*
X143230953Y-72421485D01*
X144564286Y-72754819D02*
X144564286Y-72231009D01*
X144564286Y-72231009D02*
X144516667Y-72135771D01*
X144516667Y-72135771D02*
X144421429Y-72088152D01*
X144421429Y-72088152D02*
X144230953Y-72088152D01*
X144230953Y-72088152D02*
X144135715Y-72135771D01*
X144564286Y-72707200D02*
X144469048Y-72754819D01*
X144469048Y-72754819D02*
X144230953Y-72754819D01*
X144230953Y-72754819D02*
X144135715Y-72707200D01*
X144135715Y-72707200D02*
X144088096Y-72611961D01*
X144088096Y-72611961D02*
X144088096Y-72516723D01*
X144088096Y-72516723D02*
X144135715Y-72421485D01*
X144135715Y-72421485D02*
X144230953Y-72373866D01*
X144230953Y-72373866D02*
X144469048Y-72373866D01*
X144469048Y-72373866D02*
X144564286Y-72326247D01*
X143394819Y-125463333D02*
X144109104Y-125463333D01*
X144109104Y-125463333D02*
X144251961Y-125510952D01*
X144251961Y-125510952D02*
X144347200Y-125606190D01*
X144347200Y-125606190D02*
X144394819Y-125749047D01*
X144394819Y-125749047D02*
X144394819Y-125844285D01*
X143728152Y-124558571D02*
X144394819Y-124558571D01*
X143347200Y-124796666D02*
X144061485Y-125034761D01*
X144061485Y-125034761D02*
X144061485Y-124415714D01*
X164925595Y-101104819D02*
X164925595Y-101914342D01*
X164925595Y-101914342D02*
X164973214Y-102009580D01*
X164973214Y-102009580D02*
X165020833Y-102057200D01*
X165020833Y-102057200D02*
X165116071Y-102104819D01*
X165116071Y-102104819D02*
X165306547Y-102104819D01*
X165306547Y-102104819D02*
X165401785Y-102057200D01*
X165401785Y-102057200D02*
X165449404Y-102009580D01*
X165449404Y-102009580D02*
X165497023Y-101914342D01*
X165497023Y-101914342D02*
X165497023Y-101104819D01*
X166401785Y-101438152D02*
X166401785Y-102104819D01*
X166163690Y-101057200D02*
X165925595Y-101771485D01*
X165925595Y-101771485D02*
X166544642Y-101771485D01*
X119656666Y-115774819D02*
X119656666Y-116489104D01*
X119656666Y-116489104D02*
X119609047Y-116631961D01*
X119609047Y-116631961D02*
X119513809Y-116727200D01*
X119513809Y-116727200D02*
X119370952Y-116774819D01*
X119370952Y-116774819D02*
X119275714Y-116774819D01*
X120037619Y-115774819D02*
X120656666Y-115774819D01*
X120656666Y-115774819D02*
X120323333Y-116155771D01*
X120323333Y-116155771D02*
X120466190Y-116155771D01*
X120466190Y-116155771D02*
X120561428Y-116203390D01*
X120561428Y-116203390D02*
X120609047Y-116251009D01*
X120609047Y-116251009D02*
X120656666Y-116346247D01*
X120656666Y-116346247D02*
X120656666Y-116584342D01*
X120656666Y-116584342D02*
X120609047Y-116679580D01*
X120609047Y-116679580D02*
X120561428Y-116727200D01*
X120561428Y-116727200D02*
X120466190Y-116774819D01*
X120466190Y-116774819D02*
X120180476Y-116774819D01*
X120180476Y-116774819D02*
X120085238Y-116727200D01*
X120085238Y-116727200D02*
X120037619Y-116679580D01*
X128103333Y-94334819D02*
X127770000Y-93858628D01*
X127531905Y-94334819D02*
X127531905Y-93334819D01*
X127531905Y-93334819D02*
X127912857Y-93334819D01*
X127912857Y-93334819D02*
X128008095Y-93382438D01*
X128008095Y-93382438D02*
X128055714Y-93430057D01*
X128055714Y-93430057D02*
X128103333Y-93525295D01*
X128103333Y-93525295D02*
X128103333Y-93668152D01*
X128103333Y-93668152D02*
X128055714Y-93763390D01*
X128055714Y-93763390D02*
X128008095Y-93811009D01*
X128008095Y-93811009D02*
X127912857Y-93858628D01*
X127912857Y-93858628D02*
X127531905Y-93858628D01*
X128436667Y-93334819D02*
X129055714Y-93334819D01*
X129055714Y-93334819D02*
X128722381Y-93715771D01*
X128722381Y-93715771D02*
X128865238Y-93715771D01*
X128865238Y-93715771D02*
X128960476Y-93763390D01*
X128960476Y-93763390D02*
X129008095Y-93811009D01*
X129008095Y-93811009D02*
X129055714Y-93906247D01*
X129055714Y-93906247D02*
X129055714Y-94144342D01*
X129055714Y-94144342D02*
X129008095Y-94239580D01*
X129008095Y-94239580D02*
X128960476Y-94287200D01*
X128960476Y-94287200D02*
X128865238Y-94334819D01*
X128865238Y-94334819D02*
X128579524Y-94334819D01*
X128579524Y-94334819D02*
X128484286Y-94287200D01*
X128484286Y-94287200D02*
X128436667Y-94239580D01*
X111666666Y-101809819D02*
X111666666Y-102524104D01*
X111666666Y-102524104D02*
X111619047Y-102666961D01*
X111619047Y-102666961D02*
X111523809Y-102762200D01*
X111523809Y-102762200D02*
X111380952Y-102809819D01*
X111380952Y-102809819D02*
X111285714Y-102809819D01*
X112095238Y-101905057D02*
X112142857Y-101857438D01*
X112142857Y-101857438D02*
X112238095Y-101809819D01*
X112238095Y-101809819D02*
X112476190Y-101809819D01*
X112476190Y-101809819D02*
X112571428Y-101857438D01*
X112571428Y-101857438D02*
X112619047Y-101905057D01*
X112619047Y-101905057D02*
X112666666Y-102000295D01*
X112666666Y-102000295D02*
X112666666Y-102095533D01*
X112666666Y-102095533D02*
X112619047Y-102238390D01*
X112619047Y-102238390D02*
X112047619Y-102809819D01*
X112047619Y-102809819D02*
X112666666Y-102809819D01*
X117154761Y-97150057D02*
X117059523Y-97102438D01*
X117059523Y-97102438D02*
X116964285Y-97007200D01*
X116964285Y-97007200D02*
X116821428Y-96864342D01*
X116821428Y-96864342D02*
X116726190Y-96816723D01*
X116726190Y-96816723D02*
X116630952Y-96816723D01*
X116678571Y-97054819D02*
X116583333Y-97007200D01*
X116583333Y-97007200D02*
X116488095Y-96911961D01*
X116488095Y-96911961D02*
X116440476Y-96721485D01*
X116440476Y-96721485D02*
X116440476Y-96388152D01*
X116440476Y-96388152D02*
X116488095Y-96197676D01*
X116488095Y-96197676D02*
X116583333Y-96102438D01*
X116583333Y-96102438D02*
X116678571Y-96054819D01*
X116678571Y-96054819D02*
X116869047Y-96054819D01*
X116869047Y-96054819D02*
X116964285Y-96102438D01*
X116964285Y-96102438D02*
X117059523Y-96197676D01*
X117059523Y-96197676D02*
X117107142Y-96388152D01*
X117107142Y-96388152D02*
X117107142Y-96721485D01*
X117107142Y-96721485D02*
X117059523Y-96911961D01*
X117059523Y-96911961D02*
X116964285Y-97007200D01*
X116964285Y-97007200D02*
X116869047Y-97054819D01*
X116869047Y-97054819D02*
X116678571Y-97054819D01*
X118059523Y-97054819D02*
X117488095Y-97054819D01*
X117773809Y-97054819D02*
X117773809Y-96054819D01*
X117773809Y-96054819D02*
X117678571Y-96197676D01*
X117678571Y-96197676D02*
X117583333Y-96292914D01*
X117583333Y-96292914D02*
X117488095Y-96340533D01*
X136867143Y-118004819D02*
X136867143Y-118814342D01*
X136867143Y-118814342D02*
X136914762Y-118909580D01*
X136914762Y-118909580D02*
X136962381Y-118957200D01*
X136962381Y-118957200D02*
X137057619Y-119004819D01*
X137057619Y-119004819D02*
X137248095Y-119004819D01*
X137248095Y-119004819D02*
X137343333Y-118957200D01*
X137343333Y-118957200D02*
X137390952Y-118909580D01*
X137390952Y-118909580D02*
X137438571Y-118814342D01*
X137438571Y-118814342D02*
X137438571Y-118004819D01*
X137867143Y-118957200D02*
X138010000Y-119004819D01*
X138010000Y-119004819D02*
X138248095Y-119004819D01*
X138248095Y-119004819D02*
X138343333Y-118957200D01*
X138343333Y-118957200D02*
X138390952Y-118909580D01*
X138390952Y-118909580D02*
X138438571Y-118814342D01*
X138438571Y-118814342D02*
X138438571Y-118719104D01*
X138438571Y-118719104D02*
X138390952Y-118623866D01*
X138390952Y-118623866D02*
X138343333Y-118576247D01*
X138343333Y-118576247D02*
X138248095Y-118528628D01*
X138248095Y-118528628D02*
X138057619Y-118481009D01*
X138057619Y-118481009D02*
X137962381Y-118433390D01*
X137962381Y-118433390D02*
X137914762Y-118385771D01*
X137914762Y-118385771D02*
X137867143Y-118290533D01*
X137867143Y-118290533D02*
X137867143Y-118195295D01*
X137867143Y-118195295D02*
X137914762Y-118100057D01*
X137914762Y-118100057D02*
X137962381Y-118052438D01*
X137962381Y-118052438D02*
X138057619Y-118004819D01*
X138057619Y-118004819D02*
X138295714Y-118004819D01*
X138295714Y-118004819D02*
X138438571Y-118052438D01*
X139200476Y-118481009D02*
X139343333Y-118528628D01*
X139343333Y-118528628D02*
X139390952Y-118576247D01*
X139390952Y-118576247D02*
X139438571Y-118671485D01*
X139438571Y-118671485D02*
X139438571Y-118814342D01*
X139438571Y-118814342D02*
X139390952Y-118909580D01*
X139390952Y-118909580D02*
X139343333Y-118957200D01*
X139343333Y-118957200D02*
X139248095Y-119004819D01*
X139248095Y-119004819D02*
X138867143Y-119004819D01*
X138867143Y-119004819D02*
X138867143Y-118004819D01*
X138867143Y-118004819D02*
X139200476Y-118004819D01*
X139200476Y-118004819D02*
X139295714Y-118052438D01*
X139295714Y-118052438D02*
X139343333Y-118100057D01*
X139343333Y-118100057D02*
X139390952Y-118195295D01*
X139390952Y-118195295D02*
X139390952Y-118290533D01*
X139390952Y-118290533D02*
X139343333Y-118385771D01*
X139343333Y-118385771D02*
X139295714Y-118433390D01*
X139295714Y-118433390D02*
X139200476Y-118481009D01*
X139200476Y-118481009D02*
X138867143Y-118481009D01*
X141200476Y-118909580D02*
X141152857Y-118957200D01*
X141152857Y-118957200D02*
X141010000Y-119004819D01*
X141010000Y-119004819D02*
X140914762Y-119004819D01*
X140914762Y-119004819D02*
X140771905Y-118957200D01*
X140771905Y-118957200D02*
X140676667Y-118861961D01*
X140676667Y-118861961D02*
X140629048Y-118766723D01*
X140629048Y-118766723D02*
X140581429Y-118576247D01*
X140581429Y-118576247D02*
X140581429Y-118433390D01*
X140581429Y-118433390D02*
X140629048Y-118242914D01*
X140629048Y-118242914D02*
X140676667Y-118147676D01*
X140676667Y-118147676D02*
X140771905Y-118052438D01*
X140771905Y-118052438D02*
X140914762Y-118004819D01*
X140914762Y-118004819D02*
X141010000Y-118004819D01*
X141010000Y-118004819D02*
X141152857Y-118052438D01*
X141152857Y-118052438D02*
X141200476Y-118100057D01*
X143562336Y-115692252D02*
X143562336Y-114692252D01*
X143562336Y-114692252D02*
X143800431Y-114692252D01*
X143800431Y-114692252D02*
X143943288Y-114739871D01*
X143943288Y-114739871D02*
X144038526Y-114835109D01*
X144038526Y-114835109D02*
X144086145Y-114930347D01*
X144086145Y-114930347D02*
X144133764Y-115120823D01*
X144133764Y-115120823D02*
X144133764Y-115263680D01*
X144133764Y-115263680D02*
X144086145Y-115454156D01*
X144086145Y-115454156D02*
X144038526Y-115549394D01*
X144038526Y-115549394D02*
X143943288Y-115644633D01*
X143943288Y-115644633D02*
X143800431Y-115692252D01*
X143800431Y-115692252D02*
X143562336Y-115692252D01*
X145086145Y-115692252D02*
X144514717Y-115692252D01*
X144800431Y-115692252D02*
X144800431Y-114692252D01*
X144800431Y-114692252D02*
X144705193Y-114835109D01*
X144705193Y-114835109D02*
X144609955Y-114930347D01*
X144609955Y-114930347D02*
X144514717Y-114977966D01*
X131285714Y-103573866D02*
X132047619Y-103573866D01*
X131666666Y-103954819D02*
X131666666Y-103192914D01*
X132428571Y-102954819D02*
X133047618Y-102954819D01*
X133047618Y-102954819D02*
X132714285Y-103335771D01*
X132714285Y-103335771D02*
X132857142Y-103335771D01*
X132857142Y-103335771D02*
X132952380Y-103383390D01*
X132952380Y-103383390D02*
X132999999Y-103431009D01*
X132999999Y-103431009D02*
X133047618Y-103526247D01*
X133047618Y-103526247D02*
X133047618Y-103764342D01*
X133047618Y-103764342D02*
X132999999Y-103859580D01*
X132999999Y-103859580D02*
X132952380Y-103907200D01*
X132952380Y-103907200D02*
X132857142Y-103954819D01*
X132857142Y-103954819D02*
X132571428Y-103954819D01*
X132571428Y-103954819D02*
X132476190Y-103907200D01*
X132476190Y-103907200D02*
X132428571Y-103859580D01*
X133380952Y-103288152D02*
X133619047Y-103954819D01*
X133619047Y-103954819D02*
X133857142Y-103288152D01*
X134142857Y-102954819D02*
X134761904Y-102954819D01*
X134761904Y-102954819D02*
X134428571Y-103335771D01*
X134428571Y-103335771D02*
X134571428Y-103335771D01*
X134571428Y-103335771D02*
X134666666Y-103383390D01*
X134666666Y-103383390D02*
X134714285Y-103431009D01*
X134714285Y-103431009D02*
X134761904Y-103526247D01*
X134761904Y-103526247D02*
X134761904Y-103764342D01*
X134761904Y-103764342D02*
X134714285Y-103859580D01*
X134714285Y-103859580D02*
X134666666Y-103907200D01*
X134666666Y-103907200D02*
X134571428Y-103954819D01*
X134571428Y-103954819D02*
X134285714Y-103954819D01*
X134285714Y-103954819D02*
X134190476Y-103907200D01*
X134190476Y-103907200D02*
X134142857Y-103859580D01*
X128103333Y-90089819D02*
X127770000Y-89613628D01*
X127531905Y-90089819D02*
X127531905Y-89089819D01*
X127531905Y-89089819D02*
X127912857Y-89089819D01*
X127912857Y-89089819D02*
X128008095Y-89137438D01*
X128008095Y-89137438D02*
X128055714Y-89185057D01*
X128055714Y-89185057D02*
X128103333Y-89280295D01*
X128103333Y-89280295D02*
X128103333Y-89423152D01*
X128103333Y-89423152D02*
X128055714Y-89518390D01*
X128055714Y-89518390D02*
X128008095Y-89566009D01*
X128008095Y-89566009D02*
X127912857Y-89613628D01*
X127912857Y-89613628D02*
X127531905Y-89613628D01*
X128960476Y-89423152D02*
X128960476Y-90089819D01*
X128722381Y-89042200D02*
X128484286Y-89756485D01*
X128484286Y-89756485D02*
X129103333Y-89756485D01*
X144599819Y-97321666D02*
X144123628Y-97654999D01*
X144599819Y-97893094D02*
X143599819Y-97893094D01*
X143599819Y-97893094D02*
X143599819Y-97512142D01*
X143599819Y-97512142D02*
X143647438Y-97416904D01*
X143647438Y-97416904D02*
X143695057Y-97369285D01*
X143695057Y-97369285D02*
X143790295Y-97321666D01*
X143790295Y-97321666D02*
X143933152Y-97321666D01*
X143933152Y-97321666D02*
X144028390Y-97369285D01*
X144028390Y-97369285D02*
X144076009Y-97416904D01*
X144076009Y-97416904D02*
X144123628Y-97512142D01*
X144123628Y-97512142D02*
X144123628Y-97893094D01*
X143695057Y-96940713D02*
X143647438Y-96893094D01*
X143647438Y-96893094D02*
X143599819Y-96797856D01*
X143599819Y-96797856D02*
X143599819Y-96559761D01*
X143599819Y-96559761D02*
X143647438Y-96464523D01*
X143647438Y-96464523D02*
X143695057Y-96416904D01*
X143695057Y-96416904D02*
X143790295Y-96369285D01*
X143790295Y-96369285D02*
X143885533Y-96369285D01*
X143885533Y-96369285D02*
X144028390Y-96416904D01*
X144028390Y-96416904D02*
X144599819Y-96988332D01*
X144599819Y-96988332D02*
X144599819Y-96369285D01*
D12*
X141390274Y-100957100D02*
X141295036Y-100957100D01*
X141295036Y-100957100D02*
X141295036Y-100757100D01*
X141447417Y-100899957D02*
X141542655Y-100899957D01*
X141428369Y-100957100D02*
X141495036Y-100757100D01*
X141495036Y-100757100D02*
X141561702Y-100957100D01*
X141618846Y-100947577D02*
X141647417Y-100957100D01*
X141647417Y-100957100D02*
X141695036Y-100957100D01*
X141695036Y-100957100D02*
X141714084Y-100947577D01*
X141714084Y-100947577D02*
X141723608Y-100938053D01*
X141723608Y-100938053D02*
X141733131Y-100919005D01*
X141733131Y-100919005D02*
X141733131Y-100899957D01*
X141733131Y-100899957D02*
X141723608Y-100880910D01*
X141723608Y-100880910D02*
X141714084Y-100871386D01*
X141714084Y-100871386D02*
X141695036Y-100861862D01*
X141695036Y-100861862D02*
X141656941Y-100852338D01*
X141656941Y-100852338D02*
X141637893Y-100842815D01*
X141637893Y-100842815D02*
X141628370Y-100833291D01*
X141628370Y-100833291D02*
X141618846Y-100814243D01*
X141618846Y-100814243D02*
X141618846Y-100795196D01*
X141618846Y-100795196D02*
X141628370Y-100776148D01*
X141628370Y-100776148D02*
X141637893Y-100766624D01*
X141637893Y-100766624D02*
X141656941Y-100757100D01*
X141656941Y-100757100D02*
X141704560Y-100757100D01*
X141704560Y-100757100D02*
X141733131Y-100766624D01*
X141818846Y-100852338D02*
X141885512Y-100852338D01*
X141914084Y-100957100D02*
X141818846Y-100957100D01*
X141818846Y-100957100D02*
X141818846Y-100757100D01*
X141818846Y-100757100D02*
X141914084Y-100757100D01*
X142114083Y-100957100D02*
X142047417Y-100861862D01*
X141999798Y-100957100D02*
X141999798Y-100757100D01*
X141999798Y-100757100D02*
X142075988Y-100757100D01*
X142075988Y-100757100D02*
X142095036Y-100766624D01*
X142095036Y-100766624D02*
X142104559Y-100776148D01*
X142104559Y-100776148D02*
X142114083Y-100795196D01*
X142114083Y-100795196D02*
X142114083Y-100823767D01*
X142114083Y-100823767D02*
X142104559Y-100842815D01*
X142104559Y-100842815D02*
X142095036Y-100852338D01*
X142095036Y-100852338D02*
X142075988Y-100861862D01*
X142075988Y-100861862D02*
X141999798Y-100861862D01*
X142352179Y-100957100D02*
X142352179Y-100757100D01*
X142352179Y-100852338D02*
X142466464Y-100852338D01*
X142466464Y-100957100D02*
X142466464Y-100757100D01*
X142552179Y-100899957D02*
X142647417Y-100899957D01*
X142533131Y-100957100D02*
X142599798Y-100757100D01*
X142599798Y-100757100D02*
X142666464Y-100957100D01*
X142714084Y-100757100D02*
X142847417Y-100757100D01*
X142847417Y-100757100D02*
X142714084Y-100957100D01*
X142714084Y-100957100D02*
X142847417Y-100957100D01*
X142914084Y-100899957D02*
X143009322Y-100899957D01*
X142895036Y-100957100D02*
X142961703Y-100757100D01*
X142961703Y-100757100D02*
X143028369Y-100957100D01*
X143209322Y-100957100D02*
X143142656Y-100861862D01*
X143095037Y-100957100D02*
X143095037Y-100757100D01*
X143095037Y-100757100D02*
X143171227Y-100757100D01*
X143171227Y-100757100D02*
X143190275Y-100766624D01*
X143190275Y-100766624D02*
X143199798Y-100776148D01*
X143199798Y-100776148D02*
X143209322Y-100795196D01*
X143209322Y-100795196D02*
X143209322Y-100823767D01*
X143209322Y-100823767D02*
X143199798Y-100842815D01*
X143199798Y-100842815D02*
X143190275Y-100852338D01*
X143190275Y-100852338D02*
X143171227Y-100861862D01*
X143171227Y-100861862D02*
X143095037Y-100861862D01*
X143295037Y-100957100D02*
X143295037Y-100757100D01*
X143295037Y-100757100D02*
X143342656Y-100757100D01*
X143342656Y-100757100D02*
X143371227Y-100766624D01*
X143371227Y-100766624D02*
X143390275Y-100785672D01*
X143390275Y-100785672D02*
X143399798Y-100804719D01*
X143399798Y-100804719D02*
X143409322Y-100842815D01*
X143409322Y-100842815D02*
X143409322Y-100871386D01*
X143409322Y-100871386D02*
X143399798Y-100909481D01*
X143399798Y-100909481D02*
X143390275Y-100928529D01*
X143390275Y-100928529D02*
X143371227Y-100947577D01*
X143371227Y-100947577D02*
X143342656Y-100957100D01*
X143342656Y-100957100D02*
X143295037Y-100957100D01*
D11*
X123374819Y-98829166D02*
X122898628Y-99162499D01*
X123374819Y-99400594D02*
X122374819Y-99400594D01*
X122374819Y-99400594D02*
X122374819Y-99019642D01*
X122374819Y-99019642D02*
X122422438Y-98924404D01*
X122422438Y-98924404D02*
X122470057Y-98876785D01*
X122470057Y-98876785D02*
X122565295Y-98829166D01*
X122565295Y-98829166D02*
X122708152Y-98829166D01*
X122708152Y-98829166D02*
X122803390Y-98876785D01*
X122803390Y-98876785D02*
X122851009Y-98924404D01*
X122851009Y-98924404D02*
X122898628Y-99019642D01*
X122898628Y-99019642D02*
X122898628Y-99400594D01*
X123374819Y-97876785D02*
X123374819Y-98448213D01*
X123374819Y-98162499D02*
X122374819Y-98162499D01*
X122374819Y-98162499D02*
X122517676Y-98257737D01*
X122517676Y-98257737D02*
X122612914Y-98352975D01*
X122612914Y-98352975D02*
X122660533Y-98448213D01*
X137494103Y-96248971D02*
X137446484Y-96296591D01*
X137446484Y-96296591D02*
X137303627Y-96344210D01*
X137303627Y-96344210D02*
X137208389Y-96344210D01*
X137208389Y-96344210D02*
X137065532Y-96296591D01*
X137065532Y-96296591D02*
X136970294Y-96201352D01*
X136970294Y-96201352D02*
X136922675Y-96106114D01*
X136922675Y-96106114D02*
X136875056Y-95915638D01*
X136875056Y-95915638D02*
X136875056Y-95772781D01*
X136875056Y-95772781D02*
X136922675Y-95582305D01*
X136922675Y-95582305D02*
X136970294Y-95487067D01*
X136970294Y-95487067D02*
X137065532Y-95391829D01*
X137065532Y-95391829D02*
X137208389Y-95344210D01*
X137208389Y-95344210D02*
X137303627Y-95344210D01*
X137303627Y-95344210D02*
X137446484Y-95391829D01*
X137446484Y-95391829D02*
X137494103Y-95439448D01*
X138446484Y-96344210D02*
X137875056Y-96344210D01*
X138160770Y-96344210D02*
X138160770Y-95344210D01*
X138160770Y-95344210D02*
X138065532Y-95487067D01*
X138065532Y-95487067D02*
X137970294Y-95582305D01*
X137970294Y-95582305D02*
X137875056Y-95629924D01*
X144564286Y-103573866D02*
X145326191Y-103573866D01*
X144945238Y-103954819D02*
X144945238Y-103192914D01*
X146278571Y-102954819D02*
X145802381Y-102954819D01*
X145802381Y-102954819D02*
X145754762Y-103431009D01*
X145754762Y-103431009D02*
X145802381Y-103383390D01*
X145802381Y-103383390D02*
X145897619Y-103335771D01*
X145897619Y-103335771D02*
X146135714Y-103335771D01*
X146135714Y-103335771D02*
X146230952Y-103383390D01*
X146230952Y-103383390D02*
X146278571Y-103431009D01*
X146278571Y-103431009D02*
X146326190Y-103526247D01*
X146326190Y-103526247D02*
X146326190Y-103764342D01*
X146326190Y-103764342D02*
X146278571Y-103859580D01*
X146278571Y-103859580D02*
X146230952Y-103907200D01*
X146230952Y-103907200D02*
X146135714Y-103954819D01*
X146135714Y-103954819D02*
X145897619Y-103954819D01*
X145897619Y-103954819D02*
X145802381Y-103907200D01*
X145802381Y-103907200D02*
X145754762Y-103859580D01*
X146611905Y-102954819D02*
X146945238Y-103954819D01*
X146945238Y-103954819D02*
X147278571Y-102954819D01*
X139603333Y-96354580D02*
X139555714Y-96402200D01*
X139555714Y-96402200D02*
X139412857Y-96449819D01*
X139412857Y-96449819D02*
X139317619Y-96449819D01*
X139317619Y-96449819D02*
X139174762Y-96402200D01*
X139174762Y-96402200D02*
X139079524Y-96306961D01*
X139079524Y-96306961D02*
X139031905Y-96211723D01*
X139031905Y-96211723D02*
X138984286Y-96021247D01*
X138984286Y-96021247D02*
X138984286Y-95878390D01*
X138984286Y-95878390D02*
X139031905Y-95687914D01*
X139031905Y-95687914D02*
X139079524Y-95592676D01*
X139079524Y-95592676D02*
X139174762Y-95497438D01*
X139174762Y-95497438D02*
X139317619Y-95449819D01*
X139317619Y-95449819D02*
X139412857Y-95449819D01*
X139412857Y-95449819D02*
X139555714Y-95497438D01*
X139555714Y-95497438D02*
X139603333Y-95545057D01*
X139936667Y-95449819D02*
X140555714Y-95449819D01*
X140555714Y-95449819D02*
X140222381Y-95830771D01*
X140222381Y-95830771D02*
X140365238Y-95830771D01*
X140365238Y-95830771D02*
X140460476Y-95878390D01*
X140460476Y-95878390D02*
X140508095Y-95926009D01*
X140508095Y-95926009D02*
X140555714Y-96021247D01*
X140555714Y-96021247D02*
X140555714Y-96259342D01*
X140555714Y-96259342D02*
X140508095Y-96354580D01*
X140508095Y-96354580D02*
X140460476Y-96402200D01*
X140460476Y-96402200D02*
X140365238Y-96449819D01*
X140365238Y-96449819D02*
X140079524Y-96449819D01*
X140079524Y-96449819D02*
X139984286Y-96402200D01*
X139984286Y-96402200D02*
X139936667Y-96354580D01*
X137603333Y-103769580D02*
X137555714Y-103817200D01*
X137555714Y-103817200D02*
X137412857Y-103864819D01*
X137412857Y-103864819D02*
X137317619Y-103864819D01*
X137317619Y-103864819D02*
X137174762Y-103817200D01*
X137174762Y-103817200D02*
X137079524Y-103721961D01*
X137079524Y-103721961D02*
X137031905Y-103626723D01*
X137031905Y-103626723D02*
X136984286Y-103436247D01*
X136984286Y-103436247D02*
X136984286Y-103293390D01*
X136984286Y-103293390D02*
X137031905Y-103102914D01*
X137031905Y-103102914D02*
X137079524Y-103007676D01*
X137079524Y-103007676D02*
X137174762Y-102912438D01*
X137174762Y-102912438D02*
X137317619Y-102864819D01*
X137317619Y-102864819D02*
X137412857Y-102864819D01*
X137412857Y-102864819D02*
X137555714Y-102912438D01*
X137555714Y-102912438D02*
X137603333Y-102960057D01*
X137984286Y-102960057D02*
X138031905Y-102912438D01*
X138031905Y-102912438D02*
X138127143Y-102864819D01*
X138127143Y-102864819D02*
X138365238Y-102864819D01*
X138365238Y-102864819D02*
X138460476Y-102912438D01*
X138460476Y-102912438D02*
X138508095Y-102960057D01*
X138508095Y-102960057D02*
X138555714Y-103055295D01*
X138555714Y-103055295D02*
X138555714Y-103150533D01*
X138555714Y-103150533D02*
X138508095Y-103293390D01*
X138508095Y-103293390D02*
X137936667Y-103864819D01*
X137936667Y-103864819D02*
X138555714Y-103864819D01*
D13*
%TO.C,C4*%
X163110000Y-99587164D02*
X163110000Y-99802836D01*
X162390000Y-99587164D02*
X162390000Y-99802836D01*
%TO.C,SW2*%
X125180000Y-87670000D02*
X125180000Y-83530000D01*
X125480000Y-87670000D02*
X125180000Y-87670000D01*
X128320000Y-87670000D02*
X128020000Y-87670000D01*
X125180000Y-83530000D02*
X125480000Y-83530000D01*
X128020000Y-83530000D02*
X128320000Y-83530000D01*
X128320000Y-83530000D02*
X128320000Y-87670000D01*
%TO.C,U5*%
X132000000Y-90600000D02*
X132000000Y-89550000D01*
X132150000Y-69950000D02*
X132150000Y-75050000D01*
X132150000Y-69950000D02*
X147550000Y-69950000D01*
X132150000Y-90450000D02*
X132150000Y-75050000D01*
X133050000Y-90600000D02*
X132000000Y-90600000D01*
X133200000Y-69800000D02*
X132000000Y-69800000D01*
X146650000Y-69800000D02*
X147700000Y-69800000D01*
X146650000Y-90600000D02*
X147700000Y-90600000D01*
X147550000Y-69950000D02*
X147550000Y-75050000D01*
X147550000Y-75050000D02*
X147550000Y-90450000D01*
X147550000Y-90450000D02*
X132150000Y-90450000D01*
X147700000Y-69800000D02*
X147700000Y-70800000D01*
X147700000Y-90600000D02*
X147700000Y-89550000D01*
%TO.C,J4*%
X145380000Y-130840000D02*
X150580000Y-130840000D01*
X145380000Y-130840000D02*
X145380000Y-122210000D01*
X145500000Y-130840000D02*
X145500000Y-122210000D01*
X145618095Y-130840000D02*
X145618095Y-122210000D01*
X145736190Y-130840000D02*
X145736190Y-122210000D01*
X145854285Y-130840000D02*
X145854285Y-122210000D01*
X145972380Y-130840000D02*
X145972380Y-122210000D01*
X146090475Y-130840000D02*
X146090475Y-122210000D01*
X146208570Y-130840000D02*
X146208570Y-122210000D01*
X146326665Y-130840000D02*
X146326665Y-122210000D01*
X146444760Y-130840000D02*
X146444760Y-122210000D01*
X146562855Y-130840000D02*
X146562855Y-122210000D01*
X146680950Y-130840000D02*
X146680950Y-122210000D01*
X146799045Y-130840000D02*
X146799045Y-122210000D01*
X146917140Y-130840000D02*
X146917140Y-122210000D01*
X147035235Y-130840000D02*
X147035235Y-122210000D01*
X147153330Y-130840000D02*
X147153330Y-122210000D01*
X147271425Y-130840000D02*
X147271425Y-122210000D01*
X147389520Y-130840000D02*
X147389520Y-122210000D01*
X147507615Y-130840000D02*
X147507615Y-122210000D01*
X147625710Y-130840000D02*
X147625710Y-122210000D01*
X147743805Y-130840000D02*
X147743805Y-122210000D01*
X147861900Y-130840000D02*
X147861900Y-122210000D01*
X147980000Y-130840000D02*
X147980000Y-122210000D01*
X150580000Y-130840000D02*
X150580000Y-122210000D01*
X145380000Y-122210000D02*
X150580000Y-122210000D01*
X146350000Y-122210000D02*
X146350000Y-121860000D01*
X147070000Y-122210000D02*
X147070000Y-121860000D01*
X148890000Y-122210000D02*
X148890000Y-121800000D01*
X149610000Y-122210000D02*
X149610000Y-121800000D01*
X145380000Y-120750000D02*
X145380000Y-119640000D01*
X145380000Y-119640000D02*
X146710000Y-119640000D01*
%TO.C,U4*%
X165687500Y-100810000D02*
X167362500Y-100810000D01*
X165687500Y-100810000D02*
X165037500Y-100810000D01*
X165687500Y-97690000D02*
X166337500Y-97690000D01*
X165687500Y-97690000D02*
X165037500Y-97690000D01*
%TO.C,J3*%
X125645000Y-115320000D02*
X124375000Y-115320000D01*
X125645000Y-114050000D02*
X125645000Y-115320000D01*
X123332071Y-111890000D02*
X122935000Y-111890000D01*
X123332071Y-111130000D02*
X122935000Y-111130000D01*
X123332071Y-109350000D02*
X122935000Y-109350000D01*
X123332071Y-108590000D02*
X122935000Y-108590000D01*
X123332071Y-106810000D02*
X122935000Y-106810000D01*
X123332071Y-106050000D02*
X122935000Y-106050000D01*
X123265000Y-114430000D02*
X122935000Y-114430000D01*
X123265000Y-113670000D02*
X122935000Y-113670000D01*
X122935000Y-115380000D02*
X122935000Y-105100000D01*
X122935000Y-112780000D02*
X120275000Y-112780000D01*
X122935000Y-110240000D02*
X120275000Y-110240000D01*
X122935000Y-107700000D02*
X120275000Y-107700000D01*
X122935000Y-105100000D02*
X120275000Y-105100000D01*
X120275000Y-115380000D02*
X122935000Y-115380000D01*
X120275000Y-114430000D02*
X114275000Y-114430000D01*
X120275000Y-114370000D02*
X114275000Y-114370000D01*
X120275000Y-114250000D02*
X114275000Y-114250000D01*
X120275000Y-114130000D02*
X114275000Y-114130000D01*
X120275000Y-114010000D02*
X114275000Y-114010000D01*
X120275000Y-113890000D02*
X114275000Y-113890000D01*
X120275000Y-113770000D02*
X114275000Y-113770000D01*
X120275000Y-111890000D02*
X114275000Y-111890000D01*
X120275000Y-109350000D02*
X114275000Y-109350000D01*
X120275000Y-106810000D02*
X114275000Y-106810000D01*
X120275000Y-105100000D02*
X120275000Y-115380000D01*
X114275000Y-114430000D02*
X114275000Y-113670000D01*
X114275000Y-113670000D02*
X120275000Y-113670000D01*
X114275000Y-111890000D02*
X114275000Y-111130000D01*
X114275000Y-111130000D02*
X120275000Y-111130000D01*
X114275000Y-109350000D02*
X114275000Y-108590000D01*
X114275000Y-108590000D02*
X120275000Y-108590000D01*
X114275000Y-106810000D02*
X114275000Y-106050000D01*
X114275000Y-106050000D02*
X120275000Y-106050000D01*
%TO.C,R3*%
X128423641Y-93090000D02*
X128116359Y-93090000D01*
X128423641Y-92330000D02*
X128116359Y-92330000D01*
%TO.C,J2*%
X113330000Y-101355000D02*
X112000000Y-101355000D01*
X113330000Y-100025000D02*
X113330000Y-101355000D01*
X113330000Y-98755000D02*
X113330000Y-96155000D01*
X113330000Y-98755000D02*
X110670000Y-98755000D01*
X113330000Y-96155000D02*
X110670000Y-96155000D01*
X110670000Y-98755000D02*
X110670000Y-96155000D01*
D10*
%TO.C,U3*%
X131017722Y-127926148D02*
X129517722Y-127926148D01*
X129517722Y-127926148D02*
X129517722Y-126426148D01*
X129517722Y-126426148D02*
X131017722Y-126426148D01*
X131017722Y-126426148D02*
X131017722Y-127926148D01*
D14*
X131288433Y-126226148D02*
G75*
G03*
X131288433Y-126226148I-70711J0D01*
G01*
D13*
%TO.C,Q1*%
X117250000Y-97440000D02*
X115575000Y-97440000D01*
X117250000Y-97440000D02*
X117900000Y-97440000D01*
X117250000Y-100560000D02*
X116600000Y-100560000D01*
X117250000Y-100560000D02*
X117900000Y-100560000D01*
%TO.C,USB C*%
X134260000Y-119540000D02*
X134260000Y-126800000D01*
X134260000Y-119540000D02*
X135760000Y-119540000D01*
X142260000Y-119540000D02*
X143760000Y-119540000D01*
X143760000Y-119540000D02*
X143760000Y-126800000D01*
%TO.C,J1*%
X152730000Y-104980000D02*
X154000000Y-104980000D01*
X152730000Y-106250000D02*
X152730000Y-104980000D01*
X155042929Y-108410000D02*
X155440000Y-108410000D01*
X155042929Y-109170000D02*
X155440000Y-109170000D01*
X155042929Y-110950000D02*
X155440000Y-110950000D01*
X155042929Y-111710000D02*
X155440000Y-111710000D01*
X155042929Y-113490000D02*
X155440000Y-113490000D01*
X155042929Y-114250000D02*
X155440000Y-114250000D01*
X155110000Y-105870000D02*
X155440000Y-105870000D01*
X155110000Y-106630000D02*
X155440000Y-106630000D01*
X155440000Y-104920000D02*
X155440000Y-115200000D01*
X155440000Y-107520000D02*
X158100000Y-107520000D01*
X155440000Y-110060000D02*
X158100000Y-110060000D01*
X155440000Y-112600000D02*
X158100000Y-112600000D01*
X155440000Y-115200000D02*
X158100000Y-115200000D01*
X158100000Y-104920000D02*
X155440000Y-104920000D01*
X158100000Y-105870000D02*
X164100000Y-105870000D01*
X158100000Y-105930000D02*
X164100000Y-105930000D01*
X158100000Y-106050000D02*
X164100000Y-106050000D01*
X158100000Y-106170000D02*
X164100000Y-106170000D01*
X158100000Y-106290000D02*
X164100000Y-106290000D01*
X158100000Y-106410000D02*
X164100000Y-106410000D01*
X158100000Y-106530000D02*
X164100000Y-106530000D01*
X158100000Y-108410000D02*
X164100000Y-108410000D01*
X158100000Y-110950000D02*
X164100000Y-110950000D01*
X158100000Y-113490000D02*
X164100000Y-113490000D01*
X158100000Y-115200000D02*
X158100000Y-104920000D01*
X164100000Y-105870000D02*
X164100000Y-106630000D01*
X164100000Y-106630000D02*
X158100000Y-106630000D01*
X164100000Y-108410000D02*
X164100000Y-109170000D01*
X164100000Y-109170000D02*
X158100000Y-109170000D01*
X164100000Y-110950000D02*
X164100000Y-111710000D01*
X164100000Y-111710000D02*
X158100000Y-111710000D01*
X164100000Y-113490000D02*
X164100000Y-114250000D01*
X164100000Y-114250000D02*
X158100000Y-114250000D01*
%TO.C,D1*%
X146500000Y-118000000D02*
X146500000Y-116000000D01*
X146500000Y-118000000D02*
X142600000Y-118000000D01*
X146500000Y-116000000D02*
X142600000Y-116000000D01*
%TO.C,+3v3*%
X128900000Y-104590000D02*
X134910000Y-104590000D01*
X131150000Y-111410000D02*
X134910000Y-111410000D01*
X134910000Y-104590000D02*
X134910000Y-105850000D01*
X134910000Y-111410000D02*
X134910000Y-110150000D01*
%TO.C,R4*%
X128116359Y-90425000D02*
X128423641Y-90425000D01*
X128116359Y-91185000D02*
X128423641Y-91185000D01*
%TO.C,R2*%
X141860000Y-97308641D02*
X141860000Y-97001359D01*
X142620000Y-97308641D02*
X142620000Y-97001359D01*
D10*
%TO.C,U2*%
X137022392Y-98706470D02*
X140920508Y-98706470D01*
X140920508Y-98706470D02*
X140920508Y-101246470D01*
X140920508Y-101246470D02*
X137022392Y-101246470D01*
X137022392Y-101246470D02*
X137022392Y-98706470D01*
X137026857Y-99176470D02*
X137026857Y-99006470D01*
X137022392Y-98706470D01*
X137506857Y-98706470D01*
X137026857Y-99176470D01*
G36*
X137026857Y-99176470D02*
G01*
X137026857Y-99006470D01*
X137022392Y-98706470D01*
X137506857Y-98706470D01*
X137026857Y-99176470D01*
G37*
G36*
X142357972Y-98739111D02*
G01*
X142363148Y-98742871D01*
X142367973Y-98749967D01*
X142379023Y-98768035D01*
X142395915Y-98796411D01*
X142418268Y-98834434D01*
X142445698Y-98881442D01*
X142477823Y-98936772D01*
X142514260Y-98999763D01*
X142554628Y-99069751D01*
X142598543Y-99146076D01*
X142645623Y-99228074D01*
X142695485Y-99315084D01*
X142747747Y-99406442D01*
X142802026Y-99501488D01*
X142852222Y-99589521D01*
X142918918Y-99706575D01*
X142979295Y-99812567D01*
X143033649Y-99908067D01*
X143082272Y-99993642D01*
X143125459Y-100069861D01*
X143163505Y-100137295D01*
X143196702Y-100196511D01*
X143225346Y-100248079D01*
X143249731Y-100292566D01*
X143270149Y-100330543D01*
X143286897Y-100362578D01*
X143300267Y-100389240D01*
X143310555Y-100411098D01*
X143318053Y-100428720D01*
X143323056Y-100442676D01*
X143325858Y-100453534D01*
X143326754Y-100461864D01*
X143326037Y-100468233D01*
X143324002Y-100473212D01*
X143320942Y-100477369D01*
X143317152Y-100481272D01*
X143314568Y-100483811D01*
X143312568Y-100485642D01*
X143309977Y-100487298D01*
X143306148Y-100488787D01*
X143300429Y-100490119D01*
X143292173Y-100491302D01*
X143280730Y-100492345D01*
X143265451Y-100493258D01*
X143245686Y-100494047D01*
X143220787Y-100494724D01*
X143190103Y-100495295D01*
X143152987Y-100495771D01*
X143108788Y-100496160D01*
X143056857Y-100496470D01*
X142996546Y-100496711D01*
X142927205Y-100496891D01*
X142848185Y-100497019D01*
X142758836Y-100497104D01*
X142658510Y-100497155D01*
X142546557Y-100497181D01*
X142422328Y-100497189D01*
X142327868Y-100497190D01*
X142194673Y-100497188D01*
X142074208Y-100497175D01*
X141965824Y-100497143D01*
X141868872Y-100497083D01*
X141782701Y-100496985D01*
X141706663Y-100496843D01*
X141640109Y-100496645D01*
X141582390Y-100496384D01*
X141532856Y-100496051D01*
X141490857Y-100495637D01*
X141455746Y-100495134D01*
X141426873Y-100494531D01*
X141403587Y-100493822D01*
X141385241Y-100492996D01*
X141371185Y-100492046D01*
X141360770Y-100490961D01*
X141353346Y-100489734D01*
X141348265Y-100488356D01*
X141344877Y-100486817D01*
X141342533Y-100485110D01*
X141341167Y-100483811D01*
X141337073Y-100479780D01*
X141333526Y-100475847D01*
X141330821Y-100471444D01*
X141329253Y-100466003D01*
X141329116Y-100458954D01*
X141330703Y-100449729D01*
X141334309Y-100437758D01*
X141340227Y-100422474D01*
X141348753Y-100403306D01*
X141357540Y-100385141D01*
X141477110Y-100385141D01*
X141483298Y-100385762D01*
X141502076Y-100386361D01*
X141532655Y-100386933D01*
X141574245Y-100387474D01*
X141626058Y-100387978D01*
X141687304Y-100388442D01*
X141757194Y-100388861D01*
X141834939Y-100389229D01*
X141919749Y-100389543D01*
X142010837Y-100389797D01*
X142107411Y-100389988D01*
X142208684Y-100390109D01*
X142313867Y-100390158D01*
X142327860Y-100390158D01*
X143181552Y-100390158D01*
X143159424Y-100351354D01*
X143150742Y-100336082D01*
X143136453Y-100310891D01*
X143117536Y-100277511D01*
X143094970Y-100237668D01*
X143069733Y-100193090D01*
X143042804Y-100145505D01*
X143026919Y-100117428D01*
X142916543Y-99922307D01*
X142705824Y-99922559D01*
X142495105Y-99922812D01*
X142563923Y-99939706D01*
X142594458Y-99947401D01*
X142614087Y-99953160D01*
X142624945Y-99958020D01*
X142629172Y-99963021D01*
X142628904Y-99969200D01*
X142628394Y-99971022D01*
X142622998Y-99984723D01*
X142619463Y-99990445D01*
X142611559Y-99990657D01*
X142593866Y-99987261D01*
X142569282Y-99980896D01*
X142549477Y-99975002D01*
X142521364Y-99966664D01*
X142497724Y-99960487D01*
X142481630Y-99957227D01*
X142476563Y-99957062D01*
X142479930Y-99960733D01*
X142493596Y-99969582D01*
X142515956Y-99982677D01*
X142545405Y-99999090D01*
X142580337Y-100017889D01*
X142593516Y-100024837D01*
X142639370Y-100048852D01*
X142674670Y-100067468D01*
X142700644Y-100081624D01*
X142718520Y-100092262D01*
X142729525Y-100100321D01*
X142734887Y-100106742D01*
X142735834Y-100112465D01*
X142733594Y-100118430D01*
X142729394Y-100125578D01*
X142728058Y-100127877D01*
X142718523Y-100141207D01*
X142710422Y-100146921D01*
X142709169Y-100146790D01*
X142701751Y-100142620D01*
X142684753Y-100132392D01*
X142659915Y-100117178D01*
X142628979Y-100098046D01*
X142593688Y-100076065D01*
X142578945Y-100066841D01*
X142542731Y-100044382D01*
X142510422Y-100024772D01*
X142483688Y-100008991D01*
X142464201Y-99998018D01*
X142453633Y-99992833D01*
X142452256Y-99992616D01*
X142455591Y-99998108D01*
X142467020Y-100010676D01*
X142484720Y-100028415D01*
X142505508Y-100048164D01*
X142529772Y-100071049D01*
X142545342Y-100086927D01*
X142553572Y-100097618D01*
X142555822Y-100104942D01*
X142553449Y-100110720D01*
X142552776Y-100111568D01*
X142541661Y-100120577D01*
X142535114Y-100122579D01*
X142527161Y-100118026D01*
X142512420Y-100105732D01*
X142493221Y-100087743D01*
X142477950Y-100072416D01*
X142457673Y-100052039D01*
X142440945Y-100036232D01*
X142429812Y-100026868D01*
X142426356Y-100025205D01*
X142428880Y-100031473D01*
X142437594Y-100047372D01*
X142451517Y-100071237D01*
X142469671Y-100101404D01*
X142491076Y-100136207D01*
X142501063Y-100152226D01*
X142523759Y-100188726D01*
X142543839Y-100221483D01*
X142560277Y-100248783D01*
X142572045Y-100268913D01*
X142578118Y-100280161D01*
X142578723Y-100281816D01*
X142573277Y-100287985D01*
X142559797Y-100296283D01*
X142555924Y-100298211D01*
X142533124Y-100309083D01*
X142465206Y-100179181D01*
X142439261Y-100130012D01*
X142418796Y-100092296D01*
X142403462Y-100065445D01*
X142392908Y-100048870D01*
X142386781Y-100041985D01*
X142384730Y-100044199D01*
X142384728Y-100044432D01*
X142386575Y-100051646D01*
X142391562Y-100068812D01*
X142398854Y-100093102D01*
X142404975Y-100113123D01*
X142413149Y-100141473D01*
X142419057Y-100165505D01*
X142421986Y-100182090D01*
X142421908Y-100187530D01*
X142413419Y-100194170D01*
X142402211Y-100196163D01*
X142394531Y-100195246D01*
X142388775Y-100190910D01*
X142383810Y-100180778D01*
X142378502Y-100162474D01*
X142371719Y-100133622D01*
X142371113Y-100130941D01*
X142364254Y-100102114D01*
X142357760Y-100077588D01*
X142352560Y-100060734D01*
X142350432Y-100055684D01*
X142348883Y-100058891D01*
X142347910Y-100073277D01*
X142347474Y-100096654D01*
X142347536Y-100126834D01*
X142348057Y-100161633D01*
X142348996Y-100198862D01*
X142350315Y-100236335D01*
X142351974Y-100271864D01*
X142353935Y-100303264D01*
X142355151Y-100318246D01*
X142358635Y-100356711D01*
X142327868Y-100356711D01*
X142297100Y-100356711D01*
X142300584Y-100318246D01*
X142302696Y-100290119D01*
X142304529Y-100256636D01*
X142306044Y-100219984D01*
X142307201Y-100182349D01*
X142307961Y-100145918D01*
X142308285Y-100112879D01*
X142308133Y-100085417D01*
X142307466Y-100065721D01*
X142306245Y-100055977D01*
X142305303Y-100055684D01*
X142301335Y-100066258D01*
X142295513Y-100086545D01*
X142288764Y-100113173D01*
X142284622Y-100130941D01*
X142277681Y-100160688D01*
X142272301Y-100179708D01*
X142267349Y-100190375D01*
X142261693Y-100195067D01*
X142254198Y-100196160D01*
X142253524Y-100196163D01*
X142239722Y-100193032D01*
X142233827Y-100187530D01*
X142234312Y-100177829D01*
X142238262Y-100158544D01*
X142244966Y-100132805D01*
X142250760Y-100113123D01*
X142259185Y-100085488D01*
X142265894Y-100062973D01*
X142270056Y-100048404D01*
X142271007Y-100044432D01*
X142269092Y-100041912D01*
X142263112Y-100048473D01*
X142252716Y-100064702D01*
X142237554Y-100091188D01*
X142217273Y-100128517D01*
X142191523Y-100177279D01*
X142190529Y-100179181D01*
X142122611Y-100309083D01*
X142099811Y-100298211D01*
X142085064Y-100289859D01*
X142077343Y-100282912D01*
X142077012Y-100281816D01*
X142080415Y-100274765D01*
X142089941Y-100258119D01*
X142104563Y-100233590D01*
X142123254Y-100202894D01*
X142144987Y-100167741D01*
X142154672Y-100152226D01*
X142177177Y-100115938D01*
X142196853Y-100083568D01*
X142212720Y-100056782D01*
X142223800Y-100037244D01*
X142229112Y-100026619D01*
X142229379Y-100025205D01*
X142223830Y-100028460D01*
X142211141Y-100039571D01*
X142193358Y-100056667D01*
X142177785Y-100072416D01*
X142156822Y-100093237D01*
X142138637Y-100109838D01*
X142125561Y-100120170D01*
X142120621Y-100122579D01*
X142109746Y-100117879D01*
X142102959Y-100111568D01*
X142100007Y-100105865D01*
X142101476Y-100098889D01*
X142108721Y-100088821D01*
X142123100Y-100073839D01*
X142145971Y-100052123D01*
X142150227Y-100048164D01*
X142172167Y-100027292D01*
X142189556Y-100009798D01*
X142200571Y-99997584D01*
X142203479Y-99992616D01*
X142197152Y-99995081D01*
X142181204Y-100003744D01*
X142157309Y-100017626D01*
X142127136Y-100035748D01*
X142092357Y-100057131D01*
X142076790Y-100066841D01*
X142040259Y-100089652D01*
X142007397Y-100110036D01*
X141979945Y-100126925D01*
X141959644Y-100139248D01*
X141948238Y-100145936D01*
X141946566Y-100146790D01*
X141939282Y-100143279D01*
X141929755Y-100131344D01*
X141927677Y-100127877D01*
X141923153Y-100120239D01*
X141920251Y-100114042D01*
X141920199Y-100108346D01*
X141924224Y-100102211D01*
X141933554Y-100094697D01*
X141949416Y-100084862D01*
X141973040Y-100071768D01*
X142005651Y-100054473D01*
X142048478Y-100032038D01*
X142062219Y-100024837D01*
X142098687Y-100005423D01*
X142130230Y-99988073D01*
X142155245Y-99973715D01*
X142172126Y-99963279D01*
X142179267Y-99957697D01*
X142179172Y-99957062D01*
X142169963Y-99957907D01*
X142151119Y-99962183D01*
X142125713Y-99969134D01*
X142106258Y-99975002D01*
X142078568Y-99983068D01*
X142055737Y-99988614D01*
X142040662Y-99991000D01*
X142036272Y-99990445D01*
X142030780Y-99980469D01*
X142027352Y-99971056D01*
X142026318Y-99964543D01*
X142029169Y-99959422D01*
X142038015Y-99954702D01*
X142054965Y-99949391D01*
X142082128Y-99942495D01*
X142094344Y-99939547D01*
X142123612Y-99932244D01*
X142147868Y-99925669D01*
X142164263Y-99920627D01*
X142169841Y-99918205D01*
X142164683Y-99917103D01*
X142147950Y-99916301D01*
X142121440Y-99915825D01*
X142086954Y-99915697D01*
X142046292Y-99915940D01*
X142020151Y-99916267D01*
X141866293Y-99918549D01*
X141866293Y-99895136D01*
X141866293Y-99871723D01*
X141990048Y-99873604D01*
X142031583Y-99874403D01*
X142070454Y-99875460D01*
X142103891Y-99876676D01*
X142129125Y-99877951D01*
X142142234Y-99879031D01*
X142162579Y-99880683D01*
X142170971Y-99879358D01*
X142168363Y-99875604D01*
X142155706Y-99869971D01*
X142133955Y-99863006D01*
X142104061Y-99855256D01*
X142098752Y-99854018D01*
X142067031Y-99846454D01*
X142046307Y-99840600D01*
X142034454Y-99835559D01*
X142029346Y-99830434D01*
X142028831Y-99824502D01*
X142031823Y-99809292D01*
X142036920Y-99801605D01*
X142047173Y-99800469D01*
X142065634Y-99804910D01*
X142078285Y-99808731D01*
X142117471Y-99820705D01*
X142145661Y-99829151D01*
X142164626Y-99834528D01*
X142176140Y-99837298D01*
X142181975Y-99837923D01*
X142183905Y-99836864D01*
X142183988Y-99836242D01*
X142178310Y-99831928D01*
X142162431Y-99822400D01*
X142138027Y-99808599D01*
X142106776Y-99791464D01*
X142070356Y-99771936D01*
X142050310Y-99761346D01*
X142011912Y-99741022D01*
X141977820Y-99722710D01*
X141949709Y-99707331D01*
X141929257Y-99695810D01*
X141918138Y-99689066D01*
X141916602Y-99687762D01*
X141919700Y-99680422D01*
X141927481Y-99666481D01*
X141929715Y-99662766D01*
X141942916Y-99641114D01*
X142070189Y-99721299D01*
X142107092Y-99744418D01*
X142140224Y-99764927D01*
X142167911Y-99781809D01*
X142188479Y-99794049D01*
X142200255Y-99800631D01*
X142202312Y-99801483D01*
X142199827Y-99797091D01*
X142189474Y-99785133D01*
X142172911Y-99767437D01*
X142151861Y-99745894D01*
X142096561Y-99690305D01*
X142111002Y-99677327D01*
X142125443Y-99664349D01*
X142178156Y-99720480D01*
X142198745Y-99741780D01*
X142215568Y-99757996D01*
X142226863Y-99767514D01*
X142230870Y-99768802D01*
X142227447Y-99761073D01*
X142217865Y-99743808D01*
X142203158Y-99718753D01*
X142184357Y-99687655D01*
X142162497Y-99652260D01*
X142152741Y-99636676D01*
X142074611Y-99512358D01*
X142090863Y-99499768D01*
X142105286Y-99491260D01*
X142116398Y-99488800D01*
X142122091Y-99494949D01*
X142132896Y-99511277D01*
X142147799Y-99536068D01*
X142165783Y-99567608D01*
X142185833Y-99604182D01*
X142195802Y-99622852D01*
X142216113Y-99660825D01*
X142234392Y-99694269D01*
X142249718Y-99721556D01*
X142261167Y-99741056D01*
X142267819Y-99751143D01*
X142269061Y-99752143D01*
X142268475Y-99744883D01*
X142264492Y-99727583D01*
X142257794Y-99702943D01*
X142250313Y-99677724D01*
X142240826Y-99645874D01*
X142235335Y-99624410D01*
X142233481Y-99611067D01*
X142234903Y-99603580D01*
X142238010Y-99600378D01*
X142250535Y-99594168D01*
X142260061Y-99594812D01*
X142267782Y-99603842D01*
X142274893Y-99622791D01*
X142282588Y-99653192D01*
X142283978Y-99659331D01*
X142292124Y-99694871D01*
X142298536Y-99720413D01*
X142303339Y-99735536D01*
X142306659Y-99739815D01*
X142308624Y-99732829D01*
X142309359Y-99714155D01*
X142308991Y-99683368D01*
X142307646Y-99640047D01*
X142305581Y-99586976D01*
X142303976Y-99544445D01*
X142302794Y-99506458D01*
X142302079Y-99475038D01*
X142301872Y-99452208D01*
X142302216Y-99439991D01*
X142302483Y-99438578D01*
X142310583Y-99435059D01*
X142325691Y-99433697D01*
X142341612Y-99434492D01*
X142352151Y-99437446D01*
X142353252Y-99438578D01*
X142353805Y-99446468D01*
X142353792Y-99465700D01*
X142353255Y-99494252D01*
X142352237Y-99530102D01*
X142350780Y-99571226D01*
X142350154Y-99586976D01*
X142347999Y-99642580D01*
X142346700Y-99685248D01*
X142346386Y-99715403D01*
X142347181Y-99733468D01*
X142349212Y-99739866D01*
X142352606Y-99735020D01*
X142357488Y-99719353D01*
X142363985Y-99693288D01*
X142371757Y-99659331D01*
X142379660Y-99626921D01*
X142386785Y-99606211D01*
X142394325Y-99595670D01*
X142403475Y-99593765D01*
X142415431Y-99598964D01*
X142417725Y-99600378D01*
X142421428Y-99604895D01*
X142422132Y-99613522D01*
X142419477Y-99628525D01*
X142413104Y-99652166D01*
X142405422Y-99677724D01*
X142396920Y-99706540D01*
X142390543Y-99730360D01*
X142386972Y-99746483D01*
X142386674Y-99752143D01*
X142390554Y-99747424D01*
X142399698Y-99732469D01*
X142413184Y-99708908D01*
X142430088Y-99678367D01*
X142449489Y-99642475D01*
X142459933Y-99622852D01*
X142480609Y-99584484D01*
X142499703Y-99550336D01*
X142516198Y-99522120D01*
X142529079Y-99501553D01*
X142537331Y-99490348D01*
X142539337Y-99488800D01*
X142550887Y-99491448D01*
X142564872Y-99499768D01*
X142581124Y-99512358D01*
X142502994Y-99636676D01*
X142480164Y-99673345D01*
X142459965Y-99706443D01*
X142443428Y-99734226D01*
X142431588Y-99754945D01*
X142425476Y-99766855D01*
X142424865Y-99768802D01*
X142429076Y-99767368D01*
X142440534Y-99757660D01*
X142457475Y-99741293D01*
X142477579Y-99720480D01*
X142530292Y-99664349D01*
X142544733Y-99677327D01*
X142559174Y-99690305D01*
X142503874Y-99745894D01*
X142482771Y-99767492D01*
X142466224Y-99785175D01*
X142455890Y-99797114D01*
X142453423Y-99801483D01*
X142460247Y-99798065D01*
X142476689Y-99788488D01*
X142501075Y-99773767D01*
X142531732Y-99754919D01*
X142566984Y-99732960D01*
X142585546Y-99721299D01*
X142712819Y-99641114D01*
X142726020Y-99662766D01*
X142734540Y-99677574D01*
X142738958Y-99686883D01*
X142739133Y-99687762D01*
X142733452Y-99691696D01*
X142717577Y-99700882D01*
X142693185Y-99714398D01*
X142661951Y-99731321D01*
X142625552Y-99750729D01*
X142605425Y-99761346D01*
X142567012Y-99781734D01*
X142532912Y-99800209D01*
X142504803Y-99815829D01*
X142484362Y-99827656D01*
X142473267Y-99834750D01*
X142471747Y-99836242D01*
X142472799Y-99837744D01*
X142477187Y-99837710D01*
X142486684Y-99835679D01*
X142503063Y-99831190D01*
X142528097Y-99823780D01*
X142563558Y-99812989D01*
X142577450Y-99808731D01*
X142600926Y-99801962D01*
X142614731Y-99800303D01*
X142621918Y-99804725D01*
X142625540Y-99816202D01*
X142626904Y-99824479D01*
X142626196Y-99831049D01*
X142620256Y-99836512D01*
X142606813Y-99841945D01*
X142583592Y-99848431D01*
X142568689Y-99852140D01*
X142508484Y-99866841D01*
X142694117Y-99867610D01*
X142742389Y-99867675D01*
X142785988Y-99867475D01*
X142823214Y-99867039D01*
X142852367Y-99866396D01*
X142871747Y-99865574D01*
X142879653Y-99864602D01*
X142879751Y-99864476D01*
X142876541Y-99858275D01*
X142867308Y-99841547D01*
X142852641Y-99815331D01*
X142833132Y-99780664D01*
X142809371Y-99738584D01*
X142781950Y-99690128D01*
X142751459Y-99636334D01*
X142718489Y-99578240D01*
X142683631Y-99516883D01*
X142647477Y-99453302D01*
X142610616Y-99388534D01*
X142573640Y-99323616D01*
X142537140Y-99259588D01*
X142501707Y-99197485D01*
X142467931Y-99138346D01*
X142436404Y-99083209D01*
X142407716Y-99033111D01*
X142382458Y-98989090D01*
X142361222Y-98952184D01*
X142344598Y-98923430D01*
X142333177Y-98903867D01*
X142327550Y-98894532D01*
X142327056Y-98893875D01*
X142323692Y-98899721D01*
X142314099Y-98916502D01*
X142298670Y-98943529D01*
X142277800Y-98980111D01*
X142251881Y-99025558D01*
X142221306Y-99079181D01*
X142186470Y-99140288D01*
X142147764Y-99208192D01*
X142105584Y-99282200D01*
X142060322Y-99361624D01*
X142012370Y-99445773D01*
X141962124Y-99533958D01*
X141909976Y-99625488D01*
X141903081Y-99637591D01*
X141850670Y-99729585D01*
X141800083Y-99818376D01*
X141751715Y-99903269D01*
X141705963Y-99983570D01*
X141663222Y-100058583D01*
X141623888Y-100127614D01*
X141588358Y-100189968D01*
X141557026Y-100244951D01*
X141530289Y-100291867D01*
X141508542Y-100330023D01*
X141492182Y-100358723D01*
X141481604Y-100377272D01*
X141477204Y-100384977D01*
X141477110Y-100385141D01*
X141357540Y-100385141D01*
X141360179Y-100379686D01*
X141374801Y-100351045D01*
X141392911Y-100316815D01*
X141414805Y-100276426D01*
X141440777Y-100229310D01*
X141471120Y-100174897D01*
X141506129Y-100112619D01*
X141546097Y-100041908D01*
X141591320Y-99962193D01*
X141642090Y-99872906D01*
X141698702Y-99773479D01*
X141761451Y-99663342D01*
X141803513Y-99589521D01*
X141859280Y-99491726D01*
X141913372Y-99397023D01*
X141965409Y-99306074D01*
X142015007Y-99219541D01*
X142061784Y-99138087D01*
X142105358Y-99062373D01*
X142145345Y-98993062D01*
X142181364Y-98930817D01*
X142213032Y-98876298D01*
X142239965Y-98830169D01*
X142261783Y-98793091D01*
X142278102Y-98765727D01*
X142288540Y-98748740D01*
X142292587Y-98742871D01*
X142312355Y-98733351D01*
X142336273Y-98732097D01*
X142357972Y-98739111D01*
G37*
D13*
%TO.C,R1*%
X122130000Y-98508859D02*
X122130000Y-98816141D01*
X121370000Y-98508859D02*
X121370000Y-98816141D01*
%TO.C,C1*%
X137877836Y-97515000D02*
X137662164Y-97515000D01*
X137877836Y-96795000D02*
X137662164Y-96795000D01*
%TO.C,+5V*%
X141750000Y-104590000D02*
X147760000Y-104590000D01*
X144000000Y-111410000D02*
X147760000Y-111410000D01*
X147760000Y-104590000D02*
X147760000Y-105850000D01*
X147760000Y-111410000D02*
X147760000Y-110150000D01*
%TO.C,SW1*%
X151680000Y-87570000D02*
X151680000Y-83430000D01*
X151980000Y-87570000D02*
X151680000Y-87570000D01*
X154820000Y-87570000D02*
X154520000Y-87570000D01*
X151680000Y-83430000D02*
X151980000Y-83430000D01*
X154520000Y-83430000D02*
X154820000Y-83430000D01*
X154820000Y-83430000D02*
X154820000Y-87570000D01*
%TO.C,C3*%
X139662164Y-96795000D02*
X139877836Y-96795000D01*
X139662164Y-97515000D02*
X139877836Y-97515000D01*
%TO.C,C2*%
X137877836Y-102610000D02*
X137662164Y-102610000D01*
X137877836Y-101890000D02*
X137662164Y-101890000D01*
%TD*%
M02*
