%TF.GenerationSoftware,KiCad,Pcbnew,7.0.9-7.0.9~ubuntu22.04.1*%
%TF.CreationDate,2023-12-21T18:53:39+01:00*%
%TF.ProjectId,lidar 2 round,6c696461-7220-4322-9072-6f756e642e6b,rev?*%
%TF.SameCoordinates,Original*%
%TF.FileFunction,Copper,L1,Top*%
%TF.FilePolarity,Positive*%
%FSLAX46Y46*%
G04 Gerber Fmt 4.6, Leading zero omitted, Abs format (unit mm)*
G04 Created by KiCad (PCBNEW 7.0.9-7.0.9~ubuntu22.04.1) date 2023-12-21 18:53:39*
%MOMM*%
%LPD*%
G01*
G04 APERTURE LIST*
G04 Aperture macros list*
%AMRoundRect*
0 Rectangle with rounded corners*
0 $1 Rounding radius*
0 $2 $3 $4 $5 $6 $7 $8 $9 X,Y pos of 4 corners*
0 Add a 4 corners polygon primitive as box body*
4,1,4,$2,$3,$4,$5,$6,$7,$8,$9,$2,$3,0*
0 Add four circle primitives for the rounded corners*
1,1,$1+$1,$2,$3*
1,1,$1+$1,$4,$5*
1,1,$1+$1,$6,$7*
1,1,$1+$1,$8,$9*
0 Add four rect primitives between the rounded corners*
20,1,$1+$1,$2,$3,$4,$5,0*
20,1,$1+$1,$4,$5,$6,$7,0*
20,1,$1+$1,$6,$7,$8,$9,0*
20,1,$1+$1,$8,$9,$2,$3,0*%
%AMFreePoly0*
4,1,6,0.600000,-0.600000,-0.600000,-0.600000,-0.600000,0.000000,0.000000,0.600000,0.600000,0.600000,0.600000,-0.600000,0.600000,-0.600000,$1*%
G04 Aperture macros list end*
%TA.AperFunction,SMDPad,CuDef*%
%ADD10RoundRect,0.140000X-0.170000X0.140000X-0.170000X-0.140000X0.170000X-0.140000X0.170000X0.140000X0*%
%TD*%
%TA.AperFunction,SMDPad,CuDef*%
%ADD11RoundRect,0.200000X0.800000X-0.200000X0.800000X0.200000X-0.800000X0.200000X-0.800000X-0.200000X0*%
%TD*%
%TA.AperFunction,SMDPad,CuDef*%
%ADD12R,0.800000X0.400000*%
%TD*%
%TA.AperFunction,SMDPad,CuDef*%
%ADD13R,0.400000X0.800000*%
%TD*%
%TA.AperFunction,SMDPad,CuDef*%
%ADD14FreePoly0,0.000000*%
%TD*%
%TA.AperFunction,SMDPad,CuDef*%
%ADD15R,1.200000X1.200000*%
%TD*%
%TA.AperFunction,SMDPad,CuDef*%
%ADD16R,0.800000X0.800000*%
%TD*%
%TA.AperFunction,ComponentPad*%
%ADD17R,1.700000X1.700000*%
%TD*%
%TA.AperFunction,ComponentPad*%
%ADD18O,1.700000X1.700000*%
%TD*%
%TA.AperFunction,SMDPad,CuDef*%
%ADD19RoundRect,0.150000X0.587500X0.150000X-0.587500X0.150000X-0.587500X-0.150000X0.587500X-0.150000X0*%
%TD*%
%TA.AperFunction,SMDPad,CuDef*%
%ADD20RoundRect,0.135000X0.135000X0.185000X-0.135000X0.185000X-0.135000X-0.185000X0.135000X-0.185000X0*%
%TD*%
%TA.AperFunction,SMDPad,CuDef*%
%ADD21R,0.500000X0.500000*%
%TD*%
%TA.AperFunction,SMDPad,CuDef*%
%ADD22RoundRect,0.150000X-0.587500X-0.150000X0.587500X-0.150000X0.587500X0.150000X-0.587500X0.150000X0*%
%TD*%
%TA.AperFunction,SMDPad,CuDef*%
%ADD23R,0.300000X0.700000*%
%TD*%
%TA.AperFunction,ComponentPad*%
%ADD24O,0.800000X1.400000*%
%TD*%
%TA.AperFunction,SMDPad,CuDef*%
%ADD25R,0.900000X1.200000*%
%TD*%
%TA.AperFunction,SMDPad,CuDef*%
%ADD26R,2.000000X1.500000*%
%TD*%
%TA.AperFunction,SMDPad,CuDef*%
%ADD27R,2.000000X3.800000*%
%TD*%
%TA.AperFunction,SMDPad,CuDef*%
%ADD28RoundRect,0.135000X-0.135000X-0.185000X0.135000X-0.185000X0.135000X0.185000X-0.135000X0.185000X0*%
%TD*%
%TA.AperFunction,SMDPad,CuDef*%
%ADD29RoundRect,0.135000X0.185000X-0.135000X0.185000X0.135000X-0.185000X0.135000X-0.185000X-0.135000X0*%
%TD*%
%TA.AperFunction,SMDPad,CuDef*%
%ADD30RoundRect,0.087500X0.087500X0.200000X-0.087500X0.200000X-0.087500X-0.200000X0.087500X-0.200000X0*%
%TD*%
%TA.AperFunction,SMDPad,CuDef*%
%ADD31RoundRect,0.135000X-0.185000X0.135000X-0.185000X-0.135000X0.185000X-0.135000X0.185000X0.135000X0*%
%TD*%
%TA.AperFunction,SMDPad,CuDef*%
%ADD32RoundRect,0.140000X0.140000X0.170000X-0.140000X0.170000X-0.140000X-0.170000X0.140000X-0.170000X0*%
%TD*%
%TA.AperFunction,SMDPad,CuDef*%
%ADD33RoundRect,0.140000X-0.140000X-0.170000X0.140000X-0.170000X0.140000X0.170000X-0.140000X0.170000X0*%
%TD*%
%TA.AperFunction,ViaPad*%
%ADD34C,0.300000*%
%TD*%
%TA.AperFunction,Conductor*%
%ADD35C,0.200000*%
%TD*%
%TA.AperFunction,Conductor*%
%ADD36C,1.000000*%
%TD*%
%TA.AperFunction,Conductor*%
%ADD37C,0.500000*%
%TD*%
G04 APERTURE END LIST*
D10*
%TO.P,C4,1*%
%TO.N,GND*%
X162750000Y-99215000D03*
%TO.P,C4,2*%
%TO.N,+3.3V*%
X162750000Y-100175000D03*
%TD*%
D11*
%TO.P,SW2,1,1*%
%TO.N,Net-(R3-Pad2)*%
X126750000Y-87700000D03*
%TO.P,SW2,2,2*%
%TO.N,GND*%
X126750000Y-83500000D03*
%TD*%
D12*
%TO.P,U5,1,GND*%
%TO.N,GND*%
X132850000Y-76800000D03*
%TO.P,U5,2,GND*%
X132850000Y-77650000D03*
%TO.P,U5,3,3V3*%
%TO.N,+3.3V*%
X132850000Y-78500000D03*
%TO.P,U5,4,GPIO0/BOOT*%
%TO.N,Net-(U5-GPIO0{slash}BOOT)*%
X132850000Y-79350000D03*
%TO.P,U5,5,GPIO1/TOUCH1/ADC1_CH0*%
%TO.N,Enable*%
X132850000Y-80200000D03*
%TO.P,U5,6,GPIO2/TOUCH2/ADC1_CH1*%
%TO.N,SCL*%
X132850000Y-81050000D03*
%TO.P,U5,7,GPIO3/TOUCH3/ADC1_CH2*%
%TO.N,SDA*%
X132850000Y-81900000D03*
%TO.P,U5,8,GPIO4/TOUCH4/ADC1_CH3*%
%TO.N,GPIO0*%
X132850000Y-82750000D03*
%TO.P,U5,9,GPIO5/TOUCH5/ADC1_CH4*%
%TO.N,GPIO1*%
X132850000Y-83600000D03*
%TO.P,U5,10,GPIO6/TOUCH6/ADC1_CH5*%
%TO.N,Enable_Motor*%
X132850000Y-84450000D03*
%TO.P,U5,11,GPIO7/TOUCH7/ADC1_CH6*%
%TO.N,unconnected-(U5-GPIO7{slash}TOUCH7{slash}ADC1_CH6-Pad11)*%
X132850000Y-85300000D03*
%TO.P,U5,12,GPIO8/TOUCH8/ADC1_CH7/SUBSPICS1*%
%TO.N,unconnected-(U5-GPIO8{slash}TOUCH8{slash}ADC1_CH7{slash}SUBSPICS1-Pad12)*%
X132850000Y-86150000D03*
%TO.P,U5,13,GPIO9/TOUCH9/ADC1_CH8/FSPIHD/SUBSPIHD*%
%TO.N,Hall_Effect_Sensor*%
X132850000Y-87000000D03*
%TO.P,U5,14,GPIO10/TOUCH10/ADC1_CH9/FSPICS0/FSPIIO4/SUBSPICS0*%
%TO.N,unconnected-(U5-GPIO10{slash}TOUCH10{slash}ADC1_CH9{slash}FSPICS0{slash}FSPIIO4{slash}SUBSPICS0-Pad14)*%
X132850000Y-87850000D03*
%TO.P,U5,15,GPIO11/TOUCH11/ADC2_CH0/FSPID/FSPIIO5/SUBSPID*%
%TO.N,unconnected-(U5-GPIO11{slash}TOUCH11{slash}ADC2_CH0{slash}FSPID{slash}FSPIIO5{slash}SUBSPID-Pad15)*%
X132850000Y-88700000D03*
D13*
%TO.P,U5,16,GPIO12/TOUCH12/ADC2_CH1/FSPICLK/FSPIIO6/SUBSPICLK*%
%TO.N,SLED*%
X133900000Y-89750000D03*
%TO.P,U5,17,GPIO13/TOUCH13/ADC2_CH2/FSPIQ/FSPIIO7/SUBSPIQ*%
%TO.N,unconnected-(U5-GPIO13{slash}TOUCH13{slash}ADC2_CH2{slash}FSPIQ{slash}FSPIIO7{slash}SUBSPIQ-Pad17)*%
X134750000Y-89750000D03*
%TO.P,U5,18,GPIO14/TOUCH14/ADC2_CH3/FSPIWP/FSPIDQS/SUBSPIWP*%
%TO.N,unconnected-(U5-GPIO14{slash}TOUCH14{slash}ADC2_CH3{slash}FSPIWP{slash}FSPIDQS{slash}SUBSPIWP-Pad18)*%
X135600000Y-89750000D03*
%TO.P,U5,19,GPIO15/U0RTS/ADC2_CH4/XTAL_32K_P*%
%TO.N,unconnected-(U5-GPIO15{slash}U0RTS{slash}ADC2_CH4{slash}XTAL_32K_P-Pad19)*%
X136450000Y-89750000D03*
%TO.P,U5,20,GPIO16/U0CTS/ADC2_CH5/XTAL_32K_N*%
%TO.N,unconnected-(U5-GPIO16{slash}U0CTS{slash}ADC2_CH5{slash}XTAL_32K_N-Pad20)*%
X137300000Y-89750000D03*
%TO.P,U5,21,GPIO17/U1TXD/ADC2_CH6*%
%TO.N,unconnected-(U5-GPIO17{slash}U1TXD{slash}ADC2_CH6-Pad21)*%
X138150000Y-89750000D03*
%TO.P,U5,22,GPIO18/U1RXD/ADC2_CH7/CLK_OUT3*%
%TO.N,unconnected-(U5-GPIO18{slash}U1RXD{slash}ADC2_CH7{slash}CLK_OUT3-Pad22)*%
X139000000Y-89750000D03*
%TO.P,U5,23,GPIO19/U1RTS/ADC2_CH8/CLK_OUT2/USB_D-*%
%TO.N,D-*%
X139850000Y-89750000D03*
%TO.P,U5,24,GPIO20/U1CTS/ADC2_CH9/CLK_OUT1/USB_D+*%
%TO.N,D+*%
X140700000Y-89750000D03*
%TO.P,U5,25,GPIO21*%
%TO.N,unconnected-(U5-GPIO21-Pad25)*%
X141550000Y-89750000D03*
%TO.P,U5,26,GPIO26*%
%TO.N,unconnected-(U5-GPIO26-Pad26)*%
X142400000Y-89750000D03*
%TO.P,U5,27,GPIO47/SPICLK_P/SUBSPICLK_P_DIFF*%
%TO.N,unconnected-(U5-GPIO47{slash}SPICLK_P{slash}SUBSPICLK_P_DIFF-Pad27)*%
X143250000Y-89750000D03*
%TO.P,U5,28,SPIIO4/GPIO33/FSPIHD/SUBSPIHD*%
%TO.N,unconnected-(U5-SPIIO4{slash}GPIO33{slash}FSPIHD{slash}SUBSPIHD-Pad28)*%
X144100000Y-89750000D03*
%TO.P,U5,29,SPIIO5/GPIO34/FSPICS0/SUBSPICS0*%
%TO.N,unconnected-(U5-SPIIO5{slash}GPIO34{slash}FSPICS0{slash}SUBSPICS0-Pad29)*%
X144950000Y-89750000D03*
%TO.P,U5,30,GPIO48/SPICLK_N/SUBSPICLK_N_DIFF*%
%TO.N,unconnected-(U5-GPIO48{slash}SPICLK_N{slash}SUBSPICLK_N_DIFF-Pad30)*%
X145800000Y-89750000D03*
D12*
%TO.P,U5,31,SPIIO6/GPIO35/FSPID/SUBSPID*%
%TO.N,unconnected-(U5-SPIIO6{slash}GPIO35{slash}FSPID{slash}SUBSPID-Pad31)*%
X146850000Y-88700000D03*
%TO.P,U5,32,SPIIO7/GPIO36/FSPICLK/SUBSPICLK*%
%TO.N,unconnected-(U5-SPIIO7{slash}GPIO36{slash}FSPICLK{slash}SUBSPICLK-Pad32)*%
X146850000Y-87850000D03*
%TO.P,U5,33,SPIDQS/GPIO37/FSPIQ/SUBSPIQ*%
%TO.N,unconnected-(U5-SPIDQS{slash}GPIO37{slash}FSPIQ{slash}SUBSPIQ-Pad33)*%
X146850000Y-87000000D03*
%TO.P,U5,34,GPIO38/FSPIWP/SUBSPIWP*%
%TO.N,unconnected-(U5-GPIO38{slash}FSPIWP{slash}SUBSPIWP-Pad34)*%
X146850000Y-86150000D03*
%TO.P,U5,35,MTCK/GPIO39/CLK_OUT3/SUBSPICS1*%
%TO.N,TCK*%
X146850000Y-85300000D03*
%TO.P,U5,36,MTDO/GPIO40/CLK_OUT2*%
%TO.N,TDO*%
X146850000Y-84450000D03*
%TO.P,U5,37,MTDI/GPIO41/CLK_OUT1*%
%TO.N,TDI*%
X146850000Y-83600000D03*
%TO.P,U5,38,MTMS/GPIO42*%
%TO.N,TMS*%
X146850000Y-82750000D03*
%TO.P,U5,39,U0TXD/GPIO43/CLK_OUT1*%
%TO.N,TX*%
X146850000Y-81900000D03*
%TO.P,U5,40,U0RXD/GPIO44/CLK_OUT2*%
%TO.N,RX*%
X146850000Y-81050000D03*
%TO.P,U5,41,GPIO45*%
%TO.N,unconnected-(U5-GPIO45-Pad41)*%
X146850000Y-80200000D03*
%TO.P,U5,42,GND*%
%TO.N,GND*%
X146850000Y-79350000D03*
%TO.P,U5,43,GND*%
X146850000Y-78500000D03*
%TO.P,U5,44,GPIO46*%
%TO.N,unconnected-(U5-GPIO46-Pad44)*%
X146850000Y-77650000D03*
%TO.P,U5,45,EN*%
%TO.N,Net-(U5-EN)*%
X146850000Y-76800000D03*
D13*
%TO.P,U5,46,GND*%
%TO.N,GND*%
X145800000Y-75750000D03*
%TO.P,U5,47,GND*%
X144950000Y-75750000D03*
%TO.P,U5,48,GND*%
X144100000Y-75750000D03*
%TO.P,U5,49,GND*%
X143250000Y-75750000D03*
%TO.P,U5,50,GND*%
X142400000Y-75750000D03*
%TO.P,U5,51,GND*%
X141550000Y-75750000D03*
%TO.P,U5,52,GND*%
X140700000Y-75750000D03*
%TO.P,U5,53,GND*%
X139850000Y-75750000D03*
%TO.P,U5,54,GND*%
X139000000Y-75750000D03*
%TO.P,U5,55,GND*%
X138150000Y-75750000D03*
%TO.P,U5,56,GND*%
X137300000Y-75750000D03*
%TO.P,U5,57,GND*%
X136450000Y-75750000D03*
%TO.P,U5,58,GND*%
X135600000Y-75750000D03*
%TO.P,U5,59,GND*%
X134750000Y-75750000D03*
%TO.P,U5,60,GND*%
X133900000Y-75750000D03*
D14*
%TO.P,U5,61,GND*%
X138200000Y-81100000D03*
D15*
X138200000Y-82750000D03*
X138200000Y-84400000D03*
X139850000Y-81100000D03*
X139850000Y-82750000D03*
X139850000Y-84400000D03*
X141500000Y-81100000D03*
X141500000Y-82750000D03*
X141500000Y-84400000D03*
D16*
%TO.P,U5,62,GND*%
X132850000Y-75750000D03*
%TO.P,U5,63,GND*%
X132850000Y-89750000D03*
%TO.P,U5,64,GND*%
X146850000Y-89750000D03*
%TO.P,U5,65,GND*%
X146850000Y-75750000D03*
%TD*%
D17*
%TO.P,J4,1*%
%TO.N,VIN*%
X146710000Y-120750000D03*
D18*
%TO.P,J4,2*%
%TO.N,GND*%
X149250000Y-120750000D03*
%TD*%
D19*
%TO.P,U4,1,VCC*%
%TO.N,+3.3V*%
X166625000Y-100200000D03*
%TO.P,U4,2,OUT*%
%TO.N,Hall_Effect_Sensor*%
X166625000Y-98300000D03*
%TO.P,U4,3,GND*%
%TO.N,GND*%
X164750000Y-99250000D03*
%TD*%
D17*
%TO.P,J3,1*%
%TO.N,TMS*%
X124375000Y-114050000D03*
D18*
%TO.P,J3,2*%
%TO.N,TDI*%
X124375000Y-111510000D03*
%TO.P,J3,3*%
%TO.N,TDO*%
X124375000Y-108970000D03*
%TO.P,J3,4*%
%TO.N,TCK*%
X124375000Y-106430000D03*
%TD*%
D20*
%TO.P,R3,1*%
%TO.N,+3.3V*%
X128780000Y-92710000D03*
%TO.P,R3,2*%
%TO.N,Net-(R3-Pad2)*%
X127760000Y-92710000D03*
%TD*%
D17*
%TO.P,J2,1*%
%TO.N,Net-(Q1-E)*%
X112000000Y-100025000D03*
D18*
%TO.P,J2,2*%
%TO.N,+5V*%
X112000000Y-97485000D03*
%TD*%
D21*
%TO.P,U3,1,DIN*%
%TO.N,SLED*%
X130717722Y-126726148D03*
%TO.P,U3,2,VDD*%
%TO.N,+3.3V*%
X129817722Y-126726148D03*
%TO.P,U3,3,DOUT*%
%TO.N,unconnected-(U3-DOUT-Pad3)*%
X129817722Y-127626148D03*
%TO.P,U3,4,GND*%
%TO.N,GND*%
X130717722Y-127626148D03*
%TD*%
D22*
%TO.P,Q1,1,B*%
%TO.N,Enable_Motor*%
X116312500Y-98050000D03*
%TO.P,Q1,2,E*%
%TO.N,Net-(Q1-E)*%
X116312500Y-99950000D03*
%TO.P,Q1,3,C*%
%TO.N,GND*%
X118187500Y-99000000D03*
%TD*%
D23*
%TO.P,USB C,A1,GND*%
%TO.N,GND*%
X136260000Y-119890000D03*
%TO.P,USB C,A2*%
%TO.N,N/C*%
X136760000Y-119890000D03*
%TO.P,USB C,A3*%
X137260000Y-119890000D03*
%TO.P,USB C,A4,VBUS*%
%TO.N,Net-(D1-A)*%
X137760000Y-119890000D03*
%TO.P,USB C,A5,CC1*%
%TO.N,unconnected-(J5-CC1-PadA5)*%
X138260000Y-119890000D03*
%TO.P,USB C,A6,D+*%
%TO.N,D+*%
X138760000Y-119890000D03*
%TO.P,USB C,A7,D-*%
%TO.N,D-*%
X139260000Y-119890000D03*
%TO.P,USB C,A8,SBU1*%
%TO.N,unconnected-(J5-SBU1-PadA8)*%
X139760000Y-119890000D03*
%TO.P,USB C,A9,VBUS*%
%TO.N,Net-(D1-A)*%
X140260000Y-119890000D03*
%TO.P,USB C,A10*%
%TO.N,N/C*%
X140760000Y-119890000D03*
%TO.P,USB C,A11*%
X141260000Y-119890000D03*
%TO.P,USB C,A12,GND*%
%TO.N,GND*%
X141760000Y-119890000D03*
%TO.P,USB C,B1,GND*%
X141510000Y-121590000D03*
%TO.P,USB C,B2*%
%TO.N,N/C*%
X141010000Y-121590000D03*
%TO.P,USB C,B3*%
X140510000Y-121590000D03*
%TO.P,USB C,B4,VBUS*%
%TO.N,Net-(D1-A)*%
X140010000Y-121590000D03*
%TO.P,USB C,B5,CC2*%
%TO.N,unconnected-(J5-CC2-PadB5)*%
X139510000Y-121590000D03*
%TO.P,USB C,B6,D+*%
%TO.N,D+*%
X139010000Y-121590000D03*
%TO.P,USB C,B7,D-*%
%TO.N,D-*%
X138510000Y-121590000D03*
%TO.P,USB C,B8,SBU2*%
%TO.N,unconnected-(J5-SBU2-PadB8)*%
X138010000Y-121590000D03*
%TO.P,USB C,B9,VBUS*%
%TO.N,Net-(D1-A)*%
X137510000Y-121590000D03*
%TO.P,USB C,B10*%
%TO.N,N/C*%
X137010000Y-121590000D03*
%TO.P,USB C,B11*%
X136510000Y-121590000D03*
%TO.P,USB C,B12,GND*%
%TO.N,GND*%
X136010000Y-121590000D03*
D24*
%TO.P,USB C,S1,SHIELD*%
X134520000Y-127750000D03*
X134880000Y-121800000D03*
X143140000Y-121800000D03*
X143500000Y-127750000D03*
%TD*%
D17*
%TO.P,J1,1*%
%TO.N,+3.3V*%
X154000000Y-106250000D03*
D18*
%TO.P,J1,2*%
%TO.N,RX*%
X154000000Y-108790000D03*
%TO.P,J1,3*%
%TO.N,TX*%
X154000000Y-111330000D03*
%TO.P,J1,4*%
%TO.N,GND*%
X154000000Y-113870000D03*
%TD*%
D25*
%TO.P,D1,1,K*%
%TO.N,VIN*%
X145900000Y-117000000D03*
%TO.P,D1,2,A*%
%TO.N,Net-(D1-A)*%
X142600000Y-117000000D03*
%TD*%
D26*
%TO.P,+3v3,1,GND*%
%TO.N,GND*%
X129850000Y-105700000D03*
%TO.P,+3v3,2,VO*%
%TO.N,+3.3V*%
X129850000Y-108000000D03*
D27*
X136150000Y-108000000D03*
D26*
%TO.P,+3v3,3,VI*%
%TO.N,VIN*%
X129850000Y-110300000D03*
%TD*%
D28*
%TO.P,R4,1*%
%TO.N,Net-(R3-Pad2)*%
X127760000Y-90805000D03*
%TO.P,R4,2*%
%TO.N,Net-(U5-EN)*%
X128780000Y-90805000D03*
%TD*%
D29*
%TO.P,R2,1*%
%TO.N,Enable*%
X142240000Y-97665000D03*
%TO.P,R2,2*%
%TO.N,GND*%
X142240000Y-96645000D03*
%TD*%
D30*
%TO.P,U2,1,VDDV*%
%TO.N,+3.3V*%
X137500000Y-100726000D03*
%TO.P,U2,2,GNDC*%
%TO.N,GND*%
X138100000Y-100726000D03*
%TO.P,U2,3,GPIO0*%
%TO.N,GPIO1*%
X138700000Y-100726000D03*
%TO.P,U2,4,INT*%
%TO.N,GND*%
X139300000Y-100726000D03*
%TO.P,U2,5,SCL*%
%TO.N,SCL*%
X139900000Y-100726000D03*
%TO.P,U2,6,SDA*%
%TO.N,SDA*%
X140500000Y-100726000D03*
%TO.P,U2,7,VDD*%
%TO.N,GND*%
X140500000Y-99250000D03*
%TO.P,U2,8,GND*%
%TO.N,+3.3V*%
X139900000Y-99250000D03*
%TO.P,U2,9,EN*%
%TO.N,Enable*%
X139300000Y-99250000D03*
%TO.P,U2,10,GPIO1*%
%TO.N,GPIO0*%
X138700000Y-99250000D03*
%TO.P,U2,11,GNDV*%
%TO.N,GND*%
X138100000Y-99250000D03*
%TO.P,U2,12,VDDC*%
%TO.N,+3.3V*%
X137500000Y-99250000D03*
%TD*%
D31*
%TO.P,R1,1*%
%TO.N,Enable_Motor*%
X121750000Y-98152500D03*
%TO.P,R1,2*%
%TO.N,GND*%
X121750000Y-99172500D03*
%TD*%
D32*
%TO.P,C1,1*%
%TO.N,GND*%
X138250000Y-97155000D03*
%TO.P,C1,2*%
%TO.N,+3.3V*%
X137290000Y-97155000D03*
%TD*%
D26*
%TO.P,+5V,1,GND*%
%TO.N,GND*%
X142700000Y-105700000D03*
%TO.P,+5V,2,VO*%
%TO.N,+5V*%
X142700000Y-108000000D03*
D27*
X149000000Y-108000000D03*
D26*
%TO.P,+5V,3,VI*%
%TO.N,VIN*%
X142700000Y-110300000D03*
%TD*%
D11*
%TO.P,SW1,1,1*%
%TO.N,GND*%
X153250000Y-87600000D03*
%TO.P,SW1,2,2*%
%TO.N,Net-(U5-GPIO0{slash}BOOT)*%
X153250000Y-83400000D03*
%TD*%
D33*
%TO.P,C3,1*%
%TO.N,GND*%
X139290000Y-97155000D03*
%TO.P,C3,2*%
%TO.N,+3.3V*%
X140250000Y-97155000D03*
%TD*%
D32*
%TO.P,C2,1*%
%TO.N,GND*%
X138250000Y-102250000D03*
%TO.P,C2,2*%
%TO.N,+3.3V*%
X137290000Y-102250000D03*
%TD*%
D34*
%TO.N,GND*%
X142866453Y-95571283D03*
X152267304Y-88454234D03*
X146850000Y-89750000D03*
X130717722Y-127626148D03*
%TO.N,+3.3V*%
X132850000Y-78500000D03*
X136517520Y-106367523D03*
X140464767Y-97481434D03*
X139900000Y-99250000D03*
X131300185Y-85065306D03*
X137290000Y-102250000D03*
%TO.N,+5V*%
X139191338Y-108973346D03*
%TO.N,TMS*%
X127413689Y-104239823D03*
X134885187Y-96576017D03*
X128489185Y-103021876D03*
X134058977Y-97380859D03*
%TO.N,TDI*%
X126827873Y-103641425D03*
X127973407Y-102495891D03*
X134371783Y-96139063D03*
X133546760Y-96904731D03*
%TO.N,TDO*%
X133004827Y-96453729D03*
X127435035Y-102023520D03*
X133802547Y-95599029D03*
X126231334Y-103231609D03*
%TO.N,TCK*%
X132561872Y-96057588D03*
X125749461Y-102829330D03*
X127000000Y-101600000D03*
X133429593Y-95164347D03*
%TO.N,Enable_Motor*%
X129342043Y-86124498D03*
X125588203Y-89847569D03*
%TO.N,Enable*%
X142240000Y-97665000D03*
X133142072Y-80492073D03*
%TO.N,Net-(U5-GPIO0{slash}BOOT)*%
X132850000Y-79350000D03*
X153352335Y-82995075D03*
%TO.N,GPIO1*%
X132850000Y-83600000D03*
X138718767Y-101297904D03*
%TO.N,SCL*%
X139910304Y-101306488D03*
X132850000Y-81050000D03*
%TO.N,SDA*%
X132850000Y-81900000D03*
X140496437Y-101088654D03*
%TO.N,GPIO0*%
X132850000Y-82750000D03*
X138129339Y-98267157D03*
%TO.N,Hall_Effect_Sensor*%
X141605000Y-93345000D03*
X134949056Y-86943836D03*
X151765000Y-97790000D03*
X149595698Y-97765702D03*
X160528000Y-98300000D03*
X156972000Y-98300000D03*
%TO.N,D+*%
X143510000Y-93345000D03*
X145327692Y-94221768D03*
X140700000Y-89750000D03*
X138749437Y-118934388D03*
X146561394Y-108575910D03*
X146561394Y-107335297D03*
X139005851Y-122438844D03*
%TO.N,D-*%
X145774319Y-93721768D03*
X147134105Y-107350895D03*
X139319144Y-118915059D03*
X139850000Y-89750000D03*
X147109374Y-108529123D03*
X144059644Y-93157080D03*
%TO.N,Net-(U5-EN)*%
X131356446Y-79286446D03*
X146850000Y-76800000D03*
%TO.N,SLED*%
X125865385Y-100170297D03*
X130948212Y-94462855D03*
X131868638Y-93542429D03*
X124460000Y-101600000D03*
%TD*%
D35*
%TO.N,GND*%
X160062484Y-99215000D02*
X153250000Y-92402516D01*
X139850000Y-75750000D02*
X132850000Y-75750000D01*
X139875000Y-79350000D02*
X139850000Y-79375000D01*
X126750000Y-83100000D02*
X132200000Y-77650000D01*
X135890000Y-122240000D02*
X135320000Y-122240000D01*
X140500000Y-99250000D02*
X140500000Y-98962501D01*
X138100000Y-100726000D02*
X138100000Y-101295000D01*
D36*
X144400000Y-110110000D02*
X144400000Y-106550000D01*
D35*
X142240000Y-96645000D02*
X142240000Y-96197736D01*
X143240000Y-121900000D02*
X148100000Y-121900000D01*
X138250000Y-102250000D02*
X138250000Y-105202907D01*
X143500000Y-125532688D02*
X140906156Y-122938844D01*
X139300000Y-100726000D02*
X139300000Y-100438501D01*
X143500000Y-127750000D02*
X143500000Y-125532688D01*
X142700000Y-122240000D02*
X141605000Y-122240000D01*
X136260000Y-120740000D02*
X136010000Y-120990000D01*
X147808528Y-113870000D02*
X147378528Y-114300000D01*
D36*
X142700000Y-105700000D02*
X142400000Y-105400000D01*
D37*
X123322500Y-99172500D02*
X129850000Y-105700000D01*
D35*
X135890000Y-121710000D02*
X136010000Y-121590000D01*
X136010000Y-120990000D02*
X136010000Y-121590000D01*
X143140000Y-121800000D02*
X143240000Y-121900000D01*
X146850000Y-79350000D02*
X146850000Y-78500000D01*
X146850000Y-79350000D02*
X139875000Y-79350000D01*
X138200000Y-82750000D02*
X138200000Y-84400000D01*
D37*
X121750000Y-99172500D02*
X123322500Y-99172500D01*
D35*
X138200000Y-81100000D02*
X138200000Y-82750000D01*
X139850000Y-81100000D02*
X141500000Y-81100000D01*
X138100000Y-99250000D02*
X138100000Y-98944925D01*
X126750000Y-83500000D02*
X126750000Y-83100000D01*
X137718767Y-97686233D02*
X138250000Y-97155000D01*
X138081500Y-101313500D02*
X138250000Y-101482000D01*
X137629339Y-98474264D02*
X137629339Y-98060050D01*
X132850000Y-89750000D02*
X138200000Y-84400000D01*
D36*
X143550000Y-105700000D02*
X142700000Y-105700000D01*
D35*
X139850000Y-81100000D02*
X139850000Y-79375000D01*
D36*
X147378528Y-113088528D02*
X147378528Y-114300000D01*
D35*
X140903566Y-97981434D02*
X142240000Y-96645000D01*
D36*
X130150000Y-105400000D02*
X129850000Y-105700000D01*
D35*
X136588844Y-122938844D02*
X135890000Y-122240000D01*
X135890000Y-122240000D02*
X135890000Y-121710000D01*
X138100000Y-101295000D02*
X138081500Y-101313500D01*
X154000000Y-113870000D02*
X147808528Y-113870000D01*
X134520000Y-126365000D02*
X134520000Y-125007688D01*
X141605000Y-122240000D02*
X141510000Y-122145000D01*
X138449568Y-100138500D02*
X138100000Y-100488068D01*
X140500000Y-99020000D02*
X140500000Y-99250000D01*
X139300000Y-100438501D02*
X138999999Y-100138500D01*
X135320000Y-122240000D02*
X134880000Y-121800000D01*
X138100000Y-100488068D02*
X138100000Y-100726000D01*
D36*
X142400000Y-105400000D02*
X139065000Y-105400000D01*
D35*
X138100000Y-100726000D02*
X138100000Y-99250000D01*
X141760000Y-119890000D02*
X141760000Y-121340000D01*
X141510000Y-122145000D02*
X141510000Y-121590000D01*
X134520000Y-127750000D02*
X134520000Y-126365000D01*
D36*
X147378528Y-116781472D02*
X147411472Y-116781472D01*
D35*
X138999999Y-100138500D02*
X138449568Y-100138500D01*
X153250000Y-92402516D02*
X153250000Y-87600000D01*
D36*
X139065000Y-105400000D02*
X138447093Y-105400000D01*
D35*
X142240000Y-96197736D02*
X142866453Y-95571283D01*
X132850000Y-75750000D02*
X132850000Y-77650000D01*
X141500000Y-81100000D02*
X141500000Y-82750000D01*
X140116434Y-98578935D02*
X140116434Y-97981434D01*
X162750000Y-99215000D02*
X160062484Y-99215000D01*
X140906156Y-122938844D02*
X136588844Y-122938844D01*
X138250000Y-105202907D02*
X138447093Y-105400000D01*
X136260000Y-119890000D02*
X136260000Y-120740000D01*
X148100000Y-121900000D02*
X149250000Y-120750000D01*
D36*
X147411472Y-116781472D02*
X149250000Y-118620000D01*
D35*
X138100000Y-98944925D02*
X137629339Y-98474264D01*
X141605000Y-122240000D02*
X140906156Y-122938844D01*
X138200000Y-82750000D02*
X139850000Y-82750000D01*
X153250000Y-87600000D02*
X153121538Y-87600000D01*
X146850000Y-89750000D02*
X141500000Y-84400000D01*
D36*
X144400000Y-110110000D02*
X147378528Y-113088528D01*
D35*
X140500000Y-99250000D02*
X140500000Y-98960000D01*
D36*
X138447093Y-105400000D02*
X130150000Y-105400000D01*
D35*
X143140000Y-121800000D02*
X142700000Y-122240000D01*
X134520000Y-125007688D02*
X136588844Y-122938844D01*
X132200000Y-77650000D02*
X132850000Y-77650000D01*
X140500000Y-98962501D02*
X140116434Y-98578935D01*
X140565000Y-99185000D02*
X140500000Y-99250000D01*
X138250000Y-97155000D02*
X139290000Y-97155000D01*
X138200000Y-84400000D02*
X139850000Y-84400000D01*
D36*
X147378528Y-114300000D02*
X147378528Y-116781472D01*
D35*
X137718767Y-97970622D02*
X137718767Y-97686233D01*
D37*
X121750000Y-99172500D02*
X118360000Y-99172500D01*
D35*
X139850000Y-79375000D02*
X139850000Y-75750000D01*
D36*
X149250000Y-120750000D02*
X149250000Y-118620000D01*
D35*
X153121538Y-87600000D02*
X152267304Y-88454234D01*
X138250000Y-101482000D02*
X138250000Y-102250000D01*
X141500000Y-82750000D02*
X141500000Y-84400000D01*
X138200000Y-81100000D02*
X139850000Y-81100000D01*
X140517650Y-99267650D02*
X140500000Y-99250000D01*
X164750000Y-99250000D02*
X162785000Y-99250000D01*
X141500000Y-82750000D02*
X139850000Y-82750000D01*
X140116434Y-97981434D02*
X139290000Y-97155000D01*
X118360000Y-99172500D02*
X118187500Y-99000000D01*
X139850000Y-75750000D02*
X146850000Y-75750000D01*
X141500000Y-84400000D02*
X139850000Y-84400000D01*
D36*
X144400000Y-106550000D02*
X143550000Y-105700000D01*
D35*
X140116434Y-97981434D02*
X140903566Y-97981434D01*
X137629339Y-98060050D02*
X137718767Y-97970622D01*
X139850000Y-82750000D02*
X139850000Y-84400000D01*
X162785000Y-99250000D02*
X162750000Y-99215000D01*
X141760000Y-121340000D02*
X141510000Y-121590000D01*
%TO.N,+3.3V*%
X136150000Y-108000000D02*
X136150000Y-106735043D01*
X137290000Y-97155000D02*
X137900000Y-96545000D01*
X137500000Y-102040000D02*
X137290000Y-102250000D01*
X130175000Y-92710000D02*
X128780000Y-92710000D01*
X137290000Y-97833704D02*
X137229339Y-97894365D01*
X130175000Y-86190491D02*
X131300185Y-85065306D01*
X140250000Y-97155000D02*
X140250000Y-97266667D01*
X162750000Y-100175000D02*
X160075000Y-100175000D01*
X136150000Y-106735043D02*
X136517520Y-106367523D01*
X128531523Y-108000000D02*
X129850000Y-108000000D01*
X130175000Y-92710000D02*
X130175000Y-86190491D01*
X128183117Y-125091543D02*
X128183117Y-108348406D01*
X137290000Y-97155000D02*
X137290000Y-97833704D01*
X137500000Y-99695000D02*
X137500000Y-99250000D01*
X137500000Y-100726000D02*
X137500000Y-99695000D01*
X128183117Y-108348406D02*
X128531523Y-108000000D01*
X137229339Y-98979339D02*
X137500000Y-99250000D01*
X137290000Y-97155000D02*
X134620000Y-97155000D01*
X166600000Y-100175000D02*
X166625000Y-100200000D01*
X137229339Y-97894365D02*
X137229339Y-98979339D01*
X137900000Y-96545000D02*
X139640000Y-96545000D01*
X162750000Y-100175000D02*
X166600000Y-100175000D01*
X137500000Y-100726000D02*
X137500000Y-102040000D01*
X129817722Y-126726148D02*
X128183117Y-125091543D01*
X139640000Y-96545000D02*
X140250000Y-97155000D01*
X160075000Y-100175000D02*
X154000000Y-106250000D01*
X134620000Y-97155000D02*
X130175000Y-92710000D01*
X140250000Y-97266667D02*
X140464767Y-97481434D01*
D36*
%TO.N,VIN*%
X145900000Y-113500000D02*
X142700000Y-110300000D01*
X130150000Y-110600000D02*
X129850000Y-110300000D01*
X142700000Y-110300000D02*
X142400000Y-110600000D01*
X145900000Y-117000000D02*
X145900000Y-113500000D01*
X146710000Y-120750000D02*
X146710000Y-117810000D01*
X146710000Y-117810000D02*
X145900000Y-117000000D01*
X142400000Y-110600000D02*
X130150000Y-110600000D01*
D35*
%TO.N,Net-(D1-A)*%
X138542330Y-118434388D02*
X137710000Y-119266718D01*
X140260000Y-120740000D02*
X140010000Y-120990000D01*
X137710000Y-119266718D02*
X137710000Y-120540000D01*
X139545580Y-118434388D02*
X138542330Y-118434388D01*
X137710000Y-120540000D02*
X137510000Y-120740000D01*
X140260000Y-119148808D02*
X139545580Y-118434388D01*
X137510000Y-120740000D02*
X137510000Y-121590000D01*
X140260000Y-119380000D02*
X140260000Y-119890000D01*
X140260000Y-119340000D02*
X140260000Y-119380000D01*
X140010000Y-120990000D02*
X140010000Y-121590000D01*
X142600000Y-117000000D02*
X140260000Y-119340000D01*
X140260000Y-119380000D02*
X140260000Y-119148808D01*
X140260000Y-119890000D02*
X140260000Y-120740000D01*
%TO.N,RX*%
X154000000Y-108790000D02*
X152605000Y-108790000D01*
X147050000Y-81050000D02*
X146850000Y-81050000D01*
X151130000Y-85130000D02*
X147050000Y-81050000D01*
X151130000Y-107315000D02*
X151130000Y-85130000D01*
X152605000Y-108790000D02*
X151130000Y-107315000D01*
%TO.N,TX*%
X147050000Y-81900000D02*
X146850000Y-81900000D01*
X154000000Y-111330000D02*
X150300000Y-107630000D01*
X150300000Y-85150000D02*
X147050000Y-81900000D01*
X150300000Y-107630000D02*
X150300000Y-85150000D01*
D37*
%TO.N,Net-(Q1-E)*%
X116312500Y-99950000D02*
X112075000Y-99950000D01*
D35*
X112075000Y-99950000D02*
X112000000Y-100025000D01*
D37*
%TO.N,+5V*%
X140164684Y-108000000D02*
X139191338Y-108973346D01*
X142700000Y-108000000D02*
X140164684Y-108000000D01*
D35*
%TO.N,TMS*%
X144266751Y-92657080D02*
X144319671Y-92710000D01*
X143799617Y-92710000D02*
X143852537Y-92657080D01*
X124375000Y-114050000D02*
X127413689Y-111011311D01*
X128489185Y-103021876D02*
X134058977Y-97452084D01*
X148764441Y-92710000D02*
X149017349Y-92457092D01*
X149017349Y-92457092D02*
X149017349Y-84717349D01*
X134885187Y-96576017D02*
X138751204Y-92710000D01*
X138751204Y-92710000D02*
X143799617Y-92710000D01*
X127413689Y-111011311D02*
X127413689Y-104239823D01*
X149017349Y-84717349D02*
X148863503Y-84563503D01*
X148863503Y-84563503D02*
X147050000Y-82750000D01*
X143852537Y-92657080D02*
X144266751Y-92657080D01*
X148863503Y-84568216D02*
X148863503Y-84563503D01*
X144319671Y-92710000D02*
X148764441Y-92710000D01*
X134058977Y-97452084D02*
X134058977Y-97380859D01*
X147050000Y-82750000D02*
X146850000Y-82750000D01*
%TO.N,TDI*%
X126827873Y-109057127D02*
X126827873Y-103641425D01*
X148590000Y-84990000D02*
X147200000Y-83600000D01*
X138185518Y-92710000D02*
X138585519Y-92310000D01*
X144432437Y-92257080D02*
X144485356Y-92310000D01*
X143686852Y-92257080D02*
X144432437Y-92257080D01*
X134371783Y-96139063D02*
X137800846Y-92710000D01*
X148590000Y-92310000D02*
X148590000Y-84990000D01*
X147200000Y-83600000D02*
X146850000Y-83600000D01*
X143633931Y-92310000D02*
X143686852Y-92257080D01*
X124375000Y-111510000D02*
X126827873Y-109057127D01*
X133546760Y-96922538D02*
X133546760Y-96904731D01*
X127973407Y-102495891D02*
X133546760Y-96922538D01*
X137800846Y-92710000D02*
X138185518Y-92710000D01*
X138585519Y-92310000D02*
X143633931Y-92310000D01*
X144485356Y-92310000D02*
X148590000Y-92310000D01*
%TO.N,TDO*%
X138419834Y-91910000D02*
X143468247Y-91910000D01*
X144598122Y-91857080D02*
X144651042Y-91910000D01*
X137091576Y-92310000D02*
X138019833Y-92310000D01*
X143468247Y-91910000D02*
X143521169Y-91857080D01*
X133004826Y-96453729D02*
X133004827Y-96453729D01*
X147050000Y-84450000D02*
X146850000Y-84450000D01*
X124375000Y-108970000D02*
X126231334Y-107113666D01*
X144651042Y-91910000D02*
X148190000Y-91910000D01*
X133802547Y-95599029D02*
X137091576Y-92310000D01*
X126231334Y-107113666D02*
X126231334Y-103231609D01*
X138019833Y-92310000D02*
X138419834Y-91910000D01*
X148190000Y-91910000D02*
X148190000Y-85590000D01*
X148190000Y-85590000D02*
X147050000Y-84450000D01*
X143521169Y-91857080D02*
X144598122Y-91857080D01*
X127435035Y-102023520D02*
X133004826Y-96453729D01*
%TO.N,TCK*%
X143355489Y-91457077D02*
X144763805Y-91457077D01*
X144763805Y-91457077D02*
X144816728Y-91510000D01*
X127000000Y-101600000D02*
X127029833Y-101600000D01*
X132487055Y-96132405D02*
X132561872Y-96057588D01*
X147050000Y-85300000D02*
X146850000Y-85300000D01*
X147790000Y-91510000D02*
X147790000Y-86040000D01*
X144816728Y-91510000D02*
X147790000Y-91510000D01*
X124375000Y-104203791D02*
X125749461Y-102829330D01*
X138254149Y-91510000D02*
X143302566Y-91510000D01*
X136683940Y-91910000D02*
X137854148Y-91910000D01*
X137854148Y-91910000D02*
X138254149Y-91510000D01*
X143302566Y-91510000D02*
X143355489Y-91457077D01*
X147790000Y-86040000D02*
X147050000Y-85300000D01*
X132487055Y-96142778D02*
X132487055Y-96132405D01*
X133429593Y-95164347D02*
X136683940Y-91910000D01*
X127029833Y-101600000D02*
X132487055Y-96142778D01*
X124375000Y-106430000D02*
X124375000Y-104203791D01*
%TO.N,Enable_Motor*%
X129342043Y-86124498D02*
X131016541Y-84450000D01*
X116415000Y-98152500D02*
X116312500Y-98050000D01*
X121750000Y-98152500D02*
X121750000Y-93685772D01*
X121750000Y-98152500D02*
X116415000Y-98152500D01*
X121750000Y-93685772D02*
X125588203Y-89847569D01*
X131016541Y-84450000D02*
X132850000Y-84450000D01*
%TO.N,Enable*%
X139600001Y-99837500D02*
X139300000Y-99537499D01*
X142240000Y-97665000D02*
X142240000Y-98567500D01*
X142240000Y-98567500D02*
X140970000Y-99837500D01*
X139300000Y-99537499D02*
X139300000Y-99250000D01*
X140970000Y-99837500D02*
X139600001Y-99837500D01*
X139300000Y-99250000D02*
X139355567Y-99194433D01*
X140972499Y-99837500D02*
X140970000Y-99837500D01*
%TO.N,Net-(U5-GPIO0{slash}BOOT)*%
X153250000Y-83400000D02*
X153250000Y-83097410D01*
X153250000Y-83097410D02*
X153352335Y-82995075D01*
%TO.N,GPIO1*%
X138700000Y-101279137D02*
X138718767Y-101297904D01*
X138700000Y-100726000D02*
X138700000Y-101279137D01*
%TO.N,SCL*%
X139900000Y-100726000D02*
X139900000Y-101296184D01*
X139900000Y-101296184D02*
X139910304Y-101306488D01*
%TO.N,SDA*%
X140500000Y-100726000D02*
X140500000Y-101085091D01*
X140500000Y-101085091D02*
X140496437Y-101088654D01*
%TO.N,GPIO0*%
X138700000Y-99250000D02*
X138700000Y-98837818D01*
X138700000Y-98837818D02*
X138129339Y-98267157D01*
%TO.N,Hall_Effect_Sensor*%
X146025702Y-97765702D02*
X141605000Y-93345000D01*
X149595698Y-97765702D02*
X146025702Y-97765702D01*
X156972000Y-98300000D02*
X156501505Y-97829505D01*
X134892892Y-87000000D02*
X134949056Y-86943836D01*
X160528000Y-98300000D02*
X166625000Y-98300000D01*
X156501505Y-97829505D02*
X151804505Y-97829505D01*
X151804505Y-97829505D02*
X151765000Y-97790000D01*
X132850000Y-87000000D02*
X134892892Y-87000000D01*
%TO.N,D+*%
X138760000Y-118944951D02*
X138749437Y-118934388D01*
X139010000Y-122434695D02*
X139005851Y-122438844D01*
X146561394Y-108575910D02*
X146561394Y-107335297D01*
X139010000Y-121590000D02*
X139010000Y-122434695D01*
X144386768Y-94221768D02*
X145327692Y-94221768D01*
X138760000Y-119890000D02*
X138760000Y-118944951D01*
X143510000Y-93345000D02*
X144386768Y-94221768D01*
%TO.N,D-*%
X138850000Y-120650000D02*
X139065000Y-120650000D01*
X138510000Y-120990000D02*
X138850000Y-120650000D01*
X139065000Y-120650000D02*
X139260000Y-120455000D01*
X145774319Y-93721768D02*
X144624332Y-93721768D01*
X139260000Y-119890000D02*
X139260000Y-118974203D01*
X138510000Y-121590000D02*
X138510000Y-120990000D01*
X139260000Y-120455000D02*
X139260000Y-119890000D01*
X144624332Y-93721768D02*
X144059644Y-93157080D01*
X139260000Y-118974203D02*
X139319144Y-118915059D01*
X147109374Y-108529123D02*
X147109374Y-107375626D01*
X147109374Y-107375626D02*
X147134105Y-107350895D01*
%TO.N,Net-(U5-EN)*%
X128780000Y-90805000D02*
X128780000Y-81862892D01*
X128780000Y-81862892D02*
X131356446Y-79286446D01*
%TO.N,SLED*%
X130717722Y-126726148D02*
X131806148Y-126726148D01*
X131806148Y-126726148D02*
X132080000Y-127000000D01*
X131868638Y-93542429D02*
X133900000Y-91511067D01*
X128691348Y-128176148D02*
X123225000Y-122709800D01*
X123225000Y-122709800D02*
X123225000Y-102835000D01*
X130556000Y-94996000D02*
X130553870Y-94996000D01*
X130553870Y-94996000D02*
X125865385Y-99684485D01*
X130948212Y-94603788D02*
X130556000Y-94996000D01*
X131267722Y-128176148D02*
X128691348Y-128176148D01*
X130948212Y-94462855D02*
X130948212Y-94603788D01*
X123225000Y-102835000D02*
X124460000Y-101600000D01*
X133900000Y-91511067D02*
X133900000Y-89750000D01*
X125865385Y-99684485D02*
X125865385Y-100170297D01*
X132080000Y-127363870D02*
X131267722Y-128176148D01*
X132080000Y-127000000D02*
X132080000Y-127363870D01*
%TO.N,Net-(R3-Pad2)*%
X127357180Y-90805320D02*
X127357180Y-91919361D01*
X127760000Y-92322181D02*
X127760000Y-92710000D01*
X126750000Y-87700000D02*
X127357500Y-88307500D01*
X127357500Y-90805000D02*
X127357180Y-90805320D01*
X127357180Y-91919361D02*
X127760000Y-92322181D01*
X127357500Y-88307500D02*
X127357500Y-90805000D01*
X127357500Y-90805000D02*
X127760000Y-90805000D01*
%TD*%
%TA.AperFunction,Conductor*%
%TO.N,GND*%
G36*
X131883634Y-85514319D02*
G01*
X131936937Y-85559491D01*
X131951675Y-85600509D01*
X131954124Y-85599931D01*
X131955908Y-85607482D01*
X131983577Y-85681667D01*
X131988561Y-85751358D01*
X131983577Y-85768331D01*
X131955910Y-85842511D01*
X131955909Y-85842515D01*
X131955909Y-85842517D01*
X131949500Y-85902127D01*
X131949500Y-85902134D01*
X131949500Y-85902135D01*
X131949500Y-86397870D01*
X131949501Y-86397876D01*
X131955908Y-86457483D01*
X131983577Y-86531667D01*
X131988561Y-86601358D01*
X131983577Y-86618331D01*
X131955910Y-86692511D01*
X131955909Y-86692515D01*
X131955909Y-86692517D01*
X131949500Y-86752127D01*
X131949500Y-86752134D01*
X131949500Y-86752135D01*
X131949500Y-87247870D01*
X131949501Y-87247876D01*
X131955908Y-87307483D01*
X131983577Y-87381667D01*
X131988561Y-87451358D01*
X131983577Y-87468331D01*
X131955910Y-87542511D01*
X131955909Y-87542515D01*
X131955909Y-87542517D01*
X131949500Y-87602127D01*
X131949500Y-87602134D01*
X131949500Y-87602135D01*
X131949500Y-88097870D01*
X131949501Y-88097876D01*
X131955908Y-88157483D01*
X131983577Y-88231667D01*
X131988561Y-88301358D01*
X131983577Y-88318331D01*
X131955910Y-88392511D01*
X131955910Y-88392514D01*
X131955909Y-88392517D01*
X131949500Y-88452127D01*
X131949500Y-88452134D01*
X131949500Y-88452135D01*
X131949500Y-88947870D01*
X131949501Y-88947876D01*
X131955909Y-89007485D01*
X131983843Y-89082382D01*
X131988827Y-89152074D01*
X131983844Y-89169046D01*
X131956402Y-89242623D01*
X131956401Y-89242627D01*
X131950000Y-89302155D01*
X131950000Y-89500000D01*
X132976000Y-89500000D01*
X133043039Y-89519685D01*
X133088794Y-89572489D01*
X133100000Y-89624000D01*
X133100000Y-90650000D01*
X133175500Y-90650000D01*
X133242539Y-90669685D01*
X133288294Y-90722489D01*
X133299500Y-90774000D01*
X133299500Y-91210969D01*
X133279815Y-91278008D01*
X133263181Y-91298650D01*
X131640833Y-92920997D01*
X131610779Y-92943112D01*
X131496398Y-93003145D01*
X131496397Y-93003146D01*
X131488842Y-93009839D01*
X131425608Y-93039558D01*
X131356345Y-93030373D01*
X131318937Y-93004702D01*
X130811819Y-92497584D01*
X130778334Y-92436261D01*
X130775500Y-92409903D01*
X130775500Y-90000000D01*
X131950000Y-90000000D01*
X131950000Y-90197844D01*
X131956401Y-90257372D01*
X131956403Y-90257379D01*
X132006645Y-90392086D01*
X132006649Y-90392093D01*
X132092809Y-90507187D01*
X132092812Y-90507190D01*
X132207906Y-90593350D01*
X132207913Y-90593354D01*
X132342620Y-90643596D01*
X132342627Y-90643598D01*
X132402155Y-90649999D01*
X132402172Y-90650000D01*
X132600000Y-90650000D01*
X132600000Y-90000000D01*
X131950000Y-90000000D01*
X130775500Y-90000000D01*
X130775500Y-86490587D01*
X130795185Y-86423548D01*
X130811815Y-86402910D01*
X131527990Y-85686734D01*
X131558040Y-85664622D01*
X131672425Y-85604589D01*
X131751139Y-85534854D01*
X131814370Y-85505135D01*
X131883634Y-85514319D01*
G37*
%TD.AperFunction*%
%TA.AperFunction,Conductor*%
G36*
X147043039Y-89519685D02*
G01*
X147088794Y-89572489D01*
X147100000Y-89624000D01*
X147100000Y-90650000D01*
X147114341Y-90664341D01*
X147132539Y-90669685D01*
X147178294Y-90722489D01*
X147189500Y-90774000D01*
X147189500Y-90785500D01*
X147169815Y-90852539D01*
X147117011Y-90898294D01*
X147065500Y-90909500D01*
X145035685Y-90909500D01*
X144988233Y-90900061D01*
X144961672Y-90889059D01*
X144907270Y-90845218D01*
X144885206Y-90778924D01*
X144902486Y-90711224D01*
X144953624Y-90663615D01*
X145009125Y-90650499D01*
X145197872Y-90650499D01*
X145257483Y-90644091D01*
X145331667Y-90616421D01*
X145401358Y-90611438D01*
X145418327Y-90616420D01*
X145479010Y-90639053D01*
X145491192Y-90643597D01*
X145492517Y-90644091D01*
X145552127Y-90650500D01*
X146047872Y-90650499D01*
X146107483Y-90644091D01*
X146182380Y-90616155D01*
X146252071Y-90611171D01*
X146269049Y-90616156D01*
X146342621Y-90643597D01*
X146402155Y-90649999D01*
X146402172Y-90650000D01*
X146600000Y-90650000D01*
X146600000Y-89624000D01*
X146619685Y-89556961D01*
X146672489Y-89511206D01*
X146724000Y-89500000D01*
X146976000Y-89500000D01*
X147043039Y-89519685D01*
G37*
%TD.AperFunction*%
%TA.AperFunction,Conductor*%
G36*
X132026203Y-69878801D02*
G01*
X132093208Y-69898594D01*
X132138878Y-69951472D01*
X132150000Y-70002801D01*
X132150000Y-74887929D01*
X132130315Y-74954968D01*
X132100313Y-74987194D01*
X132092816Y-74992806D01*
X132092808Y-74992814D01*
X132006649Y-75107906D01*
X132006645Y-75107913D01*
X131956403Y-75242620D01*
X131956401Y-75242627D01*
X131950000Y-75302155D01*
X131950000Y-75500000D01*
X133688638Y-75500000D01*
X133755677Y-75519685D01*
X133776319Y-75536319D01*
X133790000Y-75550000D01*
X145910000Y-75550000D01*
X145923681Y-75536319D01*
X145985004Y-75502834D01*
X146011362Y-75500000D01*
X147750000Y-75500000D01*
X147750000Y-75302172D01*
X147749999Y-75302155D01*
X147743598Y-75242627D01*
X147743596Y-75242620D01*
X147693354Y-75107913D01*
X147693350Y-75107906D01*
X147607191Y-74992814D01*
X147607183Y-74992806D01*
X147599687Y-74987194D01*
X147557817Y-74931260D01*
X147550000Y-74887929D01*
X147550000Y-70028122D01*
X147569685Y-69961083D01*
X147622489Y-69915328D01*
X147674200Y-69904122D01*
X151207112Y-69909838D01*
X151274116Y-69929631D01*
X151294728Y-69946296D01*
X159424153Y-78102074D01*
X168462904Y-87170126D01*
X168496290Y-87231503D01*
X168499081Y-87257866D01*
X168459732Y-111576680D01*
X168439939Y-111643687D01*
X168423271Y-111664302D01*
X151199445Y-128832475D01*
X151138068Y-128865861D01*
X151111705Y-128868652D01*
X144262236Y-128857569D01*
X144195229Y-128837776D01*
X144149559Y-128784898D01*
X144139728Y-128715723D01*
X144168856Y-128652215D01*
X144170288Y-128650595D01*
X144232130Y-128581914D01*
X144326716Y-128418084D01*
X144326721Y-128418072D01*
X144385180Y-128238154D01*
X144400000Y-128097159D01*
X144400000Y-128000000D01*
X143750000Y-128000000D01*
X143750000Y-127500000D01*
X144400000Y-127500000D01*
X144400000Y-127402840D01*
X144385180Y-127261845D01*
X144326721Y-127081927D01*
X144326716Y-127081915D01*
X144232129Y-126918084D01*
X144232127Y-126918081D01*
X144105539Y-126777490D01*
X144105536Y-126777488D01*
X143952477Y-126666282D01*
X143779648Y-126589335D01*
X143750000Y-126583032D01*
X143750000Y-127425376D01*
X143735495Y-127352455D01*
X143680240Y-127269760D01*
X143597545Y-127214505D01*
X143500000Y-127195102D01*
X143402455Y-127214505D01*
X143319760Y-127269760D01*
X143264505Y-127352455D01*
X143250000Y-127425376D01*
X143250000Y-126583032D01*
X143220354Y-126589334D01*
X143047518Y-126666286D01*
X142894464Y-126777487D01*
X142767872Y-126918081D01*
X142767870Y-126918084D01*
X142673283Y-127081915D01*
X142673278Y-127081927D01*
X142614819Y-127261845D01*
X142600000Y-127402840D01*
X142600000Y-127500000D01*
X143250000Y-127500000D01*
X143250000Y-128000000D01*
X142600000Y-128000000D01*
X142600000Y-128097159D01*
X142614819Y-128238154D01*
X142673278Y-128418072D01*
X142673283Y-128418084D01*
X142767870Y-128581915D01*
X142767872Y-128581918D01*
X142827486Y-128648126D01*
X142857716Y-128711118D01*
X142849091Y-128780453D01*
X142804349Y-128834118D01*
X142737697Y-128855076D01*
X142735135Y-128855098D01*
X135295301Y-128843060D01*
X135228294Y-128823267D01*
X135182624Y-128770389D01*
X135172793Y-128701214D01*
X135201921Y-128637706D01*
X135203353Y-128636087D01*
X135252127Y-128581918D01*
X135252129Y-128581915D01*
X135346716Y-128418084D01*
X135346721Y-128418072D01*
X135405180Y-128238154D01*
X135420000Y-128097159D01*
X135420000Y-128000000D01*
X134770000Y-128000000D01*
X134770000Y-127500000D01*
X135420000Y-127500000D01*
X135420000Y-127402840D01*
X135405180Y-127261845D01*
X135346721Y-127081927D01*
X135346716Y-127081915D01*
X135252129Y-126918084D01*
X135252127Y-126918081D01*
X135125539Y-126777490D01*
X135125536Y-126777488D01*
X134972477Y-126666282D01*
X134799648Y-126589335D01*
X134770000Y-126583032D01*
X134770000Y-127425376D01*
X134755495Y-127352455D01*
X134700240Y-127269760D01*
X134617545Y-127214505D01*
X134520000Y-127195102D01*
X134422455Y-127214505D01*
X134339760Y-127269760D01*
X134284505Y-127352455D01*
X134270000Y-127425376D01*
X134270000Y-126583032D01*
X134240354Y-126589334D01*
X134067518Y-126666286D01*
X133914464Y-126777487D01*
X133787872Y-126918081D01*
X133787870Y-126918084D01*
X133693283Y-127081915D01*
X133693278Y-127081927D01*
X133634819Y-127261845D01*
X133620000Y-127402840D01*
X133620000Y-127500000D01*
X134270000Y-127500000D01*
X134270000Y-128000000D01*
X133620000Y-128000000D01*
X133620000Y-128097159D01*
X133634819Y-128238154D01*
X133693278Y-128418072D01*
X133693283Y-128418084D01*
X133787870Y-128581915D01*
X133787873Y-128581918D01*
X133834383Y-128633574D01*
X133864613Y-128696566D01*
X133855987Y-128765901D01*
X133811246Y-128819567D01*
X133744593Y-128840524D01*
X133742032Y-128840546D01*
X131757566Y-128837335D01*
X131690559Y-128817542D01*
X131644889Y-128764664D01*
X131635058Y-128695489D01*
X131664186Y-128631981D01*
X131682279Y-128614961D01*
X131696004Y-128604430D01*
X131717705Y-128576147D01*
X131723033Y-128570070D01*
X132473922Y-127819181D01*
X132479999Y-127813853D01*
X132508282Y-127792152D01*
X132604536Y-127666711D01*
X132665044Y-127520632D01*
X132670835Y-127476647D01*
X132685683Y-127363870D01*
X132681031Y-127328535D01*
X132680500Y-127320433D01*
X132680500Y-127043427D01*
X132681031Y-127035326D01*
X132685682Y-127000000D01*
X132685682Y-126999998D01*
X132665044Y-126843239D01*
X132665042Y-126843234D01*
X132604538Y-126697163D01*
X132604538Y-126697162D01*
X132580843Y-126666282D01*
X132532450Y-126603215D01*
X132520366Y-126587466D01*
X132508283Y-126571718D01*
X132480009Y-126550023D01*
X132473912Y-126544677D01*
X132261476Y-126332241D01*
X132256122Y-126326136D01*
X132234434Y-126297870D01*
X132234431Y-126297868D01*
X132234430Y-126297866D01*
X132108989Y-126201612D01*
X131962910Y-126141104D01*
X131962908Y-126141103D01*
X131845509Y-126125648D01*
X131806148Y-126120466D01*
X131770818Y-126125117D01*
X131762720Y-126125648D01*
X131375953Y-126125648D01*
X131308914Y-126105963D01*
X131301642Y-126100915D01*
X131210053Y-126032352D01*
X131210050Y-126032350D01*
X131075208Y-125982058D01*
X131075207Y-125982057D01*
X131075205Y-125982057D01*
X131015595Y-125975648D01*
X131015585Y-125975648D01*
X130419851Y-125975648D01*
X130419845Y-125975649D01*
X130360238Y-125982056D01*
X130311054Y-126000401D01*
X130241362Y-126005385D01*
X130224389Y-126000401D01*
X130175204Y-125982056D01*
X130175205Y-125982056D01*
X130115605Y-125975649D01*
X130115603Y-125975648D01*
X130115595Y-125975648D01*
X130115587Y-125975648D01*
X129967819Y-125975648D01*
X129900780Y-125955963D01*
X129880138Y-125939329D01*
X128819936Y-124879127D01*
X128786451Y-124817804D01*
X128783617Y-124791446D01*
X128783617Y-122147159D01*
X133980000Y-122147159D01*
X133994819Y-122288154D01*
X134053278Y-122468072D01*
X134053283Y-122468084D01*
X134147870Y-122631915D01*
X134147872Y-122631918D01*
X134274460Y-122772509D01*
X134274463Y-122772511D01*
X134427522Y-122883717D01*
X134600356Y-122960666D01*
X134629999Y-122966966D01*
X134630000Y-122966966D01*
X134630000Y-122124624D01*
X134644505Y-122197545D01*
X134699760Y-122280240D01*
X134782455Y-122335495D01*
X134880000Y-122354898D01*
X134977545Y-122335495D01*
X135060240Y-122280240D01*
X135115495Y-122197545D01*
X135130000Y-122124624D01*
X135130000Y-122966966D01*
X135159643Y-122960666D01*
X135332479Y-122883714D01*
X135485535Y-122772512D01*
X135612126Y-122631918D01*
X135687778Y-122500886D01*
X135738344Y-122452671D01*
X135806951Y-122439447D01*
X135808431Y-122439598D01*
X135812161Y-122439999D01*
X135812172Y-122440000D01*
X135860000Y-122440000D01*
X135860000Y-122438627D01*
X135879685Y-122371588D01*
X135932489Y-122325833D01*
X136001647Y-122315889D01*
X136058309Y-122339359D01*
X136110312Y-122378288D01*
X136146111Y-122426111D01*
X136160000Y-122440000D01*
X136207819Y-122440000D01*
X136207833Y-122439999D01*
X136244395Y-122436068D01*
X136270905Y-122436068D01*
X136312127Y-122440500D01*
X136707872Y-122440499D01*
X136707873Y-122440498D01*
X136707885Y-122440498D01*
X136746744Y-122436320D01*
X136773252Y-122436320D01*
X136812127Y-122440500D01*
X137207872Y-122440499D01*
X137207873Y-122440498D01*
X137207885Y-122440498D01*
X137246744Y-122436320D01*
X137273252Y-122436320D01*
X137312127Y-122440500D01*
X137707872Y-122440499D01*
X137707873Y-122440498D01*
X137707885Y-122440498D01*
X137746744Y-122436320D01*
X137773252Y-122436320D01*
X137812127Y-122440500D01*
X138207872Y-122440499D01*
X138227320Y-122438408D01*
X138296080Y-122450811D01*
X138347219Y-122498420D01*
X138363675Y-122546750D01*
X138369614Y-122595662D01*
X138425631Y-122743367D01*
X138515368Y-122873374D01*
X138633611Y-122978127D01*
X138633613Y-122978128D01*
X138773485Y-123051540D01*
X138926865Y-123089344D01*
X138926866Y-123089344D01*
X139084836Y-123089344D01*
X139238216Y-123051540D01*
X139378091Y-122978127D01*
X139496334Y-122873374D01*
X139586071Y-122743367D01*
X139642088Y-122595662D01*
X139648133Y-122545868D01*
X139675754Y-122481693D01*
X139733687Y-122442636D01*
X139784482Y-122437527D01*
X139812127Y-122440500D01*
X140207872Y-122440499D01*
X140207873Y-122440498D01*
X140207885Y-122440498D01*
X140246744Y-122436320D01*
X140273252Y-122436320D01*
X140312127Y-122440500D01*
X140707872Y-122440499D01*
X140707873Y-122440498D01*
X140707885Y-122440498D01*
X140746744Y-122436320D01*
X140773252Y-122436320D01*
X140812127Y-122440500D01*
X141207872Y-122440499D01*
X141217658Y-122439447D01*
X141249094Y-122436068D01*
X141275606Y-122436068D01*
X141312166Y-122439999D01*
X141312182Y-122440000D01*
X141360000Y-122440000D01*
X141375611Y-122424388D01*
X141379685Y-122410515D01*
X141409686Y-122378289D01*
X141461690Y-122339359D01*
X141527154Y-122314943D01*
X141595426Y-122329795D01*
X141644832Y-122379200D01*
X141660000Y-122438627D01*
X141660000Y-122440000D01*
X141707828Y-122440000D01*
X141707844Y-122439999D01*
X141767372Y-122433598D01*
X141767379Y-122433596D01*
X141902086Y-122383354D01*
X141902093Y-122383350D01*
X142017186Y-122297191D01*
X142041639Y-122264527D01*
X142097573Y-122222656D01*
X142167265Y-122217672D01*
X142228588Y-122251157D01*
X142258837Y-122300520D01*
X142313278Y-122468072D01*
X142313283Y-122468084D01*
X142407870Y-122631915D01*
X142407872Y-122631918D01*
X142534460Y-122772509D01*
X142534463Y-122772511D01*
X142687522Y-122883717D01*
X142860356Y-122960666D01*
X142889999Y-122966966D01*
X142890000Y-122966966D01*
X142890000Y-122124624D01*
X142904505Y-122197545D01*
X142959760Y-122280240D01*
X143042455Y-122335495D01*
X143140000Y-122354898D01*
X143237545Y-122335495D01*
X143320240Y-122280240D01*
X143375495Y-122197545D01*
X143390000Y-122124624D01*
X143390000Y-122966966D01*
X143419643Y-122960666D01*
X143592479Y-122883714D01*
X143745535Y-122772512D01*
X143872127Y-122631918D01*
X143872129Y-122631915D01*
X143966716Y-122468084D01*
X143966721Y-122468072D01*
X144025180Y-122288154D01*
X144040000Y-122147159D01*
X144040000Y-122050000D01*
X143390000Y-122050000D01*
X143390000Y-121550000D01*
X144040000Y-121550000D01*
X144040000Y-121452840D01*
X144025180Y-121311845D01*
X143966721Y-121131927D01*
X143966716Y-121131915D01*
X143872129Y-120968084D01*
X143872127Y-120968081D01*
X143745539Y-120827490D01*
X143745536Y-120827488D01*
X143592477Y-120716282D01*
X143413711Y-120636692D01*
X143414679Y-120634517D01*
X143365930Y-120601167D01*
X143339002Y-120538880D01*
X143320687Y-120399765D01*
X143320687Y-120399764D01*
X143262698Y-120259767D01*
X143170451Y-120139549D01*
X143050233Y-120047302D01*
X143050229Y-120047300D01*
X142985081Y-120020315D01*
X142910236Y-119989313D01*
X142892204Y-119986939D01*
X142797727Y-119974500D01*
X142797720Y-119974500D01*
X142474862Y-119974500D01*
X142407823Y-119954815D01*
X142401579Y-119947609D01*
X142346547Y-119982977D01*
X142327800Y-119986938D01*
X142309764Y-119989313D01*
X142309763Y-119989313D01*
X142210183Y-120030561D01*
X142162730Y-120040000D01*
X142034500Y-120040000D01*
X141967461Y-120020315D01*
X141921706Y-119967511D01*
X141910500Y-119916002D01*
X141910499Y-119864002D01*
X141930182Y-119796963D01*
X141982985Y-119751207D01*
X142034499Y-119740000D01*
X142311612Y-119740000D01*
X142378651Y-119759685D01*
X142384169Y-119766053D01*
X142387181Y-119762819D01*
X142410000Y-119740000D01*
X142410000Y-119492172D01*
X142409999Y-119492155D01*
X142403598Y-119432627D01*
X142403596Y-119432620D01*
X142353354Y-119297913D01*
X142353350Y-119297906D01*
X142267190Y-119182812D01*
X142267187Y-119182809D01*
X142152093Y-119096649D01*
X142152086Y-119096645D01*
X142017379Y-119046403D01*
X142017372Y-119046401D01*
X141957844Y-119040000D01*
X141910000Y-119040000D01*
X141910000Y-119041373D01*
X141890315Y-119108412D01*
X141837511Y-119154167D01*
X141768353Y-119164111D01*
X141711690Y-119140640D01*
X141659687Y-119101711D01*
X141623888Y-119053888D01*
X141597298Y-119027298D01*
X141563813Y-118965975D01*
X141568797Y-118896283D01*
X141597298Y-118851936D01*
X142312416Y-118136818D01*
X142373739Y-118103333D01*
X142400097Y-118100499D01*
X143097871Y-118100499D01*
X143097872Y-118100499D01*
X143157483Y-118094091D01*
X143292331Y-118043796D01*
X143407546Y-117957546D01*
X143493796Y-117842331D01*
X143544091Y-117707483D01*
X143550500Y-117647873D01*
X143550499Y-116352128D01*
X143544091Y-116292517D01*
X143493796Y-116157669D01*
X143493795Y-116157668D01*
X143493793Y-116157664D01*
X143407547Y-116042455D01*
X143407544Y-116042452D01*
X143292335Y-115956206D01*
X143292328Y-115956202D01*
X143157482Y-115905908D01*
X143157483Y-115905908D01*
X143097883Y-115899501D01*
X143097881Y-115899500D01*
X143097873Y-115899500D01*
X143097864Y-115899500D01*
X142102129Y-115899500D01*
X142102123Y-115899501D01*
X142042516Y-115905908D01*
X141907671Y-115956202D01*
X141907664Y-115956206D01*
X141792455Y-116042452D01*
X141792452Y-116042455D01*
X141706206Y-116157664D01*
X141706202Y-116157671D01*
X141655908Y-116292517D01*
X141649501Y-116352116D01*
X141649501Y-116352123D01*
X141649500Y-116352135D01*
X141649500Y-117049902D01*
X141629815Y-117116941D01*
X141613181Y-117137583D01*
X140443276Y-118307487D01*
X140381953Y-118340972D01*
X140312261Y-118335988D01*
X140267916Y-118307488D01*
X140000900Y-118040473D01*
X139995559Y-118034382D01*
X139973862Y-118006106D01*
X139848421Y-117909852D01*
X139702342Y-117849344D01*
X139702340Y-117849343D01*
X139584941Y-117833888D01*
X139545580Y-117828706D01*
X139510250Y-117833357D01*
X139502152Y-117833888D01*
X138585758Y-117833888D01*
X138577659Y-117833357D01*
X138542330Y-117828706D01*
X138502969Y-117833888D01*
X138385569Y-117849343D01*
X138385567Y-117849344D01*
X138239487Y-117909852D01*
X138114049Y-118006104D01*
X138092349Y-118034382D01*
X138086998Y-118040484D01*
X137316096Y-118811386D01*
X137309994Y-118816737D01*
X137281720Y-118838433D01*
X137199986Y-118944951D01*
X137185461Y-118963880D01*
X137181399Y-118970916D01*
X137180057Y-118970141D01*
X137141985Y-119017369D01*
X137075687Y-119039422D01*
X137071294Y-119039500D01*
X137062136Y-119039500D01*
X137062118Y-119039501D01*
X137023253Y-119043679D01*
X136996748Y-119043679D01*
X136957874Y-119039500D01*
X136562132Y-119039500D01*
X136562117Y-119039501D01*
X136520904Y-119043931D01*
X136494402Y-119043931D01*
X136457834Y-119040000D01*
X136410000Y-119040000D01*
X136394388Y-119055611D01*
X136390315Y-119069485D01*
X136360313Y-119101710D01*
X136308309Y-119140640D01*
X136242846Y-119165057D01*
X136174574Y-119150205D01*
X136125168Y-119100800D01*
X136110000Y-119041373D01*
X136110000Y-119040000D01*
X136062155Y-119040000D01*
X136002627Y-119046401D01*
X136002620Y-119046403D01*
X135867913Y-119096645D01*
X135867906Y-119096649D01*
X135752812Y-119182809D01*
X135752809Y-119182812D01*
X135666649Y-119297906D01*
X135666645Y-119297913D01*
X135616403Y-119432620D01*
X135616401Y-119432627D01*
X135610000Y-119492155D01*
X135610000Y-119740000D01*
X135985500Y-119740000D01*
X136052539Y-119759685D01*
X136098294Y-119812489D01*
X136109500Y-119863998D01*
X136109501Y-119915998D01*
X136089818Y-119983037D01*
X136037015Y-120028793D01*
X135985501Y-120040000D01*
X135707270Y-120040000D01*
X135659817Y-120030561D01*
X135635081Y-120020315D01*
X135560236Y-119989313D01*
X135542204Y-119986939D01*
X135447727Y-119974500D01*
X135447720Y-119974500D01*
X135372280Y-119974500D01*
X135372272Y-119974500D01*
X135259764Y-119989313D01*
X135259763Y-119989313D01*
X135119770Y-120047300D01*
X134999549Y-120139549D01*
X134907300Y-120259770D01*
X134849313Y-120399763D01*
X134849313Y-120399765D01*
X134835470Y-120504906D01*
X134807203Y-120568803D01*
X134748878Y-120607273D01*
X134738313Y-120610010D01*
X134600354Y-120639334D01*
X134427518Y-120716286D01*
X134274464Y-120827487D01*
X134147872Y-120968081D01*
X134147870Y-120968084D01*
X134053283Y-121131915D01*
X134053278Y-121131927D01*
X133994819Y-121311845D01*
X133980000Y-121452840D01*
X133980000Y-121550000D01*
X134630000Y-121550000D01*
X134630000Y-122050000D01*
X133980000Y-122050000D01*
X133980000Y-122147159D01*
X128783617Y-122147159D01*
X128783617Y-111674499D01*
X128803302Y-111607460D01*
X128856106Y-111561705D01*
X128907612Y-111550499D01*
X129802391Y-111550499D01*
X129842596Y-111558760D01*
X129842943Y-111557658D01*
X129848939Y-111559539D01*
X129848940Y-111559539D01*
X129848942Y-111559540D01*
X129874211Y-111564732D01*
X129909022Y-111571887D01*
X129913600Y-111573010D01*
X129926426Y-111576680D01*
X129972582Y-111589887D01*
X130006839Y-111592495D01*
X130014614Y-111593586D01*
X130048255Y-111600500D01*
X130048259Y-111600500D01*
X130109598Y-111600500D01*
X130114304Y-111600678D01*
X130141595Y-111602757D01*
X130175475Y-111605337D01*
X130175475Y-111605336D01*
X130175476Y-111605337D01*
X130209559Y-111600996D01*
X130217389Y-111600500D01*
X142387284Y-111600500D01*
X142476358Y-111602757D01*
X142476358Y-111602756D01*
X142476363Y-111602757D01*
X142507137Y-111597241D01*
X142576597Y-111604790D01*
X142616694Y-111631615D01*
X144863181Y-113878102D01*
X144896666Y-113939425D01*
X144899500Y-113965783D01*
X144899500Y-116987283D01*
X144897243Y-117076362D01*
X144897243Y-117076370D01*
X144908064Y-117136739D01*
X144908718Y-117141404D01*
X144914925Y-117202430D01*
X144914927Y-117202444D01*
X144925208Y-117235213D01*
X144927079Y-117242837D01*
X144933141Y-117276651D01*
X144940654Y-117295459D01*
X144949500Y-117341455D01*
X144949500Y-117647869D01*
X144949501Y-117647876D01*
X144955908Y-117707483D01*
X145006202Y-117842328D01*
X145006206Y-117842335D01*
X145092452Y-117957544D01*
X145092455Y-117957547D01*
X145207664Y-118043793D01*
X145207671Y-118043797D01*
X145252618Y-118060561D01*
X145342517Y-118094091D01*
X145402127Y-118100500D01*
X145534216Y-118100499D01*
X145601256Y-118120183D01*
X145621898Y-118136818D01*
X145673181Y-118188101D01*
X145706666Y-118249424D01*
X145709500Y-118275782D01*
X145709500Y-119335858D01*
X145689815Y-119402897D01*
X145637011Y-119448652D01*
X145628847Y-119452034D01*
X145617669Y-119456204D01*
X145617664Y-119456206D01*
X145502455Y-119542452D01*
X145502452Y-119542455D01*
X145416206Y-119657664D01*
X145416202Y-119657671D01*
X145365908Y-119792517D01*
X145359501Y-119852116D01*
X145359500Y-119852135D01*
X145359500Y-121647870D01*
X145359501Y-121647876D01*
X145365908Y-121707483D01*
X145416202Y-121842328D01*
X145416206Y-121842335D01*
X145502452Y-121957544D01*
X145502455Y-121957547D01*
X145617664Y-122043793D01*
X145617671Y-122043797D01*
X145752517Y-122094091D01*
X145752516Y-122094091D01*
X145759444Y-122094835D01*
X145812127Y-122100500D01*
X147607872Y-122100499D01*
X147667483Y-122094091D01*
X147802331Y-122043796D01*
X147917546Y-121957546D01*
X148003796Y-121842331D01*
X148053002Y-121710401D01*
X148094872Y-121654468D01*
X148160337Y-121630050D01*
X148228610Y-121644901D01*
X148256865Y-121666053D01*
X148378917Y-121788105D01*
X148572421Y-121923600D01*
X148786507Y-122023429D01*
X148786516Y-122023433D01*
X149000000Y-122080634D01*
X149000000Y-121185501D01*
X149107685Y-121234680D01*
X149214237Y-121250000D01*
X149285763Y-121250000D01*
X149392315Y-121234680D01*
X149500000Y-121185501D01*
X149500000Y-122080633D01*
X149713483Y-122023433D01*
X149713492Y-122023429D01*
X149927578Y-121923600D01*
X150121082Y-121788105D01*
X150288105Y-121621082D01*
X150423600Y-121427578D01*
X150523429Y-121213492D01*
X150523432Y-121213486D01*
X150580636Y-121000000D01*
X149683686Y-121000000D01*
X149709493Y-120959844D01*
X149750000Y-120821889D01*
X149750000Y-120678111D01*
X149709493Y-120540156D01*
X149683686Y-120500000D01*
X150580636Y-120500000D01*
X150580635Y-120499999D01*
X150523432Y-120286513D01*
X150523429Y-120286507D01*
X150423600Y-120072422D01*
X150423599Y-120072420D01*
X150294467Y-119888000D01*
X156124341Y-119888000D01*
X156144936Y-120123403D01*
X156144938Y-120123413D01*
X156206094Y-120351655D01*
X156206096Y-120351659D01*
X156206097Y-120351663D01*
X156228527Y-120399763D01*
X156305964Y-120565828D01*
X156305965Y-120565830D01*
X156441505Y-120759402D01*
X156608597Y-120926494D01*
X156802169Y-121062034D01*
X156802171Y-121062035D01*
X157016337Y-121161903D01*
X157244592Y-121223063D01*
X157421034Y-121238500D01*
X157538966Y-121238500D01*
X157715408Y-121223063D01*
X157943663Y-121161903D01*
X158157829Y-121062035D01*
X158351401Y-120926495D01*
X158518495Y-120759401D01*
X158654035Y-120565830D01*
X158753903Y-120351663D01*
X158815063Y-120123408D01*
X158835659Y-119888000D01*
X158832519Y-119852116D01*
X158824707Y-119762819D01*
X158815063Y-119652592D01*
X158756124Y-119432627D01*
X158753905Y-119424344D01*
X158753904Y-119424343D01*
X158753903Y-119424337D01*
X158654035Y-119210171D01*
X158654034Y-119210169D01*
X158518494Y-119016597D01*
X158351402Y-118849505D01*
X158157830Y-118713965D01*
X158157828Y-118713964D01*
X158050746Y-118664031D01*
X157943663Y-118614097D01*
X157943659Y-118614096D01*
X157943655Y-118614094D01*
X157715413Y-118552938D01*
X157715403Y-118552936D01*
X157538966Y-118537500D01*
X157421034Y-118537500D01*
X157244596Y-118552936D01*
X157244586Y-118552938D01*
X157016344Y-118614094D01*
X157016335Y-118614098D01*
X156802171Y-118713964D01*
X156802169Y-118713965D01*
X156608597Y-118849505D01*
X156441506Y-119016597D01*
X156441501Y-119016604D01*
X156305967Y-119210165D01*
X156305965Y-119210169D01*
X156206098Y-119424335D01*
X156206094Y-119424344D01*
X156144938Y-119652586D01*
X156144936Y-119652596D01*
X156124341Y-119887999D01*
X156124341Y-119888000D01*
X150294467Y-119888000D01*
X150288113Y-119878926D01*
X150288108Y-119878920D01*
X150121082Y-119711894D01*
X149927578Y-119576399D01*
X149713492Y-119476570D01*
X149713486Y-119476567D01*
X149500000Y-119419364D01*
X149500000Y-120314498D01*
X149392315Y-120265320D01*
X149285763Y-120250000D01*
X149214237Y-120250000D01*
X149107685Y-120265320D01*
X149000000Y-120314498D01*
X149000000Y-119419364D01*
X148999999Y-119419364D01*
X148786513Y-119476567D01*
X148786507Y-119476570D01*
X148572422Y-119576399D01*
X148572420Y-119576400D01*
X148378926Y-119711886D01*
X148256865Y-119833947D01*
X148195542Y-119867431D01*
X148125850Y-119862447D01*
X148069917Y-119820575D01*
X148053002Y-119789598D01*
X148044220Y-119766053D01*
X148003796Y-119657669D01*
X148003795Y-119657668D01*
X148003793Y-119657664D01*
X147917547Y-119542455D01*
X147917544Y-119542452D01*
X147802335Y-119456206D01*
X147802332Y-119456205D01*
X147802331Y-119456204D01*
X147791161Y-119452038D01*
X147735231Y-119410166D01*
X147710816Y-119344701D01*
X147710500Y-119335858D01*
X147710500Y-117822715D01*
X147712757Y-117733641D01*
X147712756Y-117733640D01*
X147712757Y-117733637D01*
X147701933Y-117673249D01*
X147701280Y-117668587D01*
X147695074Y-117607563D01*
X147695074Y-117607562D01*
X147684784Y-117574768D01*
X147682917Y-117567155D01*
X147676858Y-117533347D01*
X147676857Y-117533345D01*
X147654102Y-117476379D01*
X147652521Y-117471938D01*
X147634157Y-117413407D01*
X147617488Y-117383378D01*
X147614117Y-117376278D01*
X147601378Y-117344386D01*
X147601377Y-117344383D01*
X147567620Y-117293163D01*
X147565180Y-117289134D01*
X147539482Y-117242837D01*
X147535409Y-117235498D01*
X147535407Y-117235495D01*
X147513033Y-117209434D01*
X147508302Y-117203159D01*
X147507822Y-117202430D01*
X147489402Y-117174481D01*
X147446033Y-117131112D01*
X147442829Y-117127656D01*
X147402867Y-117081106D01*
X147396738Y-117076362D01*
X147375698Y-117060075D01*
X147369804Y-117054883D01*
X146936819Y-116621898D01*
X146903334Y-116560575D01*
X146900500Y-116534217D01*
X146900500Y-113512675D01*
X146902756Y-113423642D01*
X146902755Y-113423641D01*
X146902756Y-113423636D01*
X146891929Y-113363233D01*
X146891282Y-113358620D01*
X146885074Y-113297562D01*
X146885073Y-113297560D01*
X146885073Y-113297557D01*
X146874790Y-113264787D01*
X146872917Y-113257154D01*
X146866858Y-113223348D01*
X146844102Y-113166378D01*
X146842521Y-113161937D01*
X146824157Y-113103407D01*
X146807488Y-113073378D01*
X146804117Y-113066278D01*
X146791378Y-113034386D01*
X146791377Y-113034383D01*
X146757620Y-112983163D01*
X146755180Y-112979134D01*
X146744379Y-112959675D01*
X146725409Y-112925498D01*
X146725407Y-112925495D01*
X146703033Y-112899434D01*
X146698302Y-112893159D01*
X146679402Y-112864481D01*
X146636012Y-112821091D01*
X146632822Y-112817648D01*
X146592867Y-112771106D01*
X146592863Y-112771102D01*
X146565698Y-112750074D01*
X146559803Y-112744882D01*
X144236818Y-110421897D01*
X144203333Y-110360574D01*
X144200499Y-110334216D01*
X144200499Y-109502129D01*
X144200498Y-109502123D01*
X144197636Y-109475500D01*
X144194091Y-109442517D01*
X144183120Y-109413103D01*
X144143797Y-109307671D01*
X144143796Y-109307669D01*
X144081394Y-109224311D01*
X144056977Y-109158847D01*
X144071828Y-109090574D01*
X144081394Y-109075689D01*
X144098709Y-109052559D01*
X144143796Y-108992331D01*
X144194091Y-108857483D01*
X144200500Y-108797873D01*
X144200499Y-107202128D01*
X144194091Y-107142517D01*
X144152413Y-107030773D01*
X144143797Y-107007671D01*
X144143795Y-107007668D01*
X144081081Y-106923893D01*
X144056664Y-106858431D01*
X144071515Y-106790158D01*
X144081082Y-106775271D01*
X144143352Y-106692089D01*
X144143354Y-106692086D01*
X144193596Y-106557379D01*
X144193598Y-106557372D01*
X144199999Y-106497844D01*
X144200000Y-106497827D01*
X144200000Y-105950000D01*
X141200000Y-105950000D01*
X141200000Y-106497844D01*
X141206401Y-106557372D01*
X141206403Y-106557379D01*
X141256645Y-106692086D01*
X141256646Y-106692088D01*
X141318918Y-106775272D01*
X141343335Y-106840736D01*
X141328484Y-106909009D01*
X141318918Y-106923894D01*
X141256204Y-107007669D01*
X141256202Y-107007671D01*
X141205908Y-107142517D01*
X141204126Y-107150062D01*
X141201853Y-107149525D01*
X141179571Y-107203312D01*
X141122177Y-107243157D01*
X141083024Y-107249500D01*
X140228389Y-107249500D01*
X140210419Y-107248191D01*
X140186656Y-107244710D01*
X140141574Y-107248655D01*
X140134617Y-107249264D01*
X140129216Y-107249500D01*
X140120971Y-107249500D01*
X140094906Y-107252546D01*
X140088389Y-107253308D01*
X140083087Y-107253771D01*
X140011885Y-107260001D01*
X140004818Y-107261461D01*
X140004806Y-107261404D01*
X139997437Y-107263038D01*
X139997451Y-107263095D01*
X139990423Y-107264760D01*
X139935220Y-107284852D01*
X139918247Y-107291030D01*
X139845350Y-107315186D01*
X139845348Y-107315186D01*
X139845345Y-107315188D01*
X139838806Y-107318237D01*
X139838781Y-107318185D01*
X139831992Y-107321471D01*
X139832018Y-107321522D01*
X139825568Y-107324761D01*
X139761400Y-107366964D01*
X139696031Y-107407285D01*
X139690361Y-107411769D01*
X139690325Y-107411723D01*
X139684482Y-107416484D01*
X139684519Y-107416528D01*
X139678994Y-107421164D01*
X139678988Y-107421169D01*
X139678988Y-107421170D01*
X139644670Y-107457544D01*
X139626298Y-107477017D01*
X138629752Y-108473562D01*
X138548225Y-108576671D01*
X138474080Y-108735674D01*
X138438604Y-108907487D01*
X138438604Y-108907489D01*
X138438604Y-108907490D01*
X138443707Y-109082858D01*
X138443707Y-109082861D01*
X138443708Y-109082862D01*
X138489114Y-109252321D01*
X138575807Y-109413103D01*
X138573994Y-109414080D01*
X138593048Y-109470598D01*
X138576029Y-109538363D01*
X138525076Y-109586170D01*
X138469145Y-109599500D01*
X137774500Y-109599500D01*
X137707461Y-109579815D01*
X137661706Y-109527011D01*
X137650500Y-109475500D01*
X137650499Y-106052129D01*
X137650498Y-106052123D01*
X137650497Y-106052116D01*
X137644091Y-105992517D01*
X137628233Y-105950000D01*
X137593797Y-105857671D01*
X137593793Y-105857664D01*
X137507547Y-105742455D01*
X137507544Y-105742452D01*
X137392335Y-105656206D01*
X137392328Y-105656202D01*
X137257482Y-105605908D01*
X137257483Y-105605908D01*
X137197883Y-105599501D01*
X137197881Y-105599500D01*
X137197873Y-105599500D01*
X137197864Y-105599500D01*
X135102129Y-105599500D01*
X135102123Y-105599501D01*
X135042516Y-105605908D01*
X134907671Y-105656202D01*
X134907664Y-105656206D01*
X134792455Y-105742452D01*
X134792452Y-105742455D01*
X134706206Y-105857664D01*
X134706202Y-105857671D01*
X134655908Y-105992517D01*
X134649501Y-106052116D01*
X134649500Y-106052127D01*
X134649500Y-107796674D01*
X134649501Y-109475500D01*
X134629816Y-109542539D01*
X134577012Y-109588294D01*
X134525501Y-109599500D01*
X131472351Y-109599500D01*
X131405312Y-109579815D01*
X131359557Y-109527011D01*
X131349061Y-109488752D01*
X131344091Y-109442516D01*
X131293797Y-109307671D01*
X131293796Y-109307669D01*
X131231394Y-109224311D01*
X131206977Y-109158847D01*
X131221828Y-109090574D01*
X131231394Y-109075689D01*
X131248709Y-109052559D01*
X131293796Y-108992331D01*
X131344091Y-108857483D01*
X131350500Y-108797873D01*
X131350499Y-107202128D01*
X131344091Y-107142517D01*
X131302413Y-107030773D01*
X131293797Y-107007671D01*
X131293795Y-107007668D01*
X131231081Y-106923893D01*
X131206664Y-106858431D01*
X131221515Y-106790158D01*
X131231082Y-106775271D01*
X131293352Y-106692089D01*
X131293354Y-106692086D01*
X131343596Y-106557379D01*
X131343598Y-106557372D01*
X131349999Y-106497844D01*
X131350000Y-106497827D01*
X131350000Y-105950000D01*
X128350000Y-105950000D01*
X128350000Y-106497844D01*
X128356401Y-106557372D01*
X128356403Y-106557379D01*
X128406645Y-106692086D01*
X128406646Y-106692088D01*
X128468918Y-106775272D01*
X128493335Y-106840736D01*
X128478484Y-106909009D01*
X128468918Y-106923894D01*
X128406204Y-107007669D01*
X128406202Y-107007671D01*
X128355908Y-107142517D01*
X128349501Y-107202116D01*
X128349501Y-107202123D01*
X128349500Y-107202135D01*
X128349500Y-107342564D01*
X128329815Y-107409603D01*
X128277011Y-107455358D01*
X128272955Y-107457124D01*
X128228686Y-107475461D01*
X128228681Y-107475464D01*
X128213675Y-107486979D01*
X128148505Y-107512173D01*
X128080061Y-107498134D01*
X128030071Y-107449320D01*
X128014189Y-107388603D01*
X128014189Y-105450000D01*
X128350000Y-105450000D01*
X129600000Y-105450000D01*
X129600000Y-104450000D01*
X130100000Y-104450000D01*
X130100000Y-105450000D01*
X131350000Y-105450000D01*
X141200000Y-105450000D01*
X142450000Y-105450000D01*
X142450000Y-104450000D01*
X142950000Y-104450000D01*
X142950000Y-105450000D01*
X144200000Y-105450000D01*
X144200000Y-104902172D01*
X144199999Y-104902155D01*
X144193598Y-104842627D01*
X144193596Y-104842620D01*
X144143354Y-104707913D01*
X144143350Y-104707906D01*
X144057190Y-104592812D01*
X144057187Y-104592809D01*
X143942093Y-104506649D01*
X143942086Y-104506645D01*
X143807379Y-104456403D01*
X143807372Y-104456401D01*
X143747844Y-104450000D01*
X142950000Y-104450000D01*
X142450000Y-104450000D01*
X141652155Y-104450000D01*
X141592627Y-104456401D01*
X141592620Y-104456403D01*
X141457913Y-104506645D01*
X141457906Y-104506649D01*
X141342812Y-104592809D01*
X141342809Y-104592812D01*
X141256649Y-104707906D01*
X141256645Y-104707913D01*
X141206403Y-104842620D01*
X141206401Y-104842627D01*
X141200000Y-104902155D01*
X141200000Y-105450000D01*
X131350000Y-105450000D01*
X131350000Y-104902172D01*
X131349999Y-104902155D01*
X131343598Y-104842627D01*
X131343596Y-104842620D01*
X131293354Y-104707913D01*
X131293350Y-104707906D01*
X131207190Y-104592812D01*
X131207187Y-104592809D01*
X131092093Y-104506649D01*
X131092086Y-104506645D01*
X130957379Y-104456403D01*
X130957372Y-104456401D01*
X130897844Y-104450000D01*
X130100000Y-104450000D01*
X129600000Y-104450000D01*
X128802155Y-104450000D01*
X128742627Y-104456401D01*
X128742620Y-104456403D01*
X128607913Y-104506645D01*
X128607906Y-104506649D01*
X128492812Y-104592809D01*
X128492809Y-104592812D01*
X128406649Y-104707906D01*
X128406645Y-104707913D01*
X128356403Y-104842620D01*
X128356401Y-104842627D01*
X128350000Y-104902155D01*
X128350000Y-105450000D01*
X128014189Y-105450000D01*
X128014189Y-104513595D01*
X128022247Y-104469623D01*
X128027261Y-104456403D01*
X128049926Y-104396641D01*
X128068967Y-104239823D01*
X128049926Y-104083005D01*
X127993909Y-103935300D01*
X127904172Y-103805293D01*
X127785929Y-103700540D01*
X127785927Y-103700539D01*
X127785926Y-103700538D01*
X127646054Y-103627126D01*
X127559441Y-103605779D01*
X127499060Y-103570623D01*
X127467271Y-103508404D01*
X127466019Y-103500328D01*
X127464110Y-103484609D01*
X127464109Y-103484603D01*
X127438654Y-103417486D01*
X127408093Y-103336902D01*
X127318356Y-103206895D01*
X127200113Y-103102142D01*
X127200111Y-103102141D01*
X127200110Y-103102140D01*
X127060238Y-103028728D01*
X126906859Y-102990925D01*
X126905458Y-102990755D01*
X126904505Y-102990344D01*
X126899576Y-102989130D01*
X126899778Y-102988310D01*
X126841280Y-102963133D01*
X126816620Y-102932702D01*
X126815815Y-102933259D01*
X126777968Y-102878428D01*
X126721817Y-102797079D01*
X126603574Y-102692326D01*
X126603572Y-102692325D01*
X126603571Y-102692324D01*
X126463699Y-102618912D01*
X126463696Y-102618911D01*
X126418419Y-102607751D01*
X126358039Y-102572594D01*
X126332154Y-102531326D01*
X126329683Y-102524810D01*
X126329681Y-102524807D01*
X126283602Y-102458050D01*
X126239944Y-102394800D01*
X126121701Y-102290047D01*
X126121699Y-102290046D01*
X126121698Y-102290045D01*
X125981826Y-102216633D01*
X125828447Y-102178830D01*
X125828446Y-102178830D01*
X125670476Y-102178830D01*
X125670475Y-102178830D01*
X125517095Y-102216633D01*
X125377223Y-102290045D01*
X125258977Y-102394801D01*
X125169240Y-102524807D01*
X125156984Y-102557123D01*
X125128724Y-102600830D01*
X124037181Y-103692374D01*
X123975858Y-103725859D01*
X123906166Y-103720875D01*
X123850233Y-103679003D01*
X123825816Y-103613539D01*
X123825500Y-103604693D01*
X123825500Y-103135096D01*
X123845185Y-103068057D01*
X123861815Y-103047419D01*
X124687805Y-102221428D01*
X124717855Y-102199316D01*
X124832240Y-102139283D01*
X124950483Y-102034530D01*
X125040220Y-101904523D01*
X125096237Y-101756818D01*
X125115278Y-101600000D01*
X125103392Y-101502105D01*
X125096237Y-101443181D01*
X125061913Y-101352678D01*
X125040220Y-101295477D01*
X124950483Y-101165470D01*
X124832240Y-101060717D01*
X124832238Y-101060716D01*
X124832237Y-101060715D01*
X124692365Y-100987303D01*
X124538986Y-100949500D01*
X124538985Y-100949500D01*
X124381015Y-100949500D01*
X124381014Y-100949500D01*
X124227634Y-100987303D01*
X124087762Y-101060715D01*
X123969516Y-101165471D01*
X123879779Y-101295477D01*
X123867523Y-101327793D01*
X123839263Y-101371500D01*
X122831096Y-102379668D01*
X122824994Y-102385019D01*
X122796716Y-102406718D01*
X122721779Y-102504381D01*
X122700464Y-102532157D01*
X122700461Y-102532163D01*
X122639957Y-102678234D01*
X122639955Y-102678239D01*
X122619318Y-102834998D01*
X122619318Y-102834999D01*
X122623969Y-102870326D01*
X122624500Y-102878428D01*
X122624500Y-122666371D01*
X122623969Y-122674473D01*
X122619318Y-122709799D01*
X122619318Y-122709800D01*
X122624500Y-122749160D01*
X122639955Y-122866560D01*
X122639956Y-122866562D01*
X122700464Y-123012641D01*
X122796718Y-123138082D01*
X122824995Y-123159780D01*
X122831085Y-123165120D01*
X128236029Y-128570065D01*
X128241374Y-128576161D01*
X128245791Y-128581918D01*
X128263066Y-128604430D01*
X128269274Y-128609193D01*
X128310477Y-128665619D01*
X128314632Y-128735365D01*
X128280421Y-128796286D01*
X128218704Y-128829040D01*
X128193587Y-128831569D01*
X126792893Y-128829303D01*
X126725886Y-128809510D01*
X126705273Y-128792844D01*
X117857112Y-119916002D01*
X117829200Y-119888000D01*
X119548341Y-119888000D01*
X119568936Y-120123403D01*
X119568938Y-120123413D01*
X119630094Y-120351655D01*
X119630096Y-120351659D01*
X119630097Y-120351663D01*
X119652527Y-120399763D01*
X119729964Y-120565828D01*
X119729965Y-120565830D01*
X119865505Y-120759402D01*
X120032597Y-120926494D01*
X120226169Y-121062034D01*
X120226171Y-121062035D01*
X120440337Y-121161903D01*
X120668592Y-121223063D01*
X120845034Y-121238500D01*
X120962966Y-121238500D01*
X121139408Y-121223063D01*
X121367663Y-121161903D01*
X121581829Y-121062035D01*
X121775401Y-120926495D01*
X121942495Y-120759401D01*
X122078035Y-120565830D01*
X122177903Y-120351663D01*
X122239063Y-120123408D01*
X122259659Y-119888000D01*
X122256519Y-119852116D01*
X122248707Y-119762819D01*
X122239063Y-119652592D01*
X122180124Y-119432627D01*
X122177905Y-119424344D01*
X122177904Y-119424343D01*
X122177903Y-119424337D01*
X122078035Y-119210171D01*
X122078034Y-119210169D01*
X121942494Y-119016597D01*
X121775402Y-118849505D01*
X121581830Y-118713965D01*
X121581828Y-118713964D01*
X121474746Y-118664031D01*
X121367663Y-118614097D01*
X121367659Y-118614096D01*
X121367655Y-118614094D01*
X121139413Y-118552938D01*
X121139403Y-118552936D01*
X120962966Y-118537500D01*
X120845034Y-118537500D01*
X120668596Y-118552936D01*
X120668586Y-118552938D01*
X120440344Y-118614094D01*
X120440335Y-118614098D01*
X120226171Y-118713964D01*
X120226169Y-118713965D01*
X120032597Y-118849505D01*
X119865506Y-119016597D01*
X119865501Y-119016604D01*
X119729967Y-119210165D01*
X119729965Y-119210169D01*
X119630098Y-119424335D01*
X119630094Y-119424344D01*
X119568938Y-119652586D01*
X119568936Y-119652596D01*
X119548341Y-119887999D01*
X119548341Y-119888000D01*
X117829200Y-119888000D01*
X109537096Y-111569016D01*
X109503710Y-111507639D01*
X109500919Y-111481276D01*
X109501164Y-111329999D01*
X109523566Y-97485000D01*
X110644341Y-97485000D01*
X110664936Y-97720403D01*
X110664938Y-97720413D01*
X110726094Y-97948655D01*
X110726096Y-97948659D01*
X110726097Y-97948663D01*
X110816803Y-98143182D01*
X110825965Y-98162830D01*
X110825967Y-98162834D01*
X110923810Y-98302567D01*
X110961501Y-98356396D01*
X110961506Y-98356402D01*
X111083430Y-98478326D01*
X111116915Y-98539649D01*
X111111931Y-98609341D01*
X111070059Y-98665274D01*
X111039083Y-98682189D01*
X110907669Y-98731203D01*
X110907664Y-98731206D01*
X110792455Y-98817452D01*
X110792452Y-98817455D01*
X110706206Y-98932664D01*
X110706202Y-98932671D01*
X110655908Y-99067517D01*
X110649501Y-99127116D01*
X110649500Y-99127135D01*
X110649500Y-100922870D01*
X110649501Y-100922876D01*
X110655908Y-100982483D01*
X110706202Y-101117328D01*
X110706206Y-101117335D01*
X110792452Y-101232544D01*
X110792455Y-101232547D01*
X110907664Y-101318793D01*
X110907671Y-101318797D01*
X111042517Y-101369091D01*
X111042516Y-101369091D01*
X111049444Y-101369835D01*
X111102127Y-101375500D01*
X112897872Y-101375499D01*
X112957483Y-101369091D01*
X113092331Y-101318796D01*
X113207546Y-101232546D01*
X113293796Y-101117331D01*
X113344091Y-100982483D01*
X113350500Y-100922873D01*
X113350500Y-100824500D01*
X113370185Y-100757461D01*
X113422989Y-100711706D01*
X113474500Y-100700500D01*
X115442672Y-100700500D01*
X115477267Y-100705424D01*
X115622426Y-100747597D01*
X115622429Y-100747597D01*
X115622431Y-100747598D01*
X115634722Y-100748565D01*
X115659304Y-100750500D01*
X115659306Y-100750500D01*
X116965696Y-100750500D01*
X116984131Y-100749049D01*
X117002569Y-100747598D01*
X117002571Y-100747597D01*
X117002573Y-100747597D01*
X117044191Y-100735505D01*
X117160398Y-100701744D01*
X117301865Y-100618081D01*
X117418081Y-100501865D01*
X117501744Y-100360398D01*
X117535505Y-100244191D01*
X117547597Y-100202573D01*
X117547598Y-100202567D01*
X117550138Y-100170297D01*
X125210107Y-100170297D01*
X125229147Y-100327115D01*
X125276726Y-100452569D01*
X125285165Y-100474820D01*
X125374902Y-100604827D01*
X125493145Y-100709580D01*
X125493147Y-100709581D01*
X125633019Y-100782993D01*
X125786399Y-100820797D01*
X125786400Y-100820797D01*
X125944370Y-100820797D01*
X126097750Y-100782993D01*
X126106627Y-100778334D01*
X126237625Y-100709580D01*
X126355868Y-100604827D01*
X126445605Y-100474820D01*
X126501622Y-100327115D01*
X126520663Y-100170297D01*
X126501622Y-100013479D01*
X126498156Y-100004342D01*
X126492786Y-99934682D01*
X126525931Y-99873174D01*
X126526173Y-99872930D01*
X130940756Y-95458347D01*
X130946848Y-95453004D01*
X130984282Y-95424282D01*
X131005983Y-95395999D01*
X131011311Y-95389922D01*
X131342134Y-95059099D01*
X131348211Y-95053771D01*
X131376494Y-95032070D01*
X131408227Y-94990713D01*
X131464653Y-94949511D01*
X131534399Y-94945356D01*
X131594284Y-94978519D01*
X132067503Y-95451738D01*
X132100988Y-95513061D01*
X132096004Y-95582753D01*
X132075545Y-95616813D01*
X132075650Y-95616885D01*
X132074516Y-95618527D01*
X132072654Y-95621628D01*
X132071394Y-95623050D01*
X131981651Y-95753065D01*
X131963057Y-95802092D01*
X131934797Y-95845799D01*
X126826129Y-100954467D01*
X126774294Y-100983705D01*
X126774650Y-100984643D01*
X126768488Y-100986979D01*
X126768132Y-100987181D01*
X126767635Y-100987303D01*
X126767634Y-100987303D01*
X126627762Y-101060715D01*
X126509516Y-101165471D01*
X126419781Y-101295475D01*
X126419780Y-101295476D01*
X126363762Y-101443181D01*
X126344722Y-101599999D01*
X126344722Y-101600000D01*
X126363762Y-101756818D01*
X126419780Y-101904523D01*
X126509517Y-102034530D01*
X126627760Y-102139283D01*
X126627762Y-102139284D01*
X126774277Y-102216182D01*
X126773490Y-102217680D01*
X126821879Y-102254311D01*
X126838154Y-102284113D01*
X126854815Y-102328043D01*
X126944552Y-102458050D01*
X127062795Y-102562803D01*
X127062797Y-102562804D01*
X127202669Y-102636216D01*
X127232979Y-102643686D01*
X127280949Y-102655509D01*
X127341329Y-102690664D01*
X127367215Y-102731932D01*
X127391922Y-102797079D01*
X127393188Y-102800416D01*
X127417059Y-102834999D01*
X127482924Y-102930421D01*
X127601167Y-103035174D01*
X127741042Y-103108587D01*
X127771967Y-103116209D01*
X127832345Y-103151362D01*
X127858234Y-103192633D01*
X127908966Y-103326401D01*
X127953833Y-103391402D01*
X127998702Y-103456406D01*
X128116945Y-103561159D01*
X128116947Y-103561160D01*
X128256819Y-103634572D01*
X128410199Y-103672376D01*
X128410200Y-103672376D01*
X128568170Y-103672376D01*
X128721550Y-103634572D01*
X128735737Y-103627126D01*
X128861425Y-103561159D01*
X128979668Y-103456406D01*
X129069405Y-103326399D01*
X129081659Y-103294085D01*
X129109919Y-103250375D01*
X134452899Y-97907395D01*
X134458975Y-97902068D01*
X134487259Y-97880366D01*
X134503673Y-97858972D01*
X134519819Y-97841646D01*
X134549460Y-97815389D01*
X134552663Y-97810747D01*
X134606941Y-97766754D01*
X134638534Y-97758242D01*
X134655328Y-97756031D01*
X134663428Y-97755500D01*
X136500544Y-97755500D01*
X136567583Y-97775185D01*
X136613338Y-97827989D01*
X136622067Y-97886238D01*
X136623657Y-97886238D01*
X136623657Y-97894364D01*
X136623657Y-97894365D01*
X136625374Y-97907410D01*
X136628308Y-97929691D01*
X136628839Y-97937793D01*
X136628839Y-98935910D01*
X136628308Y-98944008D01*
X136623657Y-98979339D01*
X136628650Y-99017268D01*
X136628839Y-99018699D01*
X136644294Y-99136099D01*
X136644295Y-99136101D01*
X136704803Y-99282181D01*
X136798876Y-99404779D01*
X136824070Y-99469948D01*
X136824500Y-99480265D01*
X136824500Y-99488547D01*
X136831860Y-99544444D01*
X136839635Y-99603499D01*
X136873180Y-99684485D01*
X136890061Y-99725238D01*
X136899500Y-99772691D01*
X136899500Y-100203309D01*
X136890061Y-100250762D01*
X136839635Y-100372500D01*
X136839635Y-100372502D01*
X136824500Y-100487452D01*
X136824500Y-100964547D01*
X136828852Y-100997597D01*
X136839635Y-101079499D01*
X136855305Y-101117331D01*
X136890061Y-101201238D01*
X136899500Y-101248691D01*
X136899500Y-101413291D01*
X136879815Y-101480330D01*
X136838621Y-101520023D01*
X136754316Y-101569880D01*
X136754307Y-101569887D01*
X136639887Y-101684307D01*
X136639881Y-101684315D01*
X136557505Y-101823606D01*
X136557504Y-101823609D01*
X136512357Y-101979002D01*
X136512356Y-101979008D01*
X136509500Y-102015308D01*
X136509500Y-102484692D01*
X136512356Y-102520991D01*
X136512357Y-102520997D01*
X136557504Y-102676390D01*
X136557505Y-102676393D01*
X136557506Y-102676395D01*
X136566928Y-102692326D01*
X136639881Y-102815684D01*
X136639887Y-102815692D01*
X136754307Y-102930112D01*
X136754311Y-102930115D01*
X136754313Y-102930117D01*
X136893605Y-103012494D01*
X136934587Y-103024400D01*
X137049002Y-103057642D01*
X137049005Y-103057642D01*
X137049007Y-103057643D01*
X137061108Y-103058595D01*
X137085308Y-103060500D01*
X137085310Y-103060500D01*
X137494692Y-103060500D01*
X137512841Y-103059071D01*
X137530993Y-103057643D01*
X137530995Y-103057642D01*
X137530997Y-103057642D01*
X137608327Y-103035175D01*
X137686395Y-103012494D01*
X137707369Y-103000089D01*
X137775088Y-102982906D01*
X137833613Y-103000090D01*
X137853803Y-103012031D01*
X138000000Y-103054504D01*
X138000000Y-102748352D01*
X138017267Y-102685233D01*
X138022494Y-102676395D01*
X138052652Y-102572594D01*
X138067642Y-102520997D01*
X138067643Y-102520991D01*
X138069295Y-102500000D01*
X138500000Y-102500000D01*
X138500000Y-103054503D01*
X138646195Y-103012031D01*
X138785374Y-102929721D01*
X138785383Y-102929714D01*
X138899714Y-102815383D01*
X138899721Y-102815374D01*
X138982031Y-102676195D01*
X138982033Y-102676190D01*
X139027144Y-102520918D01*
X139027145Y-102520912D01*
X139028790Y-102500000D01*
X138500000Y-102500000D01*
X138069295Y-102500000D01*
X138070500Y-102484692D01*
X138070500Y-102256538D01*
X138079940Y-102209084D01*
X138080354Y-102208085D01*
X138085044Y-102196762D01*
X138096754Y-102107815D01*
X138125020Y-102043918D01*
X138183345Y-102005447D01*
X138219693Y-102000000D01*
X139028790Y-102000000D01*
X139027145Y-101979091D01*
X139026006Y-101972852D01*
X139028124Y-101972465D01*
X139028285Y-101912499D01*
X139066216Y-101853822D01*
X139089540Y-101837956D01*
X139091007Y-101837187D01*
X139209250Y-101732434D01*
X139209516Y-101732048D01*
X139209785Y-101731830D01*
X139214224Y-101726820D01*
X139215056Y-101727557D01*
X139263790Y-101688054D01*
X139333238Y-101680385D01*
X139395807Y-101711480D01*
X139413620Y-101732035D01*
X139419819Y-101741016D01*
X139419820Y-101741017D01*
X139419821Y-101741018D01*
X139538064Y-101845771D01*
X139538066Y-101845772D01*
X139677938Y-101919184D01*
X139831318Y-101956988D01*
X139831319Y-101956988D01*
X139989289Y-101956988D01*
X140142669Y-101919184D01*
X140282541Y-101845773D01*
X140282542Y-101845771D01*
X140282544Y-101845771D01*
X140367692Y-101770336D01*
X140430923Y-101740617D01*
X140449917Y-101739154D01*
X140575422Y-101739154D01*
X140728802Y-101701350D01*
X140768747Y-101680385D01*
X140868677Y-101627937D01*
X140986920Y-101523184D01*
X141076657Y-101393177D01*
X141132674Y-101245472D01*
X141147655Y-101122080D01*
X141156191Y-101089574D01*
X141160365Y-101079499D01*
X141175500Y-100964540D01*
X141175500Y-100487460D01*
X141175500Y-100486244D01*
X141195185Y-100419205D01*
X141247989Y-100373450D01*
X141251981Y-100371711D01*
X141275340Y-100362036D01*
X141400781Y-100265782D01*
X141430721Y-100226761D01*
X141436062Y-100220671D01*
X142633922Y-99022811D01*
X142639999Y-99017483D01*
X142668282Y-98995782D01*
X142764536Y-98870341D01*
X142825044Y-98724262D01*
X142830732Y-98681056D01*
X142845682Y-98567500D01*
X142841030Y-98532169D01*
X142840500Y-98524071D01*
X142840500Y-98334595D01*
X142860185Y-98267556D01*
X142876814Y-98246918D01*
X142931135Y-98192598D01*
X143012869Y-98054393D01*
X143053087Y-97915962D01*
X143057664Y-97900208D01*
X143057664Y-97900206D01*
X143057665Y-97900204D01*
X143059226Y-97880366D01*
X143060500Y-97864183D01*
X143060499Y-97465819D01*
X143057665Y-97429799D01*
X143057665Y-97429796D01*
X143012869Y-97275607D01*
X142978581Y-97217629D01*
X142961398Y-97149905D01*
X142978582Y-97091386D01*
X143012404Y-97034196D01*
X143012405Y-97034194D01*
X143052844Y-96895000D01*
X142497974Y-96895000D01*
X142493109Y-96894809D01*
X142489184Y-96894500D01*
X142489183Y-96894500D01*
X142489181Y-96894500D01*
X141990820Y-96894501D01*
X141986903Y-96894809D01*
X141982041Y-96895000D01*
X141427156Y-96895000D01*
X141467594Y-97034193D01*
X141501419Y-97091388D01*
X141518601Y-97159112D01*
X141501419Y-97217628D01*
X141467130Y-97275607D01*
X141467129Y-97275611D01*
X141422335Y-97429791D01*
X141422334Y-97429797D01*
X141419500Y-97465817D01*
X141419501Y-97864181D01*
X141422335Y-97900205D01*
X141467129Y-98054388D01*
X141467131Y-98054393D01*
X141548863Y-98192595D01*
X141548869Y-98192603D01*
X141569584Y-98213318D01*
X141603069Y-98274641D01*
X141598085Y-98344333D01*
X141569584Y-98388680D01*
X140787181Y-99171084D01*
X140725858Y-99204569D01*
X140656167Y-99199585D01*
X140600233Y-99157713D01*
X140575816Y-99092249D01*
X140575500Y-99083403D01*
X140575500Y-99011461D01*
X140573657Y-98997465D01*
X140584422Y-98928429D01*
X140608915Y-98893596D01*
X140930129Y-98572381D01*
X140883781Y-98536817D01*
X140740871Y-98477622D01*
X140740866Y-98477620D01*
X140626011Y-98462500D01*
X140373986Y-98462500D01*
X140259135Y-98477619D01*
X140259133Y-98477620D01*
X140248100Y-98482190D01*
X140178631Y-98489656D01*
X140153200Y-98482189D01*
X140140999Y-98477135D01*
X140126629Y-98475243D01*
X140026047Y-98462000D01*
X140026040Y-98462000D01*
X139773960Y-98462000D01*
X139773952Y-98462000D01*
X139658996Y-98477135D01*
X139658995Y-98477136D01*
X139647447Y-98481919D01*
X139577977Y-98489385D01*
X139552553Y-98481919D01*
X139541004Y-98477136D01*
X139541003Y-98477135D01*
X139426047Y-98462000D01*
X139426040Y-98462000D01*
X139229689Y-98462000D01*
X139162650Y-98442315D01*
X139131315Y-98413488D01*
X139128283Y-98409537D01*
X139128282Y-98409536D01*
X139100007Y-98387840D01*
X139093904Y-98382487D01*
X138861281Y-98149864D01*
X138827796Y-98088541D01*
X138832780Y-98018849D01*
X138874652Y-97962916D01*
X138940116Y-97938499D01*
X138983556Y-97943106D01*
X139040000Y-97959504D01*
X139040000Y-97405000D01*
X138194500Y-97405000D01*
X138127461Y-97385315D01*
X138081706Y-97332511D01*
X138070500Y-97281000D01*
X138070500Y-97275097D01*
X138090185Y-97208058D01*
X138106819Y-97187416D01*
X138112416Y-97181819D01*
X138173739Y-97148334D01*
X138200097Y-97145500D01*
X139339903Y-97145500D01*
X139406942Y-97165185D01*
X139427584Y-97181819D01*
X139433181Y-97187416D01*
X139466666Y-97248739D01*
X139469500Y-97275097D01*
X139469500Y-97389692D01*
X139472356Y-97425991D01*
X139472357Y-97425997D01*
X139517503Y-97581389D01*
X139517505Y-97581393D01*
X139517506Y-97581395D01*
X139522732Y-97590233D01*
X139540000Y-97653352D01*
X139540000Y-97959503D01*
X139686194Y-97917032D01*
X139706384Y-97905091D01*
X139774108Y-97887906D01*
X139832629Y-97905089D01*
X139853605Y-97917494D01*
X139998199Y-97959503D01*
X140008973Y-97962633D01*
X140056604Y-97988893D01*
X140087096Y-98015906D01*
X140091531Y-98019835D01*
X140092526Y-98020716D01*
X140092528Y-98020718D01*
X140232401Y-98094130D01*
X140385781Y-98131934D01*
X140385782Y-98131934D01*
X140543752Y-98131934D01*
X140697132Y-98094130D01*
X140715850Y-98084306D01*
X140837007Y-98020717D01*
X140955250Y-97915964D01*
X141044987Y-97785957D01*
X141101004Y-97638252D01*
X141120045Y-97481434D01*
X141101004Y-97324616D01*
X141064542Y-97228474D01*
X141044988Y-97176912D01*
X141044704Y-97176371D01*
X141044557Y-97175776D01*
X141042328Y-97169898D01*
X141043041Y-97169627D01*
X141030500Y-97118744D01*
X141030500Y-96920308D01*
X141027643Y-96884008D01*
X141027642Y-96884002D01*
X140982495Y-96728609D01*
X140982494Y-96728606D01*
X140982494Y-96728605D01*
X140900117Y-96589313D01*
X140900115Y-96589311D01*
X140900112Y-96589307D01*
X140785692Y-96474887D01*
X140785684Y-96474881D01*
X140650612Y-96395000D01*
X141427156Y-96395000D01*
X141990000Y-96395000D01*
X141990000Y-95875068D01*
X142490000Y-95875068D01*
X142490000Y-96395000D01*
X143052844Y-96395000D01*
X143012404Y-96255805D01*
X142930738Y-96117714D01*
X142930731Y-96117705D01*
X142817294Y-96004268D01*
X142817285Y-96004261D01*
X142679191Y-95922593D01*
X142679188Y-95922592D01*
X142525130Y-95877834D01*
X142490000Y-95875068D01*
X141990000Y-95875068D01*
X141989999Y-95875068D01*
X141954869Y-95877834D01*
X141954868Y-95877834D01*
X141800811Y-95922592D01*
X141800808Y-95922593D01*
X141662714Y-96004261D01*
X141662705Y-96004268D01*
X141549268Y-96117705D01*
X141549261Y-96117714D01*
X141467595Y-96255805D01*
X141427156Y-96395000D01*
X140650612Y-96395000D01*
X140646393Y-96392505D01*
X140646390Y-96392504D01*
X140490997Y-96347357D01*
X140490991Y-96347356D01*
X140454692Y-96344500D01*
X140454690Y-96344500D01*
X140340097Y-96344500D01*
X140273058Y-96324815D01*
X140252416Y-96308181D01*
X140200040Y-96255805D01*
X140095320Y-96151085D01*
X140089979Y-96144994D01*
X140068282Y-96116718D01*
X139942841Y-96020464D01*
X139903740Y-96004268D01*
X139796762Y-95959956D01*
X139796760Y-95959955D01*
X139679361Y-95944500D01*
X139640000Y-95939318D01*
X139604670Y-95943969D01*
X139596572Y-95944500D01*
X137943428Y-95944500D01*
X137935329Y-95943969D01*
X137900000Y-95939318D01*
X137860639Y-95944500D01*
X137743239Y-95959955D01*
X137743237Y-95959956D01*
X137597157Y-96020464D01*
X137471719Y-96116716D01*
X137450019Y-96144994D01*
X137444668Y-96151095D01*
X137384670Y-96211094D01*
X137287582Y-96308182D01*
X137226262Y-96341666D01*
X137199903Y-96344500D01*
X137085308Y-96344500D01*
X137049008Y-96347356D01*
X137049002Y-96347357D01*
X136893609Y-96392504D01*
X136893606Y-96392505D01*
X136754315Y-96474881D01*
X136754307Y-96474887D01*
X136711016Y-96518180D01*
X136649693Y-96551666D01*
X136623334Y-96554500D01*
X136055301Y-96554500D01*
X135988262Y-96534815D01*
X135942507Y-96482011D01*
X135932563Y-96412853D01*
X135961588Y-96349297D01*
X135967620Y-96342819D01*
X138963620Y-93346819D01*
X139024943Y-93313334D01*
X139051301Y-93310500D01*
X140835678Y-93310500D01*
X140902717Y-93330185D01*
X140948472Y-93382989D01*
X140958774Y-93419553D01*
X140968763Y-93501819D01*
X140992705Y-93564949D01*
X141024780Y-93649523D01*
X141114517Y-93779530D01*
X141232760Y-93884283D01*
X141347145Y-93944317D01*
X141377194Y-93966429D01*
X145570371Y-98159606D01*
X145575722Y-98165707D01*
X145597420Y-98193984D01*
X145674037Y-98252774D01*
X145722861Y-98290238D01*
X145722863Y-98290238D01*
X145722865Y-98290240D01*
X145752640Y-98302573D01*
X145868940Y-98350746D01*
X145911902Y-98356402D01*
X146025701Y-98371384D01*
X146025702Y-98371384D01*
X146061031Y-98366732D01*
X146069130Y-98366202D01*
X149309532Y-98366202D01*
X149355628Y-98377564D01*
X149356321Y-98375739D01*
X149363332Y-98378398D01*
X149516712Y-98416202D01*
X149575500Y-98416202D01*
X149642539Y-98435887D01*
X149688294Y-98488691D01*
X149699500Y-98540202D01*
X149699500Y-105475500D01*
X149679815Y-105542539D01*
X149627011Y-105588294D01*
X149575500Y-105599500D01*
X147952129Y-105599500D01*
X147952123Y-105599501D01*
X147892516Y-105605908D01*
X147757671Y-105656202D01*
X147757664Y-105656206D01*
X147642455Y-105742452D01*
X147642452Y-105742455D01*
X147556206Y-105857664D01*
X147556202Y-105857671D01*
X147505908Y-105992517D01*
X147499501Y-106052116D01*
X147499501Y-106052123D01*
X147499500Y-106052135D01*
X147499500Y-106612713D01*
X147479815Y-106679752D01*
X147427011Y-106725507D01*
X147357853Y-106735451D01*
X147345826Y-106733110D01*
X147213091Y-106700395D01*
X147213090Y-106700395D01*
X147055120Y-106700395D01*
X146901740Y-106738199D01*
X146901739Y-106738199D01*
X146894458Y-106739994D01*
X146893680Y-106736838D01*
X146838473Y-106740931D01*
X146806893Y-106729494D01*
X146799296Y-106725507D01*
X146793758Y-106722600D01*
X146640379Y-106684797D01*
X146482409Y-106684797D01*
X146482408Y-106684797D01*
X146329028Y-106722600D01*
X146189156Y-106796012D01*
X146070910Y-106900768D01*
X145981175Y-107030772D01*
X145981174Y-107030773D01*
X145925156Y-107178478D01*
X145906116Y-107335296D01*
X145906116Y-107335297D01*
X145925156Y-107492114D01*
X145952836Y-107565097D01*
X145960894Y-107609069D01*
X145960894Y-108302137D01*
X145952836Y-108346108D01*
X145925157Y-108419091D01*
X145906116Y-108575909D01*
X145906116Y-108575910D01*
X145925156Y-108732728D01*
X145972469Y-108857479D01*
X145981174Y-108880433D01*
X146070911Y-109010440D01*
X146189154Y-109115193D01*
X146189156Y-109115194D01*
X146329028Y-109188606D01*
X146482408Y-109226410D01*
X146482409Y-109226410D01*
X146640379Y-109226410D01*
X146793759Y-109188606D01*
X146839377Y-109164663D01*
X146907885Y-109150936D01*
X146926676Y-109154060D01*
X147030389Y-109179623D01*
X147188359Y-109179623D01*
X147341739Y-109141819D01*
X147341742Y-109141817D01*
X147345825Y-109140811D01*
X147415627Y-109143880D01*
X147472689Y-109184200D01*
X147498895Y-109248969D01*
X147499500Y-109261208D01*
X147499500Y-109947870D01*
X147499501Y-109947876D01*
X147505908Y-110007483D01*
X147556202Y-110142328D01*
X147556206Y-110142335D01*
X147642452Y-110257544D01*
X147642455Y-110257547D01*
X147757664Y-110343793D01*
X147757671Y-110343797D01*
X147892517Y-110394091D01*
X147892516Y-110394091D01*
X147899444Y-110394835D01*
X147952127Y-110400500D01*
X150047872Y-110400499D01*
X150107483Y-110394091D01*
X150242331Y-110343796D01*
X150357546Y-110257546D01*
X150443796Y-110142331D01*
X150494091Y-110007483D01*
X150500500Y-109947873D01*
X150500499Y-108979095D01*
X150520183Y-108912057D01*
X150572987Y-108866302D01*
X150642146Y-108856358D01*
X150705702Y-108885383D01*
X150712180Y-108891415D01*
X152667233Y-110846468D01*
X152700718Y-110907791D01*
X152699327Y-110966241D01*
X152664939Y-111094583D01*
X152664936Y-111094596D01*
X152644341Y-111329999D01*
X152644341Y-111330000D01*
X152664936Y-111565403D01*
X152664938Y-111565413D01*
X152726094Y-111793655D01*
X152726096Y-111793659D01*
X152726097Y-111793663D01*
X152825965Y-112007830D01*
X152825967Y-112007834D01*
X152961501Y-112201395D01*
X152961506Y-112201402D01*
X153128597Y-112368493D01*
X153128603Y-112368498D01*
X153314594Y-112498730D01*
X153358219Y-112553307D01*
X153365413Y-112622805D01*
X153333890Y-112685160D01*
X153314595Y-112701880D01*
X153128922Y-112831890D01*
X153128920Y-112831891D01*
X152961891Y-112998920D01*
X152961886Y-112998926D01*
X152826400Y-113192420D01*
X152826399Y-113192422D01*
X152726570Y-113406507D01*
X152726567Y-113406513D01*
X152669364Y-113619999D01*
X152669364Y-113620000D01*
X153566314Y-113620000D01*
X153540507Y-113660156D01*
X153500000Y-113798111D01*
X153500000Y-113941889D01*
X153540507Y-114079844D01*
X153566314Y-114120000D01*
X152669364Y-114120000D01*
X152726567Y-114333486D01*
X152726570Y-114333492D01*
X152826399Y-114547578D01*
X152961894Y-114741082D01*
X153128917Y-114908105D01*
X153322421Y-115043600D01*
X153536507Y-115143429D01*
X153536516Y-115143433D01*
X153750000Y-115200634D01*
X153750000Y-114305501D01*
X153857685Y-114354680D01*
X153964237Y-114370000D01*
X154035763Y-114370000D01*
X154142315Y-114354680D01*
X154250000Y-114305501D01*
X154250000Y-115200633D01*
X154463483Y-115143433D01*
X154463492Y-115143429D01*
X154677578Y-115043600D01*
X154871082Y-114908105D01*
X155038105Y-114741082D01*
X155173600Y-114547578D01*
X155273429Y-114333492D01*
X155273432Y-114333486D01*
X155330636Y-114120000D01*
X154433686Y-114120000D01*
X154459493Y-114079844D01*
X154500000Y-113941889D01*
X154500000Y-113798111D01*
X154459493Y-113660156D01*
X154433686Y-113620000D01*
X155330636Y-113620000D01*
X155330635Y-113619999D01*
X155273432Y-113406513D01*
X155273429Y-113406507D01*
X155173600Y-113192422D01*
X155173599Y-113192420D01*
X155038113Y-112998926D01*
X155038108Y-112998920D01*
X154871078Y-112831890D01*
X154685405Y-112701879D01*
X154641780Y-112647302D01*
X154634588Y-112577804D01*
X154666110Y-112515449D01*
X154685406Y-112498730D01*
X154871401Y-112368495D01*
X155038495Y-112201401D01*
X155174035Y-112007830D01*
X155273903Y-111793663D01*
X155335063Y-111565408D01*
X155355659Y-111330000D01*
X155335063Y-111094592D01*
X155273903Y-110866337D01*
X155174035Y-110652171D01*
X155038495Y-110458599D01*
X155038494Y-110458597D01*
X154871402Y-110291506D01*
X154871396Y-110291501D01*
X154685842Y-110161575D01*
X154642217Y-110106998D01*
X154635023Y-110037500D01*
X154666546Y-109975145D01*
X154685842Y-109958425D01*
X154708026Y-109942891D01*
X154871401Y-109828495D01*
X155038495Y-109661401D01*
X155174035Y-109467830D01*
X155273903Y-109253663D01*
X155335063Y-109025408D01*
X155355659Y-108790000D01*
X155335063Y-108554592D01*
X155273903Y-108326337D01*
X155174035Y-108112171D01*
X155121277Y-108036825D01*
X155038496Y-107918600D01*
X155038495Y-107918599D01*
X154916567Y-107796671D01*
X154883084Y-107735351D01*
X154888068Y-107665659D01*
X154929939Y-107609725D01*
X154960915Y-107592810D01*
X155092331Y-107543796D01*
X155207546Y-107457546D01*
X155293796Y-107342331D01*
X155344091Y-107207483D01*
X155350500Y-107147873D01*
X155350499Y-105800095D01*
X155370184Y-105733057D01*
X155386813Y-105712420D01*
X160287416Y-100811819D01*
X160348739Y-100778334D01*
X160375097Y-100775500D01*
X162083333Y-100775500D01*
X162150372Y-100795185D01*
X162171014Y-100811819D01*
X162184307Y-100825112D01*
X162184311Y-100825115D01*
X162184313Y-100825117D01*
X162323605Y-100907494D01*
X162364587Y-100919400D01*
X162479002Y-100952642D01*
X162479005Y-100952642D01*
X162479007Y-100952643D01*
X162491108Y-100953595D01*
X162515308Y-100955500D01*
X162515310Y-100955500D01*
X162984692Y-100955500D01*
X163002841Y-100954071D01*
X163020993Y-100952643D01*
X163020995Y-100952642D01*
X163020997Y-100952642D01*
X163123450Y-100922876D01*
X163176395Y-100907494D01*
X163315687Y-100825117D01*
X163320007Y-100820797D01*
X163328986Y-100811819D01*
X163390309Y-100778334D01*
X163416667Y-100775500D01*
X165491692Y-100775500D01*
X165558731Y-100795185D01*
X165579368Y-100811814D01*
X165635635Y-100868081D01*
X165777102Y-100951744D01*
X165786475Y-100954467D01*
X165934926Y-100997597D01*
X165934929Y-100997597D01*
X165934931Y-100997598D01*
X165947222Y-100998565D01*
X165971804Y-101000500D01*
X165971806Y-101000500D01*
X167278196Y-101000500D01*
X167296631Y-100999049D01*
X167315069Y-100997598D01*
X167315071Y-100997597D01*
X167315073Y-100997597D01*
X167359660Y-100984643D01*
X167472898Y-100951744D01*
X167614365Y-100868081D01*
X167730581Y-100751865D01*
X167814244Y-100610398D01*
X167853633Y-100474821D01*
X167860097Y-100452573D01*
X167860098Y-100452567D01*
X167863000Y-100415696D01*
X167863000Y-99984304D01*
X167860098Y-99947432D01*
X167860097Y-99947426D01*
X167814245Y-99789606D01*
X167814244Y-99789603D01*
X167814244Y-99789602D01*
X167730581Y-99648135D01*
X167730579Y-99648133D01*
X167730576Y-99648129D01*
X167614370Y-99531923D01*
X167614362Y-99531917D01*
X167472896Y-99448255D01*
X167472893Y-99448254D01*
X167315073Y-99402402D01*
X167315067Y-99402401D01*
X167278196Y-99399500D01*
X167278194Y-99399500D01*
X165971806Y-99399500D01*
X165971804Y-99399500D01*
X165934932Y-99402401D01*
X165934926Y-99402402D01*
X165777106Y-99448254D01*
X165777103Y-99448255D01*
X165718806Y-99482732D01*
X165655685Y-99500000D01*
X163558862Y-99500000D01*
X163491823Y-99480315D01*
X163472818Y-99465000D01*
X163248352Y-99465000D01*
X163185233Y-99447732D01*
X163176395Y-99442506D01*
X163176393Y-99442505D01*
X163176389Y-99442503D01*
X163020997Y-99397357D01*
X163020991Y-99397356D01*
X162984692Y-99394500D01*
X162984690Y-99394500D01*
X162515310Y-99394500D01*
X162515308Y-99394500D01*
X162479008Y-99397356D01*
X162479002Y-99397357D01*
X162323610Y-99442503D01*
X162323605Y-99442506D01*
X162314766Y-99447732D01*
X162251648Y-99465000D01*
X161945495Y-99465000D01*
X161931037Y-99484255D01*
X161931033Y-99485774D01*
X161893091Y-99544444D01*
X161829453Y-99573288D01*
X161812156Y-99574500D01*
X160118428Y-99574500D01*
X160110329Y-99573969D01*
X160075000Y-99569318D01*
X160035639Y-99574500D01*
X159918239Y-99589955D01*
X159918237Y-99589956D01*
X159772157Y-99650464D01*
X159646719Y-99746716D01*
X159625019Y-99774994D01*
X159619668Y-99781096D01*
X154537582Y-104863181D01*
X154476259Y-104896666D01*
X154449901Y-104899500D01*
X153102129Y-104899500D01*
X153102123Y-104899501D01*
X153042516Y-104905908D01*
X152907671Y-104956202D01*
X152907664Y-104956206D01*
X152792455Y-105042452D01*
X152792452Y-105042455D01*
X152706206Y-105157664D01*
X152706202Y-105157671D01*
X152655908Y-105292517D01*
X152649501Y-105352116D01*
X152649500Y-105352135D01*
X152649500Y-107147870D01*
X152649501Y-107147876D01*
X152655908Y-107207483D01*
X152706202Y-107342328D01*
X152706206Y-107342335D01*
X152792452Y-107457544D01*
X152792455Y-107457547D01*
X152907664Y-107543793D01*
X152907671Y-107543797D01*
X153039081Y-107592810D01*
X153095015Y-107634681D01*
X153119432Y-107700145D01*
X153104580Y-107768418D01*
X153083430Y-107796673D01*
X152961503Y-107918600D01*
X152890316Y-108020267D01*
X152835739Y-108063892D01*
X152766241Y-108071086D01*
X152703886Y-108039563D01*
X152701060Y-108036825D01*
X151766819Y-107102584D01*
X151733334Y-107041261D01*
X151730500Y-107014903D01*
X151730500Y-98564133D01*
X151750185Y-98497094D01*
X151802989Y-98451339D01*
X151839565Y-98441036D01*
X151843978Y-98440500D01*
X151843985Y-98440500D01*
X151871948Y-98433607D01*
X151901622Y-98430005D01*
X156201408Y-98430005D01*
X156268447Y-98449690D01*
X156289089Y-98466324D01*
X156351263Y-98528498D01*
X156379523Y-98572206D01*
X156390015Y-98599869D01*
X156391780Y-98604523D01*
X156481517Y-98734530D01*
X156599760Y-98839283D01*
X156599762Y-98839284D01*
X156739634Y-98912696D01*
X156893014Y-98950500D01*
X156893015Y-98950500D01*
X157050985Y-98950500D01*
X157204365Y-98912696D01*
X157227602Y-98900500D01*
X157344240Y-98839283D01*
X157462483Y-98734530D01*
X157552220Y-98604523D01*
X157608237Y-98456818D01*
X157627278Y-98300000D01*
X159872722Y-98300000D01*
X159891762Y-98456818D01*
X159946015Y-98599869D01*
X159947780Y-98604523D01*
X160037517Y-98734530D01*
X160155760Y-98839283D01*
X160155762Y-98839284D01*
X160295634Y-98912696D01*
X160449014Y-98950500D01*
X160449015Y-98950500D01*
X160606985Y-98950500D01*
X160760365Y-98912696D01*
X160767377Y-98910037D01*
X160768069Y-98911862D01*
X160814166Y-98900500D01*
X161835108Y-98900500D01*
X161902147Y-98920185D01*
X161934269Y-98950048D01*
X161945495Y-98965000D01*
X163513638Y-98965000D01*
X163580677Y-98984685D01*
X163599682Y-99000000D01*
X165655685Y-99000000D01*
X165718806Y-99017268D01*
X165777102Y-99051744D01*
X165818724Y-99063836D01*
X165934926Y-99097597D01*
X165934929Y-99097597D01*
X165934931Y-99097598D01*
X165947222Y-99098565D01*
X165971804Y-99100500D01*
X165971806Y-99100500D01*
X167278196Y-99100500D01*
X167296631Y-99099049D01*
X167315069Y-99097598D01*
X167315071Y-99097597D01*
X167315073Y-99097597D01*
X167418607Y-99067517D01*
X167472898Y-99051744D01*
X167614365Y-98968081D01*
X167730581Y-98851865D01*
X167814244Y-98710398D01*
X167860098Y-98552569D01*
X167863000Y-98515694D01*
X167863000Y-98084306D01*
X167860098Y-98047431D01*
X167829788Y-97943106D01*
X167817324Y-97900204D01*
X167814244Y-97889602D01*
X167730581Y-97748135D01*
X167730579Y-97748133D01*
X167730576Y-97748129D01*
X167614370Y-97631923D01*
X167614362Y-97631917D01*
X167472896Y-97548255D01*
X167472893Y-97548254D01*
X167315073Y-97502402D01*
X167315067Y-97502401D01*
X167278196Y-97499500D01*
X167278194Y-97499500D01*
X165971806Y-97499500D01*
X165971804Y-97499500D01*
X165934932Y-97502401D01*
X165934926Y-97502402D01*
X165777106Y-97548254D01*
X165777103Y-97548255D01*
X165635637Y-97631917D01*
X165635629Y-97631923D01*
X165604374Y-97663180D01*
X165543052Y-97696666D01*
X165516692Y-97699500D01*
X160814166Y-97699500D01*
X160768069Y-97688137D01*
X160767377Y-97689963D01*
X160760365Y-97687303D01*
X160606986Y-97649500D01*
X160606985Y-97649500D01*
X160449015Y-97649500D01*
X160449014Y-97649500D01*
X160295634Y-97687303D01*
X160155762Y-97760715D01*
X160127268Y-97785958D01*
X160074590Y-97832627D01*
X160037516Y-97865471D01*
X159947781Y-97995475D01*
X159947780Y-97995476D01*
X159891762Y-98143181D01*
X159872722Y-98299999D01*
X159872722Y-98300000D01*
X157627278Y-98300000D01*
X157614406Y-98193984D01*
X157608237Y-98143181D01*
X157571924Y-98047432D01*
X157552220Y-97995477D01*
X157462483Y-97865470D01*
X157344240Y-97760717D01*
X157344238Y-97760716D01*
X157344237Y-97760715D01*
X157344233Y-97760712D01*
X157229859Y-97700684D01*
X157199804Y-97678569D01*
X156956833Y-97435598D01*
X156951479Y-97429493D01*
X156929791Y-97401227D01*
X156929788Y-97401225D01*
X156929787Y-97401223D01*
X156804346Y-97304969D01*
X156788139Y-97298256D01*
X156658267Y-97244461D01*
X156658265Y-97244460D01*
X156540866Y-97229005D01*
X156501505Y-97223823D01*
X156466175Y-97228474D01*
X156458077Y-97229005D01*
X152126435Y-97229005D01*
X152068809Y-97214801D01*
X152016632Y-97187416D01*
X151997365Y-97177304D01*
X151997364Y-97177303D01*
X151997363Y-97177303D01*
X151843985Y-97139499D01*
X151839555Y-97138962D01*
X151775377Y-97111341D01*
X151736319Y-97053407D01*
X151730500Y-97015866D01*
X151730500Y-88369812D01*
X151750185Y-88302773D01*
X151802989Y-88257018D01*
X151872147Y-88247074D01*
X151935703Y-88276099D01*
X151942181Y-88282131D01*
X152015122Y-88355072D01*
X152160604Y-88443019D01*
X152160603Y-88443019D01*
X152322894Y-88493590D01*
X152322893Y-88493590D01*
X152393427Y-88499999D01*
X152999999Y-88499999D01*
X153000000Y-88499998D01*
X153000000Y-87850000D01*
X153500000Y-87850000D01*
X153500000Y-88499999D01*
X154106581Y-88499999D01*
X154177102Y-88493591D01*
X154177107Y-88493590D01*
X154339396Y-88443018D01*
X154484877Y-88355072D01*
X154605072Y-88234877D01*
X154693019Y-88089395D01*
X154743590Y-87927106D01*
X154750000Y-87856572D01*
X154750000Y-87850000D01*
X153500000Y-87850000D01*
X153000000Y-87850000D01*
X153000000Y-86700000D01*
X153500000Y-86700000D01*
X153500000Y-87350000D01*
X154749999Y-87350000D01*
X154749999Y-87343417D01*
X154743591Y-87272897D01*
X154743590Y-87272892D01*
X154693018Y-87110603D01*
X154605072Y-86965122D01*
X154484877Y-86844927D01*
X154339395Y-86756980D01*
X154339396Y-86756980D01*
X154177105Y-86706409D01*
X154177106Y-86706409D01*
X154106572Y-86700000D01*
X153500000Y-86700000D01*
X153000000Y-86700000D01*
X152393417Y-86700000D01*
X152322897Y-86706408D01*
X152322892Y-86706409D01*
X152160603Y-86756981D01*
X152015122Y-86844927D01*
X152015121Y-86844928D01*
X151942181Y-86917869D01*
X151880858Y-86951354D01*
X151811166Y-86946370D01*
X151755233Y-86904498D01*
X151730816Y-86839034D01*
X151730500Y-86830188D01*
X151730500Y-85173428D01*
X151731031Y-85165326D01*
X151735682Y-85129999D01*
X151735682Y-85129998D01*
X151715044Y-84973239D01*
X151715044Y-84973238D01*
X151654536Y-84827159D01*
X151558282Y-84701718D01*
X151530005Y-84680020D01*
X151523904Y-84674669D01*
X150505848Y-83656613D01*
X151749500Y-83656613D01*
X151755913Y-83727192D01*
X151755913Y-83727194D01*
X151755914Y-83727196D01*
X151806522Y-83889606D01*
X151866847Y-83989396D01*
X151894530Y-84035188D01*
X152014811Y-84155469D01*
X152014813Y-84155470D01*
X152014815Y-84155472D01*
X152160394Y-84243478D01*
X152322804Y-84294086D01*
X152393384Y-84300500D01*
X152393387Y-84300500D01*
X154106613Y-84300500D01*
X154106616Y-84300500D01*
X154177196Y-84294086D01*
X154339606Y-84243478D01*
X154485185Y-84155472D01*
X154605472Y-84035185D01*
X154693478Y-83889606D01*
X154744086Y-83727196D01*
X154750500Y-83656616D01*
X154750500Y-83143384D01*
X154744086Y-83072804D01*
X154693478Y-82910394D01*
X154605472Y-82764815D01*
X154605470Y-82764813D01*
X154605469Y-82764811D01*
X154485188Y-82644530D01*
X154482215Y-82642733D01*
X154339606Y-82556522D01*
X154177196Y-82505914D01*
X154177194Y-82505913D01*
X154177192Y-82505913D01*
X154127778Y-82501423D01*
X154106616Y-82499500D01*
X154106613Y-82499500D01*
X153820938Y-82499500D01*
X153753899Y-82479815D01*
X153738715Y-82468319D01*
X153724575Y-82455792D01*
X153724572Y-82455790D01*
X153724570Y-82455789D01*
X153584700Y-82382378D01*
X153431321Y-82344575D01*
X153431320Y-82344575D01*
X153273350Y-82344575D01*
X153273349Y-82344575D01*
X153119969Y-82382378D01*
X152980099Y-82455789D01*
X152980096Y-82455791D01*
X152980095Y-82455792D01*
X152965958Y-82468315D01*
X152902727Y-82498037D01*
X152883732Y-82499500D01*
X152393384Y-82499500D01*
X152374145Y-82501248D01*
X152322807Y-82505913D01*
X152160393Y-82556522D01*
X152014811Y-82644530D01*
X151894530Y-82764811D01*
X151806522Y-82910393D01*
X151755913Y-83072807D01*
X151749500Y-83143386D01*
X151749500Y-83656613D01*
X150505848Y-83656613D01*
X147786818Y-80937583D01*
X147753333Y-80876260D01*
X147750499Y-80849902D01*
X147750499Y-80802129D01*
X147750498Y-80802123D01*
X147744091Y-80742518D01*
X147744091Y-80742517D01*
X147716421Y-80668332D01*
X147711438Y-80598642D01*
X147716422Y-80581667D01*
X147744091Y-80507483D01*
X147750500Y-80447873D01*
X147750499Y-79952128D01*
X147744091Y-79892517D01*
X147716154Y-79817616D01*
X147711171Y-79747927D01*
X147716156Y-79730950D01*
X147743597Y-79657379D01*
X147743597Y-79657377D01*
X147749999Y-79597844D01*
X147750000Y-79597827D01*
X147750000Y-79550000D01*
X147498069Y-79550000D01*
X147454736Y-79542182D01*
X147357482Y-79505908D01*
X147357483Y-79505908D01*
X147297883Y-79499501D01*
X147297881Y-79499500D01*
X147297873Y-79499500D01*
X147297864Y-79499500D01*
X146402129Y-79499500D01*
X146402123Y-79499501D01*
X146342516Y-79505908D01*
X146245264Y-79542182D01*
X146201931Y-79550000D01*
X145950000Y-79550000D01*
X145950000Y-79597844D01*
X145956401Y-79657372D01*
X145956403Y-79657379D01*
X145983844Y-79730952D01*
X145988828Y-79800643D01*
X145983844Y-79817618D01*
X145958429Y-79885761D01*
X145955909Y-79892517D01*
X145949500Y-79952127D01*
X145949500Y-79952134D01*
X145949500Y-79952135D01*
X145949500Y-80447870D01*
X145949501Y-80447876D01*
X145955908Y-80507483D01*
X145983577Y-80581667D01*
X145988561Y-80651358D01*
X145983577Y-80668331D01*
X145955910Y-80742511D01*
X145955909Y-80742515D01*
X145955909Y-80742517D01*
X145949500Y-80802127D01*
X145949500Y-80802134D01*
X145949500Y-80802135D01*
X145949500Y-81297870D01*
X145949501Y-81297876D01*
X145955908Y-81357483D01*
X145983577Y-81431667D01*
X145988561Y-81501358D01*
X145983577Y-81518331D01*
X145955910Y-81592511D01*
X145955909Y-81592515D01*
X145955909Y-81592517D01*
X145949500Y-81652127D01*
X145949500Y-81652134D01*
X145949500Y-81652135D01*
X145949500Y-82147870D01*
X145949501Y-82147876D01*
X145955908Y-82207483D01*
X145983577Y-82281667D01*
X145988561Y-82351358D01*
X145983577Y-82368331D01*
X145955910Y-82442511D01*
X145955909Y-82442515D01*
X145955909Y-82442517D01*
X145949500Y-82502127D01*
X145949500Y-82502134D01*
X145949500Y-82502135D01*
X145949500Y-82997870D01*
X145949501Y-82997876D01*
X145955908Y-83057483D01*
X145983577Y-83131667D01*
X145988561Y-83201358D01*
X145983577Y-83218331D01*
X145955910Y-83292511D01*
X145955909Y-83292515D01*
X145955909Y-83292517D01*
X145949500Y-83352127D01*
X145949500Y-83352134D01*
X145949500Y-83352135D01*
X145949500Y-83847870D01*
X145949501Y-83847876D01*
X145955908Y-83907483D01*
X145983577Y-83981667D01*
X145988561Y-84051358D01*
X145983577Y-84068331D01*
X145955910Y-84142511D01*
X145955909Y-84142515D01*
X145955909Y-84142517D01*
X145949500Y-84202127D01*
X145949500Y-84202134D01*
X145949500Y-84202135D01*
X145949500Y-84697870D01*
X145949501Y-84697876D01*
X145955908Y-84757483D01*
X145983577Y-84831667D01*
X145988561Y-84901358D01*
X145983577Y-84918331D01*
X145955910Y-84992511D01*
X145955909Y-84992515D01*
X145955909Y-84992517D01*
X145949500Y-85052127D01*
X145949500Y-85052134D01*
X145949500Y-85052135D01*
X145949500Y-85547870D01*
X145949501Y-85547876D01*
X145955908Y-85607483D01*
X145983577Y-85681667D01*
X145988561Y-85751358D01*
X145983577Y-85768331D01*
X145955910Y-85842511D01*
X145955909Y-85842515D01*
X145955909Y-85842517D01*
X145949500Y-85902127D01*
X145949500Y-85902134D01*
X145949500Y-85902135D01*
X145949500Y-86397870D01*
X145949501Y-86397876D01*
X145955908Y-86457483D01*
X145983577Y-86531667D01*
X145988561Y-86601358D01*
X145983577Y-86618331D01*
X145955910Y-86692511D01*
X145955909Y-86692515D01*
X145955909Y-86692517D01*
X145949500Y-86752127D01*
X145949500Y-86752134D01*
X145949500Y-86752135D01*
X145949500Y-87247870D01*
X145949501Y-87247876D01*
X145955908Y-87307483D01*
X145983577Y-87381667D01*
X145988561Y-87451358D01*
X145983577Y-87468331D01*
X145955910Y-87542511D01*
X145955909Y-87542515D01*
X145955909Y-87542517D01*
X145949500Y-87602127D01*
X145949500Y-87602134D01*
X145949500Y-87602135D01*
X145949500Y-88097870D01*
X145949501Y-88097876D01*
X145955908Y-88157483D01*
X145983577Y-88231667D01*
X145988561Y-88301358D01*
X145983577Y-88318331D01*
X145955909Y-88392514D01*
X145955908Y-88392516D01*
X145950479Y-88443018D01*
X145949501Y-88452123D01*
X145949500Y-88452135D01*
X145949500Y-88725500D01*
X145929815Y-88792539D01*
X145877011Y-88838294D01*
X145825500Y-88849500D01*
X145552130Y-88849500D01*
X145552123Y-88849501D01*
X145492516Y-88855908D01*
X145418332Y-88883577D01*
X145348640Y-88888561D01*
X145331668Y-88883577D01*
X145257488Y-88855910D01*
X145257484Y-88855909D01*
X145257483Y-88855909D01*
X145197873Y-88849500D01*
X145197863Y-88849500D01*
X144702129Y-88849500D01*
X144702123Y-88849501D01*
X144642516Y-88855908D01*
X144568332Y-88883577D01*
X144498640Y-88888561D01*
X144481668Y-88883577D01*
X144407488Y-88855910D01*
X144407484Y-88855909D01*
X144407483Y-88855909D01*
X144347873Y-88849500D01*
X144347863Y-88849500D01*
X143852129Y-88849500D01*
X143852123Y-88849501D01*
X143792516Y-88855908D01*
X143718332Y-88883577D01*
X143648640Y-88888561D01*
X143631668Y-88883577D01*
X143557488Y-88855910D01*
X143557484Y-88855909D01*
X143557483Y-88855909D01*
X143497873Y-88849500D01*
X143497863Y-88849500D01*
X143002129Y-88849500D01*
X143002123Y-88849501D01*
X142942516Y-88855908D01*
X142868332Y-88883577D01*
X142798640Y-88888561D01*
X142781668Y-88883577D01*
X142707488Y-88855910D01*
X142707484Y-88855909D01*
X142707483Y-88855909D01*
X142647873Y-88849500D01*
X142647863Y-88849500D01*
X142152129Y-88849500D01*
X142152123Y-88849501D01*
X142092516Y-88855908D01*
X142018332Y-88883577D01*
X141948640Y-88888561D01*
X141931668Y-88883577D01*
X141857488Y-88855910D01*
X141857484Y-88855909D01*
X141857483Y-88855909D01*
X141797873Y-88849500D01*
X141797863Y-88849500D01*
X141302129Y-88849500D01*
X141302123Y-88849501D01*
X141242516Y-88855908D01*
X141168332Y-88883577D01*
X141098640Y-88888561D01*
X141081668Y-88883577D01*
X141007488Y-88855910D01*
X141007484Y-88855909D01*
X141007483Y-88855909D01*
X140947873Y-88849500D01*
X140947863Y-88849500D01*
X140452129Y-88849500D01*
X140452123Y-88849501D01*
X140392516Y-88855908D01*
X140318332Y-88883577D01*
X140248640Y-88888561D01*
X140231668Y-88883577D01*
X140157488Y-88855910D01*
X140157484Y-88855909D01*
X140157483Y-88855909D01*
X140097873Y-88849500D01*
X140097863Y-88849500D01*
X139602129Y-88849500D01*
X139602123Y-88849501D01*
X139542516Y-88855908D01*
X139468332Y-88883577D01*
X139398640Y-88888561D01*
X139381668Y-88883577D01*
X139307488Y-88855910D01*
X139307484Y-88855909D01*
X139307483Y-88855909D01*
X139247873Y-88849500D01*
X139247863Y-88849500D01*
X138752129Y-88849500D01*
X138752123Y-88849501D01*
X138692516Y-88855908D01*
X138618332Y-88883577D01*
X138548640Y-88888561D01*
X138531668Y-88883577D01*
X138457488Y-88855910D01*
X138457484Y-88855909D01*
X138457483Y-88855909D01*
X138397873Y-88849500D01*
X138397863Y-88849500D01*
X137902129Y-88849500D01*
X137902123Y-88849501D01*
X137842516Y-88855908D01*
X137768332Y-88883577D01*
X137698640Y-88888561D01*
X137681668Y-88883577D01*
X137607488Y-88855910D01*
X137607484Y-88855909D01*
X137607483Y-88855909D01*
X137547873Y-88849500D01*
X137547863Y-88849500D01*
X137052129Y-88849500D01*
X137052123Y-88849501D01*
X136992516Y-88855908D01*
X136918332Y-88883577D01*
X136848640Y-88888561D01*
X136831668Y-88883577D01*
X136757488Y-88855910D01*
X136757484Y-88855909D01*
X136757483Y-88855909D01*
X136697873Y-88849500D01*
X136697863Y-88849500D01*
X136202129Y-88849500D01*
X136202123Y-88849501D01*
X136142516Y-88855908D01*
X136068332Y-88883577D01*
X135998640Y-88888561D01*
X135981668Y-88883577D01*
X135907488Y-88855910D01*
X135907484Y-88855909D01*
X135907483Y-88855909D01*
X135847873Y-88849500D01*
X135847863Y-88849500D01*
X135352129Y-88849500D01*
X135352123Y-88849501D01*
X135292516Y-88855908D01*
X135218332Y-88883577D01*
X135148640Y-88888561D01*
X135131668Y-88883577D01*
X135057488Y-88855910D01*
X135057484Y-88855909D01*
X135057483Y-88855909D01*
X134997873Y-88849500D01*
X134997863Y-88849500D01*
X134502129Y-88849500D01*
X134502123Y-88849501D01*
X134442516Y-88855908D01*
X134368332Y-88883577D01*
X134298640Y-88888561D01*
X134281668Y-88883577D01*
X134207485Y-88855909D01*
X134207483Y-88855908D01*
X134147883Y-88849501D01*
X134147881Y-88849500D01*
X134147873Y-88849500D01*
X134147865Y-88849500D01*
X133874499Y-88849500D01*
X133807460Y-88829815D01*
X133761705Y-88777011D01*
X133750499Y-88725500D01*
X133750499Y-88452129D01*
X133750498Y-88452123D01*
X133750497Y-88452116D01*
X133744091Y-88392517D01*
X133716421Y-88318332D01*
X133711438Y-88248642D01*
X133716422Y-88231667D01*
X133744091Y-88157483D01*
X133750500Y-88097873D01*
X133750499Y-87724499D01*
X133770183Y-87657461D01*
X133822987Y-87611706D01*
X133874499Y-87600500D01*
X134849464Y-87600500D01*
X134857562Y-87601030D01*
X134892892Y-87605682D01*
X134892893Y-87605682D01*
X134932253Y-87600500D01*
X134975042Y-87594866D01*
X134983141Y-87594336D01*
X135028041Y-87594336D01*
X135181421Y-87556532D01*
X135208135Y-87542511D01*
X135321296Y-87483119D01*
X135439539Y-87378366D01*
X135529276Y-87248359D01*
X135585293Y-87100654D01*
X135604334Y-86943836D01*
X135592325Y-86844928D01*
X135585293Y-86787017D01*
X135552291Y-86700000D01*
X135529276Y-86639313D01*
X135439539Y-86509306D01*
X135321296Y-86404553D01*
X135321294Y-86404552D01*
X135321293Y-86404551D01*
X135181421Y-86331139D01*
X135028042Y-86293336D01*
X135028041Y-86293336D01*
X134870071Y-86293336D01*
X134870070Y-86293336D01*
X134716692Y-86331139D01*
X134667012Y-86357213D01*
X134613506Y-86385296D01*
X134555881Y-86399500D01*
X133874500Y-86399500D01*
X133807461Y-86379815D01*
X133761706Y-86327011D01*
X133750500Y-86275500D01*
X133750499Y-85902130D01*
X133750498Y-85902123D01*
X133744091Y-85842518D01*
X133744091Y-85842517D01*
X133716421Y-85768332D01*
X133711438Y-85698642D01*
X133716422Y-85681667D01*
X133744091Y-85607483D01*
X133750500Y-85547873D01*
X133750499Y-85052128D01*
X133744091Y-84992517D01*
X133716421Y-84918332D01*
X133711438Y-84848642D01*
X133716422Y-84831667D01*
X133744091Y-84757483D01*
X133750500Y-84697873D01*
X133750499Y-84202128D01*
X133744091Y-84142517D01*
X133716421Y-84068332D01*
X133711438Y-83998642D01*
X133716422Y-83981667D01*
X133744091Y-83907483D01*
X133750500Y-83847873D01*
X133750499Y-83352128D01*
X133744091Y-83292517D01*
X133716421Y-83218332D01*
X133711438Y-83148642D01*
X133716422Y-83131667D01*
X133744091Y-83057483D01*
X133750500Y-82997873D01*
X133750499Y-82502128D01*
X133744091Y-82442517D01*
X133716421Y-82368332D01*
X133711438Y-82298642D01*
X133716422Y-82281667D01*
X133744091Y-82207483D01*
X133750500Y-82147873D01*
X133750499Y-81652128D01*
X133744091Y-81592517D01*
X133716421Y-81518332D01*
X133711438Y-81448642D01*
X133716422Y-81431667D01*
X133744091Y-81357483D01*
X133750500Y-81297873D01*
X133750499Y-80802128D01*
X133746976Y-80769357D01*
X133754324Y-80712132D01*
X133778309Y-80648891D01*
X133797350Y-80492073D01*
X133778309Y-80335255D01*
X133778308Y-80335253D01*
X133778308Y-80335251D01*
X133758557Y-80283172D01*
X133750499Y-80239201D01*
X133750499Y-79952129D01*
X133750498Y-79952123D01*
X133744091Y-79892518D01*
X133744091Y-79892517D01*
X133716421Y-79818332D01*
X133711438Y-79748642D01*
X133716420Y-79731672D01*
X133744091Y-79657483D01*
X133750500Y-79597873D01*
X133750499Y-79102128D01*
X133744091Y-79042517D01*
X133716421Y-78968332D01*
X133711438Y-78898642D01*
X133716420Y-78881672D01*
X133744091Y-78807483D01*
X133750500Y-78747873D01*
X133750500Y-78700000D01*
X145950000Y-78700000D01*
X145950000Y-78747844D01*
X145956401Y-78807372D01*
X145956403Y-78807382D01*
X145984110Y-78881668D01*
X145989094Y-78951359D01*
X145984110Y-78968332D01*
X145956403Y-79042617D01*
X145956401Y-79042627D01*
X145950000Y-79102155D01*
X145950000Y-79150000D01*
X146650000Y-79150000D01*
X146650000Y-78700000D01*
X147050000Y-78700000D01*
X147050000Y-79150000D01*
X147750000Y-79150000D01*
X147750000Y-79102172D01*
X147749999Y-79102155D01*
X147743598Y-79042628D01*
X147715888Y-78968334D01*
X147710904Y-78898642D01*
X147715888Y-78881666D01*
X147743598Y-78807371D01*
X147749999Y-78747844D01*
X147750000Y-78747827D01*
X147750000Y-78740000D01*
X156124341Y-78740000D01*
X156144936Y-78975403D01*
X156144938Y-78975413D01*
X156206094Y-79203655D01*
X156206096Y-79203659D01*
X156206097Y-79203663D01*
X156256031Y-79310746D01*
X156305964Y-79417828D01*
X156305965Y-79417830D01*
X156441505Y-79611402D01*
X156608597Y-79778494D01*
X156802169Y-79914034D01*
X156802171Y-79914035D01*
X157016337Y-80013903D01*
X157244592Y-80075063D01*
X157421034Y-80090500D01*
X157538966Y-80090500D01*
X157715408Y-80075063D01*
X157943663Y-80013903D01*
X158157829Y-79914035D01*
X158351401Y-79778495D01*
X158518495Y-79611401D01*
X158654035Y-79417830D01*
X158753903Y-79203663D01*
X158815063Y-78975408D01*
X158835659Y-78740000D01*
X158815063Y-78504592D01*
X158753903Y-78276337D01*
X158654035Y-78062171D01*
X158654034Y-78062169D01*
X158518494Y-77868597D01*
X158351402Y-77701505D01*
X158157830Y-77565965D01*
X158157828Y-77565964D01*
X158050746Y-77516031D01*
X157943663Y-77466097D01*
X157943659Y-77466096D01*
X157943655Y-77466094D01*
X157715413Y-77404938D01*
X157715403Y-77404936D01*
X157538966Y-77389500D01*
X157421034Y-77389500D01*
X157244596Y-77404936D01*
X157244586Y-77404938D01*
X157016344Y-77466094D01*
X157016335Y-77466098D01*
X156802171Y-77565964D01*
X156802169Y-77565965D01*
X156608597Y-77701505D01*
X156441506Y-77868597D01*
X156441501Y-77868604D01*
X156305967Y-78062165D01*
X156305965Y-78062169D01*
X156206098Y-78276335D01*
X156206094Y-78276344D01*
X156144938Y-78504586D01*
X156144936Y-78504596D01*
X156124341Y-78739999D01*
X156124341Y-78740000D01*
X147750000Y-78740000D01*
X147750000Y-78700000D01*
X147050000Y-78700000D01*
X146650000Y-78700000D01*
X145950000Y-78700000D01*
X133750500Y-78700000D01*
X133750499Y-78252128D01*
X133744091Y-78192517D01*
X133716154Y-78117616D01*
X133711171Y-78047927D01*
X133716156Y-78030950D01*
X133743597Y-77957379D01*
X133743597Y-77957377D01*
X133749996Y-77897870D01*
X145949500Y-77897870D01*
X145949501Y-77897876D01*
X145955909Y-77957485D01*
X145983843Y-78032382D01*
X145988827Y-78102074D01*
X145983844Y-78119046D01*
X145956402Y-78192623D01*
X145956401Y-78192627D01*
X145950000Y-78252155D01*
X145950000Y-78300000D01*
X146201931Y-78300000D01*
X146245264Y-78307818D01*
X146342517Y-78344091D01*
X146342516Y-78344091D01*
X146349444Y-78344835D01*
X146402127Y-78350500D01*
X147297872Y-78350499D01*
X147357483Y-78344091D01*
X147454736Y-78307817D01*
X147498069Y-78300000D01*
X147750000Y-78300000D01*
X147750000Y-78252172D01*
X147749999Y-78252155D01*
X147743598Y-78192623D01*
X147716155Y-78119047D01*
X147711171Y-78049355D01*
X147716148Y-78032399D01*
X147744091Y-77957483D01*
X147750500Y-77897873D01*
X147750499Y-77402128D01*
X147744091Y-77342517D01*
X147716421Y-77268332D01*
X147711438Y-77198642D01*
X147716420Y-77181672D01*
X147744091Y-77107483D01*
X147750500Y-77047873D01*
X147750499Y-76552128D01*
X147744091Y-76492517D01*
X147716154Y-76417616D01*
X147711171Y-76347927D01*
X147716156Y-76330950D01*
X147743597Y-76257379D01*
X147743597Y-76257377D01*
X147749999Y-76197844D01*
X147750000Y-76197827D01*
X147750000Y-76000000D01*
X146000000Y-76000000D01*
X146000000Y-76351930D01*
X145992182Y-76395263D01*
X145989909Y-76401359D01*
X145955909Y-76492517D01*
X145949500Y-76552127D01*
X145949500Y-76552134D01*
X145949500Y-76552135D01*
X145949500Y-77047870D01*
X145949501Y-77047876D01*
X145955908Y-77107483D01*
X145983577Y-77181667D01*
X145988561Y-77251358D01*
X145983577Y-77268331D01*
X145955910Y-77342511D01*
X145955909Y-77342515D01*
X145955909Y-77342517D01*
X145949500Y-77402127D01*
X145949500Y-77402134D01*
X145949500Y-77402135D01*
X145949500Y-77897870D01*
X133749996Y-77897870D01*
X133749999Y-77897844D01*
X133750000Y-77897827D01*
X133750000Y-77850000D01*
X133498069Y-77850000D01*
X133454736Y-77842182D01*
X133357482Y-77805908D01*
X133357483Y-77805908D01*
X133297883Y-77799501D01*
X133297881Y-77799500D01*
X133297873Y-77799500D01*
X133297864Y-77799500D01*
X132402129Y-77799500D01*
X132402123Y-77799501D01*
X132342516Y-77805908D01*
X132245264Y-77842182D01*
X132201931Y-77850000D01*
X131950000Y-77850000D01*
X131950000Y-77897844D01*
X131956401Y-77957372D01*
X131956403Y-77957379D01*
X131983844Y-78030952D01*
X131988828Y-78100643D01*
X131983844Y-78117618D01*
X131983312Y-78119047D01*
X131955909Y-78192517D01*
X131949500Y-78252127D01*
X131949500Y-78252134D01*
X131949500Y-78252135D01*
X131949500Y-78667271D01*
X131929815Y-78734310D01*
X131877011Y-78780065D01*
X131807853Y-78790009D01*
X131744297Y-78760984D01*
X131743272Y-78760085D01*
X131728686Y-78747163D01*
X131728684Y-78747161D01*
X131588811Y-78673749D01*
X131435432Y-78635946D01*
X131435431Y-78635946D01*
X131277461Y-78635946D01*
X131277460Y-78635946D01*
X131124080Y-78673749D01*
X130984208Y-78747161D01*
X130865962Y-78851917D01*
X130776225Y-78981923D01*
X130763969Y-79014239D01*
X130735709Y-79057946D01*
X128386096Y-81407560D01*
X128379994Y-81412911D01*
X128351717Y-81434610D01*
X128295881Y-81507379D01*
X128255464Y-81560049D01*
X128255461Y-81560055D01*
X128194957Y-81706126D01*
X128194955Y-81706131D01*
X128174318Y-81862890D01*
X128174318Y-81862891D01*
X128178969Y-81898218D01*
X128179500Y-81906320D01*
X128179500Y-82642733D01*
X128159815Y-82709772D01*
X128107011Y-82755527D01*
X128037853Y-82765471D01*
X127992749Y-82746396D01*
X127991293Y-82748806D01*
X127839395Y-82656980D01*
X127839396Y-82656980D01*
X127677105Y-82606409D01*
X127677106Y-82606409D01*
X127606572Y-82600000D01*
X127000000Y-82600000D01*
X127000000Y-84399999D01*
X127606581Y-84399999D01*
X127677102Y-84393591D01*
X127677107Y-84393590D01*
X127839396Y-84343018D01*
X127991293Y-84251194D01*
X127993074Y-84254140D01*
X128043480Y-84233850D01*
X128112112Y-84246943D01*
X128162770Y-84295063D01*
X128179500Y-84357266D01*
X128179500Y-86842138D01*
X128159815Y-86909177D01*
X128107011Y-86954932D01*
X128037853Y-86964876D01*
X127991350Y-86948255D01*
X127984038Y-86943835D01*
X127839606Y-86856522D01*
X127677196Y-86805914D01*
X127677194Y-86805913D01*
X127677192Y-86805913D01*
X127627778Y-86801423D01*
X127606616Y-86799500D01*
X125893384Y-86799500D01*
X125874145Y-86801248D01*
X125822807Y-86805913D01*
X125660393Y-86856522D01*
X125514811Y-86944530D01*
X125394530Y-87064811D01*
X125306522Y-87210393D01*
X125255913Y-87372807D01*
X125249500Y-87443386D01*
X125249500Y-87956613D01*
X125255913Y-88027192D01*
X125255913Y-88027194D01*
X125255914Y-88027196D01*
X125306522Y-88189606D01*
X125384339Y-88318331D01*
X125394530Y-88335188D01*
X125514811Y-88455469D01*
X125514813Y-88455470D01*
X125514815Y-88455472D01*
X125660394Y-88543478D01*
X125822804Y-88594086D01*
X125893384Y-88600500D01*
X126633000Y-88600500D01*
X126700039Y-88620185D01*
X126745794Y-88672989D01*
X126757000Y-88724500D01*
X126757000Y-90759460D01*
X126756469Y-90767562D01*
X126751498Y-90805319D01*
X126751498Y-90805320D01*
X126756149Y-90840646D01*
X126756680Y-90848747D01*
X126756680Y-91875932D01*
X126756149Y-91884030D01*
X126751498Y-91919361D01*
X126754129Y-91939349D01*
X126756680Y-91958721D01*
X126772135Y-92076121D01*
X126772136Y-92076123D01*
X126832644Y-92222202D01*
X126928898Y-92347643D01*
X126941105Y-92357010D01*
X126982306Y-92413436D01*
X126989523Y-92460216D01*
X126989500Y-92460801D01*
X126989501Y-92959181D01*
X126992335Y-92995205D01*
X127037129Y-93149388D01*
X127037131Y-93149393D01*
X127118863Y-93287595D01*
X127118869Y-93287603D01*
X127232396Y-93401130D01*
X127232400Y-93401133D01*
X127232402Y-93401135D01*
X127370607Y-93482869D01*
X127370614Y-93482871D01*
X127524791Y-93527664D01*
X127524794Y-93527664D01*
X127524796Y-93527665D01*
X127536803Y-93528610D01*
X127560817Y-93530500D01*
X127560818Y-93530499D01*
X127560819Y-93530500D01*
X127826393Y-93530499D01*
X127959181Y-93530499D01*
X127966384Y-93529932D01*
X127995204Y-93527665D01*
X128149393Y-93482869D01*
X128206882Y-93448869D01*
X128274602Y-93431688D01*
X128333117Y-93448869D01*
X128390607Y-93482869D01*
X128390610Y-93482869D01*
X128390612Y-93482871D01*
X128544791Y-93527664D01*
X128544794Y-93527664D01*
X128544796Y-93527665D01*
X128556803Y-93528610D01*
X128580817Y-93530500D01*
X128580818Y-93530499D01*
X128580819Y-93530500D01*
X128846393Y-93530499D01*
X128979181Y-93530499D01*
X128982015Y-93530275D01*
X129015204Y-93527665D01*
X129169393Y-93482869D01*
X129307598Y-93401135D01*
X129361915Y-93346817D01*
X129423236Y-93313334D01*
X129449595Y-93310500D01*
X129874903Y-93310500D01*
X129941942Y-93330185D01*
X129962584Y-93346819D01*
X130463400Y-93847635D01*
X130496885Y-93908958D01*
X130491901Y-93978650D01*
X130462060Y-94022140D01*
X130462703Y-94022710D01*
X130458123Y-94027878D01*
X130457957Y-94028122D01*
X130457730Y-94028322D01*
X130367993Y-94158330D01*
X130367992Y-94158331D01*
X130311975Y-94306035D01*
X130305419Y-94360026D01*
X130277796Y-94424204D01*
X130270004Y-94432759D01*
X130169121Y-94533643D01*
X130163019Y-94538994D01*
X130125588Y-94567717D01*
X130103893Y-94595991D01*
X130098540Y-94602094D01*
X125471481Y-99229153D01*
X125465378Y-99234505D01*
X125437104Y-99256201D01*
X125412935Y-99287700D01*
X125340846Y-99381647D01*
X125340846Y-99381648D01*
X125280342Y-99527719D01*
X125280340Y-99527724D01*
X125259703Y-99684483D01*
X125259703Y-99684485D01*
X125261718Y-99699794D01*
X125264354Y-99719811D01*
X125264885Y-99727913D01*
X125264885Y-99896524D01*
X125256827Y-99940495D01*
X125229148Y-100013478D01*
X125210107Y-100170296D01*
X125210107Y-100170297D01*
X117550138Y-100170297D01*
X117550500Y-100165696D01*
X117550500Y-99924000D01*
X117570185Y-99856961D01*
X117622989Y-99811206D01*
X117674500Y-99800000D01*
X117937500Y-99800000D01*
X117937500Y-99250000D01*
X118437500Y-99250000D01*
X118437500Y-99800000D01*
X118840644Y-99800000D01*
X118877489Y-99797100D01*
X118877495Y-99797099D01*
X119035193Y-99751283D01*
X119035196Y-99751282D01*
X119176552Y-99667685D01*
X119176561Y-99667678D01*
X119292678Y-99551561D01*
X119292685Y-99551552D01*
X119369006Y-99422500D01*
X120937156Y-99422500D01*
X120977595Y-99561694D01*
X121059261Y-99699785D01*
X121059268Y-99699794D01*
X121172705Y-99813231D01*
X121172714Y-99813238D01*
X121310808Y-99894906D01*
X121310811Y-99894907D01*
X121464871Y-99939666D01*
X121464877Y-99939667D01*
X121500000Y-99942431D01*
X121500000Y-99422500D01*
X122000000Y-99422500D01*
X122000000Y-99942430D01*
X122035122Y-99939667D01*
X122035128Y-99939666D01*
X122189188Y-99894907D01*
X122189191Y-99894906D01*
X122327285Y-99813238D01*
X122327294Y-99813231D01*
X122440731Y-99699794D01*
X122440738Y-99699785D01*
X122522404Y-99561694D01*
X122562844Y-99422500D01*
X122000000Y-99422500D01*
X121500000Y-99422500D01*
X120937156Y-99422500D01*
X119369006Y-99422500D01*
X119376281Y-99410198D01*
X119422100Y-99252486D01*
X119422295Y-99250001D01*
X119422295Y-99250000D01*
X118437500Y-99250000D01*
X117937500Y-99250000D01*
X117281815Y-99250000D01*
X117218694Y-99232732D01*
X117212642Y-99229153D01*
X117160398Y-99198256D01*
X117160397Y-99198255D01*
X117160396Y-99198255D01*
X117160393Y-99198254D01*
X117002573Y-99152402D01*
X117002567Y-99152401D01*
X116965696Y-99149500D01*
X116965694Y-99149500D01*
X115659306Y-99149500D01*
X115659304Y-99149500D01*
X115622432Y-99152401D01*
X115622426Y-99152402D01*
X115477267Y-99194576D01*
X115442672Y-99199500D01*
X113469664Y-99199500D01*
X113402625Y-99179815D01*
X113356870Y-99127011D01*
X113346374Y-99088754D01*
X113345799Y-99083403D01*
X113344091Y-99067517D01*
X113293796Y-98932669D01*
X113293795Y-98932668D01*
X113293793Y-98932664D01*
X113207547Y-98817455D01*
X113207544Y-98817452D01*
X113092335Y-98731206D01*
X113092328Y-98731202D01*
X112960917Y-98682189D01*
X112904983Y-98640318D01*
X112880566Y-98574853D01*
X112895418Y-98506580D01*
X112916563Y-98478332D01*
X113038495Y-98356401D01*
X113102007Y-98265696D01*
X115074500Y-98265696D01*
X115077401Y-98302567D01*
X115077402Y-98302573D01*
X115123254Y-98460393D01*
X115123255Y-98460396D01*
X115123256Y-98460398D01*
X115136143Y-98482189D01*
X115206917Y-98601862D01*
X115206923Y-98601870D01*
X115323129Y-98718076D01*
X115323133Y-98718079D01*
X115323135Y-98718081D01*
X115464602Y-98801744D01*
X115506224Y-98813836D01*
X115622426Y-98847597D01*
X115622429Y-98847597D01*
X115622431Y-98847598D01*
X115634722Y-98848565D01*
X115659304Y-98850500D01*
X115659306Y-98850500D01*
X116965696Y-98850500D01*
X116984131Y-98849049D01*
X117002569Y-98847598D01*
X117002571Y-98847597D01*
X117002573Y-98847597D01*
X117044191Y-98835505D01*
X117160398Y-98801744D01*
X117213621Y-98770267D01*
X117276742Y-98753000D01*
X120821247Y-98753000D01*
X120888286Y-98772685D01*
X120934041Y-98825489D01*
X120943985Y-98894647D01*
X120940324Y-98911595D01*
X120937156Y-98922500D01*
X121492026Y-98922500D01*
X121496891Y-98922691D01*
X121500816Y-98923000D01*
X121500817Y-98923000D01*
X121500818Y-98922999D01*
X121500819Y-98923000D01*
X121999180Y-98922999D01*
X122003096Y-98922690D01*
X122007959Y-98922500D01*
X122562844Y-98922500D01*
X122522404Y-98783305D01*
X122488581Y-98726112D01*
X122471398Y-98658388D01*
X122488582Y-98599869D01*
X122522869Y-98541893D01*
X122554329Y-98433608D01*
X122567664Y-98387708D01*
X122567665Y-98387702D01*
X122568076Y-98382487D01*
X122569357Y-98366202D01*
X122570500Y-98351683D01*
X122570499Y-97953319D01*
X122569277Y-97937793D01*
X122567665Y-97917296D01*
X122522869Y-97763107D01*
X122441135Y-97624902D01*
X122441133Y-97624900D01*
X122441130Y-97624896D01*
X122386819Y-97570585D01*
X122353334Y-97509262D01*
X122350500Y-97482904D01*
X122350500Y-93985868D01*
X122370185Y-93918829D01*
X122386814Y-93898192D01*
X125816008Y-90468997D01*
X125846058Y-90446885D01*
X125960443Y-90386852D01*
X126078686Y-90282099D01*
X126168423Y-90152092D01*
X126224440Y-90004387D01*
X126243481Y-89847569D01*
X126224440Y-89690751D01*
X126168423Y-89543046D01*
X126078686Y-89413039D01*
X125960443Y-89308286D01*
X125960441Y-89308285D01*
X125960440Y-89308284D01*
X125820568Y-89234872D01*
X125667189Y-89197069D01*
X125667188Y-89197069D01*
X125509218Y-89197069D01*
X125509217Y-89197069D01*
X125355837Y-89234872D01*
X125215965Y-89308284D01*
X125097719Y-89413040D01*
X125007982Y-89543046D01*
X124995726Y-89575362D01*
X124967466Y-89619069D01*
X121356096Y-93230440D01*
X121349994Y-93235791D01*
X121321716Y-93257491D01*
X121225464Y-93382929D01*
X121164956Y-93529009D01*
X121164955Y-93529011D01*
X121144318Y-93685770D01*
X121144318Y-93685772D01*
X121148969Y-93721098D01*
X121149500Y-93729199D01*
X121149500Y-97428000D01*
X121129815Y-97495039D01*
X121077011Y-97540794D01*
X121025500Y-97552000D01*
X117520610Y-97552000D01*
X117453571Y-97532315D01*
X117422629Y-97503998D01*
X117418079Y-97498132D01*
X117301870Y-97381923D01*
X117301862Y-97381917D01*
X117218320Y-97332511D01*
X117160398Y-97298256D01*
X117160397Y-97298255D01*
X117160396Y-97298255D01*
X117160393Y-97298254D01*
X117002573Y-97252402D01*
X117002567Y-97252401D01*
X116965696Y-97249500D01*
X116965694Y-97249500D01*
X115659306Y-97249500D01*
X115659304Y-97249500D01*
X115622432Y-97252401D01*
X115622426Y-97252402D01*
X115464606Y-97298254D01*
X115464603Y-97298255D01*
X115323137Y-97381917D01*
X115323129Y-97381923D01*
X115206923Y-97498129D01*
X115206917Y-97498137D01*
X115123255Y-97639603D01*
X115123254Y-97639606D01*
X115077402Y-97797426D01*
X115077401Y-97797432D01*
X115074500Y-97834304D01*
X115074500Y-98265696D01*
X113102007Y-98265696D01*
X113174035Y-98162830D01*
X113273903Y-97948663D01*
X113335063Y-97720408D01*
X113355659Y-97485000D01*
X113335063Y-97249592D01*
X113273903Y-97021337D01*
X113174035Y-96807171D01*
X113119024Y-96728606D01*
X113038494Y-96613597D01*
X112871402Y-96446506D01*
X112871395Y-96446501D01*
X112677834Y-96310967D01*
X112677830Y-96310965D01*
X112559539Y-96255805D01*
X112463663Y-96211097D01*
X112463659Y-96211096D01*
X112463655Y-96211094D01*
X112235413Y-96149938D01*
X112235403Y-96149936D01*
X112000001Y-96129341D01*
X111999999Y-96129341D01*
X111764596Y-96149936D01*
X111764586Y-96149938D01*
X111536344Y-96211094D01*
X111536335Y-96211098D01*
X111322171Y-96310964D01*
X111322169Y-96310965D01*
X111128597Y-96446505D01*
X110961505Y-96613597D01*
X110825965Y-96807169D01*
X110825964Y-96807171D01*
X110726098Y-97021335D01*
X110726094Y-97021344D01*
X110664938Y-97249586D01*
X110664936Y-97249596D01*
X110644341Y-97484999D01*
X110644341Y-97485000D01*
X109523566Y-97485000D01*
X109540269Y-87162457D01*
X109560062Y-87095454D01*
X109576723Y-87074846D01*
X112912347Y-83750000D01*
X125250001Y-83750000D01*
X125250001Y-83756582D01*
X125256408Y-83827102D01*
X125256409Y-83827107D01*
X125306981Y-83989396D01*
X125394927Y-84134877D01*
X125515122Y-84255072D01*
X125660604Y-84343019D01*
X125660603Y-84343019D01*
X125822894Y-84393590D01*
X125822893Y-84393590D01*
X125893427Y-84399999D01*
X126499999Y-84399999D01*
X126500000Y-84399998D01*
X126500000Y-83750000D01*
X125250001Y-83750000D01*
X112912347Y-83750000D01*
X113413968Y-83250000D01*
X125250000Y-83250000D01*
X126500000Y-83250000D01*
X126500000Y-82600000D01*
X125893417Y-82600000D01*
X125822897Y-82606408D01*
X125822892Y-82606409D01*
X125660603Y-82656981D01*
X125515122Y-82744927D01*
X125394927Y-82865122D01*
X125306980Y-83010604D01*
X125256409Y-83172893D01*
X125250000Y-83243427D01*
X125250000Y-83250000D01*
X113413968Y-83250000D01*
X117938588Y-78740000D01*
X119548341Y-78740000D01*
X119568936Y-78975403D01*
X119568938Y-78975413D01*
X119630094Y-79203655D01*
X119630096Y-79203659D01*
X119630097Y-79203663D01*
X119680031Y-79310746D01*
X119729964Y-79417828D01*
X119729965Y-79417830D01*
X119865505Y-79611402D01*
X120032597Y-79778494D01*
X120226169Y-79914034D01*
X120226171Y-79914035D01*
X120440337Y-80013903D01*
X120668592Y-80075063D01*
X120845034Y-80090500D01*
X120962966Y-80090500D01*
X121139408Y-80075063D01*
X121367663Y-80013903D01*
X121581829Y-79914035D01*
X121775401Y-79778495D01*
X121942495Y-79611401D01*
X122078035Y-79417830D01*
X122177903Y-79203663D01*
X122239063Y-78975408D01*
X122259659Y-78740000D01*
X122239063Y-78504592D01*
X122177903Y-78276337D01*
X122078035Y-78062171D01*
X122078034Y-78062169D01*
X121942494Y-77868597D01*
X121775402Y-77701505D01*
X121581830Y-77565965D01*
X121581828Y-77565964D01*
X121474746Y-77516031D01*
X121367663Y-77466097D01*
X121367659Y-77466096D01*
X121367655Y-77466094D01*
X121139413Y-77404938D01*
X121139403Y-77404936D01*
X120962966Y-77389500D01*
X120845034Y-77389500D01*
X120668596Y-77404936D01*
X120668586Y-77404938D01*
X120440344Y-77466094D01*
X120440335Y-77466098D01*
X120226171Y-77565964D01*
X120226169Y-77565965D01*
X120032597Y-77701505D01*
X119865506Y-77868597D01*
X119865501Y-77868604D01*
X119729967Y-78062165D01*
X119729965Y-78062169D01*
X119630098Y-78276335D01*
X119630094Y-78276344D01*
X119568938Y-78504586D01*
X119568936Y-78504596D01*
X119548341Y-78739999D01*
X119548341Y-78740000D01*
X117938588Y-78740000D01*
X119684228Y-77000000D01*
X131950000Y-77000000D01*
X131950000Y-77047844D01*
X131956401Y-77107372D01*
X131956403Y-77107382D01*
X131984110Y-77181668D01*
X131989094Y-77251359D01*
X131984110Y-77268332D01*
X131956403Y-77342617D01*
X131956401Y-77342627D01*
X131950000Y-77402155D01*
X131950000Y-77450000D01*
X132650000Y-77450000D01*
X132650000Y-77000000D01*
X133050000Y-77000000D01*
X133050000Y-77450000D01*
X133750000Y-77450000D01*
X133750000Y-77402172D01*
X133749999Y-77402155D01*
X133743598Y-77342628D01*
X133715888Y-77268334D01*
X133710904Y-77198642D01*
X133715888Y-77181666D01*
X133743598Y-77107371D01*
X133749999Y-77047844D01*
X133750000Y-77047827D01*
X133750000Y-77000000D01*
X133050000Y-77000000D01*
X132650000Y-77000000D01*
X131950000Y-77000000D01*
X119684228Y-77000000D01*
X120687470Y-76000000D01*
X131950000Y-76000000D01*
X131950000Y-76197844D01*
X131956401Y-76257372D01*
X131956403Y-76257382D01*
X131984110Y-76331668D01*
X131989094Y-76401359D01*
X131984110Y-76418332D01*
X131956403Y-76492617D01*
X131956401Y-76492627D01*
X131950000Y-76552155D01*
X131950000Y-76600000D01*
X132600000Y-76600000D01*
X132600000Y-76000000D01*
X133100000Y-76000000D01*
X133100000Y-76600000D01*
X133700000Y-76600000D01*
X133700000Y-76000000D01*
X133100000Y-76000000D01*
X132600000Y-76000000D01*
X131950000Y-76000000D01*
X120687470Y-76000000D01*
X120737632Y-75950000D01*
X134100000Y-75950000D01*
X134100000Y-76650000D01*
X134147828Y-76650000D01*
X134147844Y-76649999D01*
X134207371Y-76643598D01*
X134281666Y-76615888D01*
X134351358Y-76610904D01*
X134368334Y-76615888D01*
X134442628Y-76643598D01*
X134442627Y-76643598D01*
X134502155Y-76649999D01*
X134502172Y-76650000D01*
X134550000Y-76650000D01*
X134550000Y-75950000D01*
X134950000Y-75950000D01*
X134950000Y-76650000D01*
X134997828Y-76650000D01*
X134997844Y-76649999D01*
X135057371Y-76643598D01*
X135131666Y-76615888D01*
X135201358Y-76610904D01*
X135218334Y-76615888D01*
X135292628Y-76643598D01*
X135292627Y-76643598D01*
X135352155Y-76649999D01*
X135352172Y-76650000D01*
X135400000Y-76650000D01*
X135400000Y-75950000D01*
X135800000Y-75950000D01*
X135800000Y-76650000D01*
X135847828Y-76650000D01*
X135847844Y-76649999D01*
X135907371Y-76643598D01*
X135981666Y-76615888D01*
X136051358Y-76610904D01*
X136068334Y-76615888D01*
X136142628Y-76643598D01*
X136142627Y-76643598D01*
X136202155Y-76649999D01*
X136202172Y-76650000D01*
X136250000Y-76650000D01*
X136250000Y-75950000D01*
X136650000Y-75950000D01*
X136650000Y-76650000D01*
X136697828Y-76650000D01*
X136697844Y-76649999D01*
X136757371Y-76643598D01*
X136831666Y-76615888D01*
X136901358Y-76610904D01*
X136918334Y-76615888D01*
X136992628Y-76643598D01*
X136992627Y-76643598D01*
X137052155Y-76649999D01*
X137052172Y-76650000D01*
X137100000Y-76650000D01*
X137100000Y-75950000D01*
X137500000Y-75950000D01*
X137500000Y-76650000D01*
X137547828Y-76650000D01*
X137547844Y-76649999D01*
X137607371Y-76643598D01*
X137681666Y-76615888D01*
X137751358Y-76610904D01*
X137768334Y-76615888D01*
X137842628Y-76643598D01*
X137842627Y-76643598D01*
X137902155Y-76649999D01*
X137902172Y-76650000D01*
X137950000Y-76650000D01*
X137950000Y-75950000D01*
X138350000Y-75950000D01*
X138350000Y-76650000D01*
X138397828Y-76650000D01*
X138397844Y-76649999D01*
X138457371Y-76643598D01*
X138531666Y-76615888D01*
X138601358Y-76610904D01*
X138618334Y-76615888D01*
X138692628Y-76643598D01*
X138692627Y-76643598D01*
X138752155Y-76649999D01*
X138752172Y-76650000D01*
X138800000Y-76650000D01*
X138800000Y-75950000D01*
X139200000Y-75950000D01*
X139200000Y-76650000D01*
X139247828Y-76650000D01*
X139247844Y-76649999D01*
X139307371Y-76643598D01*
X139381666Y-76615888D01*
X139451358Y-76610904D01*
X139468334Y-76615888D01*
X139542628Y-76643598D01*
X139542627Y-76643598D01*
X139602155Y-76649999D01*
X139602172Y-76650000D01*
X139650000Y-76650000D01*
X139650000Y-75950000D01*
X140050000Y-75950000D01*
X140050000Y-76650000D01*
X140097828Y-76650000D01*
X140097844Y-76649999D01*
X140157371Y-76643598D01*
X140231666Y-76615888D01*
X140301358Y-76610904D01*
X140318334Y-76615888D01*
X140392628Y-76643598D01*
X140392627Y-76643598D01*
X140452155Y-76649999D01*
X140452172Y-76650000D01*
X140500000Y-76650000D01*
X140500000Y-75950000D01*
X140900000Y-75950000D01*
X140900000Y-76650000D01*
X140947828Y-76650000D01*
X140947844Y-76649999D01*
X141007371Y-76643598D01*
X141081666Y-76615888D01*
X141151358Y-76610904D01*
X141168334Y-76615888D01*
X141242628Y-76643598D01*
X141242627Y-76643598D01*
X141302155Y-76649999D01*
X141302172Y-76650000D01*
X141350000Y-76650000D01*
X141350000Y-75950000D01*
X141750000Y-75950000D01*
X141750000Y-76650000D01*
X141797828Y-76650000D01*
X141797844Y-76649999D01*
X141857371Y-76643598D01*
X141931666Y-76615888D01*
X142001358Y-76610904D01*
X142018334Y-76615888D01*
X142092628Y-76643598D01*
X142092627Y-76643598D01*
X142152155Y-76649999D01*
X142152172Y-76650000D01*
X142200000Y-76650000D01*
X142200000Y-75950000D01*
X142600000Y-75950000D01*
X142600000Y-76650000D01*
X142647828Y-76650000D01*
X142647844Y-76649999D01*
X142707371Y-76643598D01*
X142781666Y-76615888D01*
X142851358Y-76610904D01*
X142868334Y-76615888D01*
X142942628Y-76643598D01*
X142942627Y-76643598D01*
X143002155Y-76649999D01*
X143002172Y-76650000D01*
X143050000Y-76650000D01*
X143050000Y-75950000D01*
X143450000Y-75950000D01*
X143450000Y-76650000D01*
X143497828Y-76650000D01*
X143497844Y-76649999D01*
X143557371Y-76643598D01*
X143631666Y-76615888D01*
X143701358Y-76610904D01*
X143718334Y-76615888D01*
X143792628Y-76643598D01*
X143792627Y-76643598D01*
X143852155Y-76649999D01*
X143852172Y-76650000D01*
X143900000Y-76650000D01*
X143900000Y-75950000D01*
X144300000Y-75950000D01*
X144300000Y-76650000D01*
X144347828Y-76650000D01*
X144347844Y-76649999D01*
X144407371Y-76643598D01*
X144481666Y-76615888D01*
X144551358Y-76610904D01*
X144568334Y-76615888D01*
X144642628Y-76643598D01*
X144642627Y-76643598D01*
X144702155Y-76649999D01*
X144702172Y-76650000D01*
X144750000Y-76650000D01*
X144750000Y-75950000D01*
X145150000Y-75950000D01*
X145150000Y-76650000D01*
X145197828Y-76650000D01*
X145197844Y-76649999D01*
X145257371Y-76643598D01*
X145331666Y-76615888D01*
X145401358Y-76610904D01*
X145418334Y-76615888D01*
X145492628Y-76643598D01*
X145492627Y-76643598D01*
X145552155Y-76649999D01*
X145552172Y-76650000D01*
X145600000Y-76650000D01*
X145600000Y-75950000D01*
X145150000Y-75950000D01*
X144750000Y-75950000D01*
X144300000Y-75950000D01*
X143900000Y-75950000D01*
X143450000Y-75950000D01*
X143050000Y-75950000D01*
X142600000Y-75950000D01*
X142200000Y-75950000D01*
X141750000Y-75950000D01*
X141350000Y-75950000D01*
X140900000Y-75950000D01*
X140500000Y-75950000D01*
X140050000Y-75950000D01*
X139650000Y-75950000D01*
X139200000Y-75950000D01*
X138800000Y-75950000D01*
X138350000Y-75950000D01*
X137950000Y-75950000D01*
X137500000Y-75950000D01*
X137100000Y-75950000D01*
X136650000Y-75950000D01*
X136250000Y-75950000D01*
X135800000Y-75950000D01*
X135400000Y-75950000D01*
X134950000Y-75950000D01*
X134550000Y-75950000D01*
X134100000Y-75950000D01*
X120737632Y-75950000D01*
X126800558Y-69906664D01*
X126861934Y-69873279D01*
X126888295Y-69870488D01*
X132026203Y-69878801D01*
G37*
%TD.AperFunction*%
%TD*%
M02*
