%TF.GenerationSoftware,KiCad,Pcbnew,7.0.9-7.0.9~ubuntu22.04.1*%
%TF.CreationDate,2023-12-21T18:53:37+01:00*%
%TF.ProjectId,lidar 2 round,6c696461-7220-4322-9072-6f756e642e6b,rev?*%
%TF.SameCoordinates,Original*%
%TF.FileFunction,Drillmap*%
%TF.FilePolarity,Positive*%
%FSLAX45Y45*%
G04 Gerber Fmt 4.5, Leading zero omitted, Abs format (unit mm)*
G04 Created by KiCad (PCBNEW 7.0.9-7.0.9~ubuntu22.04.1) date 2023-12-21 18:53:37*
%MOMM*%
%LPD*%
G01*
G04 APERTURE LIST*
%ADD10C,0.349999*%
%ADD11C,0.200000*%
%ADD12C,0.100000*%
%ADD13C,0.220000*%
G04 APERTURE END LIST*
D10*
X16900000Y-8700000D02*
X15146659Y-6940976D01*
X16895981Y-11183617D02*
X16900000Y-8700000D01*
X15136957Y-12936957D02*
X16895981Y-11183617D01*
X10900000Y-11173914D02*
X12653341Y-12932938D01*
X10904019Y-8690298D02*
X10900000Y-11173914D01*
X12653341Y-12932938D02*
X15136957Y-12936957D01*
X12663043Y-6936957D02*
X10904019Y-8690298D01*
X15146659Y-6940976D02*
X12663043Y-6936957D01*
D11*
D12*
X13508500Y-12022500D02*
X13573500Y-12087500D01*
X13573500Y-12022500D02*
X13508500Y-12087500D01*
X14228500Y-12022500D02*
X14293500Y-12087500D01*
X14293500Y-12022500D02*
X14228500Y-12087500D01*
X14246000Y-12087500D02*
X14276000Y-12087500D01*
X14276000Y-12087500D02*
G75*
G03*
X14276000Y-12022500I0J32500D01*
G01*
X14276000Y-12022500D02*
X14246000Y-12022500D01*
X14246000Y-12022500D02*
G75*
G03*
X14246000Y-12087500I0J-32500D01*
G01*
D13*
X12200400Y-7874000D02*
G75*
G03*
X12200400Y-7874000I-110000J0D01*
G01*
X12200400Y-11988800D02*
G75*
G03*
X12200400Y-11988800I-110000J0D01*
G01*
X15858000Y-7874000D02*
G75*
G03*
X15858000Y-7874000I-110000J0D01*
G01*
X15858000Y-11988800D02*
G75*
G03*
X15858000Y-11988800I-110000J0D01*
G01*
D11*
X11143277Y-13265941D02*
X11143277Y-13065941D01*
X11143277Y-13065941D02*
X11190896Y-13065941D01*
X11190896Y-13065941D02*
X11219468Y-13075465D01*
X11219468Y-13075465D02*
X11238515Y-13094512D01*
X11238515Y-13094512D02*
X11248039Y-13113560D01*
X11248039Y-13113560D02*
X11257563Y-13151655D01*
X11257563Y-13151655D02*
X11257563Y-13180226D01*
X11257563Y-13180226D02*
X11248039Y-13218322D01*
X11248039Y-13218322D02*
X11238515Y-13237369D01*
X11238515Y-13237369D02*
X11219468Y-13256417D01*
X11219468Y-13256417D02*
X11190896Y-13265941D01*
X11190896Y-13265941D02*
X11143277Y-13265941D01*
X11343277Y-13265941D02*
X11343277Y-13132607D01*
X11343277Y-13170703D02*
X11352801Y-13151655D01*
X11352801Y-13151655D02*
X11362325Y-13142131D01*
X11362325Y-13142131D02*
X11381372Y-13132607D01*
X11381372Y-13132607D02*
X11400420Y-13132607D01*
X11467087Y-13265941D02*
X11467087Y-13132607D01*
X11467087Y-13065941D02*
X11457563Y-13075465D01*
X11457563Y-13075465D02*
X11467087Y-13084988D01*
X11467087Y-13084988D02*
X11476610Y-13075465D01*
X11476610Y-13075465D02*
X11467087Y-13065941D01*
X11467087Y-13065941D02*
X11467087Y-13084988D01*
X11590896Y-13265941D02*
X11571848Y-13256417D01*
X11571848Y-13256417D02*
X11562325Y-13237369D01*
X11562325Y-13237369D02*
X11562325Y-13065941D01*
X11695658Y-13265941D02*
X11676610Y-13256417D01*
X11676610Y-13256417D02*
X11667087Y-13237369D01*
X11667087Y-13237369D02*
X11667087Y-13065941D01*
X11924229Y-13265941D02*
X11924229Y-13065941D01*
X11924229Y-13065941D02*
X11990896Y-13208798D01*
X11990896Y-13208798D02*
X12057563Y-13065941D01*
X12057563Y-13065941D02*
X12057563Y-13265941D01*
X12238515Y-13265941D02*
X12238515Y-13161179D01*
X12238515Y-13161179D02*
X12228991Y-13142131D01*
X12228991Y-13142131D02*
X12209944Y-13132607D01*
X12209944Y-13132607D02*
X12171848Y-13132607D01*
X12171848Y-13132607D02*
X12152801Y-13142131D01*
X12238515Y-13256417D02*
X12219468Y-13265941D01*
X12219468Y-13265941D02*
X12171848Y-13265941D01*
X12171848Y-13265941D02*
X12152801Y-13256417D01*
X12152801Y-13256417D02*
X12143277Y-13237369D01*
X12143277Y-13237369D02*
X12143277Y-13218322D01*
X12143277Y-13218322D02*
X12152801Y-13199274D01*
X12152801Y-13199274D02*
X12171848Y-13189750D01*
X12171848Y-13189750D02*
X12219468Y-13189750D01*
X12219468Y-13189750D02*
X12238515Y-13180226D01*
X12333753Y-13132607D02*
X12333753Y-13332607D01*
X12333753Y-13142131D02*
X12352801Y-13132607D01*
X12352801Y-13132607D02*
X12390896Y-13132607D01*
X12390896Y-13132607D02*
X12409944Y-13142131D01*
X12409944Y-13142131D02*
X12419468Y-13151655D01*
X12419468Y-13151655D02*
X12428991Y-13170703D01*
X12428991Y-13170703D02*
X12428991Y-13227845D01*
X12428991Y-13227845D02*
X12419468Y-13246893D01*
X12419468Y-13246893D02*
X12409944Y-13256417D01*
X12409944Y-13256417D02*
X12390896Y-13265941D01*
X12390896Y-13265941D02*
X12352801Y-13265941D01*
X12352801Y-13265941D02*
X12333753Y-13256417D01*
X12514706Y-13246893D02*
X12524229Y-13256417D01*
X12524229Y-13256417D02*
X12514706Y-13265941D01*
X12514706Y-13265941D02*
X12505182Y-13256417D01*
X12505182Y-13256417D02*
X12514706Y-13246893D01*
X12514706Y-13246893D02*
X12514706Y-13265941D01*
X12514706Y-13142131D02*
X12524229Y-13151655D01*
X12524229Y-13151655D02*
X12514706Y-13161179D01*
X12514706Y-13161179D02*
X12505182Y-13151655D01*
X12505182Y-13151655D02*
X12514706Y-13142131D01*
X12514706Y-13142131D02*
X12514706Y-13161179D01*
D12*
X10817500Y-13561957D02*
X10882500Y-13626957D01*
X10882500Y-13561957D02*
X10817500Y-13626957D01*
D11*
X11181372Y-13485941D02*
X11200420Y-13485941D01*
X11200420Y-13485941D02*
X11219468Y-13495465D01*
X11219468Y-13495465D02*
X11228991Y-13504988D01*
X11228991Y-13504988D02*
X11238515Y-13524036D01*
X11238515Y-13524036D02*
X11248039Y-13562131D01*
X11248039Y-13562131D02*
X11248039Y-13609750D01*
X11248039Y-13609750D02*
X11238515Y-13647845D01*
X11238515Y-13647845D02*
X11228991Y-13666893D01*
X11228991Y-13666893D02*
X11219468Y-13676417D01*
X11219468Y-13676417D02*
X11200420Y-13685941D01*
X11200420Y-13685941D02*
X11181372Y-13685941D01*
X11181372Y-13685941D02*
X11162325Y-13676417D01*
X11162325Y-13676417D02*
X11152801Y-13666893D01*
X11152801Y-13666893D02*
X11143277Y-13647845D01*
X11143277Y-13647845D02*
X11133753Y-13609750D01*
X11133753Y-13609750D02*
X11133753Y-13562131D01*
X11133753Y-13562131D02*
X11143277Y-13524036D01*
X11143277Y-13524036D02*
X11152801Y-13504988D01*
X11152801Y-13504988D02*
X11162325Y-13495465D01*
X11162325Y-13495465D02*
X11181372Y-13485941D01*
X11333753Y-13666893D02*
X11343277Y-13676417D01*
X11343277Y-13676417D02*
X11333753Y-13685941D01*
X11333753Y-13685941D02*
X11324229Y-13676417D01*
X11324229Y-13676417D02*
X11333753Y-13666893D01*
X11333753Y-13666893D02*
X11333753Y-13685941D01*
X11514706Y-13485941D02*
X11476610Y-13485941D01*
X11476610Y-13485941D02*
X11457563Y-13495465D01*
X11457563Y-13495465D02*
X11448039Y-13504988D01*
X11448039Y-13504988D02*
X11428991Y-13533560D01*
X11428991Y-13533560D02*
X11419468Y-13571655D01*
X11419468Y-13571655D02*
X11419468Y-13647845D01*
X11419468Y-13647845D02*
X11428991Y-13666893D01*
X11428991Y-13666893D02*
X11438515Y-13676417D01*
X11438515Y-13676417D02*
X11457563Y-13685941D01*
X11457563Y-13685941D02*
X11495658Y-13685941D01*
X11495658Y-13685941D02*
X11514706Y-13676417D01*
X11514706Y-13676417D02*
X11524229Y-13666893D01*
X11524229Y-13666893D02*
X11533753Y-13647845D01*
X11533753Y-13647845D02*
X11533753Y-13600226D01*
X11533753Y-13600226D02*
X11524229Y-13581179D01*
X11524229Y-13581179D02*
X11514706Y-13571655D01*
X11514706Y-13571655D02*
X11495658Y-13562131D01*
X11495658Y-13562131D02*
X11457563Y-13562131D01*
X11457563Y-13562131D02*
X11438515Y-13571655D01*
X11438515Y-13571655D02*
X11428991Y-13581179D01*
X11428991Y-13581179D02*
X11419468Y-13600226D01*
X11714706Y-13485941D02*
X11619468Y-13485941D01*
X11619468Y-13485941D02*
X11609944Y-13581179D01*
X11609944Y-13581179D02*
X11619468Y-13571655D01*
X11619468Y-13571655D02*
X11638515Y-13562131D01*
X11638515Y-13562131D02*
X11686134Y-13562131D01*
X11686134Y-13562131D02*
X11705182Y-13571655D01*
X11705182Y-13571655D02*
X11714706Y-13581179D01*
X11714706Y-13581179D02*
X11724229Y-13600226D01*
X11724229Y-13600226D02*
X11724229Y-13647845D01*
X11724229Y-13647845D02*
X11714706Y-13666893D01*
X11714706Y-13666893D02*
X11705182Y-13676417D01*
X11705182Y-13676417D02*
X11686134Y-13685941D01*
X11686134Y-13685941D02*
X11638515Y-13685941D01*
X11638515Y-13685941D02*
X11619468Y-13676417D01*
X11619468Y-13676417D02*
X11609944Y-13666893D01*
X11848039Y-13485941D02*
X11867087Y-13485941D01*
X11867087Y-13485941D02*
X11886134Y-13495465D01*
X11886134Y-13495465D02*
X11895658Y-13504988D01*
X11895658Y-13504988D02*
X11905182Y-13524036D01*
X11905182Y-13524036D02*
X11914706Y-13562131D01*
X11914706Y-13562131D02*
X11914706Y-13609750D01*
X11914706Y-13609750D02*
X11905182Y-13647845D01*
X11905182Y-13647845D02*
X11895658Y-13666893D01*
X11895658Y-13666893D02*
X11886134Y-13676417D01*
X11886134Y-13676417D02*
X11867087Y-13685941D01*
X11867087Y-13685941D02*
X11848039Y-13685941D01*
X11848039Y-13685941D02*
X11828991Y-13676417D01*
X11828991Y-13676417D02*
X11819468Y-13666893D01*
X11819468Y-13666893D02*
X11809944Y-13647845D01*
X11809944Y-13647845D02*
X11800420Y-13609750D01*
X11800420Y-13609750D02*
X11800420Y-13562131D01*
X11800420Y-13562131D02*
X11809944Y-13524036D01*
X11809944Y-13524036D02*
X11819468Y-13504988D01*
X11819468Y-13504988D02*
X11828991Y-13495465D01*
X11828991Y-13495465D02*
X11848039Y-13485941D01*
X12000420Y-13685941D02*
X12000420Y-13552607D01*
X12000420Y-13571655D02*
X12009944Y-13562131D01*
X12009944Y-13562131D02*
X12028991Y-13552607D01*
X12028991Y-13552607D02*
X12057563Y-13552607D01*
X12057563Y-13552607D02*
X12076610Y-13562131D01*
X12076610Y-13562131D02*
X12086134Y-13581179D01*
X12086134Y-13581179D02*
X12086134Y-13685941D01*
X12086134Y-13581179D02*
X12095658Y-13562131D01*
X12095658Y-13562131D02*
X12114706Y-13552607D01*
X12114706Y-13552607D02*
X12143277Y-13552607D01*
X12143277Y-13552607D02*
X12162325Y-13562131D01*
X12162325Y-13562131D02*
X12171849Y-13581179D01*
X12171849Y-13581179D02*
X12171849Y-13685941D01*
X12267087Y-13685941D02*
X12267087Y-13552607D01*
X12267087Y-13571655D02*
X12276610Y-13562131D01*
X12276610Y-13562131D02*
X12295658Y-13552607D01*
X12295658Y-13552607D02*
X12324230Y-13552607D01*
X12324230Y-13552607D02*
X12343277Y-13562131D01*
X12343277Y-13562131D02*
X12352801Y-13581179D01*
X12352801Y-13581179D02*
X12352801Y-13685941D01*
X12352801Y-13581179D02*
X12362325Y-13562131D01*
X12362325Y-13562131D02*
X12381372Y-13552607D01*
X12381372Y-13552607D02*
X12409944Y-13552607D01*
X12409944Y-13552607D02*
X12428991Y-13562131D01*
X12428991Y-13562131D02*
X12438515Y-13581179D01*
X12438515Y-13581179D02*
X12438515Y-13685941D01*
X12828991Y-13476417D02*
X12657563Y-13733560D01*
X13086134Y-13485941D02*
X13105182Y-13485941D01*
X13105182Y-13485941D02*
X13124230Y-13495465D01*
X13124230Y-13495465D02*
X13133753Y-13504988D01*
X13133753Y-13504988D02*
X13143277Y-13524036D01*
X13143277Y-13524036D02*
X13152801Y-13562131D01*
X13152801Y-13562131D02*
X13152801Y-13609750D01*
X13152801Y-13609750D02*
X13143277Y-13647845D01*
X13143277Y-13647845D02*
X13133753Y-13666893D01*
X13133753Y-13666893D02*
X13124230Y-13676417D01*
X13124230Y-13676417D02*
X13105182Y-13685941D01*
X13105182Y-13685941D02*
X13086134Y-13685941D01*
X13086134Y-13685941D02*
X13067087Y-13676417D01*
X13067087Y-13676417D02*
X13057563Y-13666893D01*
X13057563Y-13666893D02*
X13048039Y-13647845D01*
X13048039Y-13647845D02*
X13038515Y-13609750D01*
X13038515Y-13609750D02*
X13038515Y-13562131D01*
X13038515Y-13562131D02*
X13048039Y-13524036D01*
X13048039Y-13524036D02*
X13057563Y-13504988D01*
X13057563Y-13504988D02*
X13067087Y-13495465D01*
X13067087Y-13495465D02*
X13086134Y-13485941D01*
X13238515Y-13666893D02*
X13248039Y-13676417D01*
X13248039Y-13676417D02*
X13238515Y-13685941D01*
X13238515Y-13685941D02*
X13228992Y-13676417D01*
X13228992Y-13676417D02*
X13238515Y-13666893D01*
X13238515Y-13666893D02*
X13238515Y-13685941D01*
X13371849Y-13485941D02*
X13390896Y-13485941D01*
X13390896Y-13485941D02*
X13409944Y-13495465D01*
X13409944Y-13495465D02*
X13419468Y-13504988D01*
X13419468Y-13504988D02*
X13428992Y-13524036D01*
X13428992Y-13524036D02*
X13438515Y-13562131D01*
X13438515Y-13562131D02*
X13438515Y-13609750D01*
X13438515Y-13609750D02*
X13428992Y-13647845D01*
X13428992Y-13647845D02*
X13419468Y-13666893D01*
X13419468Y-13666893D02*
X13409944Y-13676417D01*
X13409944Y-13676417D02*
X13390896Y-13685941D01*
X13390896Y-13685941D02*
X13371849Y-13685941D01*
X13371849Y-13685941D02*
X13352801Y-13676417D01*
X13352801Y-13676417D02*
X13343277Y-13666893D01*
X13343277Y-13666893D02*
X13333753Y-13647845D01*
X13333753Y-13647845D02*
X13324230Y-13609750D01*
X13324230Y-13609750D02*
X13324230Y-13562131D01*
X13324230Y-13562131D02*
X13333753Y-13524036D01*
X13333753Y-13524036D02*
X13343277Y-13504988D01*
X13343277Y-13504988D02*
X13352801Y-13495465D01*
X13352801Y-13495465D02*
X13371849Y-13485941D01*
X13514706Y-13504988D02*
X13524230Y-13495465D01*
X13524230Y-13495465D02*
X13543277Y-13485941D01*
X13543277Y-13485941D02*
X13590896Y-13485941D01*
X13590896Y-13485941D02*
X13609944Y-13495465D01*
X13609944Y-13495465D02*
X13619468Y-13504988D01*
X13619468Y-13504988D02*
X13628992Y-13524036D01*
X13628992Y-13524036D02*
X13628992Y-13543084D01*
X13628992Y-13543084D02*
X13619468Y-13571655D01*
X13619468Y-13571655D02*
X13505182Y-13685941D01*
X13505182Y-13685941D02*
X13628992Y-13685941D01*
X13809944Y-13485941D02*
X13714706Y-13485941D01*
X13714706Y-13485941D02*
X13705182Y-13581179D01*
X13705182Y-13581179D02*
X13714706Y-13571655D01*
X13714706Y-13571655D02*
X13733753Y-13562131D01*
X13733753Y-13562131D02*
X13781373Y-13562131D01*
X13781373Y-13562131D02*
X13800420Y-13571655D01*
X13800420Y-13571655D02*
X13809944Y-13581179D01*
X13809944Y-13581179D02*
X13819468Y-13600226D01*
X13819468Y-13600226D02*
X13819468Y-13647845D01*
X13819468Y-13647845D02*
X13809944Y-13666893D01*
X13809944Y-13666893D02*
X13800420Y-13676417D01*
X13800420Y-13676417D02*
X13781373Y-13685941D01*
X13781373Y-13685941D02*
X13733753Y-13685941D01*
X13733753Y-13685941D02*
X13714706Y-13676417D01*
X13714706Y-13676417D02*
X13705182Y-13666893D01*
X13990896Y-13485941D02*
X13952801Y-13485941D01*
X13952801Y-13485941D02*
X13933753Y-13495465D01*
X13933753Y-13495465D02*
X13924230Y-13504988D01*
X13924230Y-13504988D02*
X13905182Y-13533560D01*
X13905182Y-13533560D02*
X13895658Y-13571655D01*
X13895658Y-13571655D02*
X13895658Y-13647845D01*
X13895658Y-13647845D02*
X13905182Y-13666893D01*
X13905182Y-13666893D02*
X13914706Y-13676417D01*
X13914706Y-13676417D02*
X13933753Y-13685941D01*
X13933753Y-13685941D02*
X13971849Y-13685941D01*
X13971849Y-13685941D02*
X13990896Y-13676417D01*
X13990896Y-13676417D02*
X14000420Y-13666893D01*
X14000420Y-13666893D02*
X14009944Y-13647845D01*
X14009944Y-13647845D02*
X14009944Y-13600226D01*
X14009944Y-13600226D02*
X14000420Y-13581179D01*
X14000420Y-13581179D02*
X13990896Y-13571655D01*
X13990896Y-13571655D02*
X13971849Y-13562131D01*
X13971849Y-13562131D02*
X13933753Y-13562131D01*
X13933753Y-13562131D02*
X13914706Y-13571655D01*
X13914706Y-13571655D02*
X13905182Y-13581179D01*
X13905182Y-13581179D02*
X13895658Y-13600226D01*
X14086134Y-13485941D02*
X14086134Y-13524036D01*
X14162325Y-13485941D02*
X14162325Y-13524036D01*
X14457563Y-13762131D02*
X14448039Y-13752607D01*
X14448039Y-13752607D02*
X14428992Y-13724036D01*
X14428992Y-13724036D02*
X14419468Y-13704988D01*
X14419468Y-13704988D02*
X14409944Y-13676417D01*
X14409944Y-13676417D02*
X14400420Y-13628798D01*
X14400420Y-13628798D02*
X14400420Y-13590703D01*
X14400420Y-13590703D02*
X14409944Y-13543084D01*
X14409944Y-13543084D02*
X14419468Y-13514512D01*
X14419468Y-13514512D02*
X14428992Y-13495465D01*
X14428992Y-13495465D02*
X14448039Y-13466893D01*
X14448039Y-13466893D02*
X14457563Y-13457369D01*
X14638515Y-13685941D02*
X14524230Y-13685941D01*
X14581373Y-13685941D02*
X14581373Y-13485941D01*
X14581373Y-13485941D02*
X14562325Y-13514512D01*
X14562325Y-13514512D02*
X14543277Y-13533560D01*
X14543277Y-13533560D02*
X14524230Y-13543084D01*
X14876611Y-13685941D02*
X14876611Y-13485941D01*
X14962325Y-13685941D02*
X14962325Y-13581179D01*
X14962325Y-13581179D02*
X14952801Y-13562131D01*
X14952801Y-13562131D02*
X14933754Y-13552607D01*
X14933754Y-13552607D02*
X14905182Y-13552607D01*
X14905182Y-13552607D02*
X14886135Y-13562131D01*
X14886135Y-13562131D02*
X14876611Y-13571655D01*
X15086135Y-13685941D02*
X15067087Y-13676417D01*
X15067087Y-13676417D02*
X15057563Y-13666893D01*
X15057563Y-13666893D02*
X15048039Y-13647845D01*
X15048039Y-13647845D02*
X15048039Y-13590703D01*
X15048039Y-13590703D02*
X15057563Y-13571655D01*
X15057563Y-13571655D02*
X15067087Y-13562131D01*
X15067087Y-13562131D02*
X15086135Y-13552607D01*
X15086135Y-13552607D02*
X15114706Y-13552607D01*
X15114706Y-13552607D02*
X15133754Y-13562131D01*
X15133754Y-13562131D02*
X15143277Y-13571655D01*
X15143277Y-13571655D02*
X15152801Y-13590703D01*
X15152801Y-13590703D02*
X15152801Y-13647845D01*
X15152801Y-13647845D02*
X15143277Y-13666893D01*
X15143277Y-13666893D02*
X15133754Y-13676417D01*
X15133754Y-13676417D02*
X15114706Y-13685941D01*
X15114706Y-13685941D02*
X15086135Y-13685941D01*
X15267087Y-13685941D02*
X15248039Y-13676417D01*
X15248039Y-13676417D02*
X15238516Y-13657369D01*
X15238516Y-13657369D02*
X15238516Y-13485941D01*
X15419468Y-13676417D02*
X15400420Y-13685941D01*
X15400420Y-13685941D02*
X15362325Y-13685941D01*
X15362325Y-13685941D02*
X15343277Y-13676417D01*
X15343277Y-13676417D02*
X15333754Y-13657369D01*
X15333754Y-13657369D02*
X15333754Y-13581179D01*
X15333754Y-13581179D02*
X15343277Y-13562131D01*
X15343277Y-13562131D02*
X15362325Y-13552607D01*
X15362325Y-13552607D02*
X15400420Y-13552607D01*
X15400420Y-13552607D02*
X15419468Y-13562131D01*
X15419468Y-13562131D02*
X15428992Y-13581179D01*
X15428992Y-13581179D02*
X15428992Y-13600226D01*
X15428992Y-13600226D02*
X15333754Y-13619274D01*
X15505182Y-13676417D02*
X15524230Y-13685941D01*
X15524230Y-13685941D02*
X15562325Y-13685941D01*
X15562325Y-13685941D02*
X15581373Y-13676417D01*
X15581373Y-13676417D02*
X15590897Y-13657369D01*
X15590897Y-13657369D02*
X15590897Y-13647845D01*
X15590897Y-13647845D02*
X15581373Y-13628798D01*
X15581373Y-13628798D02*
X15562325Y-13619274D01*
X15562325Y-13619274D02*
X15533754Y-13619274D01*
X15533754Y-13619274D02*
X15514706Y-13609750D01*
X15514706Y-13609750D02*
X15505182Y-13590703D01*
X15505182Y-13590703D02*
X15505182Y-13581179D01*
X15505182Y-13581179D02*
X15514706Y-13562131D01*
X15514706Y-13562131D02*
X15533754Y-13552607D01*
X15533754Y-13552607D02*
X15562325Y-13552607D01*
X15562325Y-13552607D02*
X15581373Y-13562131D01*
X15828992Y-13609750D02*
X15981373Y-13609750D01*
X15905182Y-13685941D02*
X15905182Y-13533560D01*
X16333754Y-13685941D02*
X16219468Y-13685941D01*
X16276611Y-13685941D02*
X16276611Y-13485941D01*
X16276611Y-13485941D02*
X16257563Y-13514512D01*
X16257563Y-13514512D02*
X16238516Y-13533560D01*
X16238516Y-13533560D02*
X16219468Y-13543084D01*
X16562325Y-13676417D02*
X16581373Y-13685941D01*
X16581373Y-13685941D02*
X16619468Y-13685941D01*
X16619468Y-13685941D02*
X16638516Y-13676417D01*
X16638516Y-13676417D02*
X16648040Y-13657369D01*
X16648040Y-13657369D02*
X16648040Y-13647845D01*
X16648040Y-13647845D02*
X16638516Y-13628798D01*
X16638516Y-13628798D02*
X16619468Y-13619274D01*
X16619468Y-13619274D02*
X16590897Y-13619274D01*
X16590897Y-13619274D02*
X16571849Y-13609750D01*
X16571849Y-13609750D02*
X16562325Y-13590703D01*
X16562325Y-13590703D02*
X16562325Y-13581179D01*
X16562325Y-13581179D02*
X16571849Y-13562131D01*
X16571849Y-13562131D02*
X16590897Y-13552607D01*
X16590897Y-13552607D02*
X16619468Y-13552607D01*
X16619468Y-13552607D02*
X16638516Y-13562131D01*
X16762325Y-13685941D02*
X16743278Y-13676417D01*
X16743278Y-13676417D02*
X16733754Y-13657369D01*
X16733754Y-13657369D02*
X16733754Y-13485941D01*
X16867087Y-13685941D02*
X16848040Y-13676417D01*
X16848040Y-13676417D02*
X16838516Y-13666893D01*
X16838516Y-13666893D02*
X16828992Y-13647845D01*
X16828992Y-13647845D02*
X16828992Y-13590703D01*
X16828992Y-13590703D02*
X16838516Y-13571655D01*
X16838516Y-13571655D02*
X16848040Y-13562131D01*
X16848040Y-13562131D02*
X16867087Y-13552607D01*
X16867087Y-13552607D02*
X16895659Y-13552607D01*
X16895659Y-13552607D02*
X16914706Y-13562131D01*
X16914706Y-13562131D02*
X16924230Y-13571655D01*
X16924230Y-13571655D02*
X16933754Y-13590703D01*
X16933754Y-13590703D02*
X16933754Y-13647845D01*
X16933754Y-13647845D02*
X16924230Y-13666893D01*
X16924230Y-13666893D02*
X16914706Y-13676417D01*
X16914706Y-13676417D02*
X16895659Y-13685941D01*
X16895659Y-13685941D02*
X16867087Y-13685941D01*
X16990897Y-13552607D02*
X17067087Y-13552607D01*
X17019468Y-13485941D02*
X17019468Y-13657369D01*
X17019468Y-13657369D02*
X17028992Y-13676417D01*
X17028992Y-13676417D02*
X17048040Y-13685941D01*
X17048040Y-13685941D02*
X17067087Y-13685941D01*
X17114706Y-13762131D02*
X17124230Y-13752607D01*
X17124230Y-13752607D02*
X17143278Y-13724036D01*
X17143278Y-13724036D02*
X17152802Y-13704988D01*
X17152802Y-13704988D02*
X17162325Y-13676417D01*
X17162325Y-13676417D02*
X17171849Y-13628798D01*
X17171849Y-13628798D02*
X17171849Y-13590703D01*
X17171849Y-13590703D02*
X17162325Y-13543084D01*
X17162325Y-13543084D02*
X17152802Y-13514512D01*
X17152802Y-13514512D02*
X17143278Y-13495465D01*
X17143278Y-13495465D02*
X17124230Y-13466893D01*
X17124230Y-13466893D02*
X17114706Y-13457369D01*
X17476611Y-13762131D02*
X17467087Y-13752607D01*
X17467087Y-13752607D02*
X17448040Y-13724036D01*
X17448040Y-13724036D02*
X17438516Y-13704988D01*
X17438516Y-13704988D02*
X17428992Y-13676417D01*
X17428992Y-13676417D02*
X17419468Y-13628798D01*
X17419468Y-13628798D02*
X17419468Y-13590703D01*
X17419468Y-13590703D02*
X17428992Y-13543084D01*
X17428992Y-13543084D02*
X17438516Y-13514512D01*
X17438516Y-13514512D02*
X17448040Y-13495465D01*
X17448040Y-13495465D02*
X17467087Y-13466893D01*
X17467087Y-13466893D02*
X17476611Y-13457369D01*
X17552802Y-13552607D02*
X17552802Y-13685941D01*
X17552802Y-13571655D02*
X17562325Y-13562131D01*
X17562325Y-13562131D02*
X17581373Y-13552607D01*
X17581373Y-13552607D02*
X17609944Y-13552607D01*
X17609944Y-13552607D02*
X17628992Y-13562131D01*
X17628992Y-13562131D02*
X17638516Y-13581179D01*
X17638516Y-13581179D02*
X17638516Y-13685941D01*
X17762325Y-13685941D02*
X17743278Y-13676417D01*
X17743278Y-13676417D02*
X17733754Y-13666893D01*
X17733754Y-13666893D02*
X17724230Y-13647845D01*
X17724230Y-13647845D02*
X17724230Y-13590703D01*
X17724230Y-13590703D02*
X17733754Y-13571655D01*
X17733754Y-13571655D02*
X17743278Y-13562131D01*
X17743278Y-13562131D02*
X17762325Y-13552607D01*
X17762325Y-13552607D02*
X17790897Y-13552607D01*
X17790897Y-13552607D02*
X17809944Y-13562131D01*
X17809944Y-13562131D02*
X17819468Y-13571655D01*
X17819468Y-13571655D02*
X17828992Y-13590703D01*
X17828992Y-13590703D02*
X17828992Y-13647845D01*
X17828992Y-13647845D02*
X17819468Y-13666893D01*
X17819468Y-13666893D02*
X17809944Y-13676417D01*
X17809944Y-13676417D02*
X17790897Y-13685941D01*
X17790897Y-13685941D02*
X17762325Y-13685941D01*
X17886135Y-13552607D02*
X17962325Y-13552607D01*
X17914706Y-13485941D02*
X17914706Y-13657369D01*
X17914706Y-13657369D02*
X17924230Y-13676417D01*
X17924230Y-13676417D02*
X17943278Y-13685941D01*
X17943278Y-13685941D02*
X17962325Y-13685941D01*
X18181373Y-13552607D02*
X18181373Y-13752607D01*
X18181373Y-13562131D02*
X18200421Y-13552607D01*
X18200421Y-13552607D02*
X18238516Y-13552607D01*
X18238516Y-13552607D02*
X18257564Y-13562131D01*
X18257564Y-13562131D02*
X18267087Y-13571655D01*
X18267087Y-13571655D02*
X18276611Y-13590703D01*
X18276611Y-13590703D02*
X18276611Y-13647845D01*
X18276611Y-13647845D02*
X18267087Y-13666893D01*
X18267087Y-13666893D02*
X18257564Y-13676417D01*
X18257564Y-13676417D02*
X18238516Y-13685941D01*
X18238516Y-13685941D02*
X18200421Y-13685941D01*
X18200421Y-13685941D02*
X18181373Y-13676417D01*
X18390897Y-13685941D02*
X18371849Y-13676417D01*
X18371849Y-13676417D02*
X18362325Y-13657369D01*
X18362325Y-13657369D02*
X18362325Y-13485941D01*
X18552802Y-13685941D02*
X18552802Y-13581179D01*
X18552802Y-13581179D02*
X18543278Y-13562131D01*
X18543278Y-13562131D02*
X18524230Y-13552607D01*
X18524230Y-13552607D02*
X18486135Y-13552607D01*
X18486135Y-13552607D02*
X18467087Y-13562131D01*
X18552802Y-13676417D02*
X18533754Y-13685941D01*
X18533754Y-13685941D02*
X18486135Y-13685941D01*
X18486135Y-13685941D02*
X18467087Y-13676417D01*
X18467087Y-13676417D02*
X18457564Y-13657369D01*
X18457564Y-13657369D02*
X18457564Y-13638322D01*
X18457564Y-13638322D02*
X18467087Y-13619274D01*
X18467087Y-13619274D02*
X18486135Y-13609750D01*
X18486135Y-13609750D02*
X18533754Y-13609750D01*
X18533754Y-13609750D02*
X18552802Y-13600226D01*
X18619468Y-13552607D02*
X18695659Y-13552607D01*
X18648040Y-13485941D02*
X18648040Y-13657369D01*
X18648040Y-13657369D02*
X18657564Y-13676417D01*
X18657564Y-13676417D02*
X18676611Y-13685941D01*
X18676611Y-13685941D02*
X18695659Y-13685941D01*
X18838516Y-13676417D02*
X18819468Y-13685941D01*
X18819468Y-13685941D02*
X18781373Y-13685941D01*
X18781373Y-13685941D02*
X18762325Y-13676417D01*
X18762325Y-13676417D02*
X18752802Y-13657369D01*
X18752802Y-13657369D02*
X18752802Y-13581179D01*
X18752802Y-13581179D02*
X18762325Y-13562131D01*
X18762325Y-13562131D02*
X18781373Y-13552607D01*
X18781373Y-13552607D02*
X18819468Y-13552607D01*
X18819468Y-13552607D02*
X18838516Y-13562131D01*
X18838516Y-13562131D02*
X18848040Y-13581179D01*
X18848040Y-13581179D02*
X18848040Y-13600226D01*
X18848040Y-13600226D02*
X18752802Y-13619274D01*
X19019468Y-13685941D02*
X19019468Y-13485941D01*
X19019468Y-13676417D02*
X19000421Y-13685941D01*
X19000421Y-13685941D02*
X18962325Y-13685941D01*
X18962325Y-13685941D02*
X18943278Y-13676417D01*
X18943278Y-13676417D02*
X18933754Y-13666893D01*
X18933754Y-13666893D02*
X18924230Y-13647845D01*
X18924230Y-13647845D02*
X18924230Y-13590703D01*
X18924230Y-13590703D02*
X18933754Y-13571655D01*
X18933754Y-13571655D02*
X18943278Y-13562131D01*
X18943278Y-13562131D02*
X18962325Y-13552607D01*
X18962325Y-13552607D02*
X19000421Y-13552607D01*
X19000421Y-13552607D02*
X19019468Y-13562131D01*
X19095659Y-13762131D02*
X19105183Y-13752607D01*
X19105183Y-13752607D02*
X19124230Y-13724036D01*
X19124230Y-13724036D02*
X19133754Y-13704988D01*
X19133754Y-13704988D02*
X19143278Y-13676417D01*
X19143278Y-13676417D02*
X19152802Y-13628798D01*
X19152802Y-13628798D02*
X19152802Y-13590703D01*
X19152802Y-13590703D02*
X19143278Y-13543084D01*
X19143278Y-13543084D02*
X19133754Y-13514512D01*
X19133754Y-13514512D02*
X19124230Y-13495465D01*
X19124230Y-13495465D02*
X19105183Y-13466893D01*
X19105183Y-13466893D02*
X19095659Y-13457369D01*
X10882500Y-13858457D02*
G75*
G03*
X10882500Y-13858457I-100000J0D01*
G01*
X11133753Y-13768988D02*
X11143277Y-13759465D01*
X11143277Y-13759465D02*
X11162325Y-13749941D01*
X11162325Y-13749941D02*
X11209944Y-13749941D01*
X11209944Y-13749941D02*
X11228991Y-13759465D01*
X11228991Y-13759465D02*
X11238515Y-13768988D01*
X11238515Y-13768988D02*
X11248039Y-13788036D01*
X11248039Y-13788036D02*
X11248039Y-13807084D01*
X11248039Y-13807084D02*
X11238515Y-13835655D01*
X11238515Y-13835655D02*
X11124230Y-13949941D01*
X11124230Y-13949941D02*
X11248039Y-13949941D01*
X11333753Y-13930893D02*
X11343277Y-13940417D01*
X11343277Y-13940417D02*
X11333753Y-13949941D01*
X11333753Y-13949941D02*
X11324229Y-13940417D01*
X11324229Y-13940417D02*
X11333753Y-13930893D01*
X11333753Y-13930893D02*
X11333753Y-13949941D01*
X11419468Y-13768988D02*
X11428991Y-13759465D01*
X11428991Y-13759465D02*
X11448039Y-13749941D01*
X11448039Y-13749941D02*
X11495658Y-13749941D01*
X11495658Y-13749941D02*
X11514706Y-13759465D01*
X11514706Y-13759465D02*
X11524229Y-13768988D01*
X11524229Y-13768988D02*
X11533753Y-13788036D01*
X11533753Y-13788036D02*
X11533753Y-13807084D01*
X11533753Y-13807084D02*
X11524229Y-13835655D01*
X11524229Y-13835655D02*
X11409944Y-13949941D01*
X11409944Y-13949941D02*
X11533753Y-13949941D01*
X11657563Y-13749941D02*
X11676610Y-13749941D01*
X11676610Y-13749941D02*
X11695658Y-13759465D01*
X11695658Y-13759465D02*
X11705182Y-13768988D01*
X11705182Y-13768988D02*
X11714706Y-13788036D01*
X11714706Y-13788036D02*
X11724229Y-13826131D01*
X11724229Y-13826131D02*
X11724229Y-13873750D01*
X11724229Y-13873750D02*
X11714706Y-13911845D01*
X11714706Y-13911845D02*
X11705182Y-13930893D01*
X11705182Y-13930893D02*
X11695658Y-13940417D01*
X11695658Y-13940417D02*
X11676610Y-13949941D01*
X11676610Y-13949941D02*
X11657563Y-13949941D01*
X11657563Y-13949941D02*
X11638515Y-13940417D01*
X11638515Y-13940417D02*
X11628991Y-13930893D01*
X11628991Y-13930893D02*
X11619468Y-13911845D01*
X11619468Y-13911845D02*
X11609944Y-13873750D01*
X11609944Y-13873750D02*
X11609944Y-13826131D01*
X11609944Y-13826131D02*
X11619468Y-13788036D01*
X11619468Y-13788036D02*
X11628991Y-13768988D01*
X11628991Y-13768988D02*
X11638515Y-13759465D01*
X11638515Y-13759465D02*
X11657563Y-13749941D01*
X11848039Y-13749941D02*
X11867087Y-13749941D01*
X11867087Y-13749941D02*
X11886134Y-13759465D01*
X11886134Y-13759465D02*
X11895658Y-13768988D01*
X11895658Y-13768988D02*
X11905182Y-13788036D01*
X11905182Y-13788036D02*
X11914706Y-13826131D01*
X11914706Y-13826131D02*
X11914706Y-13873750D01*
X11914706Y-13873750D02*
X11905182Y-13911845D01*
X11905182Y-13911845D02*
X11895658Y-13930893D01*
X11895658Y-13930893D02*
X11886134Y-13940417D01*
X11886134Y-13940417D02*
X11867087Y-13949941D01*
X11867087Y-13949941D02*
X11848039Y-13949941D01*
X11848039Y-13949941D02*
X11828991Y-13940417D01*
X11828991Y-13940417D02*
X11819468Y-13930893D01*
X11819468Y-13930893D02*
X11809944Y-13911845D01*
X11809944Y-13911845D02*
X11800420Y-13873750D01*
X11800420Y-13873750D02*
X11800420Y-13826131D01*
X11800420Y-13826131D02*
X11809944Y-13788036D01*
X11809944Y-13788036D02*
X11819468Y-13768988D01*
X11819468Y-13768988D02*
X11828991Y-13759465D01*
X11828991Y-13759465D02*
X11848039Y-13749941D01*
X12000420Y-13949941D02*
X12000420Y-13816607D01*
X12000420Y-13835655D02*
X12009944Y-13826131D01*
X12009944Y-13826131D02*
X12028991Y-13816607D01*
X12028991Y-13816607D02*
X12057563Y-13816607D01*
X12057563Y-13816607D02*
X12076610Y-13826131D01*
X12076610Y-13826131D02*
X12086134Y-13845179D01*
X12086134Y-13845179D02*
X12086134Y-13949941D01*
X12086134Y-13845179D02*
X12095658Y-13826131D01*
X12095658Y-13826131D02*
X12114706Y-13816607D01*
X12114706Y-13816607D02*
X12143277Y-13816607D01*
X12143277Y-13816607D02*
X12162325Y-13826131D01*
X12162325Y-13826131D02*
X12171849Y-13845179D01*
X12171849Y-13845179D02*
X12171849Y-13949941D01*
X12267087Y-13949941D02*
X12267087Y-13816607D01*
X12267087Y-13835655D02*
X12276610Y-13826131D01*
X12276610Y-13826131D02*
X12295658Y-13816607D01*
X12295658Y-13816607D02*
X12324230Y-13816607D01*
X12324230Y-13816607D02*
X12343277Y-13826131D01*
X12343277Y-13826131D02*
X12352801Y-13845179D01*
X12352801Y-13845179D02*
X12352801Y-13949941D01*
X12352801Y-13845179D02*
X12362325Y-13826131D01*
X12362325Y-13826131D02*
X12381372Y-13816607D01*
X12381372Y-13816607D02*
X12409944Y-13816607D01*
X12409944Y-13816607D02*
X12428991Y-13826131D01*
X12428991Y-13826131D02*
X12438515Y-13845179D01*
X12438515Y-13845179D02*
X12438515Y-13949941D01*
X12828991Y-13740417D02*
X12657563Y-13997560D01*
X13086134Y-13749941D02*
X13105182Y-13749941D01*
X13105182Y-13749941D02*
X13124230Y-13759465D01*
X13124230Y-13759465D02*
X13133753Y-13768988D01*
X13133753Y-13768988D02*
X13143277Y-13788036D01*
X13143277Y-13788036D02*
X13152801Y-13826131D01*
X13152801Y-13826131D02*
X13152801Y-13873750D01*
X13152801Y-13873750D02*
X13143277Y-13911845D01*
X13143277Y-13911845D02*
X13133753Y-13930893D01*
X13133753Y-13930893D02*
X13124230Y-13940417D01*
X13124230Y-13940417D02*
X13105182Y-13949941D01*
X13105182Y-13949941D02*
X13086134Y-13949941D01*
X13086134Y-13949941D02*
X13067087Y-13940417D01*
X13067087Y-13940417D02*
X13057563Y-13930893D01*
X13057563Y-13930893D02*
X13048039Y-13911845D01*
X13048039Y-13911845D02*
X13038515Y-13873750D01*
X13038515Y-13873750D02*
X13038515Y-13826131D01*
X13038515Y-13826131D02*
X13048039Y-13788036D01*
X13048039Y-13788036D02*
X13057563Y-13768988D01*
X13057563Y-13768988D02*
X13067087Y-13759465D01*
X13067087Y-13759465D02*
X13086134Y-13749941D01*
X13238515Y-13930893D02*
X13248039Y-13940417D01*
X13248039Y-13940417D02*
X13238515Y-13949941D01*
X13238515Y-13949941D02*
X13228992Y-13940417D01*
X13228992Y-13940417D02*
X13238515Y-13930893D01*
X13238515Y-13930893D02*
X13238515Y-13949941D01*
X13371849Y-13749941D02*
X13390896Y-13749941D01*
X13390896Y-13749941D02*
X13409944Y-13759465D01*
X13409944Y-13759465D02*
X13419468Y-13768988D01*
X13419468Y-13768988D02*
X13428992Y-13788036D01*
X13428992Y-13788036D02*
X13438515Y-13826131D01*
X13438515Y-13826131D02*
X13438515Y-13873750D01*
X13438515Y-13873750D02*
X13428992Y-13911845D01*
X13428992Y-13911845D02*
X13419468Y-13930893D01*
X13419468Y-13930893D02*
X13409944Y-13940417D01*
X13409944Y-13940417D02*
X13390896Y-13949941D01*
X13390896Y-13949941D02*
X13371849Y-13949941D01*
X13371849Y-13949941D02*
X13352801Y-13940417D01*
X13352801Y-13940417D02*
X13343277Y-13930893D01*
X13343277Y-13930893D02*
X13333753Y-13911845D01*
X13333753Y-13911845D02*
X13324230Y-13873750D01*
X13324230Y-13873750D02*
X13324230Y-13826131D01*
X13324230Y-13826131D02*
X13333753Y-13788036D01*
X13333753Y-13788036D02*
X13343277Y-13768988D01*
X13343277Y-13768988D02*
X13352801Y-13759465D01*
X13352801Y-13759465D02*
X13371849Y-13749941D01*
X13552801Y-13835655D02*
X13533753Y-13826131D01*
X13533753Y-13826131D02*
X13524230Y-13816607D01*
X13524230Y-13816607D02*
X13514706Y-13797560D01*
X13514706Y-13797560D02*
X13514706Y-13788036D01*
X13514706Y-13788036D02*
X13524230Y-13768988D01*
X13524230Y-13768988D02*
X13533753Y-13759465D01*
X13533753Y-13759465D02*
X13552801Y-13749941D01*
X13552801Y-13749941D02*
X13590896Y-13749941D01*
X13590896Y-13749941D02*
X13609944Y-13759465D01*
X13609944Y-13759465D02*
X13619468Y-13768988D01*
X13619468Y-13768988D02*
X13628992Y-13788036D01*
X13628992Y-13788036D02*
X13628992Y-13797560D01*
X13628992Y-13797560D02*
X13619468Y-13816607D01*
X13619468Y-13816607D02*
X13609944Y-13826131D01*
X13609944Y-13826131D02*
X13590896Y-13835655D01*
X13590896Y-13835655D02*
X13552801Y-13835655D01*
X13552801Y-13835655D02*
X13533753Y-13845179D01*
X13533753Y-13845179D02*
X13524230Y-13854703D01*
X13524230Y-13854703D02*
X13514706Y-13873750D01*
X13514706Y-13873750D02*
X13514706Y-13911845D01*
X13514706Y-13911845D02*
X13524230Y-13930893D01*
X13524230Y-13930893D02*
X13533753Y-13940417D01*
X13533753Y-13940417D02*
X13552801Y-13949941D01*
X13552801Y-13949941D02*
X13590896Y-13949941D01*
X13590896Y-13949941D02*
X13609944Y-13940417D01*
X13609944Y-13940417D02*
X13619468Y-13930893D01*
X13619468Y-13930893D02*
X13628992Y-13911845D01*
X13628992Y-13911845D02*
X13628992Y-13873750D01*
X13628992Y-13873750D02*
X13619468Y-13854703D01*
X13619468Y-13854703D02*
X13609944Y-13845179D01*
X13609944Y-13845179D02*
X13590896Y-13835655D01*
X13800420Y-13749941D02*
X13762325Y-13749941D01*
X13762325Y-13749941D02*
X13743277Y-13759465D01*
X13743277Y-13759465D02*
X13733753Y-13768988D01*
X13733753Y-13768988D02*
X13714706Y-13797560D01*
X13714706Y-13797560D02*
X13705182Y-13835655D01*
X13705182Y-13835655D02*
X13705182Y-13911845D01*
X13705182Y-13911845D02*
X13714706Y-13930893D01*
X13714706Y-13930893D02*
X13724230Y-13940417D01*
X13724230Y-13940417D02*
X13743277Y-13949941D01*
X13743277Y-13949941D02*
X13781373Y-13949941D01*
X13781373Y-13949941D02*
X13800420Y-13940417D01*
X13800420Y-13940417D02*
X13809944Y-13930893D01*
X13809944Y-13930893D02*
X13819468Y-13911845D01*
X13819468Y-13911845D02*
X13819468Y-13864226D01*
X13819468Y-13864226D02*
X13809944Y-13845179D01*
X13809944Y-13845179D02*
X13800420Y-13835655D01*
X13800420Y-13835655D02*
X13781373Y-13826131D01*
X13781373Y-13826131D02*
X13743277Y-13826131D01*
X13743277Y-13826131D02*
X13724230Y-13835655D01*
X13724230Y-13835655D02*
X13714706Y-13845179D01*
X13714706Y-13845179D02*
X13705182Y-13864226D01*
X13990896Y-13749941D02*
X13952801Y-13749941D01*
X13952801Y-13749941D02*
X13933753Y-13759465D01*
X13933753Y-13759465D02*
X13924230Y-13768988D01*
X13924230Y-13768988D02*
X13905182Y-13797560D01*
X13905182Y-13797560D02*
X13895658Y-13835655D01*
X13895658Y-13835655D02*
X13895658Y-13911845D01*
X13895658Y-13911845D02*
X13905182Y-13930893D01*
X13905182Y-13930893D02*
X13914706Y-13940417D01*
X13914706Y-13940417D02*
X13933753Y-13949941D01*
X13933753Y-13949941D02*
X13971849Y-13949941D01*
X13971849Y-13949941D02*
X13990896Y-13940417D01*
X13990896Y-13940417D02*
X14000420Y-13930893D01*
X14000420Y-13930893D02*
X14009944Y-13911845D01*
X14009944Y-13911845D02*
X14009944Y-13864226D01*
X14009944Y-13864226D02*
X14000420Y-13845179D01*
X14000420Y-13845179D02*
X13990896Y-13835655D01*
X13990896Y-13835655D02*
X13971849Y-13826131D01*
X13971849Y-13826131D02*
X13933753Y-13826131D01*
X13933753Y-13826131D02*
X13914706Y-13835655D01*
X13914706Y-13835655D02*
X13905182Y-13845179D01*
X13905182Y-13845179D02*
X13895658Y-13864226D01*
X14086134Y-13749941D02*
X14086134Y-13788036D01*
X14162325Y-13749941D02*
X14162325Y-13788036D01*
X14457563Y-14026131D02*
X14448039Y-14016607D01*
X14448039Y-14016607D02*
X14428992Y-13988036D01*
X14428992Y-13988036D02*
X14419468Y-13968988D01*
X14419468Y-13968988D02*
X14409944Y-13940417D01*
X14409944Y-13940417D02*
X14400420Y-13892798D01*
X14400420Y-13892798D02*
X14400420Y-13854703D01*
X14400420Y-13854703D02*
X14409944Y-13807084D01*
X14409944Y-13807084D02*
X14419468Y-13778512D01*
X14419468Y-13778512D02*
X14428992Y-13759465D01*
X14428992Y-13759465D02*
X14448039Y-13730893D01*
X14448039Y-13730893D02*
X14457563Y-13721369D01*
X14619468Y-13816607D02*
X14619468Y-13949941D01*
X14571849Y-13740417D02*
X14524230Y-13883274D01*
X14524230Y-13883274D02*
X14648039Y-13883274D01*
X14876611Y-13949941D02*
X14876611Y-13749941D01*
X14962325Y-13949941D02*
X14962325Y-13845179D01*
X14962325Y-13845179D02*
X14952801Y-13826131D01*
X14952801Y-13826131D02*
X14933754Y-13816607D01*
X14933754Y-13816607D02*
X14905182Y-13816607D01*
X14905182Y-13816607D02*
X14886135Y-13826131D01*
X14886135Y-13826131D02*
X14876611Y-13835655D01*
X15086135Y-13949941D02*
X15067087Y-13940417D01*
X15067087Y-13940417D02*
X15057563Y-13930893D01*
X15057563Y-13930893D02*
X15048039Y-13911845D01*
X15048039Y-13911845D02*
X15048039Y-13854703D01*
X15048039Y-13854703D02*
X15057563Y-13835655D01*
X15057563Y-13835655D02*
X15067087Y-13826131D01*
X15067087Y-13826131D02*
X15086135Y-13816607D01*
X15086135Y-13816607D02*
X15114706Y-13816607D01*
X15114706Y-13816607D02*
X15133754Y-13826131D01*
X15133754Y-13826131D02*
X15143277Y-13835655D01*
X15143277Y-13835655D02*
X15152801Y-13854703D01*
X15152801Y-13854703D02*
X15152801Y-13911845D01*
X15152801Y-13911845D02*
X15143277Y-13930893D01*
X15143277Y-13930893D02*
X15133754Y-13940417D01*
X15133754Y-13940417D02*
X15114706Y-13949941D01*
X15114706Y-13949941D02*
X15086135Y-13949941D01*
X15267087Y-13949941D02*
X15248039Y-13940417D01*
X15248039Y-13940417D02*
X15238516Y-13921369D01*
X15238516Y-13921369D02*
X15238516Y-13749941D01*
X15419468Y-13940417D02*
X15400420Y-13949941D01*
X15400420Y-13949941D02*
X15362325Y-13949941D01*
X15362325Y-13949941D02*
X15343277Y-13940417D01*
X15343277Y-13940417D02*
X15333754Y-13921369D01*
X15333754Y-13921369D02*
X15333754Y-13845179D01*
X15333754Y-13845179D02*
X15343277Y-13826131D01*
X15343277Y-13826131D02*
X15362325Y-13816607D01*
X15362325Y-13816607D02*
X15400420Y-13816607D01*
X15400420Y-13816607D02*
X15419468Y-13826131D01*
X15419468Y-13826131D02*
X15428992Y-13845179D01*
X15428992Y-13845179D02*
X15428992Y-13864226D01*
X15428992Y-13864226D02*
X15333754Y-13883274D01*
X15505182Y-13940417D02*
X15524230Y-13949941D01*
X15524230Y-13949941D02*
X15562325Y-13949941D01*
X15562325Y-13949941D02*
X15581373Y-13940417D01*
X15581373Y-13940417D02*
X15590897Y-13921369D01*
X15590897Y-13921369D02*
X15590897Y-13911845D01*
X15590897Y-13911845D02*
X15581373Y-13892798D01*
X15581373Y-13892798D02*
X15562325Y-13883274D01*
X15562325Y-13883274D02*
X15533754Y-13883274D01*
X15533754Y-13883274D02*
X15514706Y-13873750D01*
X15514706Y-13873750D02*
X15505182Y-13854703D01*
X15505182Y-13854703D02*
X15505182Y-13845179D01*
X15505182Y-13845179D02*
X15514706Y-13826131D01*
X15514706Y-13826131D02*
X15533754Y-13816607D01*
X15533754Y-13816607D02*
X15562325Y-13816607D01*
X15562325Y-13816607D02*
X15581373Y-13826131D01*
X15657563Y-14026131D02*
X15667087Y-14016607D01*
X15667087Y-14016607D02*
X15686135Y-13988036D01*
X15686135Y-13988036D02*
X15695658Y-13968988D01*
X15695658Y-13968988D02*
X15705182Y-13940417D01*
X15705182Y-13940417D02*
X15714706Y-13892798D01*
X15714706Y-13892798D02*
X15714706Y-13854703D01*
X15714706Y-13854703D02*
X15705182Y-13807084D01*
X15705182Y-13807084D02*
X15695658Y-13778512D01*
X15695658Y-13778512D02*
X15686135Y-13759465D01*
X15686135Y-13759465D02*
X15667087Y-13730893D01*
X15667087Y-13730893D02*
X15657563Y-13721369D01*
X16019468Y-14026131D02*
X16009944Y-14016607D01*
X16009944Y-14016607D02*
X15990897Y-13988036D01*
X15990897Y-13988036D02*
X15981373Y-13968988D01*
X15981373Y-13968988D02*
X15971849Y-13940417D01*
X15971849Y-13940417D02*
X15962325Y-13892798D01*
X15962325Y-13892798D02*
X15962325Y-13854703D01*
X15962325Y-13854703D02*
X15971849Y-13807084D01*
X15971849Y-13807084D02*
X15981373Y-13778512D01*
X15981373Y-13778512D02*
X15990897Y-13759465D01*
X15990897Y-13759465D02*
X16009944Y-13730893D01*
X16009944Y-13730893D02*
X16019468Y-13721369D01*
X16095658Y-13816607D02*
X16095658Y-13949941D01*
X16095658Y-13835655D02*
X16105182Y-13826131D01*
X16105182Y-13826131D02*
X16124230Y-13816607D01*
X16124230Y-13816607D02*
X16152801Y-13816607D01*
X16152801Y-13816607D02*
X16171849Y-13826131D01*
X16171849Y-13826131D02*
X16181373Y-13845179D01*
X16181373Y-13845179D02*
X16181373Y-13949941D01*
X16305182Y-13949941D02*
X16286135Y-13940417D01*
X16286135Y-13940417D02*
X16276611Y-13930893D01*
X16276611Y-13930893D02*
X16267087Y-13911845D01*
X16267087Y-13911845D02*
X16267087Y-13854703D01*
X16267087Y-13854703D02*
X16276611Y-13835655D01*
X16276611Y-13835655D02*
X16286135Y-13826131D01*
X16286135Y-13826131D02*
X16305182Y-13816607D01*
X16305182Y-13816607D02*
X16333754Y-13816607D01*
X16333754Y-13816607D02*
X16352801Y-13826131D01*
X16352801Y-13826131D02*
X16362325Y-13835655D01*
X16362325Y-13835655D02*
X16371849Y-13854703D01*
X16371849Y-13854703D02*
X16371849Y-13911845D01*
X16371849Y-13911845D02*
X16362325Y-13930893D01*
X16362325Y-13930893D02*
X16352801Y-13940417D01*
X16352801Y-13940417D02*
X16333754Y-13949941D01*
X16333754Y-13949941D02*
X16305182Y-13949941D01*
X16428992Y-13816607D02*
X16505182Y-13816607D01*
X16457563Y-13749941D02*
X16457563Y-13921369D01*
X16457563Y-13921369D02*
X16467087Y-13940417D01*
X16467087Y-13940417D02*
X16486135Y-13949941D01*
X16486135Y-13949941D02*
X16505182Y-13949941D01*
X16724230Y-13816607D02*
X16724230Y-14016607D01*
X16724230Y-13826131D02*
X16743278Y-13816607D01*
X16743278Y-13816607D02*
X16781373Y-13816607D01*
X16781373Y-13816607D02*
X16800421Y-13826131D01*
X16800421Y-13826131D02*
X16809944Y-13835655D01*
X16809944Y-13835655D02*
X16819468Y-13854703D01*
X16819468Y-13854703D02*
X16819468Y-13911845D01*
X16819468Y-13911845D02*
X16809944Y-13930893D01*
X16809944Y-13930893D02*
X16800421Y-13940417D01*
X16800421Y-13940417D02*
X16781373Y-13949941D01*
X16781373Y-13949941D02*
X16743278Y-13949941D01*
X16743278Y-13949941D02*
X16724230Y-13940417D01*
X16933754Y-13949941D02*
X16914706Y-13940417D01*
X16914706Y-13940417D02*
X16905182Y-13921369D01*
X16905182Y-13921369D02*
X16905182Y-13749941D01*
X17095659Y-13949941D02*
X17095659Y-13845179D01*
X17095659Y-13845179D02*
X17086135Y-13826131D01*
X17086135Y-13826131D02*
X17067087Y-13816607D01*
X17067087Y-13816607D02*
X17028992Y-13816607D01*
X17028992Y-13816607D02*
X17009944Y-13826131D01*
X17095659Y-13940417D02*
X17076611Y-13949941D01*
X17076611Y-13949941D02*
X17028992Y-13949941D01*
X17028992Y-13949941D02*
X17009944Y-13940417D01*
X17009944Y-13940417D02*
X17000421Y-13921369D01*
X17000421Y-13921369D02*
X17000421Y-13902322D01*
X17000421Y-13902322D02*
X17009944Y-13883274D01*
X17009944Y-13883274D02*
X17028992Y-13873750D01*
X17028992Y-13873750D02*
X17076611Y-13873750D01*
X17076611Y-13873750D02*
X17095659Y-13864226D01*
X17162325Y-13816607D02*
X17238516Y-13816607D01*
X17190897Y-13749941D02*
X17190897Y-13921369D01*
X17190897Y-13921369D02*
X17200421Y-13940417D01*
X17200421Y-13940417D02*
X17219468Y-13949941D01*
X17219468Y-13949941D02*
X17238516Y-13949941D01*
X17381373Y-13940417D02*
X17362325Y-13949941D01*
X17362325Y-13949941D02*
X17324230Y-13949941D01*
X17324230Y-13949941D02*
X17305182Y-13940417D01*
X17305182Y-13940417D02*
X17295659Y-13921369D01*
X17295659Y-13921369D02*
X17295659Y-13845179D01*
X17295659Y-13845179D02*
X17305182Y-13826131D01*
X17305182Y-13826131D02*
X17324230Y-13816607D01*
X17324230Y-13816607D02*
X17362325Y-13816607D01*
X17362325Y-13816607D02*
X17381373Y-13826131D01*
X17381373Y-13826131D02*
X17390897Y-13845179D01*
X17390897Y-13845179D02*
X17390897Y-13864226D01*
X17390897Y-13864226D02*
X17295659Y-13883274D01*
X17562325Y-13949941D02*
X17562325Y-13749941D01*
X17562325Y-13940417D02*
X17543278Y-13949941D01*
X17543278Y-13949941D02*
X17505182Y-13949941D01*
X17505182Y-13949941D02*
X17486135Y-13940417D01*
X17486135Y-13940417D02*
X17476611Y-13930893D01*
X17476611Y-13930893D02*
X17467087Y-13911845D01*
X17467087Y-13911845D02*
X17467087Y-13854703D01*
X17467087Y-13854703D02*
X17476611Y-13835655D01*
X17476611Y-13835655D02*
X17486135Y-13826131D01*
X17486135Y-13826131D02*
X17505182Y-13816607D01*
X17505182Y-13816607D02*
X17543278Y-13816607D01*
X17543278Y-13816607D02*
X17562325Y-13826131D01*
X17638516Y-14026131D02*
X17648040Y-14016607D01*
X17648040Y-14016607D02*
X17667087Y-13988036D01*
X17667087Y-13988036D02*
X17676611Y-13968988D01*
X17676611Y-13968988D02*
X17686135Y-13940417D01*
X17686135Y-13940417D02*
X17695659Y-13892798D01*
X17695659Y-13892798D02*
X17695659Y-13854703D01*
X17695659Y-13854703D02*
X17686135Y-13807084D01*
X17686135Y-13807084D02*
X17676611Y-13778512D01*
X17676611Y-13778512D02*
X17667087Y-13759465D01*
X17667087Y-13759465D02*
X17648040Y-13730893D01*
X17648040Y-13730893D02*
X17638516Y-13721369D01*
M02*
