%TF.GenerationSoftware,KiCad,Pcbnew,7.0.9-7.0.9~ubuntu22.04.1*%
%TF.CreationDate,2023-12-21T18:53:40+01:00*%
%TF.ProjectId,lidar 2 round,6c696461-7220-4322-9072-6f756e642e6b,rev?*%
%TF.SameCoordinates,Original*%
%TF.FileFunction,Soldermask,Top*%
%TF.FilePolarity,Negative*%
%FSLAX46Y46*%
G04 Gerber Fmt 4.6, Leading zero omitted, Abs format (unit mm)*
G04 Created by KiCad (PCBNEW 7.0.9-7.0.9~ubuntu22.04.1) date 2023-12-21 18:53:40*
%MOMM*%
%LPD*%
G01*
G04 APERTURE LIST*
G04 Aperture macros list*
%AMRoundRect*
0 Rectangle with rounded corners*
0 $1 Rounding radius*
0 $2 $3 $4 $5 $6 $7 $8 $9 X,Y pos of 4 corners*
0 Add a 4 corners polygon primitive as box body*
4,1,4,$2,$3,$4,$5,$6,$7,$8,$9,$2,$3,0*
0 Add four circle primitives for the rounded corners*
1,1,$1+$1,$2,$3*
1,1,$1+$1,$4,$5*
1,1,$1+$1,$6,$7*
1,1,$1+$1,$8,$9*
0 Add four rect primitives between the rounded corners*
20,1,$1+$1,$2,$3,$4,$5,0*
20,1,$1+$1,$4,$5,$6,$7,0*
20,1,$1+$1,$6,$7,$8,$9,0*
20,1,$1+$1,$8,$9,$2,$3,0*%
%AMFreePoly0*
4,1,6,0.600000,-0.600000,-0.600000,-0.600000,-0.600000,0.000000,0.000000,0.600000,0.600000,0.600000,0.600000,-0.600000,0.600000,-0.600000,$1*%
G04 Aperture macros list end*
%ADD10RoundRect,0.140000X-0.170000X0.140000X-0.170000X-0.140000X0.170000X-0.140000X0.170000X0.140000X0*%
%ADD11RoundRect,0.200000X0.800000X-0.200000X0.800000X0.200000X-0.800000X0.200000X-0.800000X-0.200000X0*%
%ADD12R,0.800000X0.400000*%
%ADD13R,0.400000X0.800000*%
%ADD14FreePoly0,0.000000*%
%ADD15R,1.200000X1.200000*%
%ADD16R,0.800000X0.800000*%
%ADD17R,1.700000X1.700000*%
%ADD18O,1.700000X1.700000*%
%ADD19RoundRect,0.150000X0.587500X0.150000X-0.587500X0.150000X-0.587500X-0.150000X0.587500X-0.150000X0*%
%ADD20C,2.200000*%
%ADD21RoundRect,0.135000X0.135000X0.185000X-0.135000X0.185000X-0.135000X-0.185000X0.135000X-0.185000X0*%
%ADD22R,0.500000X0.500000*%
%ADD23RoundRect,0.150000X-0.587500X-0.150000X0.587500X-0.150000X0.587500X0.150000X-0.587500X0.150000X0*%
%ADD24C,0.650000*%
%ADD25O,0.950000X0.650000*%
%ADD26R,0.300000X0.700000*%
%ADD27O,0.800000X1.400000*%
%ADD28R,0.900000X1.200000*%
%ADD29R,2.000000X1.500000*%
%ADD30R,2.000000X3.800000*%
%ADD31RoundRect,0.135000X-0.135000X-0.185000X0.135000X-0.185000X0.135000X0.185000X-0.135000X0.185000X0*%
%ADD32RoundRect,0.135000X0.185000X-0.135000X0.185000X0.135000X-0.185000X0.135000X-0.185000X-0.135000X0*%
%ADD33RoundRect,0.087500X0.087500X0.200000X-0.087500X0.200000X-0.087500X-0.200000X0.087500X-0.200000X0*%
%ADD34RoundRect,0.135000X-0.185000X0.135000X-0.185000X-0.135000X0.185000X-0.135000X0.185000X0.135000X0*%
%ADD35RoundRect,0.140000X0.140000X0.170000X-0.140000X0.170000X-0.140000X-0.170000X0.140000X-0.170000X0*%
%ADD36RoundRect,0.140000X-0.140000X-0.170000X0.140000X-0.170000X0.140000X0.170000X-0.140000X0.170000X0*%
G04 APERTURE END LIST*
D10*
%TO.C,C4*%
X162750000Y-99215000D03*
X162750000Y-100175000D03*
%TD*%
D11*
%TO.C,SW2*%
X126750000Y-87700000D03*
X126750000Y-83500000D03*
%TD*%
D12*
%TO.C,U5*%
X132850000Y-76800000D03*
X132850000Y-77650000D03*
X132850000Y-78500000D03*
X132850000Y-79350000D03*
X132850000Y-80200000D03*
X132850000Y-81050000D03*
X132850000Y-81900000D03*
X132850000Y-82750000D03*
X132850000Y-83600000D03*
X132850000Y-84450000D03*
X132850000Y-85300000D03*
X132850000Y-86150000D03*
X132850000Y-87000000D03*
X132850000Y-87850000D03*
X132850000Y-88700000D03*
D13*
X133900000Y-89750000D03*
X134750000Y-89750000D03*
X135600000Y-89750000D03*
X136450000Y-89750000D03*
X137300000Y-89750000D03*
X138150000Y-89750000D03*
X139000000Y-89750000D03*
X139850000Y-89750000D03*
X140700000Y-89750000D03*
X141550000Y-89750000D03*
X142400000Y-89750000D03*
X143250000Y-89750000D03*
X144100000Y-89750000D03*
X144950000Y-89750000D03*
X145800000Y-89750000D03*
D12*
X146850000Y-88700000D03*
X146850000Y-87850000D03*
X146850000Y-87000000D03*
X146850000Y-86150000D03*
X146850000Y-85300000D03*
X146850000Y-84450000D03*
X146850000Y-83600000D03*
X146850000Y-82750000D03*
X146850000Y-81900000D03*
X146850000Y-81050000D03*
X146850000Y-80200000D03*
X146850000Y-79350000D03*
X146850000Y-78500000D03*
X146850000Y-77650000D03*
X146850000Y-76800000D03*
D13*
X145800000Y-75750000D03*
X144950000Y-75750000D03*
X144100000Y-75750000D03*
X143250000Y-75750000D03*
X142400000Y-75750000D03*
X141550000Y-75750000D03*
X140700000Y-75750000D03*
X139850000Y-75750000D03*
X139000000Y-75750000D03*
X138150000Y-75750000D03*
X137300000Y-75750000D03*
X136450000Y-75750000D03*
X135600000Y-75750000D03*
X134750000Y-75750000D03*
X133900000Y-75750000D03*
D14*
X138200000Y-81100000D03*
D15*
X138200000Y-82750000D03*
X138200000Y-84400000D03*
X139850000Y-81100000D03*
X139850000Y-82750000D03*
X139850000Y-84400000D03*
X141500000Y-81100000D03*
X141500000Y-82750000D03*
X141500000Y-84400000D03*
D16*
X132850000Y-75750000D03*
X132850000Y-89750000D03*
X146850000Y-89750000D03*
X146850000Y-75750000D03*
%TD*%
D17*
%TO.C,J4*%
X146710000Y-120750000D03*
D18*
X149250000Y-120750000D03*
%TD*%
D19*
%TO.C,U4*%
X166625000Y-100200000D03*
X166625000Y-98300000D03*
X164750000Y-99250000D03*
%TD*%
D17*
%TO.C,J3*%
X124375000Y-114050000D03*
D18*
X124375000Y-111510000D03*
X124375000Y-108970000D03*
X124375000Y-106430000D03*
%TD*%
D20*
%TO.C,H3*%
X120904000Y-78740000D03*
%TD*%
D21*
%TO.C,R3*%
X128780000Y-92710000D03*
X127760000Y-92710000D03*
%TD*%
D17*
%TO.C,J2*%
X112000000Y-100025000D03*
D18*
X112000000Y-97485000D03*
%TD*%
D22*
%TO.C,U3*%
X130717722Y-126726148D03*
X129817722Y-126726148D03*
X129817722Y-127626148D03*
X130717722Y-127626148D03*
%TD*%
D23*
%TO.C,Q1*%
X116312500Y-98050000D03*
X116312500Y-99950000D03*
X118187500Y-99000000D03*
%TD*%
D24*
%TO.C,USB C*%
X135410000Y-120550000D03*
D25*
X142610000Y-120550000D03*
D26*
X136260000Y-119890000D03*
X136760000Y-119890000D03*
X137260000Y-119890000D03*
X137760000Y-119890000D03*
X138260000Y-119890000D03*
X138760000Y-119890000D03*
X139260000Y-119890000D03*
X139760000Y-119890000D03*
X140260000Y-119890000D03*
X140760000Y-119890000D03*
X141260000Y-119890000D03*
X141760000Y-119890000D03*
X141510000Y-121590000D03*
X141010000Y-121590000D03*
X140510000Y-121590000D03*
X140010000Y-121590000D03*
X139510000Y-121590000D03*
X139010000Y-121590000D03*
X138510000Y-121590000D03*
X138010000Y-121590000D03*
X137510000Y-121590000D03*
X137010000Y-121590000D03*
X136510000Y-121590000D03*
X136010000Y-121590000D03*
D27*
X134520000Y-127750000D03*
X134880000Y-121800000D03*
X143140000Y-121800000D03*
X143500000Y-127750000D03*
%TD*%
D17*
%TO.C,J1*%
X154000000Y-106250000D03*
D18*
X154000000Y-108790000D03*
X154000000Y-111330000D03*
X154000000Y-113870000D03*
%TD*%
D20*
%TO.C,H1*%
X157480000Y-119888000D03*
%TD*%
D28*
%TO.C,D1*%
X145900000Y-117000000D03*
X142600000Y-117000000D03*
%TD*%
D20*
%TO.C,H2*%
X157480000Y-78740000D03*
%TD*%
D29*
%TO.C,+3v3*%
X129850000Y-105700000D03*
X129850000Y-108000000D03*
D30*
X136150000Y-108000000D03*
D29*
X129850000Y-110300000D03*
%TD*%
D31*
%TO.C,R4*%
X127760000Y-90805000D03*
X128780000Y-90805000D03*
%TD*%
D32*
%TO.C,R2*%
X142240000Y-97665000D03*
X142240000Y-96645000D03*
%TD*%
D33*
%TO.C,U2*%
X137500000Y-100726000D03*
X138100000Y-100726000D03*
X138700000Y-100726000D03*
X139300000Y-100726000D03*
X139900000Y-100726000D03*
X140500000Y-100726000D03*
X140500000Y-99250000D03*
X139900000Y-99250000D03*
X139300000Y-99250000D03*
X138700000Y-99250000D03*
X138100000Y-99250000D03*
X137500000Y-99250000D03*
%TD*%
D34*
%TO.C,R1*%
X121750000Y-98152500D03*
X121750000Y-99172500D03*
%TD*%
D35*
%TO.C,C1*%
X138250000Y-97155000D03*
X137290000Y-97155000D03*
%TD*%
D20*
%TO.C,H5*%
X120904000Y-119888000D03*
%TD*%
D29*
%TO.C,+5V*%
X142700000Y-105700000D03*
X142700000Y-108000000D03*
D30*
X149000000Y-108000000D03*
D29*
X142700000Y-110300000D03*
%TD*%
D11*
%TO.C,SW1*%
X153250000Y-87600000D03*
X153250000Y-83400000D03*
%TD*%
D36*
%TO.C,C3*%
X139290000Y-97155000D03*
X140250000Y-97155000D03*
%TD*%
D35*
%TO.C,C2*%
X138250000Y-102250000D03*
X137290000Y-102250000D03*
%TD*%
M02*
