M48
; DRILL file {KiCad 7.0.9-7.0.9~ubuntu22.04.1} date to. 21. des. 2023 kl. 18.53 +0100
; FORMAT={-:-/ absolute / inch / decimal}
; #@! TF.CreationDate,2023-12-21T18:53:35+01:00
; #@! TF.GenerationSoftware,Kicad,Pcbnew,7.0.9-7.0.9~ubuntu22.04.1
; #@! TF.FileFunction,Plated,1,2,PTH
FMAT,2
INCH
; #@! TA.AperFunction,Plated,PTH,ViaDrill
T1C0.0039
; #@! TA.AperFunction,Plated,PTH,ComponentDrill
T2C0.0197
; #@! TA.AperFunction,Plated,PTH,ComponentDrill
T3C0.0394
%
G90
G05
T1
X4.9Y-4.0
X4.9444Y-3.5373
X4.9508Y-4.0484
X4.9553Y-3.9437
X4.9697Y-4.0642
X4.9932Y-4.0804
X5.0Y-4.0
X5.0163Y-4.1039
X5.0171Y-4.0167
X5.0383Y-4.0353
X5.0586Y-4.056
X5.0922Y-3.3907
X5.1464Y-5.0247
X5.1554Y-3.719
X5.1693Y-3.349
X5.1715Y-3.1215
X5.1917Y-3.6828
X5.219Y-3.7818
X5.2303Y-3.0906
X5.2303Y-3.124
X5.2303Y-3.1909
X5.2303Y-3.2244
X5.2303Y-3.2579
X5.2303Y-3.2913
X5.2364Y-3.7974
X5.2418Y-3.169
X5.2531Y-3.7466
X5.2577Y-3.8151
X5.2678Y-3.7637
X5.2779Y-3.8339
X5.2902Y-3.785
X5.3104Y-3.8022
X5.313Y-3.423
X5.3747Y-4.1877
X5.4051Y-4.0256
X5.4382Y-3.8688
X5.4614Y-3.9881
X5.4626Y-4.6825
X5.4727Y-4.8204
X5.48Y-4.2903
X5.485Y-4.6817
X5.5059Y-3.5335
X5.5079Y-3.9075
X5.5083Y-3.9884
X5.5301Y-3.8379
X5.5314Y-3.9799
X5.5394Y-3.5335
X5.575Y-3.675
X5.6Y-3.8451
X5.6247Y-3.7626
X5.65Y-3.675
X5.6716Y-3.6676
X5.7216Y-3.7095
X5.7391Y-3.6898
X5.7701Y-4.2258
X5.7701Y-4.2746
X5.7815Y-3.0236
X5.7815Y-3.5335
X5.7917Y-4.2728
X5.7927Y-4.2264
X5.8896Y-3.849
X5.975Y-3.85
X5.9948Y-3.4825
X6.0375Y-3.2675
X6.18Y-3.8701
X6.32Y-3.8701
T3
X4.4094Y-3.838
X4.4094Y-3.938
X4.8967Y-4.1902
X4.8967Y-4.2902
X4.8967Y-4.3902
X4.8967Y-4.4902
X5.776Y-4.7539
X5.876Y-4.7539
X6.063Y-4.1831
X6.063Y-4.2831
X6.063Y-4.3831
X6.063Y-4.4831
T2
G00X5.2961Y-5.0177
M15
G01X5.2961Y-5.0413
M16
G05
G00X5.3102Y-4.7835
M15
G01X5.3102Y-4.8071
M16
G05
G00X5.6354Y-4.7835
M15
G01X5.6354Y-4.8071
M16
G05
G00X5.6496Y-5.0177
M15
G01X5.6496Y-5.0413
M16
G05
T0
M30
