%TF.GenerationSoftware,KiCad,Pcbnew,7.0.9-7.0.9~ubuntu22.04.1*%
%TF.CreationDate,2023-12-21T17:36:31+01:00*%
%TF.ProjectId,lidar 2 round,6c696461-7220-4322-9072-6f756e642e6b,rev?*%
%TF.SameCoordinates,Original*%
%TF.FileFunction,Copper,L1,Top*%
%TF.FilePolarity,Positive*%
%FSLAX46Y46*%
G04 Gerber Fmt 4.6, Leading zero omitted, Abs format (unit mm)*
G04 Created by KiCad (PCBNEW 7.0.9-7.0.9~ubuntu22.04.1) date 2023-12-21 17:36:31*
%MOMM*%
%LPD*%
G01*
G04 APERTURE LIST*
G04 Aperture macros list*
%AMRoundRect*
0 Rectangle with rounded corners*
0 $1 Rounding radius*
0 $2 $3 $4 $5 $6 $7 $8 $9 X,Y pos of 4 corners*
0 Add a 4 corners polygon primitive as box body*
4,1,4,$2,$3,$4,$5,$6,$7,$8,$9,$2,$3,0*
0 Add four circle primitives for the rounded corners*
1,1,$1+$1,$2,$3*
1,1,$1+$1,$4,$5*
1,1,$1+$1,$6,$7*
1,1,$1+$1,$8,$9*
0 Add four rect primitives between the rounded corners*
20,1,$1+$1,$2,$3,$4,$5,0*
20,1,$1+$1,$4,$5,$6,$7,0*
20,1,$1+$1,$6,$7,$8,$9,0*
20,1,$1+$1,$8,$9,$2,$3,0*%
%AMFreePoly0*
4,1,6,0.600000,-0.600000,-0.600000,-0.600000,-0.600000,0.000000,0.000000,0.600000,0.600000,0.600000,0.600000,-0.600000,0.600000,-0.600000,$1*%
G04 Aperture macros list end*
%TA.AperFunction,SMDPad,CuDef*%
%ADD10RoundRect,0.140000X-0.170000X0.140000X-0.170000X-0.140000X0.170000X-0.140000X0.170000X0.140000X0*%
%TD*%
%TA.AperFunction,SMDPad,CuDef*%
%ADD11RoundRect,0.200000X0.800000X-0.200000X0.800000X0.200000X-0.800000X0.200000X-0.800000X-0.200000X0*%
%TD*%
%TA.AperFunction,SMDPad,CuDef*%
%ADD12R,0.800000X0.400000*%
%TD*%
%TA.AperFunction,SMDPad,CuDef*%
%ADD13R,0.400000X0.800000*%
%TD*%
%TA.AperFunction,SMDPad,CuDef*%
%ADD14FreePoly0,0.000000*%
%TD*%
%TA.AperFunction,SMDPad,CuDef*%
%ADD15R,1.200000X1.200000*%
%TD*%
%TA.AperFunction,SMDPad,CuDef*%
%ADD16R,0.800000X0.800000*%
%TD*%
%TA.AperFunction,ComponentPad*%
%ADD17R,1.700000X1.700000*%
%TD*%
%TA.AperFunction,ComponentPad*%
%ADD18O,1.700000X1.700000*%
%TD*%
%TA.AperFunction,SMDPad,CuDef*%
%ADD19RoundRect,0.150000X0.587500X0.150000X-0.587500X0.150000X-0.587500X-0.150000X0.587500X-0.150000X0*%
%TD*%
%TA.AperFunction,SMDPad,CuDef*%
%ADD20RoundRect,0.135000X0.135000X0.185000X-0.135000X0.185000X-0.135000X-0.185000X0.135000X-0.185000X0*%
%TD*%
%TA.AperFunction,SMDPad,CuDef*%
%ADD21R,0.500000X0.500000*%
%TD*%
%TA.AperFunction,SMDPad,CuDef*%
%ADD22RoundRect,0.150000X-0.587500X-0.150000X0.587500X-0.150000X0.587500X0.150000X-0.587500X0.150000X0*%
%TD*%
%TA.AperFunction,SMDPad,CuDef*%
%ADD23R,0.300000X0.700000*%
%TD*%
%TA.AperFunction,ComponentPad*%
%ADD24O,0.800000X1.400000*%
%TD*%
%TA.AperFunction,SMDPad,CuDef*%
%ADD25R,0.900000X1.200000*%
%TD*%
%TA.AperFunction,SMDPad,CuDef*%
%ADD26R,2.000000X1.500000*%
%TD*%
%TA.AperFunction,SMDPad,CuDef*%
%ADD27R,2.000000X3.800000*%
%TD*%
%TA.AperFunction,SMDPad,CuDef*%
%ADD28RoundRect,0.135000X-0.135000X-0.185000X0.135000X-0.185000X0.135000X0.185000X-0.135000X0.185000X0*%
%TD*%
%TA.AperFunction,SMDPad,CuDef*%
%ADD29RoundRect,0.135000X0.185000X-0.135000X0.185000X0.135000X-0.185000X0.135000X-0.185000X-0.135000X0*%
%TD*%
%TA.AperFunction,SMDPad,CuDef*%
%ADD30RoundRect,0.087500X0.087500X0.200000X-0.087500X0.200000X-0.087500X-0.200000X0.087500X-0.200000X0*%
%TD*%
%TA.AperFunction,SMDPad,CuDef*%
%ADD31RoundRect,0.135000X-0.185000X0.135000X-0.185000X-0.135000X0.185000X-0.135000X0.185000X0.135000X0*%
%TD*%
%TA.AperFunction,SMDPad,CuDef*%
%ADD32RoundRect,0.140000X0.140000X0.170000X-0.140000X0.170000X-0.140000X-0.170000X0.140000X-0.170000X0*%
%TD*%
%TA.AperFunction,SMDPad,CuDef*%
%ADD33RoundRect,0.140000X-0.140000X-0.170000X0.140000X-0.170000X0.140000X0.170000X-0.140000X0.170000X0*%
%TD*%
%TA.AperFunction,ViaPad*%
%ADD34C,0.300000*%
%TD*%
%TA.AperFunction,Conductor*%
%ADD35C,0.200000*%
%TD*%
%TA.AperFunction,Conductor*%
%ADD36C,1.000000*%
%TD*%
%TA.AperFunction,Conductor*%
%ADD37C,0.500000*%
%TD*%
G04 APERTURE END LIST*
D10*
%TO.P,C4,1*%
%TO.N,GND*%
X162750000Y-99215000D03*
%TO.P,C4,2*%
%TO.N,+3.3V*%
X162750000Y-100175000D03*
%TD*%
D11*
%TO.P,SW2,1,1*%
%TO.N,Net-(R3-Pad2)*%
X126750000Y-87700000D03*
%TO.P,SW2,2,2*%
%TO.N,GND*%
X126750000Y-83500000D03*
%TD*%
D12*
%TO.P,U5,1,GND*%
%TO.N,GND*%
X132850000Y-76800000D03*
%TO.P,U5,2,GND*%
X132850000Y-77650000D03*
%TO.P,U5,3,3V3*%
%TO.N,+3.3V*%
X132850000Y-78500000D03*
%TO.P,U5,4,GPIO0/BOOT*%
%TO.N,Net-(U5-GPIO0{slash}BOOT)*%
X132850000Y-79350000D03*
%TO.P,U5,5,GPIO1/TOUCH1/ADC1_CH0*%
%TO.N,Enable*%
X132850000Y-80200000D03*
%TO.P,U5,6,GPIO2/TOUCH2/ADC1_CH1*%
%TO.N,SCL*%
X132850000Y-81050000D03*
%TO.P,U5,7,GPIO3/TOUCH3/ADC1_CH2*%
%TO.N,SDA*%
X132850000Y-81900000D03*
%TO.P,U5,8,GPIO4/TOUCH4/ADC1_CH3*%
%TO.N,GPIO0*%
X132850000Y-82750000D03*
%TO.P,U5,9,GPIO5/TOUCH5/ADC1_CH4*%
%TO.N,GPIO1*%
X132850000Y-83600000D03*
%TO.P,U5,10,GPIO6/TOUCH6/ADC1_CH5*%
%TO.N,Enable_Motor*%
X132850000Y-84450000D03*
%TO.P,U5,11,GPIO7/TOUCH7/ADC1_CH6*%
%TO.N,unconnected-(U5-GPIO7{slash}TOUCH7{slash}ADC1_CH6-Pad11)*%
X132850000Y-85300000D03*
%TO.P,U5,12,GPIO8/TOUCH8/ADC1_CH7/SUBSPICS1*%
%TO.N,unconnected-(U5-GPIO8{slash}TOUCH8{slash}ADC1_CH7{slash}SUBSPICS1-Pad12)*%
X132850000Y-86150000D03*
%TO.P,U5,13,GPIO9/TOUCH9/ADC1_CH8/FSPIHD/SUBSPIHD*%
%TO.N,Hall_Effect_Sensor*%
X132850000Y-87000000D03*
%TO.P,U5,14,GPIO10/TOUCH10/ADC1_CH9/FSPICS0/FSPIIO4/SUBSPICS0*%
%TO.N,unconnected-(U5-GPIO10{slash}TOUCH10{slash}ADC1_CH9{slash}FSPICS0{slash}FSPIIO4{slash}SUBSPICS0-Pad14)*%
X132850000Y-87850000D03*
%TO.P,U5,15,GPIO11/TOUCH11/ADC2_CH0/FSPID/FSPIIO5/SUBSPID*%
%TO.N,unconnected-(U5-GPIO11{slash}TOUCH11{slash}ADC2_CH0{slash}FSPID{slash}FSPIIO5{slash}SUBSPID-Pad15)*%
X132850000Y-88700000D03*
D13*
%TO.P,U5,16,GPIO12/TOUCH12/ADC2_CH1/FSPICLK/FSPIIO6/SUBSPICLK*%
%TO.N,SLED*%
X133900000Y-89750000D03*
%TO.P,U5,17,GPIO13/TOUCH13/ADC2_CH2/FSPIQ/FSPIIO7/SUBSPIQ*%
%TO.N,unconnected-(U5-GPIO13{slash}TOUCH13{slash}ADC2_CH2{slash}FSPIQ{slash}FSPIIO7{slash}SUBSPIQ-Pad17)*%
X134750000Y-89750000D03*
%TO.P,U5,18,GPIO14/TOUCH14/ADC2_CH3/FSPIWP/FSPIDQS/SUBSPIWP*%
%TO.N,unconnected-(U5-GPIO14{slash}TOUCH14{slash}ADC2_CH3{slash}FSPIWP{slash}FSPIDQS{slash}SUBSPIWP-Pad18)*%
X135600000Y-89750000D03*
%TO.P,U5,19,GPIO15/U0RTS/ADC2_CH4/XTAL_32K_P*%
%TO.N,unconnected-(U5-GPIO15{slash}U0RTS{slash}ADC2_CH4{slash}XTAL_32K_P-Pad19)*%
X136450000Y-89750000D03*
%TO.P,U5,20,GPIO16/U0CTS/ADC2_CH5/XTAL_32K_N*%
%TO.N,unconnected-(U5-GPIO16{slash}U0CTS{slash}ADC2_CH5{slash}XTAL_32K_N-Pad20)*%
X137300000Y-89750000D03*
%TO.P,U5,21,GPIO17/U1TXD/ADC2_CH6*%
%TO.N,unconnected-(U5-GPIO17{slash}U1TXD{slash}ADC2_CH6-Pad21)*%
X138150000Y-89750000D03*
%TO.P,U5,22,GPIO18/U1RXD/ADC2_CH7/CLK_OUT3*%
%TO.N,unconnected-(U5-GPIO18{slash}U1RXD{slash}ADC2_CH7{slash}CLK_OUT3-Pad22)*%
X139000000Y-89750000D03*
%TO.P,U5,23,GPIO19/U1RTS/ADC2_CH8/CLK_OUT2/USB_D-*%
%TO.N,D-*%
X139850000Y-89750000D03*
%TO.P,U5,24,GPIO20/U1CTS/ADC2_CH9/CLK_OUT1/USB_D+*%
%TO.N,D+*%
X140700000Y-89750000D03*
%TO.P,U5,25,GPIO21*%
%TO.N,unconnected-(U5-GPIO21-Pad25)*%
X141550000Y-89750000D03*
%TO.P,U5,26,GPIO26*%
%TO.N,unconnected-(U5-GPIO26-Pad26)*%
X142400000Y-89750000D03*
%TO.P,U5,27,GPIO47/SPICLK_P/SUBSPICLK_P_DIFF*%
%TO.N,unconnected-(U5-GPIO47{slash}SPICLK_P{slash}SUBSPICLK_P_DIFF-Pad27)*%
X143250000Y-89750000D03*
%TO.P,U5,28,SPIIO4/GPIO33/FSPIHD/SUBSPIHD*%
%TO.N,unconnected-(U5-SPIIO4{slash}GPIO33{slash}FSPIHD{slash}SUBSPIHD-Pad28)*%
X144100000Y-89750000D03*
%TO.P,U5,29,SPIIO5/GPIO34/FSPICS0/SUBSPICS0*%
%TO.N,unconnected-(U5-SPIIO5{slash}GPIO34{slash}FSPICS0{slash}SUBSPICS0-Pad29)*%
X144950000Y-89750000D03*
%TO.P,U5,30,GPIO48/SPICLK_N/SUBSPICLK_N_DIFF*%
%TO.N,unconnected-(U5-GPIO48{slash}SPICLK_N{slash}SUBSPICLK_N_DIFF-Pad30)*%
X145800000Y-89750000D03*
D12*
%TO.P,U5,31,SPIIO6/GPIO35/FSPID/SUBSPID*%
%TO.N,unconnected-(U5-SPIIO6{slash}GPIO35{slash}FSPID{slash}SUBSPID-Pad31)*%
X146850000Y-88700000D03*
%TO.P,U5,32,SPIIO7/GPIO36/FSPICLK/SUBSPICLK*%
%TO.N,unconnected-(U5-SPIIO7{slash}GPIO36{slash}FSPICLK{slash}SUBSPICLK-Pad32)*%
X146850000Y-87850000D03*
%TO.P,U5,33,SPIDQS/GPIO37/FSPIQ/SUBSPIQ*%
%TO.N,unconnected-(U5-SPIDQS{slash}GPIO37{slash}FSPIQ{slash}SUBSPIQ-Pad33)*%
X146850000Y-87000000D03*
%TO.P,U5,34,GPIO38/FSPIWP/SUBSPIWP*%
%TO.N,unconnected-(U5-GPIO38{slash}FSPIWP{slash}SUBSPIWP-Pad34)*%
X146850000Y-86150000D03*
%TO.P,U5,35,MTCK/GPIO39/CLK_OUT3/SUBSPICS1*%
%TO.N,TCK*%
X146850000Y-85300000D03*
%TO.P,U5,36,MTDO/GPIO40/CLK_OUT2*%
%TO.N,TDO*%
X146850000Y-84450000D03*
%TO.P,U5,37,MTDI/GPIO41/CLK_OUT1*%
%TO.N,TDI*%
X146850000Y-83600000D03*
%TO.P,U5,38,MTMS/GPIO42*%
%TO.N,TMS*%
X146850000Y-82750000D03*
%TO.P,U5,39,U0TXD/GPIO43/CLK_OUT1*%
%TO.N,TX*%
X146850000Y-81900000D03*
%TO.P,U5,40,U0RXD/GPIO44/CLK_OUT2*%
%TO.N,RX*%
X146850000Y-81050000D03*
%TO.P,U5,41,GPIO45*%
%TO.N,unconnected-(U5-GPIO45-Pad41)*%
X146850000Y-80200000D03*
%TO.P,U5,42,GND*%
%TO.N,GND*%
X146850000Y-79350000D03*
%TO.P,U5,43,GND*%
X146850000Y-78500000D03*
%TO.P,U5,44,GPIO46*%
%TO.N,unconnected-(U5-GPIO46-Pad44)*%
X146850000Y-77650000D03*
%TO.P,U5,45,EN*%
%TO.N,Net-(U5-EN)*%
X146850000Y-76800000D03*
D13*
%TO.P,U5,46,GND*%
%TO.N,GND*%
X145800000Y-75750000D03*
%TO.P,U5,47,GND*%
X144950000Y-75750000D03*
%TO.P,U5,48,GND*%
X144100000Y-75750000D03*
%TO.P,U5,49,GND*%
X143250000Y-75750000D03*
%TO.P,U5,50,GND*%
X142400000Y-75750000D03*
%TO.P,U5,51,GND*%
X141550000Y-75750000D03*
%TO.P,U5,52,GND*%
X140700000Y-75750000D03*
%TO.P,U5,53,GND*%
X139850000Y-75750000D03*
%TO.P,U5,54,GND*%
X139000000Y-75750000D03*
%TO.P,U5,55,GND*%
X138150000Y-75750000D03*
%TO.P,U5,56,GND*%
X137300000Y-75750000D03*
%TO.P,U5,57,GND*%
X136450000Y-75750000D03*
%TO.P,U5,58,GND*%
X135600000Y-75750000D03*
%TO.P,U5,59,GND*%
X134750000Y-75750000D03*
%TO.P,U5,60,GND*%
X133900000Y-75750000D03*
D14*
%TO.P,U5,61,GND*%
X138200000Y-81100000D03*
D15*
X138200000Y-82750000D03*
X138200000Y-84400000D03*
X139850000Y-81100000D03*
X139850000Y-82750000D03*
X139850000Y-84400000D03*
X141500000Y-81100000D03*
X141500000Y-82750000D03*
X141500000Y-84400000D03*
D16*
%TO.P,U5,62,GND*%
X132850000Y-75750000D03*
%TO.P,U5,63,GND*%
X132850000Y-89750000D03*
%TO.P,U5,64,GND*%
X146850000Y-89750000D03*
%TO.P,U5,65,GND*%
X146850000Y-75750000D03*
%TD*%
D17*
%TO.P,J4,1*%
%TO.N,VIN*%
X146710000Y-120750000D03*
D18*
%TO.P,J4,2*%
%TO.N,GND*%
X149250000Y-120750000D03*
%TD*%
D19*
%TO.P,U4,1,VCC*%
%TO.N,+3.3V*%
X166625000Y-100200000D03*
%TO.P,U4,2,OUT*%
%TO.N,Hall_Effect_Sensor*%
X166625000Y-98300000D03*
%TO.P,U4,3,GND*%
%TO.N,GND*%
X164750000Y-99250000D03*
%TD*%
D17*
%TO.P,J3,1*%
%TO.N,TMS*%
X124375000Y-114050000D03*
D18*
%TO.P,J3,2*%
%TO.N,TDI*%
X124375000Y-111510000D03*
%TO.P,J3,3*%
%TO.N,TDO*%
X124375000Y-108970000D03*
%TO.P,J3,4*%
%TO.N,TCK*%
X124375000Y-106430000D03*
%TD*%
D20*
%TO.P,R3,1*%
%TO.N,+3.3V*%
X128780000Y-92710000D03*
%TO.P,R3,2*%
%TO.N,Net-(R3-Pad2)*%
X127760000Y-92710000D03*
%TD*%
D17*
%TO.P,J2,1*%
%TO.N,Net-(Q1-E)*%
X112000000Y-100025000D03*
D18*
%TO.P,J2,2*%
%TO.N,+5V*%
X112000000Y-97485000D03*
%TD*%
D21*
%TO.P,U3,1,DIN*%
%TO.N,SLED*%
X130717722Y-126726148D03*
%TO.P,U3,2,VDD*%
%TO.N,+3.3V*%
X129817722Y-126726148D03*
%TO.P,U3,3,DOUT*%
%TO.N,unconnected-(U3-DOUT-Pad3)*%
X129817722Y-127626148D03*
%TO.P,U3,4,GND*%
%TO.N,GND*%
X130717722Y-127626148D03*
%TD*%
D22*
%TO.P,Q1,1,B*%
%TO.N,Enable_Motor*%
X116312500Y-98050000D03*
%TO.P,Q1,2,E*%
%TO.N,Net-(Q1-E)*%
X116312500Y-99950000D03*
%TO.P,Q1,3,C*%
%TO.N,GND*%
X118187500Y-99000000D03*
%TD*%
D23*
%TO.P,J5,A1,GND*%
%TO.N,GND*%
X136260000Y-119890000D03*
%TO.P,J5,A2*%
%TO.N,N/C*%
X136760000Y-119890000D03*
%TO.P,J5,A3*%
X137260000Y-119890000D03*
%TO.P,J5,A4,VBUS*%
%TO.N,Net-(D1-A)*%
X137760000Y-119890000D03*
%TO.P,J5,A5,CC1*%
%TO.N,unconnected-(J5-CC1-PadA5)*%
X138260000Y-119890000D03*
%TO.P,J5,A6,D+*%
%TO.N,D+*%
X138760000Y-119890000D03*
%TO.P,J5,A7,D-*%
%TO.N,D-*%
X139260000Y-119890000D03*
%TO.P,J5,A8,SBU1*%
%TO.N,unconnected-(J5-SBU1-PadA8)*%
X139760000Y-119890000D03*
%TO.P,J5,A9,VBUS*%
%TO.N,Net-(D1-A)*%
X140260000Y-119890000D03*
%TO.P,J5,A10*%
%TO.N,N/C*%
X140760000Y-119890000D03*
%TO.P,J5,A11*%
X141260000Y-119890000D03*
%TO.P,J5,A12,GND*%
%TO.N,GND*%
X141760000Y-119890000D03*
%TO.P,J5,B1,GND*%
X141510000Y-121590000D03*
%TO.P,J5,B2*%
%TO.N,N/C*%
X141010000Y-121590000D03*
%TO.P,J5,B3*%
X140510000Y-121590000D03*
%TO.P,J5,B4,VBUS*%
%TO.N,Net-(D1-A)*%
X140010000Y-121590000D03*
%TO.P,J5,B5,CC2*%
%TO.N,unconnected-(J5-CC2-PadB5)*%
X139510000Y-121590000D03*
%TO.P,J5,B6,D+*%
%TO.N,D+*%
X139010000Y-121590000D03*
%TO.P,J5,B7,D-*%
%TO.N,D-*%
X138510000Y-121590000D03*
%TO.P,J5,B8,SBU2*%
%TO.N,unconnected-(J5-SBU2-PadB8)*%
X138010000Y-121590000D03*
%TO.P,J5,B9,VBUS*%
%TO.N,Net-(D1-A)*%
X137510000Y-121590000D03*
%TO.P,J5,B10*%
%TO.N,N/C*%
X137010000Y-121590000D03*
%TO.P,J5,B11*%
X136510000Y-121590000D03*
%TO.P,J5,B12,GND*%
%TO.N,GND*%
X136010000Y-121590000D03*
D24*
%TO.P,J5,S1,SHIELD*%
X134520000Y-127750000D03*
X134880000Y-121800000D03*
X143140000Y-121800000D03*
X143500000Y-127750000D03*
%TD*%
D17*
%TO.P,J1,1*%
%TO.N,+3.3V*%
X154000000Y-106250000D03*
D18*
%TO.P,J1,2*%
%TO.N,RX*%
X154000000Y-108790000D03*
%TO.P,J1,3*%
%TO.N,TX*%
X154000000Y-111330000D03*
%TO.P,J1,4*%
%TO.N,GND*%
X154000000Y-113870000D03*
%TD*%
D25*
%TO.P,D1,1,K*%
%TO.N,VIN*%
X145900000Y-117000000D03*
%TO.P,D1,2,A*%
%TO.N,Net-(D1-A)*%
X142600000Y-117000000D03*
%TD*%
D26*
%TO.P,U6,1,GND*%
%TO.N,GND*%
X129850000Y-105700000D03*
%TO.P,U6,2,VO*%
%TO.N,+3.3V*%
X129850000Y-108000000D03*
D27*
X136150000Y-108000000D03*
D26*
%TO.P,U6,3,VI*%
%TO.N,VIN*%
X129850000Y-110300000D03*
%TD*%
D28*
%TO.P,R4,1*%
%TO.N,Net-(R3-Pad2)*%
X127760000Y-90805000D03*
%TO.P,R4,2*%
%TO.N,Net-(U5-EN)*%
X128780000Y-90805000D03*
%TD*%
D29*
%TO.P,R2,1*%
%TO.N,Enable*%
X142240000Y-97665000D03*
%TO.P,R2,2*%
%TO.N,GND*%
X142240000Y-96645000D03*
%TD*%
D30*
%TO.P,U2,1,VDDV*%
%TO.N,+3.3V*%
X137500000Y-100726000D03*
%TO.P,U2,2,GNDC*%
%TO.N,GND*%
X138100000Y-100726000D03*
%TO.P,U2,3,GPIO0*%
%TO.N,GPIO1*%
X138700000Y-100726000D03*
%TO.P,U2,4,INT*%
%TO.N,GND*%
X139300000Y-100726000D03*
%TO.P,U2,5,SCL*%
%TO.N,SCL*%
X139900000Y-100726000D03*
%TO.P,U2,6,SDA*%
%TO.N,SDA*%
X140500000Y-100726000D03*
%TO.P,U2,7,VDD*%
%TO.N,GND*%
X140500000Y-99250000D03*
%TO.P,U2,8,GND*%
%TO.N,+3.3V*%
X139900000Y-99250000D03*
%TO.P,U2,9,EN*%
%TO.N,Enable*%
X139300000Y-99250000D03*
%TO.P,U2,10,GPIO1*%
%TO.N,GPIO0*%
X138700000Y-99250000D03*
%TO.P,U2,11,GNDV*%
%TO.N,GND*%
X138100000Y-99250000D03*
%TO.P,U2,12,VDDC*%
%TO.N,+3.3V*%
X137500000Y-99250000D03*
%TD*%
D31*
%TO.P,R1,1*%
%TO.N,Enable_Motor*%
X121750000Y-98152500D03*
%TO.P,R1,2*%
%TO.N,GND*%
X121750000Y-99172500D03*
%TD*%
D32*
%TO.P,C1,1*%
%TO.N,GND*%
X138250000Y-97155000D03*
%TO.P,C1,2*%
%TO.N,+3.3V*%
X137290000Y-97155000D03*
%TD*%
D26*
%TO.P,U1,1,GND*%
%TO.N,GND*%
X142700000Y-105700000D03*
%TO.P,U1,2,VO*%
%TO.N,+5V*%
X142700000Y-108000000D03*
D27*
X149000000Y-108000000D03*
D26*
%TO.P,U1,3,VI*%
%TO.N,VIN*%
X142700000Y-110300000D03*
%TD*%
D11*
%TO.P,SW1,1,1*%
%TO.N,GND*%
X153250000Y-87600000D03*
%TO.P,SW1,2,2*%
%TO.N,Net-(U5-GPIO0{slash}BOOT)*%
X153250000Y-83400000D03*
%TD*%
D33*
%TO.P,C3,1*%
%TO.N,GND*%
X139290000Y-97155000D03*
%TO.P,C3,2*%
%TO.N,+3.3V*%
X140250000Y-97155000D03*
%TD*%
D32*
%TO.P,C2,1*%
%TO.N,GND*%
X138250000Y-102250000D03*
%TO.P,C2,2*%
%TO.N,+3.3V*%
X137290000Y-102250000D03*
%TD*%
D34*
%TO.N,Net-(U5-GPIO0{slash}BOOT)*%
X153352335Y-82995075D03*
X132850000Y-79350000D03*
%TO.N,GND*%
X142866453Y-95571283D03*
X152267304Y-88454234D03*
X146850000Y-89750000D03*
X130717722Y-127626148D03*
%TO.N,+3.3V*%
X132850000Y-78500000D03*
X136517520Y-106367523D03*
X140464767Y-97481434D03*
X139900000Y-99250000D03*
X131300185Y-85065306D03*
X137290000Y-102250000D03*
%TO.N,+5V*%
X139191338Y-108973346D03*
%TO.N,TMS*%
X127413689Y-104239823D03*
X134885187Y-96576017D03*
X128489185Y-103021876D03*
X134058977Y-97380859D03*
%TO.N,TDI*%
X126827873Y-103641425D03*
X127973407Y-102495891D03*
X134371783Y-96139063D03*
X133546760Y-96904731D03*
%TO.N,TDO*%
X133004827Y-96453729D03*
X127435035Y-102023520D03*
X133802547Y-95599029D03*
X126231334Y-103231609D03*
%TO.N,TCK*%
X132561872Y-96057588D03*
X125749461Y-102829330D03*
X127000000Y-101600000D03*
X133429593Y-95164347D03*
%TO.N,Enable_Motor*%
X129342043Y-86124498D03*
X125588203Y-89847569D03*
%TO.N,Enable*%
X142240000Y-97665000D03*
X133142072Y-80492073D03*
%TO.N,GPIO1*%
X132850000Y-83600000D03*
X138718767Y-101297904D03*
%TO.N,SCL*%
X139910304Y-101306488D03*
X132850000Y-81050000D03*
%TO.N,SDA*%
X132850000Y-81900000D03*
X140496437Y-101088654D03*
%TO.N,GPIO0*%
X132850000Y-82750000D03*
X138129339Y-98267157D03*
%TO.N,Hall_Effect_Sensor*%
X141605000Y-93345000D03*
X134949056Y-86943836D03*
X151765000Y-97790000D03*
X149595698Y-97765702D03*
X159421357Y-97765702D03*
X157656141Y-97829505D03*
%TO.N,D+*%
X143510000Y-93345000D03*
X145327692Y-94221768D03*
X140700000Y-89750000D03*
X138749437Y-118934388D03*
X146561394Y-108575910D03*
X146561394Y-107335297D03*
X139005851Y-122438844D03*
%TO.N,D-*%
X145774319Y-93721768D03*
X147134105Y-107350895D03*
X139319144Y-118915059D03*
X139850000Y-89750000D03*
X147109374Y-108884211D03*
X144059644Y-93157080D03*
%TO.N,Net-(U5-EN)*%
X131356446Y-79286446D03*
X146850000Y-76800000D03*
%TO.N,SLED*%
X125865385Y-100170297D03*
X130775560Y-94774310D03*
X131868638Y-93542429D03*
X124460000Y-101600000D03*
%TD*%
D35*
%TO.N,GND*%
X154000000Y-113870000D02*
X148160000Y-113870000D01*
X148160000Y-113870000D02*
X147378528Y-113088528D01*
%TO.N,TCK*%
X147050000Y-85300000D02*
X146850000Y-85300000D01*
X147790000Y-86040000D02*
X147050000Y-85300000D01*
X144816728Y-91510000D02*
X147790000Y-91510000D01*
X144763805Y-91457077D02*
X144816728Y-91510000D01*
X143355489Y-91457077D02*
X144763805Y-91457077D01*
X143302566Y-91510000D02*
X143355489Y-91457077D01*
X147790000Y-91510000D02*
X147790000Y-86040000D01*
X138254149Y-91510000D02*
X143302566Y-91510000D01*
X137854148Y-91910000D02*
X138254149Y-91510000D01*
X136683940Y-91910000D02*
X137854148Y-91910000D01*
X133429593Y-95164347D02*
X136683940Y-91910000D01*
%TO.N,Net-(U5-GPIO0{slash}BOOT)*%
X153250000Y-83097410D02*
X153352335Y-82995075D01*
X153250000Y-83400000D02*
X153250000Y-83097410D01*
%TO.N,GND*%
X160062484Y-99215000D02*
X153250000Y-92402516D01*
X139850000Y-75750000D02*
X132850000Y-75750000D01*
X139875000Y-79350000D02*
X139850000Y-79375000D01*
X126750000Y-83100000D02*
X132200000Y-77650000D01*
X135890000Y-122240000D02*
X135320000Y-122240000D01*
X140500000Y-99250000D02*
X140500000Y-98962501D01*
X138100000Y-100726000D02*
X138100000Y-101295000D01*
D36*
X144400000Y-110110000D02*
X144400000Y-106550000D01*
D35*
X142240000Y-96645000D02*
X142240000Y-96197736D01*
X143240000Y-121900000D02*
X148100000Y-121900000D01*
X138250000Y-102250000D02*
X138250000Y-105202907D01*
X143500000Y-125532688D02*
X140906156Y-122938844D01*
X139300000Y-100726000D02*
X139300000Y-100438501D01*
X143500000Y-127750000D02*
X143500000Y-125532688D01*
X142700000Y-122240000D02*
X141605000Y-122240000D01*
X136260000Y-120740000D02*
X136010000Y-120990000D01*
D36*
X142700000Y-105700000D02*
X142400000Y-105400000D01*
D37*
X123322500Y-99172500D02*
X129850000Y-105700000D01*
D35*
X135890000Y-121710000D02*
X136010000Y-121590000D01*
X136010000Y-120990000D02*
X136010000Y-121590000D01*
X143140000Y-121800000D02*
X143240000Y-121900000D01*
X146850000Y-79350000D02*
X146850000Y-78500000D01*
X146850000Y-79350000D02*
X139875000Y-79350000D01*
X138200000Y-82750000D02*
X138200000Y-84400000D01*
D37*
X121750000Y-99172500D02*
X123322500Y-99172500D01*
D35*
X138200000Y-81100000D02*
X138200000Y-82750000D01*
X139850000Y-81100000D02*
X141500000Y-81100000D01*
X138100000Y-99250000D02*
X138100000Y-98944925D01*
X126750000Y-83500000D02*
X126750000Y-83100000D01*
X137718767Y-97686233D02*
X138250000Y-97155000D01*
X138081500Y-101313500D02*
X138250000Y-101482000D01*
X137629339Y-98474264D02*
X137629339Y-98060050D01*
X132850000Y-89750000D02*
X138200000Y-84400000D01*
D36*
X143550000Y-105700000D02*
X142700000Y-105700000D01*
D35*
X139850000Y-81100000D02*
X139850000Y-79375000D01*
X140903566Y-97981434D02*
X142240000Y-96645000D01*
D36*
X130150000Y-105400000D02*
X129850000Y-105700000D01*
D35*
X136588844Y-122938844D02*
X135890000Y-122240000D01*
X135890000Y-122240000D02*
X135890000Y-121710000D01*
X138100000Y-101295000D02*
X138081500Y-101313500D01*
X134520000Y-126365000D02*
X134520000Y-125007688D01*
X141605000Y-122240000D02*
X141510000Y-122145000D01*
X138449568Y-100138500D02*
X138100000Y-100488068D01*
X140500000Y-99020000D02*
X140500000Y-99250000D01*
X139300000Y-100438501D02*
X138999999Y-100138500D01*
X135320000Y-122240000D02*
X134880000Y-121800000D01*
X138100000Y-100488068D02*
X138100000Y-100726000D01*
D36*
X142400000Y-105400000D02*
X139065000Y-105400000D01*
D35*
X138100000Y-100726000D02*
X138100000Y-99250000D01*
X141760000Y-119890000D02*
X141760000Y-121340000D01*
X141510000Y-122145000D02*
X141510000Y-121590000D01*
X134520000Y-127750000D02*
X134520000Y-126365000D01*
D36*
X147378528Y-116781472D02*
X147411472Y-116781472D01*
D35*
X138999999Y-100138500D02*
X138449568Y-100138500D01*
X153250000Y-92402516D02*
X153250000Y-87600000D01*
D36*
X139065000Y-105400000D02*
X138447093Y-105400000D01*
D35*
X142240000Y-96197736D02*
X142866453Y-95571283D01*
X132850000Y-75750000D02*
X132850000Y-77650000D01*
X141500000Y-81100000D02*
X141500000Y-82750000D01*
X140116434Y-98578935D02*
X140116434Y-97981434D01*
X162750000Y-99215000D02*
X160062484Y-99215000D01*
X140906156Y-122938844D02*
X136588844Y-122938844D01*
X138250000Y-105202907D02*
X138447093Y-105400000D01*
X136260000Y-119890000D02*
X136260000Y-120740000D01*
X148100000Y-121900000D02*
X149250000Y-120750000D01*
D36*
X147411472Y-116781472D02*
X149250000Y-118620000D01*
D35*
X138100000Y-98944925D02*
X137629339Y-98474264D01*
X141605000Y-122240000D02*
X140906156Y-122938844D01*
X138200000Y-82750000D02*
X139850000Y-82750000D01*
X153250000Y-87600000D02*
X153121538Y-87600000D01*
X146850000Y-89750000D02*
X141500000Y-84400000D01*
D36*
X144400000Y-110110000D02*
X147378528Y-113088528D01*
D35*
X140500000Y-99250000D02*
X140500000Y-98960000D01*
D36*
X138447093Y-105400000D02*
X130150000Y-105400000D01*
D35*
X143140000Y-121800000D02*
X142700000Y-122240000D01*
X134520000Y-125007688D02*
X136588844Y-122938844D01*
X132200000Y-77650000D02*
X132850000Y-77650000D01*
X140500000Y-98962501D02*
X140116434Y-98578935D01*
X140565000Y-99185000D02*
X140500000Y-99250000D01*
X138250000Y-97155000D02*
X139290000Y-97155000D01*
X138200000Y-84400000D02*
X139850000Y-84400000D01*
X137718767Y-97970622D02*
X137718767Y-97686233D01*
D37*
X121750000Y-99172500D02*
X118360000Y-99172500D01*
D35*
X139850000Y-79375000D02*
X139850000Y-75750000D01*
D36*
X147378528Y-113088528D02*
X147378528Y-116781472D01*
X149250000Y-120750000D02*
X149250000Y-118620000D01*
D35*
X153121538Y-87600000D02*
X152267304Y-88454234D01*
X138250000Y-101482000D02*
X138250000Y-102250000D01*
X141500000Y-82750000D02*
X141500000Y-84400000D01*
X138200000Y-81100000D02*
X139850000Y-81100000D01*
X140517650Y-99267650D02*
X140500000Y-99250000D01*
X164750000Y-99250000D02*
X162785000Y-99250000D01*
X141500000Y-82750000D02*
X139850000Y-82750000D01*
X140116434Y-97981434D02*
X139290000Y-97155000D01*
X118360000Y-99172500D02*
X118187500Y-99000000D01*
X139850000Y-75750000D02*
X146850000Y-75750000D01*
X141500000Y-84400000D02*
X139850000Y-84400000D01*
D36*
X144400000Y-106550000D02*
X143550000Y-105700000D01*
D35*
X140116434Y-97981434D02*
X140903566Y-97981434D01*
X137629339Y-98060050D02*
X137718767Y-97970622D01*
X139850000Y-82750000D02*
X139850000Y-84400000D01*
X162785000Y-99250000D02*
X162750000Y-99215000D01*
X141760000Y-121340000D02*
X141510000Y-121590000D01*
%TO.N,+3.3V*%
X136150000Y-108000000D02*
X136150000Y-106735043D01*
X137290000Y-97155000D02*
X137900000Y-96545000D01*
X137500000Y-102040000D02*
X137290000Y-102250000D01*
X130175000Y-92710000D02*
X128780000Y-92710000D01*
X137290000Y-97833704D02*
X137229339Y-97894365D01*
X130175000Y-86190491D02*
X131300185Y-85065306D01*
X140250000Y-97155000D02*
X140250000Y-97266667D01*
X162750000Y-100175000D02*
X160075000Y-100175000D01*
X136150000Y-106735043D02*
X136517520Y-106367523D01*
X128531523Y-108000000D02*
X129850000Y-108000000D01*
X130175000Y-92710000D02*
X130175000Y-86190491D01*
X128183117Y-125091543D02*
X128183117Y-108348406D01*
X137290000Y-97155000D02*
X137290000Y-97833704D01*
X137500000Y-99695000D02*
X137500000Y-99250000D01*
X137500000Y-100726000D02*
X137500000Y-99695000D01*
X128183117Y-108348406D02*
X128531523Y-108000000D01*
X137229339Y-98979339D02*
X137500000Y-99250000D01*
X137290000Y-97155000D02*
X134620000Y-97155000D01*
X166600000Y-100175000D02*
X166625000Y-100200000D01*
X137229339Y-97894365D02*
X137229339Y-98979339D01*
X137900000Y-96545000D02*
X139640000Y-96545000D01*
X162750000Y-100175000D02*
X166600000Y-100175000D01*
X137500000Y-100726000D02*
X137500000Y-102040000D01*
X129817722Y-126726148D02*
X128183117Y-125091543D01*
X139640000Y-96545000D02*
X140250000Y-97155000D01*
X160075000Y-100175000D02*
X154000000Y-106250000D01*
X134620000Y-97155000D02*
X130175000Y-92710000D01*
X140250000Y-97266667D02*
X140464767Y-97481434D01*
D36*
%TO.N,VIN*%
X145900000Y-113500000D02*
X142700000Y-110300000D01*
X130150000Y-110600000D02*
X129850000Y-110300000D01*
X142700000Y-110300000D02*
X142400000Y-110600000D01*
X145900000Y-117000000D02*
X145900000Y-113500000D01*
X146710000Y-120750000D02*
X146710000Y-117810000D01*
X146710000Y-117810000D02*
X145900000Y-117000000D01*
X142400000Y-110600000D02*
X130150000Y-110600000D01*
D35*
%TO.N,Net-(D1-A)*%
X138542330Y-118434388D02*
X137710000Y-119266718D01*
X140260000Y-120740000D02*
X140010000Y-120990000D01*
X137710000Y-119266718D02*
X137710000Y-120540000D01*
X139545580Y-118434388D02*
X138542330Y-118434388D01*
X137710000Y-120540000D02*
X137510000Y-120740000D01*
X140260000Y-119148808D02*
X139545580Y-118434388D01*
X137510000Y-120740000D02*
X137510000Y-121590000D01*
X140260000Y-119380000D02*
X140260000Y-119890000D01*
X140260000Y-119340000D02*
X140260000Y-119380000D01*
X140010000Y-120990000D02*
X140010000Y-121590000D01*
X142600000Y-117000000D02*
X140260000Y-119340000D01*
X140260000Y-119380000D02*
X140260000Y-119148808D01*
X140260000Y-119890000D02*
X140260000Y-120740000D01*
%TO.N,RX*%
X154000000Y-108790000D02*
X152605000Y-108790000D01*
X147050000Y-81050000D02*
X146850000Y-81050000D01*
X151130000Y-85130000D02*
X147050000Y-81050000D01*
X151130000Y-107315000D02*
X151130000Y-85130000D01*
X152605000Y-108790000D02*
X151130000Y-107315000D01*
%TO.N,TX*%
X147050000Y-81900000D02*
X146850000Y-81900000D01*
X154000000Y-111330000D02*
X150300000Y-107630000D01*
X150300000Y-85150000D02*
X147050000Y-81900000D01*
X150300000Y-107630000D02*
X150300000Y-85150000D01*
D37*
%TO.N,Net-(Q1-E)*%
X116312500Y-99950000D02*
X112075000Y-99950000D01*
D35*
X112075000Y-99950000D02*
X112000000Y-100025000D01*
D37*
%TO.N,+5V*%
X140164684Y-108000000D02*
X139191338Y-108973346D01*
X142700000Y-108000000D02*
X140164684Y-108000000D01*
D35*
%TO.N,TMS*%
X144266751Y-92657080D02*
X144319671Y-92710000D01*
X143799617Y-92710000D02*
X143852537Y-92657080D01*
X124375000Y-114050000D02*
X127413689Y-111011311D01*
X128489185Y-103021876D02*
X134058977Y-97452084D01*
X148764441Y-92710000D02*
X149017349Y-92457092D01*
X149017349Y-92457092D02*
X149017349Y-84717349D01*
X134885187Y-96576017D02*
X138751204Y-92710000D01*
X138751204Y-92710000D02*
X143799617Y-92710000D01*
X127413689Y-111011311D02*
X127413689Y-104239823D01*
X149017349Y-84717349D02*
X148863503Y-84563503D01*
X148863503Y-84563503D02*
X147050000Y-82750000D01*
X143852537Y-92657080D02*
X144266751Y-92657080D01*
X148863503Y-84568216D02*
X148863503Y-84563503D01*
X144319671Y-92710000D02*
X148764441Y-92710000D01*
X134058977Y-97452084D02*
X134058977Y-97380859D01*
X147050000Y-82750000D02*
X146850000Y-82750000D01*
%TO.N,TDI*%
X126827873Y-109057127D02*
X126827873Y-103641425D01*
X148590000Y-84990000D02*
X147200000Y-83600000D01*
X138185518Y-92710000D02*
X138585519Y-92310000D01*
X144432437Y-92257080D02*
X144485356Y-92310000D01*
X143686852Y-92257080D02*
X144432437Y-92257080D01*
X134371783Y-96139063D02*
X137800846Y-92710000D01*
X148590000Y-92310000D02*
X148590000Y-84990000D01*
X147200000Y-83600000D02*
X146850000Y-83600000D01*
X143633931Y-92310000D02*
X143686852Y-92257080D01*
X124375000Y-111510000D02*
X126827873Y-109057127D01*
X133546760Y-96922538D02*
X133546760Y-96904731D01*
X127973407Y-102495891D02*
X133546760Y-96922538D01*
X137800846Y-92710000D02*
X138185518Y-92710000D01*
X138585519Y-92310000D02*
X143633931Y-92310000D01*
X144485356Y-92310000D02*
X148590000Y-92310000D01*
%TO.N,TDO*%
X138419834Y-91910000D02*
X143468247Y-91910000D01*
X144598122Y-91857080D02*
X144651042Y-91910000D01*
X137091576Y-92310000D02*
X138019833Y-92310000D01*
X143468247Y-91910000D02*
X143521169Y-91857080D01*
X133004826Y-96453729D02*
X133004827Y-96453729D01*
X147050000Y-84450000D02*
X146850000Y-84450000D01*
X124375000Y-108970000D02*
X126231334Y-107113666D01*
X144651042Y-91910000D02*
X148190000Y-91910000D01*
X133802547Y-95599029D02*
X137091576Y-92310000D01*
X126231334Y-107113666D02*
X126231334Y-103231609D01*
X138019833Y-92310000D02*
X138419834Y-91910000D01*
X148190000Y-91910000D02*
X148190000Y-85590000D01*
X148190000Y-85590000D02*
X147050000Y-84450000D01*
X143521169Y-91857080D02*
X144598122Y-91857080D01*
X127435035Y-102023520D02*
X133004826Y-96453729D01*
%TO.N,TCK*%
X127000000Y-101600000D02*
X127029833Y-101600000D01*
X132487055Y-96132405D02*
X132561872Y-96057588D01*
X124375000Y-104203791D02*
X125749461Y-102829330D01*
X132487055Y-96142778D02*
X132487055Y-96132405D01*
X127029833Y-101600000D02*
X132487055Y-96142778D01*
X124375000Y-106430000D02*
X124375000Y-104203791D01*
%TO.N,Enable_Motor*%
X129342043Y-86124498D02*
X131016541Y-84450000D01*
X116415000Y-98152500D02*
X116312500Y-98050000D01*
X121750000Y-98152500D02*
X121750000Y-93685772D01*
X121750000Y-98152500D02*
X116415000Y-98152500D01*
X121750000Y-93685772D02*
X125588203Y-89847569D01*
X131016541Y-84450000D02*
X132850000Y-84450000D01*
%TO.N,Enable*%
X139600001Y-99837500D02*
X139300000Y-99537499D01*
X142240000Y-97665000D02*
X142240000Y-98567500D01*
X142240000Y-98567500D02*
X140970000Y-99837500D01*
X139300000Y-99537499D02*
X139300000Y-99250000D01*
X140970000Y-99837500D02*
X139600001Y-99837500D01*
X139300000Y-99250000D02*
X139355567Y-99194433D01*
X140972499Y-99837500D02*
X140970000Y-99837500D01*
%TO.N,GPIO1*%
X138700000Y-101279137D02*
X138718767Y-101297904D01*
X138700000Y-100726000D02*
X138700000Y-101279137D01*
%TO.N,SCL*%
X139900000Y-100726000D02*
X139900000Y-101296184D01*
X139900000Y-101296184D02*
X139910304Y-101306488D01*
%TO.N,SDA*%
X140500000Y-100726000D02*
X140500000Y-101085091D01*
X140500000Y-101085091D02*
X140496437Y-101088654D01*
%TO.N,GPIO0*%
X138700000Y-99250000D02*
X138700000Y-98837818D01*
X138700000Y-98837818D02*
X138129339Y-98267157D01*
%TO.N,Hall_Effect_Sensor*%
X146025702Y-97765702D02*
X141605000Y-93345000D01*
X149595698Y-97765702D02*
X146025702Y-97765702D01*
X157656141Y-97829505D02*
X151804505Y-97829505D01*
X151804505Y-97829505D02*
X151765000Y-97790000D01*
X134892892Y-87000000D02*
X134949056Y-86943836D01*
X166625000Y-98300000D02*
X159955655Y-98300000D01*
X159955655Y-98300000D02*
X159421357Y-97765702D01*
X132850000Y-87000000D02*
X134892892Y-87000000D01*
%TO.N,D+*%
X138760000Y-118944951D02*
X138749437Y-118934388D01*
X139010000Y-122434695D02*
X139005851Y-122438844D01*
X146561394Y-108575910D02*
X146561394Y-107335297D01*
X139010000Y-121590000D02*
X139010000Y-122434695D01*
X144386768Y-94221768D02*
X145327692Y-94221768D01*
X138760000Y-119890000D02*
X138760000Y-118944951D01*
X143510000Y-93345000D02*
X144386768Y-94221768D01*
%TO.N,D-*%
X147109374Y-107375626D02*
X147134105Y-107350895D01*
X138850000Y-120650000D02*
X139065000Y-120650000D01*
X138510000Y-120990000D02*
X138850000Y-120650000D01*
X139065000Y-120650000D02*
X139260000Y-120455000D01*
X145774319Y-93721768D02*
X144624332Y-93721768D01*
X139260000Y-119890000D02*
X139260000Y-118974203D01*
X138510000Y-121590000D02*
X138510000Y-120990000D01*
X139260000Y-120455000D02*
X139260000Y-119890000D01*
X147109374Y-108884211D02*
X147109374Y-107375626D01*
X144624332Y-93721768D02*
X144059644Y-93157080D01*
X139260000Y-118974203D02*
X139319144Y-118915059D01*
%TO.N,Net-(U5-EN)*%
X128780000Y-90805000D02*
X128780000Y-81862892D01*
X128780000Y-81862892D02*
X131356446Y-79286446D01*
%TO.N,SLED*%
X132618959Y-128366041D02*
X132246372Y-128738628D01*
X132618959Y-126744710D02*
X132618959Y-128366041D01*
X131868638Y-93542429D02*
X133900000Y-91511067D01*
X130717722Y-126726148D02*
X132600397Y-126726148D01*
X132246372Y-128738628D02*
X129248977Y-128733777D01*
X132600397Y-126726148D02*
X132618959Y-126744710D01*
X123225000Y-102835000D02*
X124460000Y-101600000D01*
X125865385Y-99684485D02*
X130775560Y-94774310D01*
X123225000Y-122709800D02*
X123225000Y-102835000D01*
X129248977Y-128733777D02*
X123225000Y-122709800D01*
X125865385Y-100170297D02*
X125865385Y-99684485D01*
X133900000Y-91511067D02*
X133900000Y-89750000D01*
%TO.N,Net-(R3-Pad2)*%
X127357180Y-90805320D02*
X127357180Y-91919361D01*
X127760000Y-92322181D02*
X127760000Y-92710000D01*
X126750000Y-87700000D02*
X127357500Y-88307500D01*
X127357500Y-90805000D02*
X127357180Y-90805320D01*
X127357180Y-91919361D02*
X127760000Y-92322181D01*
X127357500Y-88307500D02*
X127357500Y-90805000D01*
X127357500Y-90805000D02*
X127760000Y-90805000D01*
%TD*%
M02*
